<?xml version="1.0" encoding="UTF-8" standalone="no"?>
<!-- Created with Inkscape (http://www.inkscape.org/) -->

<svg
   width="12pt"
   height="44.5pt"
   viewBox="0 0 12 44.5"
   version="1.1"
   id="svg1"
   xml:space="preserve"
   xmlns="http://www.w3.org/2000/svg"
   xmlns:svg="http://www.w3.org/2000/svg"><defs
     id="defs1" /><path
     id="rect7-0"
     style="display:inline;fill:#000000;fill-opacity:1;stroke-width:0;stroke-linecap:round;stroke-linejoin:round;paint-order:stroke fill markers"
     d="M 2.75,0 C 1.23111,0 0,1.23111 0,2.75 v 17 c 0,1.076111 0.628189,2 1.606934,2.5 C 0.628671,22.697563 0,23.67393 0,24.75 V 41.75 c 0,1.518402 1.23111,2.75 2.75,2.75 h 6.5 C 10.76889,44.5 12,43.268402 12,41.75 V 24.75 c 0,-1.076069 -0.628671,-2.052436 -1.606934,-2.5 C 11.371811,21.80319 12,20.82611 12,19.75 V 2.75 C 12,1.23111 10.76889,0 9.25,0 Z M 5.5,5.5 h 1 V 19.5 h -1 z m 0,19.5 h 1 V 39 h -1 z" /></svg>
