<?xml version="1.0" encoding="UTF-8" standalone="no"?>
<!-- Created with Inkscape (http://www.inkscape.org/) -->

<svg
   width="100pt"
   height="100pt"
   viewBox="0 0 100 100"
   version="1.1"
   id="svg1"
   inkscape:version="1.3.2 (091e20e, 2023-11-25)"
   sodipodi:docname="alert.svg"
   inkscape:export-filename="../../../../../Shawn/Downloads/alert.png"
   inkscape:export-xdpi="86.400002"
   inkscape:export-ydpi="86.400002"
   xmlns:inkscape="http://www.inkscape.org/namespaces/inkscape"
   xmlns:sodipodi="http://sodipodi.sourceforge.net/DTD/sodipodi-0.dtd"
   xmlns="http://www.w3.org/2000/svg"
   xmlns:svg="http://www.w3.org/2000/svg">
  <sodipodi:namedview
     id="namedview1"
     pagecolor="#505050"
     bordercolor="#eeeeee"
     borderopacity="1"
     inkscape:showpageshadow="0"
     inkscape:pageopacity="0"
     inkscape:pagecheckerboard="0"
     inkscape:deskcolor="#d1d1d1"
     inkscape:document-units="pt"
     inkscape:zoom="1.880182"
     inkscape:cx="29.518419"
     inkscape:cy="85.098145"
     inkscape:window-width="1440"
     inkscape:window-height="784"
     inkscape:window-x="0"
     inkscape:window-y="25"
     inkscape:window-maximized="1"
     inkscape:current-layer="layer1" />
  <defs
     id="defs1">
    <inkscape:path-effect
       effect="perspective-envelope"
       up_left_point="-1.190778e-08,-1.2005582e-08"
       up_right_point="100,14"
       down_left_point="-1.190778e-08,77.79"
       down_right_point="100.00049,91.788409"
       id="path-effect11"
       is_visible="true"
       lpeversion="1"
       deform_type="perspective"
       horizontal_mirror="false"
       vertical_mirror="false"
       overflow_perspective="false" />
    <inkscape:path-effect
       effect="fillet_chamfer"
       id="path-effect10"
       is_visible="true"
       lpeversion="1"
       nodesatellites_param="F,0,0,1,0,0,0,1 @ F,0,0,1,0,6,0,1 @ F,0,0,1,0,0,0,1"
       radius="0"
       unit="px"
       method="auto"
       mode="F"
       chamfer_steps="1"
       flexible="false"
       use_knot_distance="true"
       apply_no_radius="true"
       apply_with_radius="true"
       only_selected="false"
       hide_knots="false" />
    <inkscape:path-effect
       effect="fillet_chamfer"
       id="path-effect9"
       is_visible="true"
       lpeversion="1"
       nodesatellites_param="F,0,0,1,0,10,0,1 @ F,0,0,1,0,10,0,1 @ F,0,0,1,0,10,0,1 @ F,0,0,1,0,10,0,1"
       radius="10"
       unit="pt"
       method="arc"
       mode="F"
       chamfer_steps="1"
       flexible="false"
       use_knot_distance="true"
       apply_no_radius="true"
       apply_with_radius="true"
       only_selected="false"
       hide_knots="false" />
    <inkscape:path-effect
       effect="fillet_chamfer"
       id="path-effect8"
       is_visible="true"
       lpeversion="1"
       nodesatellites_param="F,0,0,1,0,4,0,1 @ F,0,0,1,0,4,0,1 @ F,0,0,1,0,4,0,1 @ F,0,0,1,0,4,0,1 @ F,0,0,1,0,4,0,1 @ F,0,0,1,0,4,0,1 @ F,0,0,1,0,4,0,1"
       radius="4"
       unit="pt"
       method="arc"
       mode="F"
       chamfer_steps="1"
       flexible="false"
       use_knot_distance="true"
       apply_no_radius="true"
       apply_with_radius="true"
       only_selected="false"
       hide_knots="false" />
    <inkscape:path-effect
       effect="fillet_chamfer"
       id="path-effect4"
       is_visible="true"
       lpeversion="1"
       nodesatellites_param="F,0,0,1,0,4,0,1 @ F,0,0,1,0,4,0,1 @ F,0,0,1,0,4,0,1 @ F,0,0,1,0,4,0,1 @ F,0,0,1,0,4,0,1 @ F,0,0,1,0,4,0,1 @ F,0,0,1,0,4,0,1"
       radius="4"
       unit="pt"
       method="arc"
       mode="F"
       chamfer_steps="1"
       flexible="false"
       use_knot_distance="true"
       apply_no_radius="true"
       apply_with_radius="true"
       only_selected="false"
       hide_knots="false" />
    <inkscape:path-effect
       effect="fillet_chamfer"
       id="path-effect3"
       is_visible="true"
       lpeversion="1"
       nodesatellites_param="F,0,0,1,0,3.75,0,1 @ F,0,0,1,0,3.75,0,1 @ F,0,0,1,0,3.75,0,1 @ F,0,0,1,0,3.75,0,1 @ F,0,0,1,0,3.75,0,1 @ F,0,0,1,0,3.75,0,1 @ F,0,0,1,0,3.75,0,1"
       radius="5"
       unit="px"
       method="arc"
       mode="F"
       chamfer_steps="1"
       flexible="false"
       use_knot_distance="true"
       apply_no_radius="true"
       apply_with_radius="true"
       only_selected="false"
       hide_knots="false" />
  </defs>
  <g
     inkscape:label="Layer 1"
     inkscape:groupmode="layer"
     id="layer1">
    <g
       id="g6"
       style="display:none">
      <path
         id="path4"
         style="fill:#ff453a;stroke-width:8.99996;stroke-linecap:round;stroke-linejoin:round;paint-order:stroke fill markers"
         d="M 10.000001,0 H 89.999999 V 79.999998 H 10.000001 Z" />
      <path
         id="path5"
         style="fill:#ff453a;stroke-width:9;stroke-linecap:round;stroke-linejoin:round;paint-order:stroke fill markers"
         d="m 60,79.999998 -10,15 L 40,80 Z"
         sodipodi:nodetypes="cccc" />
    </g>
    <g
       id="g10"
       inkscape:label="alert"
       inkscape:path-effect="#path-effect11">
      <path
         id="path8"
         style="fill:#ff453a;stroke-width:8.99996;stroke-linecap:round;stroke-linejoin:round;paint-order:stroke fill markers"
         d="M 10.000631,1.4000883 C 4.4773287,0.62659758 -2.6954463e-4,3.7943889 0,8.4753029 L 0,59.324829 c 5.3901577e-4,4.6805 4.4779195,9.101198 10.000674,9.874075 l 30.000301,4.199608 6.670939,9.415333 c 1.583312,2.234235 5.072953,2.722727 6.656249,0.931767 l 6.672311,-7.547459 29.999661,4.199518 c 5.522554,0.773307 9.999729,-2.393802 10.000235,-7.074056 l -3.2e-4,-50.848485 c 2.4e-4,-4.680744 -4.477197,-9.10216 -10.000299,-9.875165 z"
         inkscape:original-d="M 10.000488 0 A 10 10 0 0 0 0 10.000488 L 0 70.000488 A 10 10 0 0 0 10.000488 79.999512 L 40.000488 79.999512 L 46.671387 90.007324 A 4.0000003 4.0000003 0 0 0 53.327637 90.007324 L 60 79.999512 L 90 79.999512 A 10 10 0 0 0 100.00049 70.000488 L 100.00049 10.000488 A 10 10 0 0 0 90 0 L 10.000488 0 z " />
      <path
         id="path6"
         style="font-size:999.997px;line-height:1.25;font-family:Trickster;-inkscape-font-specification:Trickster;display:none;fill:#ffffff;fill-opacity:1;stroke-width:0.750002"
         d="m 43.792676,18.650905 4.849339,27.802716 2.715584,0.380159 4.849153,-26.444938 z m 6.207143,31.642191 -7.499373,5.252358 7.499413,7.460947 7.50056,-5.361109 z"
         inkscape:original-d="m 43.792331,14.773106 4.849268,32.005172 h 2.71559 L 56.206458,14.773106 Z M 49.999394,51.084429 42.5,58.52078 49.999394,66.085643 57.5,58.52078 Z" />
      <path
         id="path13"
         style="font-size:100px;line-height:0.9;font-family:Trickster;-inkscape-font-specification:Trickster;text-align:center;text-anchor:middle;display:none;fill:#ffffff;fill-opacity:1;stroke-width:0.75"
         d="m 9.5356403,18.378984 3.4211987,3.738238 0.700335,5.007808 -0.07599,1.195335 -4.2690445,2.681852 4.1200395,0.196676 -0.199665,3.843795 4.094703,0.594696 -0.274177,-4.334425 c 5.293641,-0.147709 8.040372,-1.815239 8.040367,-5.031794 -6e-6,-3.745592 -5.369984,-6.169666 -15.5577638,-7.892179 z m 32.4609207,4.565877 -1.722486,3.144401 c 3.545707,1.067743 4.470148,2.551932 4.470152,3.800458 5e-6,1.777562 -2.173318,3.229136 -5.219626,5.342049 0.524374,2.35885 2.746879,4.172923 5.268825,4.525978 1.8977,0.265664 4.469994,-0.36945 5.593622,-2.666877 l -0.199656,3.146705 4.294304,0.601172 -0.299525,-8.040437 0.350139,-5.728238 -8e-6,-2.094966 -4.245127,-0.594302 0.324853,7.028701 c 0.174799,3.897012 -0.550153,6.058878 -3.047123,5.709319 -1.747882,-0.244692 -3.394823,-1.406341 -3.944163,-3.345454 2.24727,-2.140124 3.820466,-4.352983 3.820459,-6.680741 -7e-6,-2.07382 -1.749118,-3.630408 -5.44464,-4.147768 z m 39.42783,5.519753 c -1.672938,1.416373 -2.746636,3.12799 -3.196074,4.948425 l -0.874646,-0.122446 c -2.197301,0.898583 -3.145434,2.331643 -3.145427,4.003388 2e-5,4.274593 6.317351,6.916127 11.236313,8.176101 l 1.123463,-2.869608 c 2.821521,-1.319066 4.119879,-3.358967 4.119867,-5.517416 -1.5e-5,-2.602835 -1.697793,-6.585854 -9.263496,-8.618442 z m -54.90799,-7.41163 1.671852,3.598139 0.275669,4.757656 -0.399328,4.536886 -2.8475,1.272049 c 4.145012,1.913451 7.690835,2.727406 12.784684,3.546316 l 0,-0.06314 0.02532,0.0035 -1.5e-5,-6.241989 -1.248662,0.24823 6e-6,2.624087 c -2.072495,-0.163166 -3.520086,-0.344698 -4.693669,-0.572479 l -0.54984,-4.923581 0.698821,-7.837565 z m 30.736714,4.303026 -0.49915,3.65408 5.918419,-1.435622 0.174349,3.643551 -5.5936,-0.783077 -0.49915,3.654082 6.143415,-1.488739 0.0745,1.42854 -0.4738,7.932162 4.443286,0.622029 -0.29953,-8.040417 0.09982,-1.467273 6.217911,3.282393 -0.549838,-3.800922 -5.592086,-0.782866 0.174321,-2.959556 -3e-6,-0.678114 5.967582,3.14254 -0.549837,-3.800921 z m 22.947984,6.047576 c 5.643073,1.678779 8.089343,3.926296 8.089359,6.84655 8e-6,1.523612 -0.798943,2.808802 -2.571758,3.597523 -2.122391,-0.572219 -4.244657,-1.166033 -5.967547,-1.915099 l 2.771441,-0.607086 c -1.697928,-2.523119 -2.497302,-4.730262 -2.497312,-6.655939 -2e-6,-0.444389 0.05097,-0.8602 0.175817,-1.265949 z M 17.053028,22.986165 c 3.670591,0.97942 6.615878,2.471731 6.615881,4.122331 2e-6,1.312017 -0.823338,2.064247 -5.517698,1.576355 l -1.274005,-0.136674 -0.0745,-1.067392 z m 61.075458,10.857397 c -0.0749,0.497387 -0.125157,0.977317 -0.125154,1.48519 7e-6,1.396648 0.374457,2.824869 1.023668,4.27008 -1.697922,-0.830217 -2.820626,-1.834168 -2.820633,-3.125008 -5e-6,-1.015743 0.573778,-1.80328 1.922119,-2.630262 z m -34.795295,10.028815 -0.524497,-0.01029 0.724185,7.761489 -0.37398,8.370491 4.294323,0.601156 -2.722352,-11.428025 5.644312,4.980097 -0.424641,6.797524 3.920309,0.548798 -0.475347,-6.943709 5.444598,-3.36461 -2.49727,10.654371 4.294298,0.601153 -0.374033,-8.475175 0.724131,-7.558708 -0.524494,-0.136562 -8.564734,5.170527 z m 19.051691,2.73022 3.047135,3.325936 0.323365,6.562519 -0.399315,3.541786 10e-7,0.212149 -3.370458,1.220312 c 3.495745,1.314661 7.265706,2.32881 12.334514,3.101869 l 1.424456,-2.657017 -6.243231,-0.471154 -0.57368,-3.931814 c 1.223509,0.446377 3.245243,1.024735 4.169114,1.217552 l 1.373796,-2.516359 -4.094607,-0.573205 -1.473635,1.274959 0.424629,-6.394663 5.417758,1.541365 1.847622,-2.534628 z m -27.741674,-3.840676 1.624167,3.465178 0.223518,4.834968 -0.473818,7.932228 4.17066,0.583845 -0.301011,-8.04069 0.350148,-5.72827 -6e-6,-2.116436 z m -16.679732,-2.165813 -0.499168,3.654121 5.918532,-1.435657 0.174344,3.642326 -5.593701,-0.783066 -0.499168,3.655386 6.142043,-1.488984 0.07599,1.428763 -0.475319,7.93204 4.444855,0.622228 -0.299515,-8.040501 0.09983,-1.468551 6.218016,3.283669 -0.549838,-3.802224 -5.593678,-0.783064 0.175823,-2.958116 -2e-6,-0.678122 5.967684,3.142554 -0.549837,-3.80096 z m 59.752348,8.364843 1.873016,10.737006 1.04898,0.146846 1.872907,-10.212604 z m 2.39751,11.677964 -2.896602,2.027895 2.896627,2.88182 2.896598,-2.070833 z"
         inkscape:original-d="m 9.5354927,20.1112 3.4211523,3.845816 0.700323,5.79331 -0.07599,1.422997 -4.2689905,3.869656 4.1199845,-0.448505 -0.199666,4.568489 4.094654,0.02533 -0.274169,-5.069144 c 5.29359,-1.04873 8.040302,-3.470073 8.040302,-7.265477 0,-4.419649 -5.369933,-6.392894 -15.5575974,-6.74247 z m 32.4607093,0.02533 -1.722495,3.99482 c 3.545706,0.674184 4.470145,2.272767 4.470145,3.745983 0,2.09746 -2.173329,4.169272 -5.219641,7.165645 0.524367,2.696734 2.746866,4.470145 5.268812,4.470145 1.897702,0 4.470004,-1.174321 5.593643,-4.070813 L 50.187,39.188292 h 4.29432 l -0.299499,-9.437967 0.35016,-6.816974 V 20.46136 h -4.245148 l 0.324832,8.23997 c 0.174787,4.569466 -0.550174,7.240147 -3.04715,7.240147 -1.747885,0 -3.394825,-1.098649 -3.94416,-3.295988 2.247279,-2.896493 3.820485,-5.767465 3.820485,-8.514139 0,-2.447036 -1.749112,-3.99482 -5.444638,-3.99482 z m 39.428178,0 c -1.672975,1.947641 -2.746699,4.14467 -3.196154,6.366978 h -0.874659 c -2.197339,1.423277 -3.145493,3.27087 -3.145493,5.243481 0,5.043894 6.317414,7.117282 11.236456,7.791465 l 1.1235,-3.571646 c 2.821585,-2.022549 4.119982,-4.644057 4.119982,-7.190974 0,-3.071281 -1.697792,-7.490692 -9.263632,-8.639302 z m -54.908294,0.32483 1.671836,3.969491 0.275659,5.568311 -0.399333,5.419308 -2.847483,1.971334 c 4.144981,1.573095 7.690785,1.947809 12.784617,2.072658 v -0.0745 h 0.02532 v -7.365308 l -1.248661,0.499166 v 3.096322 c -2.072489,0.149819 -3.520074,0.174742 -4.693652,0.09983 L 31.534561,29.999165 32.233395,20.6357 Z m 30.736725,0 -0.499167,4.394154 5.918474,-2.671657 0.174336,4.27048 h -5.593643 l -0.499167,4.394153 6.14347,-2.771491 0.0745,1.673326 -0.473836,9.437967 h 4.443327 l -0.2995,-9.437967 0.09983,-1.747829 6.217973,2.845994 -0.549828,-4.394153 h -5.592152 l 0.174335,-3.520986 v -0.800155 l 5.967645,2.722318 -0.549828,-4.394154 z m 22.94824,3.34516 c 5.643168,1.048731 8.089475,3.296644 8.089475,6.74247 0,1.797824 -0.798975,3.446294 -2.571828,4.669814 -2.122428,-0.324608 -4.244728,-0.674718 -5.967643,-1.273993 l 2.771491,-1.174158 c -1.697944,-2.696734 -2.497321,-5.169055 -2.497321,-7.441302 0,-0.524367 0.05098,-1.023434 0.175826,-1.522831 z m -63.148263,0.499167 c 3.670555,0.549333 6.615816,1.823671 6.615816,3.771312 0,1.548126 -0.823334,2.571733 -5.517651,2.771491 l -1.273991,0.04918 -0.0745,-1.247171 z m 61.075604,2.722318 c -0.0749,0.599275 -0.125164,1.173883 -0.125164,1.773159 0,1.648005 0.374449,3.271412 1.023664,4.869479 -1.697945,-0.699155 -2.820662,-1.698331 -2.820662,-3.221485 0,-1.198549 0.573795,-2.222604 1.922162,-3.421153 z m -34.795616,17.581439 -0.524497,0.0745 0.724164,9.038636 -0.374003,9.938624 h 4.294321 l -2.72232,-13.034945 5.644305,4.943981 -0.424663,8.090964 h 3.920318 l -0.475326,-8.114801 5.444638,-4.869479 -2.497322,12.984284 h 4.29432 l -0.374003,-9.938625 0.724165,-9.038634 -0.524498,-0.0745 -8.564799,7.515805 z m 19.051762,0.0745 3.047149,3.421152 0.323341,7.690142 -0.399333,4.245148 v 0.250328 l -3.37049,1.996665 c 3.495767,0.973821 7.26576,1.547754 12.334622,1.622663 l 1.424487,-3.37049 -6.243303,0.475326 -0.573669,-4.544649 c 1.22352,0.324608 3.245275,0.673094 4.169156,0.748004 l 1.373826,-3.196153 h -4.094655 l -1.473657,1.747831 0.424662,-7.615639 5.417818,0.923829 1.84766,-3.295986 z m -27.741726,0.05066 1.624154,3.820485 0.223506,5.668146 -0.473835,9.437968 h 4.170646 l -0.300991,-9.437968 0.350162,-6.816973 V 44.90895 Z m -16.679605,0.199666 -0.499167,4.394155 5.918474,-2.671657 0.174337,4.268989 h -5.593643 l -0.499167,4.395644 6.141982,-2.771491 0.07599,1.673325 -0.475326,9.437968 h 4.444815 l -0.299499,-9.437968 0.09983,-1.749317 6.217972,2.847483 -0.549827,-4.395644 h -5.593644 l 0.175827,-3.519495 v -0.800156 l 5.967644,2.722319 -0.549827,-4.394155 z m 59.752442,0 1.872991,12.359955 h 1.048995 L 82.510626,44.93427 Z m 2.397488,13.383619 -2.896654,2.871323 2.896654,2.921987 2.896655,-2.921987 z"
         sodipodi:nodetypes="cccccccccsscccscsccccccccscscsccsccsssccccccccccccccccccccccccccccccccccccscccsccscccccscscccccccccccccccccccccccccccccccccccccccccccccccccccccccccccccccccccccccccccc" />
      <path
         id="path18"
         style="font-size:42px;line-height:1;font-family:Trickster;-inkscape-font-specification:Trickster;text-align:center;text-anchor:middle;fill:#ffffff;fill-opacity:1;stroke-width:0.75"
         d="m 39.462627,17.389515 -3.051473,1.988451 -0.807436,-2.407323 -0.604813,-0.01108 0.548467,9.886571 -0.287912,9.183332 4.520092,0.632783 -0.287955,-9.411132 0.230026,-5.945591 -1e-5,-3.782923 z m -23.811688,-2.748704 3.94426,4.310594 0.805923,5.774324 -0.08684,1.378364 -4.922322,3.092556 4.750174,0.226021 -0.230037,4.433735 4.721219,0.685466 -0.315363,-4.998123 c 6.104188,-0.170323 9.270252,-2.094212 9.270245,-5.803282 -1e-5,-4.319111 -6.189557,-7.113388 -17.937262,-9.09966 z m 46.989391,8.017959 -6.01757,3.623456 2e-6,0.463504 2.39028,0.871725 0.316892,4.534793 -0.517957,3.366969 c -0.374299,2.509775 2.303313,4.447504 4.577954,4.765938 2.159468,0.302311 3.800523,-0.420531 6.017559,-3.233566 l -0.720585,-0.56438 c -1.209295,1.172794 -2.130369,1.409878 -3.109328,1.272829 -1.439645,-0.201541 -2.533327,-1.087093 -2.504542,-2.864381 l 0.143177,-6.568413 5.327457,0.745822 c 0.259132,-0.768974 0.518418,-1.732758 0.604793,-2.281903 l -5.93226,-0.830495 -0.05638,-3.155579 z m 14.97231,4.146329 c -1.180496,0.688787 -2.188249,1.304161 -3.455126,2.200471 -2.476168,1.727479 -4.548949,3.780129 -4.548939,6.000674 1.4e-5,3.245414 3.081789,5.530608 7.371918,7.229269 2.418584,-0.68628 7.370331,-1.432774 7.370313,-4.824588 -2.1e-5,-3.928647 -6.939243,-7.486821 -6.93925,-8.804503 -2e-6,-0.414828 0.346122,-0.634404 0.979559,-1.009353 z M 24.317941,19.953423 c 4.232622,1.129391 7.629493,2.84957 7.629497,4.752909 3e-6,1.51291 -0.950344,2.380476 -6.363489,1.817878 l -1.468619,-0.156539 -0.08531,-1.232039 z m 22.198275,3.181275 -4.634335,-0.257588 0.315374,6.704936 c 4e-6,1.756925 -0.373239,3.242513 -0.373234,4.926235 2e-6,0.976069 2.102072,3.052069 3.772074,3.285858 1.641208,0.229758 3.540803,-0.579028 5.038037,-2.175152 l 10e-7,0.415735 0.201104,2.687818 4.722679,-0.169033 c -0.633459,-3.773333 -0.979603,-8.238264 -0.979609,-10.09279 -6e-6,-1.732519 0.317322,-3.201267 0.403698,-4.140838 l -4.63584,-0.257799 0.173694,6.880044 c -0.08638,3.379743 -0.95062,5.235308 -2.678206,4.993457 -0.748619,-0.104802 -1.498011,-1.37984 -1.872326,-2.725533 z m 27.268065,7.404083 c 3.800654,2.850221 6.419757,5.804627 6.419769,8.19598 4e-6,0.805252 -0.200782,1.386541 -0.431121,1.769122 -4.520469,-2.487356 -6.392332,-4.677538 -6.392346,-7.800941 -4e-6,-0.732047 0.08699,-1.476452 0.403698,-2.164161 z m -34.11898,9.127366 c -0.100329,-0.02176 -0.202391,-0.03537 -0.303167,-0.03727 l -0.51797,1.953229 c -1.036557,-0.14511 -2.390155,-0.358622 -3.801023,0.02952 -0.431896,2.086898 1.093248,4.301364 3.281536,4.607706 0.547067,-1.63154 1.555133,-4.638915 2.073406,-6.176876 -0.151164,-0.167572 -0.431803,-0.311287 -0.732782,-0.376298 z m -24.346454,-0.327739 -0.575869,4.213616 6.825141,-1.655163 0.201103,4.201017 -6.45037,-0.902992 -0.575868,4.21362 7.084131,-1.717041 0.08531,1.647779 -0.546914,9.147132 5.126467,0.717644 -0.345843,-9.272098 0.114258,-1.692142 7.169419,3.784694 -0.632246,-4.382728 -6.45034,-0.902988 0.201092,-3.412651 -10e-7,-0.781124 6.881481,3.623029 -0.632245,-4.382726 z m 63.83561,8.936479 2.158758,12.380382 1.209603,0.169332 2.158633,-11.775982 z m -4.233602,2.212875 -1.381749,0.831696 c -4.635646,-0.64895 -8.177794,1.588704 -8.177779,5.29776 1.7e-5,4.17269 3.254115,7.287004 10.452334,9.807572 l 0.979547,-4.230652 c -4.923575,-1.372493 -7.889729,-2.66619 -9.300584,-3.986173 l 9.934308,-0.805451 -0.231567,-1.105316 -0.748005,0.06571 c -1.439642,-1.177601 -2.073402,-2.388159 -2.073406,-3.339823 -4e-6,-0.805254 0.432346,-1.452381 1.238543,-1.778749 z M 51.310582,48.158597 c -1.583619,-0.221693 -3.253477,0.447935 -4.577955,2.873508 l -0.02894,-1.004657 -0.230047,-2.349732 -4.693756,-0.02315 1.12281,9.234935 -0.546908,4.535267 4.635869,0.648967 -0.08532,-3.891712 c -1.5e-5,-5.197581 0.66131,-8.154989 2.12976,-7.94942 0.863793,0.120924 1.843681,1.331008 2.189202,2.599464 l -0.54841,9.757556 4.635854,0.648965 -0.172169,-3.903863 c -1.8e-5,-5.197572 0.662825,-8.154762 2.13127,-7.949193 0.863789,0.120922 1.842152,1.330792 2.187673,2.599246 l -0.546879,9.757753 4.635836,0.648962 -0.316903,-6.780028 c -0.05759,-1.228148 0.604033,-3.428653 1.035921,-4.36866 -1.180517,-2.361414 -3.051163,-3.697488 -4.721155,-3.931272 -1.353272,-0.189446 -2.765357,0.271986 -3.974657,1.932823 -1.180521,-1.824579 -2.792643,-2.880186 -4.26109,-3.085755 z M 39.62114,47.6945 l -4.577986,-0.0069 0.95065,5.476969 -0.575851,7.289025 4.63436,0.648755 C 40.052302,56.636771 39.909085,52.151537 39.62114,47.6945 Z m 30.145955,6.439558 c 0.403101,0.05643 0.835759,0.166584 1.296446,0.328675 0.05759,0.862119 0.315512,1.508016 0.920164,2.275907 l -5.296985,0.429499 c -0.143965,-0.312973 -0.201096,-0.613277 -0.201097,-0.906097 -6e-6,-1.512904 1.323557,-2.402074 3.281472,-2.127984 z m 12.150928,7.606475 -3.339344,2.339368 3.339373,3.322085 3.339339,-2.387141 z"
         inkscape:original-d="m 39.462281,14 -3.051475,2.85038 -0.80743,-2.707174 -0.604811,0.08684 0.548443,11.575191 -0.287931,10.883542 h 4.520081 l -0.287931,-11.057221 0.23004,-7.053583 V 14.11426 Z m -23.811559,0.690125 3.944217,4.43477 0.805908,6.680337 -0.08684,1.640758 -4.922275,4.462193 4.750125,-0.517974 -0.230041,5.26962 4.721177,0.02894 -0.315353,-5.845486 c 6.104151,-1.209313 9.270207,-4.002426 9.270207,-8.378987 0,-5.09639 -6.189517,-7.371073 -17.937127,-7.774177 z m 46.989361,1.698649 -6.017635,5.269621 v 0.54692 l 2.390295,0.633756 0.316878,5.298566 -0.517974,4.058477 c -0.374311,3.023283 2.303315,4.867431 4.577974,4.867431 2.159488,0 3.800563,-1.124014 6.017637,-4.809539 l -0.720592,-0.546919 c -1.209313,1.583624 -2.130399,2.015526 -3.109367,2.015526 -1.439659,0 -2.533348,-0.86426 -2.504555,-2.96616 l 0.143204,-7.774178 h 5.327513 c 0.259138,-0.950174 0.518432,-2.130244 0.60481,-2.792488 h -5.932323 l -0.05637,-3.714177 z m 14.972489,2.419242 c -1.180519,1.00776 -2.18829,1.900358 -3.45519,3.167257 -2.476211,2.447419 -4.549028,5.211891 -4.549028,7.832068 0,3.829491 3.081804,6.016879 7.371986,7.312571 2.418625,-1.209312 7.370462,-2.908129 7.370462,-6.910379 0,-4.6357 -6.939326,-7.687955 -6.939326,-9.242785 0,-0.489485 0.34613,-0.805756 0.97958,-1.352825 z m -53.29493,0.719069 c 4.232595,0.63345 7.629448,2.102066 7.629448,4.347933 0,1.785176 -0.950345,2.965858 -6.363459,3.196204 l -1.468608,0.05789 -0.08531,-1.439664 z m 22.198222,0.08684 -4.634342,0.461605 0.315356,7.859491 c 0,2.073107 -0.373247,3.887703 -0.373247,5.874432 0,1.151725 2.102065,3.254094 3.772068,3.254094 1.64121,0 3.540813,-1.268128 5.038057,-3.398823 v 0.490552 l 0.201096,3.138312 4.722702,-0.97958 c -0.63345,-4.347767 -0.97958,-9.559059 -0.97958,-11.747339 0,-2.044316 0.317335,-3.829811 0.403715,-4.952743 l -4.635865,0.461605 0.173673,8.089531 c -0.08639,4.00225 -0.95064,6.334515 -2.67823,6.334515 -0.748621,0 -1.49801,-1.380709 -1.872322,-2.906747 z m 27.268272,4.23215 c 3.800698,2.735351 6.419829,5.788821 6.419829,8.610552 0,0.950174 -0.200792,1.669248 -0.431137,2.158732 -4.520527,-2.18828 -6.392406,-4.463421 -6.392406,-8.148946 0,-0.863795 0.087,-1.756543 0.403714,-2.620338 z M 39.6649,40.252134 c -0.100329,-0.0091 -0.202391,-0.0083 -0.303167,0.0061 l -0.517974,2.390296 c -1.036554,0 -2.390149,-0.02834 -3.801013,0.662703 -0.431899,2.533799 1.093235,4.894851 3.281516,4.894851 0.54707,-2.01552 1.555141,-5.730623 2.073418,-7.630971 -0.151164,-0.172758 -0.431802,-0.295979 -0.73278,-0.322972 z m -24.346291,3.634957 -0.575865,5.067001 6.825067,-3.08042 0.201095,4.923798 h -6.450297 l -0.575865,5.067002 7.084053,-3.196203 0.08531,1.930214 -0.54692,10.883543 h 5.126417 l -0.345825,-10.883543 0.11426,-2.015527 7.169366,3.281516 -0.632233,-5.067002 h -6.450298 l 0.201096,-4.06 v -0.921693 l 6.881434,3.138313 -0.632233,-5.067003 z m 63.835698,0 2.15873,14.251895 h 1.209622 l 2.158732,-14.251899 z m -4.233675,3.31046 -1.381771,1.209621 c -4.635699,0 -8.177892,3.225468 -8.177892,7.602029 0,4.92363 3.254115,8.060896 10.452406,9.846071 l 0.97958,-5.153839 c -4.923631,-0.806209 -7.889812,-1.842772 -9.300676,-3.167258 l 9.934432,-2.591391 -0.231565,-1.265989 -0.748015,0.201095 c -1.439657,-1.151727 -2.073419,-2.475461 -2.073419,-3.598394 0,-0.950175 0.432359,-1.785183 1.238568,-2.303459 z m -23.610464,1.15173 c -1.583623,0 -3.253487,1.06597 -4.577974,4.146838 l -0.02894,-1.180676 -0.230041,-2.734596 -4.693756,0.748015 1.122784,10.711393 -0.546919,5.441771 h 4.635865 l -0.08531,-4.577974 c 0,-6.132943 0.661335,-9.731813 2.129787,-9.731813 0.863795,0 1.843682,1.265994 2.1892,2.705651 l -0.548443,11.604136 h 4.635866 l -0.172156,-4.577974 c 0,-6.132943 0.662857,-9.731813 2.131309,-9.731813 0.863794,0 1.842159,1.265994 2.187677,2.705651 l -0.546919,11.604136 h 4.635865 l -0.316878,-7.947851 c -0.05759,-1.439658 0.604051,-4.14547 1.035947,-5.325988 -1.180518,-2.591386 -3.051174,-3.858906 -4.721177,-3.858906 -1.35328,0 -2.765375,0.777729 -3.974688,2.937216 -1.18052,-1.957935 -2.792645,-2.937216 -4.261097,-2.937216 z m -11.689449,1.383295 -4.577973,0.748016 0.950634,6.305569 -0.575865,8.695865 h 4.634342 c 0,-5.269148 -0.143205,-10.537887 -0.431138,-15.74945 z m 30.146073,2.618815 c 0.403105,0 0.835768,0.05851 1.296459,0.173674 0.05759,1.00776 0.315509,1.727293 0.920165,2.533501 l -5.297044,1.38177 c -0.143965,-0.345517 -0.201095,-0.690429 -0.201095,-1.035946 0,-1.785176 1.32358,-3.052999 3.281515,-3.052999 z m 12.151057,6.96827 -3.339407,3.311985 L 81.917849,66 85.257256,62.631646 Z" />
    </g>
  </g>
</svg>
