<?xml version="1.0" encoding="UTF-8" standalone="no"?>
<svg
   width="100pt"
   height="100pt"
   viewBox="0 0 100 100"
   version="1.1"
   id="svg2"
   sodipodi:docname="pluto.svg"
   inkscape:version="1.3.2 (091e20e, 2023-11-25)"
   inkscape:export-filename="pluto.png"
   inkscape:export-xdpi="21.6"
   inkscape:export-ydpi="21.6"
   xmlns:inkscape="http://www.inkscape.org/namespaces/inkscape"
   xmlns:sodipodi="http://sodipodi.sourceforge.net/DTD/sodipodi-0.dtd"
   xmlns="http://www.w3.org/2000/svg"
   xmlns:svg="http://www.w3.org/2000/svg">
  <defs
     id="defs2">
    <inkscape:path-effect
       effect="perspective-envelope"
       up_left_point="10.894315,2.2388385e-06"
       up_right_point="89.11,12"
       down_left_point="10.894315,88"
       down_right_point="89.105684,100"
       id="path-effect3"
       is_visible="true"
       lpeversion="1"
       deform_type="perspective"
       horizontal_mirror="false"
       vertical_mirror="false"
       overflow_perspective="false" />
  </defs>
  <sodipodi:namedview
     id="namedview2"
     pagecolor="#505050"
     bordercolor="#eeeeee"
     borderopacity="1"
     inkscape:showpageshadow="0"
     inkscape:pageopacity="0"
     inkscape:pagecheckerboard="0"
     inkscape:deskcolor="#d1d1d1"
     inkscape:document-units="pt"
     inkscape:zoom="1.5285592"
     inkscape:cx="6.5421084"
     inkscape:cy="39.906861"
     inkscape:window-width="1440"
     inkscape:window-height="784"
     inkscape:window-x="0"
     inkscape:window-y="25"
     inkscape:window-maximized="1"
     inkscape:current-layer="svg2" />
  <path
     id="path3"
     style="color:#000000;display:none;fill:#ffffff;fill-opacity:1;stroke-width:0.999999;stroke-linecap:round;stroke-linejoin:round;stroke-miterlimit:10;-inkscape-stroke:none"
     d="M 49.478106,0.01277233 A 10.854711,10.854711 0 0 0 50,21.71592 c 6.004608,0 10.857938,-4.874749 10.857938,-10.870667 A 10.853492,10.853492 0 0 0 49.478106,0.01277233 Z m -32.217399,0.0636437 a 6.5173087,6.5173087 0 0 0 -6.36456,6.67006007 c 0.282461,12.2301079 5.282091,22.1600599 12.690932,28.6277879 5.680304,4.95876 12.704933,7.344524 19.895612,8.464864 v 10.53971 H 28.271394 a 6.5173087,6.5173087 0 0 0 -6.517308,6.517309 6.5173087,6.5173087 0 0 0 6.517308,6.517309 H 43.482691 V 93.482693 A 6.5173087,6.5173087 0 0 0 50,99.999998 6.5173087,6.5173087 0 0 0 56.517309,93.482693 V 67.413456 h 15.211297 a 6.5173087,6.5173087 0 0 0 6.517308,-6.517309 6.5173087,6.5173087 0 0 0 -6.517308,-6.517309 H 56.517309 v -10.53971 c 7.190679,-1.12034 14.215308,-3.506104 19.895612,-8.464864 7.40884,-6.467728 12.408471,-16.39768 12.690932,-28.6277879 A 6.5173087,6.5173087 0 0 0 82.739293,0.07641794 6.5173087,6.5173087 0 0 0 76.069235,6.4409773 C 75.861415,15.439239 72.583299,21.413656 67.833495,25.560114 63.083691,29.70657 56.587206,31.911944 50,31.911944 c -6.587206,0 -13.083691,-2.205374 -17.833495,-6.35183 -4.749804,-4.146458 -8.02792,-10.120875 -8.23574,-19.1191367 A 6.5173087,6.5173087 0 0 0 17.260707,0.07641603 Z" />
  <path
     id="path1"
     style="color:#000000;fill:#555555;stroke-width:0.999999;stroke-linecap:round;stroke-linejoin:round;stroke-miterlimit:10;-inkscape-stroke:none;fill-opacity:1"
     d="M 49.480087,5.9311424 C 43.487278,5.1393525 38.746395,8.7901911 38.890411,14.085943 c 0.144015,5.295717 5.118347,10.231426 11.11113,11.024869 6.004871,0.92129 10.858553,-2.623985 10.858718,-7.900604 C 60.855724,11.755305 55.670793,6.6164266 49.480087,5.9311424 Z M 17.261013,1.044041 C 13.660995,0.56509926 10.810782,2.7564097 10.896147,5.9374859 11.178618,16.74376 16.178408,26.249459 23.587451,33.077906 c 5.68043,5.235295 12.705234,8.412575 19.896106,10.501747 l -1.9e-4,9.274955 -15.211638,-2.333869 c -3.599484,-0.552256 -6.517458,1.567787 -6.51748,4.735236 -2.1e-5,3.167436 2.917897,6.182834 6.517355,6.73509 l 15.211529,2.333869 -4.69e-4,22.940158 c -6.2e-5,3.167322 2.91778,6.182627 6.517188,6.734885 3.59941,0.552259 6.517384,-1.567657 6.517477,-4.734979 l 6.56e-4,-22.940158 15.211612,2.333881 c 3.599492,0.552261 6.517566,-1.567748 6.517699,-4.735184 1.34e-4,-3.16745 -2.917744,-6.18288 -6.517261,-6.735142 l -15.211721,-2.333881 2.65e-4,-9.274954 c 7.190948,0.117364 14.215902,-0.904333 19.896598,-4.396566 7.409407,-4.554965 12.409697,-12.526474 12.6927,-23.246072 0.08552,-3.154882 -2.764605,-6.220768 -6.364667,-6.846477 -3.600013,-0.627442 -6.587176,1.422479 -6.670693,4.577706 -0.208154,7.886926 -3.486642,12.641632 -8.2368,15.561855 -4.750133,2.920205 -11.246938,3.864215 -17.834396,2.853537 C 43.413872,33.072866 36.917187,30.13534 32.167261,25.757607 27.417319,21.379855 24.139119,15.619225 23.931356,7.6685275 23.847996,4.4877134 20.860988,1.5212354 17.261013,1.044041 Z"
     inkscape:path-effect="#path-effect3"
     inkscape:original-d="M 49.478106,0.01277233 A 10.854711,10.854711 0 0 0 50,21.71592 c 6.004608,0 10.857938,-4.874749 10.857938,-10.870667 A 10.853492,10.853492 0 0 0 49.478106,0.01277233 Z m -32.217399,0.0636437 a 6.5173087,6.5173087 0 0 0 -6.36456,6.67006007 c 0.282461,12.2301079 5.282091,22.1600599 12.690932,28.6277879 5.680304,4.95876 12.704933,7.344524 19.895612,8.464864 v 10.53971 H 28.271394 a 6.5173087,6.5173087 0 0 0 -6.517308,6.517309 6.5173087,6.5173087 0 0 0 6.517308,6.517309 H 43.482691 V 93.482693 A 6.5173087,6.5173087 0 0 0 50,99.999998 6.5173087,6.5173087 0 0 0 56.517309,93.482693 V 67.413456 h 15.211297 a 6.5173087,6.5173087 0 0 0 6.517308,-6.517309 6.5173087,6.5173087 0 0 0 -6.517308,-6.517309 H 56.517309 v -10.53971 c 7.190679,-1.12034 14.215308,-3.506104 19.895612,-8.464864 7.40884,-6.467728 12.408471,-16.39768 12.690932,-28.6277879 A 6.5173087,6.5173087 0 0 0 82.739293,0.07641794 6.5173087,6.5173087 0 0 0 76.069235,6.4409773 C 75.861415,15.439239 72.583299,21.413656 67.833495,25.560114 63.083691,29.70657 56.587206,31.911944 50,31.911944 c -6.587206,0 -13.083691,-2.205374 -17.833495,-6.35183 -4.749804,-4.146458 -8.02792,-10.120875 -8.23574,-19.1191367 A 6.5173087,6.5173087 0 0 0 17.260707,0.07641603 Z"
     inkscape:label="pluto" />
</svg>
