<?xml version="1.0" encoding="UTF-8" standalone="no"?>
<!-- Created with Inkscape (http://www.inkscape.org/) -->

<svg
   width="12pt"
   height="57.5pt"
   viewBox="0 0 12 57.5"
   version="1.1"
   id="svg1"
   xmlns="http://www.w3.org/2000/svg"
   xmlns:svg="http://www.w3.org/2000/svg">
  <defs
     id="defs1" />
  <g
     id="layer1">
    <path
       id="rect1-71-6-2-1-3-3"
       style="display:inline;fill:#000000;fill-opacity:1;stroke:#000000;stroke-width:0;stroke-linecap:round;stroke-linejoin:round"
       d="M 2.75,0 C 1.23127,0 0,1.2309734 0,2.75 V 26 c 0,1.188219 0.93699,2.75 2.75,2.75 C 1.23111,28.75 0,30 0,31.5 v 23.25 c -0,1.518243 1.23073,2.75 2.75,2.75 h 6.5 c 1.51824,0 2.75,-1.23073 2.75,-2.75 v -23.25 C 12,30 10.76889,28.75 9.25,28.750732 10.76889,28.750461 12,27.519622 12,26 V 2.75 C 12,1.2315125 10.76927,0 9.25,0 Z M 5.5,5.5 H 6.5 V 26 H 5.5 Z m 0,26 H 6.5 V 52 H 5.5 Z" />
  </g>
</svg>
