<?xml version="1.0" encoding="UTF-8" standalone="no"?>
<!-- Created with Inkscape (http://www.inkscape.org/) -->

<svg
   width="12pt"
   height="31.5pt"
   viewBox="0 0 12 31.5"
   version="1.1"
   id="svg1"
   xml:space="preserve"
   xmlns="http://www.w3.org/2000/svg"
   xmlns:svg="http://www.w3.org/2000/svg"><defs
     id="defs1" /><path
     id="rect7-0"
     style="display:inline;fill:#000000;fill-opacity:1;stroke-width:0;stroke-linecap:round;stroke-linejoin:round;paint-order:stroke fill markers"
     d="M 2.75,0 C 1.23111,0 0,1.23111 0,2.75 v 10.5 c 0,1.076111 0.628189,2 1.606934,2.5 C 0.628671,16.197564 0,17.173931 0,18.25 v 10.5 c 0,1.518402 1.23111,2.75 2.75,2.75 h 6.5 C 10.76889,31.5 12,30.268402 12,28.75 V 18.25 C 12,17.173931 11.371329,16.197564 10.393066,15.75 11.371811,15.303191 12,14.326111 12,13.25 V 2.75 C 12,1.23111 10.76889,0 9.25,0 Z M 5.5,5.5 h 1 V 13 h -1 z M 5.5,18.5 h 1 V 26 h -1 z" /></svg>
