<?xml version="1.0" encoding="UTF-8" standalone="no"?>
<!-- Created with Inkscape (http://www.inkscape.org/) -->

<svg
   width="100pt"
   height="100pt"
   viewBox="0 0 100 100"
   version="1.1"
   id="svg1"
   inkscape:version="1.3.2 (091e20e, 2023-11-25)"
   sodipodi:docname="app-template.svg"
   xmlns:inkscape="http://www.inkscape.org/namespaces/inkscape"
   xmlns:sodipodi="http://sodipodi.sourceforge.net/DTD/sodipodi-0.dtd"
   xmlns="http://www.w3.org/2000/svg"
   xmlns:svg="http://www.w3.org/2000/svg">
  <sodipodi:namedview
     id="namedview1"
     pagecolor="#505050"
     bordercolor="#eeeeee"
     borderopacity="1"
     inkscape:showpageshadow="0"
     inkscape:pageopacity="0"
     inkscape:pagecheckerboard="0"
     inkscape:deskcolor="#d1d1d1"
     inkscape:document-units="pt"
     inkscape:zoom="3.8384332"
     inkscape:cx="60.050544"
     inkscape:cy="61.353159"
     inkscape:window-width="1440"
     inkscape:window-height="785"
     inkscape:window-x="0"
     inkscape:window-y="25"
     inkscape:window-maximized="1"
     inkscape:current-layer="layer1" />
  <defs
     id="defs1">
    <clipPath
       clipPathUnits="userSpaceOnUse"
       id="clipPath5">
      <path
         d="M 0,1024 H 1024 V 0 H 0 Z"
         transform="translate(-1024,-1024)"
         id="path5" />
    </clipPath>
    <clipPath
       clipPathUnits="userSpaceOnUse"
       id="clipPath7">
      <path
         d="M 0,1024 H 1024 V 0 H 0 Z"
         transform="translate(-1024,-2.5000001e-5)"
         id="path7" />
    </clipPath>
    <clipPath
       clipPathUnits="userSpaceOnUse"
       id="clipPath9">
      <path
         d="M 0,1024 H 1024 V 0 H 0 Z"
         transform="translate(-512.00002,-1024)"
         id="path9" />
    </clipPath>
    <clipPath
       clipPathUnits="userSpaceOnUse"
       id="clipPath11">
      <path
         d="M 0,1024 H 1024 V 0 H 0 Z"
         transform="translate(-1024,-512.00001)"
         id="path11" />
    </clipPath>
    <clipPath
       clipPathUnits="userSpaceOnUse"
       id="clipPath13">
      <path
         d="M 0,1024 H 1024 V 0 H 0 Z"
         transform="translate(-512.00002,-1024)"
         id="path13" />
    </clipPath>
    <clipPath
       clipPathUnits="userSpaceOnUse"
       id="clipPath15">
      <path
         d="M 0,1024 H 1024 V 0 H 0 Z"
         transform="translate(-1024,-512.00001)"
         id="path15" />
    </clipPath>
    <clipPath
       clipPathUnits="userSpaceOnUse"
       id="clipPath17">
      <path
         d="M 0,1024 H 1024 V 0 H 0 Z"
         transform="translate(-1024,-384.00001)"
         id="path17" />
    </clipPath>
    <clipPath
       clipPathUnits="userSpaceOnUse"
       id="clipPath19">
      <path
         d="M 0,1024 H 1024 V 0 H 0 Z"
         transform="translate(-1024,-256.00001)"
         id="path19" />
    </clipPath>
    <clipPath
       clipPathUnits="userSpaceOnUse"
       id="clipPath21">
      <path
         d="M 0,1024 H 1024 V 0 H 0 Z"
         transform="translate(-1024,-127.99998)"
         id="path21" />
    </clipPath>
    <clipPath
       clipPathUnits="userSpaceOnUse"
       id="clipPath23">
      <path
         d="M 0,1024 H 1024 V 0 H 0 Z"
         transform="translate(-1024,-640.00002)"
         id="path23" />
    </clipPath>
    <clipPath
       clipPathUnits="userSpaceOnUse"
       id="clipPath25">
      <path
         d="M 0,1024 H 1024 V 0 H 0 Z"
         transform="translate(-1024,-768.00002)"
         id="path25" />
    </clipPath>
    <clipPath
       clipPathUnits="userSpaceOnUse"
       id="clipPath27">
      <path
         d="M 0,1024 H 1024 V 0 H 0 Z"
         transform="translate(-1024,-896.00002)"
         id="path27" />
    </clipPath>
    <clipPath
       clipPathUnits="userSpaceOnUse"
       id="clipPath29">
      <path
         d="M 0,1024 H 1024 V 0 H 0 Z"
         transform="translate(-512.00002,-2.5000001e-5)"
         id="path29" />
    </clipPath>
    <clipPath
       clipPathUnits="userSpaceOnUse"
       id="clipPath31">
      <path
         d="M 0,1024 H 1024 V 0 H 0 Z"
         transform="translate(-512.00002,-2.5000001e-5)"
         id="path31" />
    </clipPath>
    <clipPath
       clipPathUnits="userSpaceOnUse"
       id="clipPath33">
      <path
         d="M 0,1024 H 1024 V 0 H 0 Z"
         transform="translate(-384.00001,-2.5000001e-5)"
         id="path33" />
    </clipPath>
    <clipPath
       clipPathUnits="userSpaceOnUse"
       id="clipPath35">
      <path
         d="M 0,1024 H 1024 V 0 H 0 Z"
         transform="translate(-256,-2.5000001e-5)"
         id="path35" />
    </clipPath>
    <clipPath
       clipPathUnits="userSpaceOnUse"
       id="clipPath37">
      <path
         d="M 0,1024 H 1024 V 0 H 0 Z"
         transform="translate(-128.00001,-2.5000001e-5)"
         id="path37" />
    </clipPath>
    <clipPath
       clipPathUnits="userSpaceOnUse"
       id="clipPath39">
      <path
         d="M 0,1024 H 1024 V 0 H 0 Z"
         transform="translate(-640.00001,-2.5000001e-5)"
         id="path39" />
    </clipPath>
    <clipPath
       clipPathUnits="userSpaceOnUse"
       id="clipPath41">
      <path
         d="M 0,1024 H 1024 V 0 H 0 Z"
         transform="translate(-768.00002,-2.5000001e-5)"
         id="path41" />
    </clipPath>
    <clipPath
       clipPathUnits="userSpaceOnUse"
       id="clipPath43">
      <path
         d="M 0,1024 H 1024 V 0 H 0 Z"
         transform="translate(-896.00005,-2.5000001e-5)"
         id="path43" />
    </clipPath>
    <clipPath
       clipPathUnits="userSpaceOnUse"
       id="clipPath45">
      <path
         d="M 0,1024 H 1024 V 0 H 0 Z"
         transform="translate(-512.00002,-922.00002)"
         id="path45" />
    </clipPath>
    <clipPath
       clipPathUnits="userSpaceOnUse"
       id="clipPath47">
      <path
         d="M 0,1024 H 1024 V 0 H 0 Z"
         transform="translate(-512.00002,-768.00002)"
         id="path47" />
    </clipPath>
    <clipPath
       clipPathUnits="userSpaceOnUse"
       id="clipPath49">
      <path
         d="M 0,1024 H 1024 V 0 H 0 Z"
         transform="translate(-512.00002,-614.00001)"
         id="path49" />
    </clipPath>
  </defs>
  <g
     inkscape:label="Layer 1"
     inkscape:groupmode="layer"
     id="layer1">
    <path
       id="path2"
       d="m 99.999825,63.574205 c 0,1.39092 5.85e-4,2.78155 -0.008,4.17246 -0.007,1.17149 -0.0202,2.34277 -0.052,3.51397 -0.0692,2.55214 -0.21943,5.12636 -0.67305,7.65019 -0.46025,2.56025 -1.21133,4.94306 -2.39541,7.26923 -1.16377,2.28642 -2.68447,4.37861 -4.49853,6.19277 -1.81416,1.81406 -3.90635,3.33476 -6.19277,4.49853 -2.32617,1.18408 -4.70898,1.93516 -7.26924,2.39541 -2.52382,0.45361 -5.09804,0.60381 -7.65019,0.67305 -1.17119,0.0317 -2.34248,0.0452 -3.51396,0.052 -1.39092,0.009 -2.78154,0.008 -4.17246,0.008 h -27.14843 c -1.39092,0 -2.78154,5.95e-4 -4.17246,-0.008 -1.17148,-0.007 -2.34277,-0.0202 -3.51396,-0.052 -2.55205,-0.0692 -5.12637,-0.21944 -7.6501,-0.67305 -2.56035,-0.46025 -4.94316,-1.21133 -7.26933,-2.39541 -2.28633,-1.16377 -4.37861,-2.68447 -6.19267,-4.49853 -1.81416,-1.81416 -3.33477,-3.90635 -4.49863,-6.19277 -1.18399,-2.32617 -1.93516,-4.70898 -2.39531,-7.26923 -0.45371,-2.52383 -0.60391,-5.09805 -0.67305,-7.65019 -0.0318,-1.1712 -0.0453,-2.34248 -0.0521,-3.51397 -0.009,-1.39091 -0.008,-2.78154 -0.008,-4.17246 v -27.14842 c 0,-1.39091 -9.8e-4,-2.78154 0.008,-4.17245 0.007,-1.17149 0.0202,-2.34278 0.0521,-3.51397 0.0691,-2.55205 0.21934,-5.12636 0.67305,-7.65009 0.46015,-2.56035 1.21132,-4.94316 2.39531,-7.26933 1.16386,-2.28633 2.68447,-4.37861 4.49863,-6.19267 1.81406,-1.81416 3.90634,-3.33477 6.19267,-4.49863 2.32617,-1.18399 4.70898,-1.93516 7.26933,-2.39531 2.52373,-0.45372 5.09805,-0.60391 7.6501,-0.67315 1.17119,-0.0317 2.34248,-0.0452 3.51396,-0.052 1.39092,-0.009 2.78154,-0.008 4.17246,-0.008 h 27.14843 c 1.39092,0 2.78154,-5.8e-4 4.17246,0.008 1.17148,0.007 2.34277,0.0202 3.51396,0.052 2.55215,0.0692 5.12637,0.21943 7.65019,0.67315 2.56026,0.46015 4.94307,1.21132 7.26924,2.39531 2.28642,1.16386 4.37861,2.68447 6.19277,4.49863 1.81406,1.81406 3.33476,3.90634 4.49853,6.19267 1.18408,2.32617 1.93516,4.70898 2.39541,7.26933 0.45362,2.52373 0.60381,5.09804 0.67305,7.65009 0.0317,1.17119 0.0452,2.34248 0.052,3.51397 0.009,1.39091 0.008,2.78154 0.008,4.17245 z"
       style="fill:#606060;fill-opacity:1;fill-rule:nonzero;stroke:none;stroke-width:0.999999"
       clip-path="none"
       sodipodi:nodetypes="scccccccccssccccsccccsscccccccccssccccsccccss"
       inkscape:label="app" />
    <g
       id="g2"
       style="display:inline;stroke-width:10.24"
       transform="matrix(0.07324216,0,0,0.07324215,1.9964739e-5,2.56e-5)"
       inkscape:label="grid">
      <path
         id="path4"
         d="M 0,0 -1024,-1024"
         style="fill:none;stroke:#5db3f9;stroke-width:5.12000243;stroke-linecap:butt;stroke-linejoin:miter;stroke-miterlimit:10;stroke-dasharray:none;stroke-opacity:1"
         transform="matrix(1.3333333,0,0,-1.3333333,1365.3333,0)"
         clip-path="url(#clipPath5)" />
      <path
         id="path6"
         d="M 0,0 -1024,1024"
         style="fill:none;stroke:#5db3f9;stroke-width:5.12000243;stroke-linecap:butt;stroke-linejoin:miter;stroke-miterlimit:10;stroke-dasharray:none;stroke-opacity:1"
         transform="matrix(1.3333333,0,0,-1.3333333,1365.3333,1365.3333)"
         clip-path="url(#clipPath7)" />
      <path
         id="path8"
         d="M 0,0 V -1024"
         style="fill:none;stroke:#5db3f9;stroke-width:5.12000243;stroke-linecap:butt;stroke-linejoin:miter;stroke-miterlimit:10;stroke-dasharray:none;stroke-opacity:1"
         transform="matrix(1.3333333,0,0,-1.3333333,682.66667,0)"
         clip-path="url(#clipPath9)" />
      <path
         id="path10"
         d="M 0,0 H -1024"
         style="fill:none;stroke:#5db3f9;stroke-width:5.12000243;stroke-linecap:butt;stroke-linejoin:miter;stroke-miterlimit:10;stroke-dasharray:none;stroke-opacity:1"
         transform="matrix(1.3333333,0,0,-1.3333333,1365.3333,682.66667)"
         clip-path="url(#clipPath11)" />
      <path
         id="path12"
         d="M 0,0 V -1024"
         style="fill:none;stroke:#5db3f9;stroke-width:5.12000243;stroke-linecap:butt;stroke-linejoin:miter;stroke-miterlimit:10;stroke-dasharray:none;stroke-opacity:1"
         transform="matrix(1.3333333,0,0,-1.3333333,682.66667,0)"
         clip-path="url(#clipPath13)" />
      <path
         id="path14"
         d="M 0,0 H -1024"
         style="fill:none;stroke:#5db3f9;stroke-width:5.12000243;stroke-linecap:butt;stroke-linejoin:miter;stroke-miterlimit:10;stroke-dasharray:none;stroke-opacity:1"
         transform="matrix(1.3333333,0,0,-1.3333333,1365.3333,682.66667)"
         clip-path="url(#clipPath15)" />
      <path
         id="path16"
         d="M 0,0 H -1024"
         style="fill:none;stroke:#5db3f9;stroke-width:5.12000243;stroke-linecap:butt;stroke-linejoin:miter;stroke-miterlimit:10;stroke-dasharray:none;stroke-opacity:1"
         transform="matrix(1.3333333,0,0,-1.3333333,1365.3333,853.33333)"
         clip-path="url(#clipPath17)" />
      <path
         id="path18"
         d="M 0,0 H -1024"
         style="fill:none;stroke:#5db3f9;stroke-width:5.12000243;stroke-linecap:butt;stroke-linejoin:miter;stroke-miterlimit:10;stroke-dasharray:none;stroke-opacity:1"
         transform="matrix(1.3333333,0,0,-1.3333333,1365.3333,1024)"
         clip-path="url(#clipPath19)" />
      <path
         id="path20"
         d="M 0,0 H -1024"
         style="fill:none;stroke:#5db3f9;stroke-width:5.12000243;stroke-linecap:butt;stroke-linejoin:miter;stroke-miterlimit:10;stroke-dasharray:none;stroke-opacity:1"
         transform="matrix(1.3333333,0,0,-1.3333333,1365.3333,1194.6667)"
         clip-path="url(#clipPath21)" />
      <path
         id="path22"
         d="M 0,0 H -1024"
         style="fill:none;stroke:#5db3f9;stroke-width:5.12000243;stroke-linecap:butt;stroke-linejoin:miter;stroke-miterlimit:10;stroke-dasharray:none;stroke-opacity:1"
         transform="matrix(1.3333333,0,0,-1.3333333,1365.3333,512)"
         clip-path="url(#clipPath23)" />
      <path
         id="path24"
         d="M 0,0 H -1024"
         style="fill:none;stroke:#5db3f9;stroke-width:5.12000243;stroke-linecap:butt;stroke-linejoin:miter;stroke-miterlimit:10;stroke-dasharray:none;stroke-opacity:1"
         transform="matrix(1.3333333,0,0,-1.3333333,1365.3333,341.33333)"
         clip-path="url(#clipPath25)" />
      <path
         id="path26"
         d="M 0,0 H -1024"
         style="fill:none;stroke:#5db3f9;stroke-width:5.12000243;stroke-linecap:butt;stroke-linejoin:miter;stroke-miterlimit:10;stroke-dasharray:none;stroke-opacity:1"
         transform="matrix(1.3333333,0,0,-1.3333333,1365.3333,170.66667)"
         clip-path="url(#clipPath27)" />
      <path
         id="path28"
         d="M 0,0 V 1024"
         style="fill:none;stroke:#5db3f9;stroke-width:5.12000243;stroke-linecap:butt;stroke-linejoin:miter;stroke-miterlimit:10;stroke-dasharray:none;stroke-opacity:1"
         transform="matrix(1.3333333,0,0,-1.3333333,682.66667,1365.3333)"
         clip-path="url(#clipPath29)" />
      <path
         id="path30"
         d="M 0,0 V 1024"
         style="fill:none;stroke:#5db3f9;stroke-width:5.12000243;stroke-linecap:butt;stroke-linejoin:miter;stroke-miterlimit:10;stroke-dasharray:none;stroke-opacity:1"
         transform="matrix(1.3333333,0,0,-1.3333333,682.66667,1365.3333)"
         clip-path="url(#clipPath31)" />
      <path
         id="path32"
         d="M 0,0 V 1024"
         style="fill:none;stroke:#5db3f9;stroke-width:5.12000243;stroke-linecap:butt;stroke-linejoin:miter;stroke-miterlimit:10;stroke-dasharray:none;stroke-opacity:1"
         transform="matrix(1.3333333,0,0,-1.3333333,512,1365.3333)"
         clip-path="url(#clipPath33)" />
      <path
         id="path34"
         d="M 0,0 V 1024"
         style="fill:none;stroke:#5db3f9;stroke-width:5.12000243;stroke-linecap:butt;stroke-linejoin:miter;stroke-miterlimit:10;stroke-dasharray:none;stroke-opacity:1"
         transform="matrix(1.3333333,0,0,-1.3333333,341.33333,1365.3333)"
         clip-path="url(#clipPath35)" />
      <path
         id="path36"
         d="M 0,0 V 1024"
         style="fill:none;stroke:#5db3f9;stroke-width:5.12000243;stroke-linecap:butt;stroke-linejoin:miter;stroke-miterlimit:10;stroke-dasharray:none;stroke-opacity:1"
         transform="matrix(1.3333333,0,0,-1.3333333,170.66667,1365.3333)"
         clip-path="url(#clipPath37)" />
      <path
         id="path38"
         d="M 0,0 V 1024"
         style="fill:none;stroke:#5db3f9;stroke-width:5.12000243;stroke-linecap:butt;stroke-linejoin:miter;stroke-miterlimit:10;stroke-dasharray:none;stroke-opacity:1"
         transform="matrix(1.3333333,0,0,-1.3333333,853.33333,1365.3333)"
         clip-path="url(#clipPath39)" />
      <path
         id="path40"
         d="M 0,0 V 1024"
         style="fill:none;stroke:#5db3f9;stroke-width:5.12000243;stroke-linecap:butt;stroke-linejoin:miter;stroke-miterlimit:10;stroke-dasharray:none;stroke-opacity:1"
         transform="matrix(1.3333333,0,0,-1.3333333,1024,1365.3333)"
         clip-path="url(#clipPath41)" />
      <path
         id="path42"
         d="M 0,0 V 1024"
         style="fill:none;stroke:#5db3f9;stroke-width:5.12000243;stroke-linecap:butt;stroke-linejoin:miter;stroke-miterlimit:10;stroke-dasharray:none;stroke-opacity:1"
         transform="matrix(1.3333333,0,0,-1.3333333,1194.6667,1365.3333)"
         clip-path="url(#clipPath43)" />
      <path
         id="path44"
         d="m 0,0 c 226.437,0 410,-183.563 410,-410 0,-226.437 -183.563,-410 -410,-410 -226.437,0 -410,183.563 -410,410 0,226.437 183.563,410 410,410 z"
         style="fill:none;stroke:#5db3f9;stroke-width:5.12000243;stroke-linecap:butt;stroke-linejoin:miter;stroke-miterlimit:10;stroke-dasharray:none;stroke-opacity:1"
         transform="matrix(1.3333333,0,0,-1.3333333,682.66667,136)"
         clip-path="url(#clipPath45)" />
      <path
         id="path46"
         d="m 0,0 c 141.385,0 256,-114.615 256,-256 0,-141.385 -114.615,-256 -256,-256 -141.385,0 -256,114.615 -256,256 0,141.385 114.615,256 256,256 z"
         style="fill:none;stroke:#5db3f9;stroke-width:5.12000243;stroke-linecap:butt;stroke-linejoin:miter;stroke-miterlimit:10;stroke-dasharray:none;stroke-opacity:1"
         transform="matrix(1.3333333,0,0,-1.3333333,682.66667,341.33333)"
         clip-path="url(#clipPath47)" />
      <path
         id="path48"
         d="m 0,0 c 56.333,0 102,-45.667 102,-102 0,-56.333 -45.667,-102 -102,-102 -56.333,0 -102,45.667 -102,102 0,56.333 45.667,102 102,102 z"
         style="fill:none;stroke:#5db3f9;stroke-width:5.12000243;stroke-linecap:butt;stroke-linejoin:miter;stroke-miterlimit:10;stroke-dasharray:none;stroke-opacity:1"
         transform="matrix(1.3333333,0,0,-1.3333333,682.66667,546.66667)"
         clip-path="url(#clipPath49)" />
    </g>
  </g>
</svg>
