<?xml version="1.0" encoding="UTF-8" standalone="no"?>
<!-- Created with Inkscape (http://www.inkscape.org/) -->

<svg
   width="100pt"
   height="100pt"
   viewBox="0 0 100 100"
   version="1.1"
   id="svg1"
   inkscape:version="1.3.2 (091e20e, 2023-11-25)"
   sodipodi:docname="app.svg"
   inkscape:export-filename="../images/fill.png"
   inkscape:export-xdpi="737.28003"
   inkscape:export-ydpi="737.28003"
   xmlns:inkscape="http://www.inkscape.org/namespaces/inkscape"
   xmlns:sodipodi="http://sodipodi.sourceforge.net/DTD/sodipodi-0.dtd"
   xmlns:xlink="http://www.w3.org/1999/xlink"
   xmlns="http://www.w3.org/2000/svg"
   xmlns:svg="http://www.w3.org/2000/svg">
  <sodipodi:namedview
     id="namedview1"
     pagecolor="#505050"
     bordercolor="#eeeeee"
     borderopacity="1"
     inkscape:showpageshadow="0"
     inkscape:pageopacity="0"
     inkscape:pagecheckerboard="0"
     inkscape:deskcolor="#d1d1d1"
     inkscape:document-units="pt"
     inkscape:zoom="1.5032331"
     inkscape:cx="26.941929"
     inkscape:cy="40.246586"
     inkscape:window-width="1440"
     inkscape:window-height="785"
     inkscape:window-x="0"
     inkscape:window-y="25"
     inkscape:window-maximized="1"
     inkscape:current-layer="layer1" />
  <defs
     id="defs1">
    <linearGradient
       id="linearGradient57"
       inkscape:collect="always"
       inkscape:label="blob top">
      <stop
         style="stop-color:#ffffff;stop-opacity:0.80000001;"
         offset="0"
         id="stop56" />
      <stop
         style="stop-color:#ffffff;stop-opacity:0.05;"
         offset="1"
         id="stop57" />
    </linearGradient>
    <linearGradient
       id="linearGradient53"
       inkscape:collect="always"
       inkscape:label="blob bottom">
      <stop
         style="stop-color:#ffffff;stop-opacity:0.80000001;"
         offset="0"
         id="stop53" />
      <stop
         style="stop-color:#ffffff;stop-opacity:0;"
         offset="1"
         id="stop54" />
    </linearGradient>
    <linearGradient
       id="linearGradient51"
       inkscape:collect="always"
       inkscape:label="stroke">
      <stop
         style="stop-color:#000000;stop-opacity:0;"
         offset="0"
         id="stop51" />
      <stop
         style="stop-color:#000000;stop-opacity:0.5;"
         offset="1"
         id="stop52" />
    </linearGradient>
    <clipPath
       clipPathUnits="userSpaceOnUse"
       id="clipPath5">
      <path
         d="M 0,1024 H 1024 V 0 H 0 Z"
         transform="translate(-1024,-1024)"
         id="path5" />
    </clipPath>
    <clipPath
       clipPathUnits="userSpaceOnUse"
       id="clipPath7">
      <path
         d="M 0,1024 H 1024 V 0 H 0 Z"
         transform="translate(-1024,-2.5000001e-5)"
         id="path7" />
    </clipPath>
    <clipPath
       clipPathUnits="userSpaceOnUse"
       id="clipPath9">
      <path
         d="M 0,1024 H 1024 V 0 H 0 Z"
         transform="translate(-512.00002,-1024)"
         id="path9" />
    </clipPath>
    <clipPath
       clipPathUnits="userSpaceOnUse"
       id="clipPath11">
      <path
         d="M 0,1024 H 1024 V 0 H 0 Z"
         transform="translate(-1024,-512.00001)"
         id="path11" />
    </clipPath>
    <clipPath
       clipPathUnits="userSpaceOnUse"
       id="clipPath13">
      <path
         d="M 0,1024 H 1024 V 0 H 0 Z"
         transform="translate(-512.00002,-1024)"
         id="path13" />
    </clipPath>
    <clipPath
       clipPathUnits="userSpaceOnUse"
       id="clipPath15">
      <path
         d="M 0,1024 H 1024 V 0 H 0 Z"
         transform="translate(-1024,-512.00001)"
         id="path15" />
    </clipPath>
    <clipPath
       clipPathUnits="userSpaceOnUse"
       id="clipPath17">
      <path
         d="M 0,1024 H 1024 V 0 H 0 Z"
         transform="translate(-1024,-384.00001)"
         id="path17" />
    </clipPath>
    <clipPath
       clipPathUnits="userSpaceOnUse"
       id="clipPath19">
      <path
         d="M 0,1024 H 1024 V 0 H 0 Z"
         transform="translate(-1024,-256.00001)"
         id="path19" />
    </clipPath>
    <clipPath
       clipPathUnits="userSpaceOnUse"
       id="clipPath21">
      <path
         d="M 0,1024 H 1024 V 0 H 0 Z"
         transform="translate(-1024,-127.99998)"
         id="path21" />
    </clipPath>
    <clipPath
       clipPathUnits="userSpaceOnUse"
       id="clipPath23">
      <path
         d="M 0,1024 H 1024 V 0 H 0 Z"
         transform="translate(-1024,-640.00002)"
         id="path23" />
    </clipPath>
    <clipPath
       clipPathUnits="userSpaceOnUse"
       id="clipPath25">
      <path
         d="M 0,1024 H 1024 V 0 H 0 Z"
         transform="translate(-1024,-768.00002)"
         id="path25" />
    </clipPath>
    <clipPath
       clipPathUnits="userSpaceOnUse"
       id="clipPath27">
      <path
         d="M 0,1024 H 1024 V 0 H 0 Z"
         transform="translate(-1024,-896.00002)"
         id="path27" />
    </clipPath>
    <clipPath
       clipPathUnits="userSpaceOnUse"
       id="clipPath29">
      <path
         d="M 0,1024 H 1024 V 0 H 0 Z"
         transform="translate(-512.00002,-2.5000001e-5)"
         id="path29" />
    </clipPath>
    <clipPath
       clipPathUnits="userSpaceOnUse"
       id="clipPath31">
      <path
         d="M 0,1024 H 1024 V 0 H 0 Z"
         transform="translate(-512.00002,-2.5000001e-5)"
         id="path31" />
    </clipPath>
    <clipPath
       clipPathUnits="userSpaceOnUse"
       id="clipPath33">
      <path
         d="M 0,1024 H 1024 V 0 H 0 Z"
         transform="translate(-384.00001,-2.5000001e-5)"
         id="path33" />
    </clipPath>
    <clipPath
       clipPathUnits="userSpaceOnUse"
       id="clipPath35">
      <path
         d="M 0,1024 H 1024 V 0 H 0 Z"
         transform="translate(-256,-2.5000001e-5)"
         id="path35" />
    </clipPath>
    <clipPath
       clipPathUnits="userSpaceOnUse"
       id="clipPath37">
      <path
         d="M 0,1024 H 1024 V 0 H 0 Z"
         transform="translate(-128.00001,-2.5000001e-5)"
         id="path37" />
    </clipPath>
    <clipPath
       clipPathUnits="userSpaceOnUse"
       id="clipPath39">
      <path
         d="M 0,1024 H 1024 V 0 H 0 Z"
         transform="translate(-640.00001,-2.5000001e-5)"
         id="path39" />
    </clipPath>
    <clipPath
       clipPathUnits="userSpaceOnUse"
       id="clipPath41">
      <path
         d="M 0,1024 H 1024 V 0 H 0 Z"
         transform="translate(-768.00002,-2.5000001e-5)"
         id="path41" />
    </clipPath>
    <clipPath
       clipPathUnits="userSpaceOnUse"
       id="clipPath43">
      <path
         d="M 0,1024 H 1024 V 0 H 0 Z"
         transform="translate(-896.00005,-2.5000001e-5)"
         id="path43" />
    </clipPath>
    <clipPath
       clipPathUnits="userSpaceOnUse"
       id="clipPath45">
      <path
         d="M 0,1024 H 1024 V 0 H 0 Z"
         transform="translate(-512.00002,-922.00002)"
         id="path45" />
    </clipPath>
    <clipPath
       clipPathUnits="userSpaceOnUse"
       id="clipPath47">
      <path
         d="M 0,1024 H 1024 V 0 H 0 Z"
         transform="translate(-512.00002,-768.00002)"
         id="path47" />
    </clipPath>
    <clipPath
       clipPathUnits="userSpaceOnUse"
       id="clipPath49">
      <path
         d="M 0,1024 H 1024 V 0 H 0 Z"
         transform="translate(-512.00002,-614.00001)"
         id="path49" />
    </clipPath>
    <linearGradient
       inkscape:collect="always"
       xlink:href="#linearGradient51"
       id="linearGradient52"
       x1="0"
       y1="0"
       x2="-4.2285728e-07"
       y2="100.0005"
       gradientUnits="userSpaceOnUse" />
    <radialGradient
       inkscape:collect="always"
       xlink:href="#linearGradient53"
       id="radialGradient54"
       cx="50.000229"
       cy="97.500069"
       fx="50.000229"
       fy="97.500069"
       r="47.499882"
       gradientTransform="matrix(1,-2.2713527e-7,-6.4459454e-7,1.9999967,6.284801e-5,-97.499707)"
       gradientUnits="userSpaceOnUse" />
    <linearGradient
       inkscape:collect="always"
       xlink:href="#linearGradient57"
       id="linearGradient56"
       x1="2.5003455"
       y1="2.5003843"
       x2="2.7553711"
       y2="47.499115"
       gradientUnits="userSpaceOnUse" />
  </defs>
  <g
     inkscape:label="Layer 1"
     inkscape:groupmode="layer"
     id="layer1">
    <path
       id="path2"
       d="m 99.999825,63.574205 c 0,1.39092 5.85e-4,2.78155 -0.008,4.17246 -0.007,1.17149 -0.0202,2.34277 -0.052,3.51397 -0.0692,2.55214 -0.21943,5.12636 -0.67305,7.65019 -0.46025,2.56025 -1.21133,4.94306 -2.39541,7.26923 -1.16377,2.28642 -2.68447,4.37861 -4.49853,6.19277 -1.81416,1.81406 -3.90635,3.33476 -6.19277,4.49853 -2.32617,1.18408 -4.70898,1.93516 -7.26924,2.39541 -2.52382,0.45361 -5.09804,0.60381 -7.65019,0.67305 -1.17119,0.0317 -2.34248,0.0452 -3.51396,0.052 -1.39092,0.009 -2.78154,0.008 -4.17246,0.008 h -27.14843 c -1.39092,0 -2.78154,5.95e-4 -4.17246,-0.008 -1.17148,-0.007 -2.34277,-0.0202 -3.51396,-0.052 -2.55205,-0.0692 -5.12637,-0.21944 -7.6501,-0.67305 -2.56035,-0.46025 -4.94316,-1.21133 -7.26933,-2.39541 -2.28633,-1.16377 -4.37861,-2.68447 -6.19267,-4.49853 -1.81416,-1.81416 -3.33477,-3.90635 -4.49863,-6.19277 -1.18399,-2.32617 -1.93516,-4.70898 -2.39531,-7.26923 -0.45371,-2.52383 -0.60391,-5.09805 -0.67305,-7.65019 -0.0318,-1.1712 -0.0453,-2.34248 -0.0521,-3.51397 -0.009,-1.39091 -0.008,-2.78154 -0.008,-4.17246 v -27.14842 c 0,-1.39091 -9.8e-4,-2.78154 0.008,-4.17245 0.007,-1.17149 0.0202,-2.34278 0.0521,-3.51397 0.0691,-2.55205 0.21934,-5.12636 0.67305,-7.65009 0.46015,-2.56035 1.21132,-4.94316 2.39531,-7.26933 1.16386,-2.28633 2.68447,-4.37861 4.49863,-6.19267 1.81406,-1.81416 3.90634,-3.33477 6.19267,-4.49863 2.32617,-1.18399 4.70898,-1.93516 7.26933,-2.39531 2.52373,-0.45372 5.09805,-0.60391 7.6501,-0.67315 1.17119,-0.0317 2.34248,-0.0452 3.51396,-0.052 1.39092,-0.009 2.78154,-0.008 4.17246,-0.008 h 27.14843 c 1.39092,0 2.78154,-5.8e-4 4.17246,0.008 1.17148,0.007 2.34277,0.0202 3.51396,0.052 2.55215,0.0692 5.12637,0.21943 7.65019,0.67315 2.56026,0.46015 4.94307,1.21132 7.26924,2.39531 2.28642,1.16386 4.37861,2.68447 6.19277,4.49863 1.81406,1.81406 3.33476,3.90634 4.49853,6.19267 1.18408,2.32617 1.93516,4.70898 2.39541,7.26933 0.45362,2.52373 0.60381,5.09804 0.67305,7.65009 0.0317,1.17119 0.0452,2.34248 0.052,3.51397 0.009,1.39091 0.008,2.78154 0.008,4.17245 z"
       style="display:inline;fill:#9e8270;fill-opacity:1;fill-rule:nonzero;stroke:none;stroke-width:0;stroke-dasharray:none"
       clip-path="none"
       sodipodi:nodetypes="scccccccccssccccsccccsscccccccccssccccsccccss"
       inkscape:label="fill" />
    <path
       id="path1-1"
       style="display:none;fill:#ffffff;fill-opacity:1;stroke-width:0.75"
       d="m 50,16.107161 c -5.343274,0 -10.685609,3.133326 -11.715637,9.400005 2.060057,12.533358 21.372565,12.533358 23.432622,0 C 60.686957,19.240487 55.343275,16.107161 50,16.107161 Z m -28.969648,0.773673 c 0.956054,16.491934 13.060721,25.324032 25.965258,26.508449 0.698282,5.019536 1.145121,10.039542 1.341125,15.059688 -5.196266,-0.08973 -10.392231,-0.595055 -15.589398,-1.525782 v 6.179958 c 5.228173,-0.93628 10.455134,-1.441915 15.682401,-1.52713 0.148073,8.105665 -0.357686,16.212271 -1.519043,24.316821 h 6.179957 c -1.161356,-8.10455 -1.667115,-16.211155 -1.519042,-24.316821 5.226817,0.08528 10.454677,0.590931 15.682402,1.52713 v -6.179958 c -5.197169,0.930727 -10.394481,1.436054 -15.590748,1.525782 0.196003,-5.020163 0.644187,-10.040135 1.342473,-15.059688 12.904036,-1.184905 25.00789,-10.017084 25.963911,-26.508448 H 72.78969 c 2.060059,33.475932 -47.63809,33.475932 -45.578034,0 z M 50,17.651813 c 3.283216,-1e-6 6.567055,2.618703 5.537026,7.855353 2.060058,10.4733 -13.132762,10.4733 -11.072706,0 C 43.434292,20.270516 46.716783,17.651813 50,17.651813 Z"
       inkscape:label="pluto" />
    <path
       id="path50"
       style="display:none;fill:#ffffff;fill-opacity:1;stroke:#ffffff;stroke-width:2;stroke-dasharray:none;stroke-opacity:1"
       d="m 49.999999,22 c -4.435463,0 -8.870146,2.604157 -9.725175,7.812496 1.710058,10.416675 17.741411,10.416675 19.451469,0 C 58.871265,24.604157 54.435463,22 49.999999,22 Z m -24.047766,0.643012 c 0.793623,13.706712 10.841732,21.047211 21.553815,22.031599 0.579647,4.171817 0.950568,8.344025 1.113271,12.516349 -4.313431,-0.07458 -8.626613,-0.49456 -12.940793,-1.268102 v 5.136263 c 4.339919,-0.778157 8.67883,-1.198399 13.017995,-1.269223 C 48.819437,66.526647 48.399605,73.264178 47.435561,80 h 5.129995 c -0.964044,-6.735822 -1.383876,-13.473352 -1.26096,-20.210102 4.338792,0.07088 8.67845,0.491132 13.017995,1.269223 v -5.136263 c -4.314181,0.773542 -8.62848,1.193527 -12.941913,1.268102 0.162703,-4.172338 0.534741,-8.344518 1.11439,-12.516349 10.711667,-0.984794 20.759102,-8.32536 21.552698,-22.031599 h -5.129997 c 1.71006,27.822387 -39.54448,27.822387 -37.834423,0 z m 24.047766,0.640773 c 2.725404,0 5.451326,2.176446 4.596297,6.528711 1.710058,8.704527 -10.901534,8.704527 -9.191476,0 -0.855029,-4.352265 1.869775,-6.528711 4.595179,-6.528711 z"
       inkscape:label="pluto shadow" />
    <g
       id="g64"
       inkscape:label="unpressed"
       style="display:none">
      <path
         id="path3"
         style="color:#000000;display:inline;fill:url(#radialGradient54);-inkscape-stroke:none"
         d="m 36.42627,2.5004883 c -1.392116,0 -2.778333,-0.00155 -4.157227,0.00732 h -0.0015 c -1.161945,0.00674 -2.316114,0.02027 -3.461426,0.05127 -2.499631,0.067818 -4.947526,0.2159459 -7.274414,0.6342774 C 19.171781,3.6174847 17.045132,4.292108 14.95309,5.3569299 12.901793,6.4011461 11.022349,7.7656087 9.394008,9.3940393 7.7655774,11.02238 6.4011148,12.901824 5.3568986,14.953121 4.2920767,17.045163 3.6174534,19.171812 3.1933244,21.531734 2.7749952,23.858661 2.626724,26.306642 2.559047,28.806148 c -0.031176,1.144602 -0.04432,2.29876 -0.05127,3.461426 v 0.0015 c -0.0089,1.378976 -0.00732,2.765145 -0.00732,4.157227 V 63.57425 c 0,1.392115 -0.0016,2.776881 0.00732,4.155761 v 0.0029 c 0.00674,1.161954 0.020176,2.31478 0.05127,3.459961 0.067718,2.499648 0.2159461,4.948848 0.6342774,7.275879 0.4241281,2.359827 1.0987523,4.486571 2.1635742,6.578613 1.0441997,2.051346 2.408654,3.929101 4.0371094,5.557617 1.628392,1.628393 3.507885,2.993026 5.559082,4.03711 2.091961,1.064862 4.218573,1.740796 6.578613,2.165039 2.326986,0.418247 4.774842,0.566497 7.274414,0.634277 1.144744,0.03108 2.29877,0.04437 3.461426,0.05127 h 0.0015 C 33.648952,97.50119 35.03464,97.5 36.42627,97.5 h 27.147949 c 1.392115,0 2.776824,0.0015 4.155761,-0.0073 h 0.0029 c 1.161945,-0.0067 2.314649,-0.02027 3.459961,-0.05127 2.499724,-0.06782 4.9488,-0.216029 7.275879,-0.634277 2.359954,-0.424242 4.486652,-1.100177 6.578613,-2.165039 2.051246,-1.044068 3.929063,-2.408646 5.557617,-4.03711 1.628464,-1.628554 2.993042,-3.506371 4.03711,-5.557617 1.064862,-2.091961 1.740797,-4.218669 2.165039,-6.578613 0.41826,-2.327104 0.566497,-4.776211 0.634277,-7.275879 0.03108,-1.144755 0.04437,-2.297295 0.05127,-3.459961 v -0.0029 C 97.501181,66.350058 97.5,64.965836 97.5,63.574219 V 36.42627 c 0,-1.392106 0.0016,-2.778299 -0.0073,-4.157227 v -0.0015 C 97.486,31.105588 97.47243,29.951429 97.44143,28.806117 97.37361,26.306486 97.225402,23.858653 96.807153,21.531703 96.382886,19.171698 95.706952,17.045086 94.64209,14.953125 93.598006,12.901928 92.233373,11.022435 90.60498,9.394043 88.976478,7.7655406 87.098709,6.4011333 85.047363,5.3569336 82.955321,4.2921117 80.828586,3.6174876 78.46875,3.1933594 76.141718,2.7750171 73.692549,2.626859 71.192871,2.559082 70.048127,2.5280001 68.895566,2.5147625 67.73291,2.5078125 h -0.0029 c -1.379944,-0.00851 -2.76415,-0.00732 -4.155761,-0.00732 z"
         inkscape:label="blob bottom" />
      <path
         id="path52"
         style="color:#000000;display:inline;fill:url(#linearGradient56);-inkscape-stroke:none"
         inkscape:label="blob top"
         d="m 36.42627,2.5004883 c -1.392115,0 -2.778334,-0.00155 -4.157227,0.00732 h -0.0015 c -1.161944,0.00674 -2.316115,0.02027 -3.461426,0.05127 C 26.306524,2.6269 23.858624,2.7750283 21.531738,3.1933594 19.171819,3.617488 17.045165,4.2921128 14.953125,5.3569336 12.90183,6.4011487 11.022382,7.765614 9.394043,9.394043 7.765614,11.022382 6.4011487,12.90183 5.3569336,14.953125 c -1.0648208,2.09204 -1.7394456,4.218694 -2.1635742,6.578613 -0.2030595,1.129504 -0.3405213,2.288688 -0.4379883,3.467285 0.097467,1.179427 0.2348438,2.338729 0.4379883,3.46875 0.4241277,2.359825 1.0987534,4.486574 2.1635742,6.578614 1.0441986,2.051344 2.4086556,3.929103 4.0371094,5.557617 1.62839,1.628391 3.507887,2.993026 5.559082,4.037109 2.091959,1.064861 4.218576,1.740797 6.578613,2.165039 2.326984,0.418247 4.774845,0.566498 7.274414,0.634278 1.144743,0.03108 2.298771,0.04437 3.461426,0.05127 h 0.0015 c 1.379908,0.0085 2.765598,0.0073 4.157227,0.0073 h 27.147949 c 1.392113,0 2.776826,0.0015 4.155761,-0.0073 h 0.0029 c 1.161944,-0.0067 2.31465,-0.02027 3.459961,-0.05127 2.499722,-0.06782 4.948802,-0.21603 7.275879,-0.634278 2.359952,-0.424241 4.486654,-1.100178 6.578613,-2.165039 2.051244,-1.044067 3.929065,-2.408647 5.557617,-4.037109 1.628463,-1.628552 2.993043,-3.506373 4.03711,-5.557617 1.064861,-2.091959 1.740797,-4.218672 2.165039,-6.578614 0.20311,-1.130057 0.340521,-2.289334 0.437988,-3.46875 -0.09746,-1.178578 -0.234968,-2.33777 -0.437988,-3.467285 C 96.382862,19.171736 95.706951,17.045084 94.64209,14.953125 93.598007,12.90193 92.233372,11.022433 90.60498,9.394043 88.97648,7.7655422 87.098707,6.4011322 85.047363,5.3569336 82.955323,4.2921128 80.828584,3.6174872 78.46875,3.1933594 76.14172,2.7750175 73.692547,2.626859 71.192871,2.559082 70.048128,2.5280002 68.895565,2.5147625 67.73291,2.5078125 h -0.0029 c -1.379942,-0.00851 -2.764152,-0.00732 -4.155761,-0.00732 z" />
      <path
         id="path51"
         clip-path="none"
         style="display:inline;fill:url(#linearGradient52);fill-rule:nonzero;stroke:none;stroke-width:0;stroke-dasharray:none"
         inkscape:label="stroke outside"
         d="m 36.42627,0 c -1.390919,0 -2.782422,-2.109285e-4 -4.17334,0.00878906 -1.171479,0.0068 -2.342972,0.01956957 -3.51416,0.05126953 C 26.186722,0.12929852 23.613083,0.28016717 21.089355,0.73388672 18.529008,1.1940363 16.145504,1.9449174 13.819336,3.1289063 11.533008,4.2927651 9.4414996,5.8132832 7.6274414,7.6274414 5.8132832,9.4414996 4.2927651,11.533008 3.1289063,13.819336 1.9449174,16.145504 1.1940363,18.529008 0.73388672,21.089355 0.28017717,23.613083 0.12915852,26.186722 0.06005859,28.73877 0.02815863,29.909958 0.01578905,31.081441 0.00878906,32.25293 -1.9092852e-4,33.643838 0,35.035361 0,36.42627 v 27.147949 c 0,1.390918 -2.109285e-4,2.780966 0.00878906,4.171875 0.0068,1.171489 0.01946957,2.342961 0.05126953,3.51416 0.06913993,2.552137 0.22011858,5.127051 0.67382813,7.650879 0.46014958,2.560247 1.21103068,4.942387 2.39501958,7.268555 1.1638588,2.286417 2.6843769,4.379201 4.4985351,6.193359 1.8140582,1.814058 3.9055666,3.334766 6.1918946,4.498535 2.326168,1.184079 4.709672,1.93477 7.270019,2.39502 2.523728,0.453609 5.097367,0.604628 7.649415,0.673828 1.171188,0.0318 2.342681,0.04427 3.51416,0.05127 1.390918,0.0086 2.782421,0.0088 4.17334,0.0088 h 27.147949 c 1.390918,0 2.780956,2.1e-4 4.171875,-0.0088 1.171479,-0.0068 2.342971,-0.01957 3.51416,-0.05127 2.552147,-0.06924 5.127061,-0.220219 7.650879,-0.673828 2.560257,-0.46025 4.942387,-1.210941 7.268555,-2.39502 2.286417,-1.163769 4.379201,-2.684477 6.193359,-4.498535 1.814058,-1.814158 3.334766,-3.906942 4.498535,-6.193359 1.184079,-2.326168 1.93477,-4.708308 2.39502,-7.268555 0.453619,-2.523828 0.604628,-5.098742 0.673828,-7.650879 0.0318,-1.171199 0.04427,-2.342671 0.05127,-3.51416 0.0086,-1.390909 0.0088,-2.780957 0.0088,-4.171875 V 36.42627 c 0,-1.390909 2.1e-4,-2.782432 -0.0088,-4.17334 -0.0068,-1.171489 -0.01957,-2.342972 -0.05127,-3.51416 -0.06924,-2.552048 -0.220209,-5.125687 -0.673828,-7.649415 -0.46025,-2.560347 -1.210941,-4.943851 -2.39502,-7.270019 C 95.707813,11.533008 94.187105,9.4414996 92.373047,7.6274414 90.558889,5.8132832 88.466105,4.2927651 86.179688,3.1289063 83.85352,1.9449174 81.47139,1.1940363 78.911133,0.73388672 76.387315,0.28016717 73.812401,0.12925852 71.260254,0.06005859 70.089065,0.02825863 68.917573,0.01578905 67.746094,0.00878906 66.355175,2.0907108e-4 64.965137,0 63.574219,0 Z m 0,2.5004883 h 27.147949 c 1.391609,0 2.775819,-0.00119 4.155761,0.00732 h 0.0029 c 1.162655,0.00695 2.315218,0.020188 3.459961,0.05127 2.499676,0.067777 4.948849,0.2159355 7.275879,0.6342774 2.359834,0.4241278 4.486573,1.0987534 6.578613,2.1635742 2.051344,1.0441986 3.929117,2.4086086 5.557617,4.0371094 1.628392,1.6283897 2.993027,3.5078867 4.03711,5.5590817 1.064861,2.091959 1.740796,4.218576 2.165039,6.578613 0.418248,2.326948 0.566459,4.774786 0.634277,7.274414 0.031,1.145311 0.04453,2.299472 0.05127,3.461426 v 0.0015 c 0.0089,1.378927 0.0073,2.765122 0.0073,4.157227 V 63.57425 c 0,1.391615 0.0012,2.775841 -0.0073,4.155761 v 0.0029 c -0.0069,1.162665 -0.02019,2.315207 -0.05127,3.459961 -0.06778,2.499666 -0.216018,4.948777 -0.634277,7.275879 -0.424242,2.359942 -1.100178,4.486654 -2.165039,6.578613 -1.044067,2.051244 -2.408647,3.929065 -4.03711,5.557617 -1.628552,1.628463 -3.506373,2.993043 -5.557617,4.03711 -2.091959,1.064861 -4.218661,1.740797 -6.578613,2.165039 -2.327077,0.418247 -4.776157,0.56646 -7.275879,0.634277 -1.145311,0.031 -2.298017,0.04453 -3.459961,0.05127 h -0.0029 C 66.351045,97.501509 64.966332,97.5 63.574219,97.5 H 36.42627 c -1.391629,0 -2.777319,0.0012 -4.157227,-0.0073 h -0.0015 C 31.104888,97.4858 29.95086,97.47251 28.806117,97.44143 26.306548,97.37365 23.858687,97.225399 21.531703,96.807153 19.171701,96.382886 17.045084,95.706951 14.953125,94.64209 12.90193,93.598007 11.022433,92.233372 9.394043,90.60498 7.7655892,88.976466 6.4011322,87.098707 5.3569336,85.047363 4.2921128,82.955323 3.6174871,80.828575 3.1933594,78.46875 2.7750285,76.141721 2.6267999,73.692517 2.559082,71.192871 2.5279886,70.047691 2.5145572,68.894863 2.5078125,67.73291 v -0.0029 c -0.00892,-1.378878 -0.00732,-2.763648 -0.00732,-4.155761 V 36.42627 c 0,-1.392081 -0.00158,-2.778252 0.00732,-4.157227 v -0.0015 c 0.00695,-1.162665 0.020094,-2.316825 0.05127,-3.461426 C 2.626759,26.306649 2.7750306,23.858663 3.1933594,21.531738 3.617488,19.171819 4.2921128,17.045165 5.3569336,14.953125 6.4011487,12.90183 7.765614,11.022382 9.394043,9.394043 11.022382,7.765614 12.90183,6.4011487 14.953125,5.3569336 17.045165,4.2921128 19.171819,3.617488 21.531738,3.1933594 23.858624,2.7750283 26.306524,2.6268998 28.806152,2.559082 c 1.145311,-0.031 2.299482,-0.044526 3.461426,-0.05127 h 0.0015 c 1.378893,-0.00888 2.765112,-0.00732 4.157227,-0.00732 z" />
    </g>
    <g
       id="g2"
       style="display:none;stroke-width:10.24"
       transform="matrix(0.07324216,0,0,0.07324215,1.9964739e-5,2.56e-5)"
       inkscape:label="grid">
      <path
         id="path4"
         d="M 0,0 -1024,-1024"
         style="fill:none;stroke:#5db3f9;stroke-width:5.12;stroke-linecap:butt;stroke-linejoin:miter;stroke-miterlimit:10;stroke-dasharray:none;stroke-opacity:1"
         transform="matrix(1.3333333,0,0,-1.3333333,1365.3333,0)"
         clip-path="url(#clipPath5)" />
      <path
         id="path6"
         d="M 0,0 -1024,1024"
         style="fill:none;stroke:#5db3f9;stroke-width:5.12;stroke-linecap:butt;stroke-linejoin:miter;stroke-miterlimit:10;stroke-dasharray:none;stroke-opacity:1"
         transform="matrix(1.3333333,0,0,-1.3333333,1365.3333,1365.3333)"
         clip-path="url(#clipPath7)" />
      <path
         id="path8"
         d="M 0,0 V -1024"
         style="fill:none;stroke:#5db3f9;stroke-width:5.12;stroke-linecap:butt;stroke-linejoin:miter;stroke-miterlimit:10;stroke-dasharray:none;stroke-opacity:1"
         transform="matrix(1.3333333,0,0,-1.3333333,682.66667,0)"
         clip-path="url(#clipPath9)" />
      <path
         id="path10"
         d="M 0,0 H -1024"
         style="fill:none;stroke:#5db3f9;stroke-width:5.12;stroke-linecap:butt;stroke-linejoin:miter;stroke-miterlimit:10;stroke-dasharray:none;stroke-opacity:1"
         transform="matrix(1.3333333,0,0,-1.3333333,1365.3333,682.66667)"
         clip-path="url(#clipPath11)" />
      <path
         id="path12"
         d="M 0,0 V -1024"
         style="fill:none;stroke:#5db3f9;stroke-width:5.12;stroke-linecap:butt;stroke-linejoin:miter;stroke-miterlimit:10;stroke-dasharray:none;stroke-opacity:1"
         transform="matrix(1.3333333,0,0,-1.3333333,682.66667,0)"
         clip-path="url(#clipPath13)" />
      <path
         id="path14"
         d="M 0,0 H -1024"
         style="fill:none;stroke:#5db3f9;stroke-width:5.12;stroke-linecap:butt;stroke-linejoin:miter;stroke-miterlimit:10;stroke-dasharray:none;stroke-opacity:1"
         transform="matrix(1.3333333,0,0,-1.3333333,1365.3333,682.66667)"
         clip-path="url(#clipPath15)" />
      <path
         id="path16"
         d="M 0,0 H -1024"
         style="fill:none;stroke:#5db3f9;stroke-width:5.12;stroke-linecap:butt;stroke-linejoin:miter;stroke-miterlimit:10;stroke-dasharray:none;stroke-opacity:1"
         transform="matrix(1.3333333,0,0,-1.3333333,1365.3333,853.33333)"
         clip-path="url(#clipPath17)" />
      <path
         id="path18"
         d="M 0,0 H -1024"
         style="fill:none;stroke:#5db3f9;stroke-width:5.12;stroke-linecap:butt;stroke-linejoin:miter;stroke-miterlimit:10;stroke-dasharray:none;stroke-opacity:1"
         transform="matrix(1.3333333,0,0,-1.3333333,1365.3333,1024)"
         clip-path="url(#clipPath19)" />
      <path
         id="path20"
         d="M 0,0 H -1024"
         style="fill:none;stroke:#5db3f9;stroke-width:5.12;stroke-linecap:butt;stroke-linejoin:miter;stroke-miterlimit:10;stroke-dasharray:none;stroke-opacity:1"
         transform="matrix(1.3333333,0,0,-1.3333333,1365.3333,1194.6667)"
         clip-path="url(#clipPath21)" />
      <path
         id="path22"
         d="M 0,0 H -1024"
         style="fill:none;stroke:#5db3f9;stroke-width:5.12;stroke-linecap:butt;stroke-linejoin:miter;stroke-miterlimit:10;stroke-dasharray:none;stroke-opacity:1"
         transform="matrix(1.3333333,0,0,-1.3333333,1365.3333,512)"
         clip-path="url(#clipPath23)" />
      <path
         id="path24"
         d="M 0,0 H -1024"
         style="fill:none;stroke:#5db3f9;stroke-width:5.12;stroke-linecap:butt;stroke-linejoin:miter;stroke-miterlimit:10;stroke-dasharray:none;stroke-opacity:1"
         transform="matrix(1.3333333,0,0,-1.3333333,1365.3333,341.33333)"
         clip-path="url(#clipPath25)" />
      <path
         id="path26"
         d="M 0,0 H -1024"
         style="fill:none;stroke:#5db3f9;stroke-width:5.12;stroke-linecap:butt;stroke-linejoin:miter;stroke-miterlimit:10;stroke-dasharray:none;stroke-opacity:1"
         transform="matrix(1.3333333,0,0,-1.3333333,1365.3333,170.66667)"
         clip-path="url(#clipPath27)" />
      <path
         id="path28"
         d="M 0,0 V 1024"
         style="fill:none;stroke:#5db3f9;stroke-width:5.12;stroke-linecap:butt;stroke-linejoin:miter;stroke-miterlimit:10;stroke-dasharray:none;stroke-opacity:1"
         transform="matrix(1.3333333,0,0,-1.3333333,682.66667,1365.3333)"
         clip-path="url(#clipPath29)" />
      <path
         id="path30"
         d="M 0,0 V 1024"
         style="fill:none;stroke:#5db3f9;stroke-width:5.12;stroke-linecap:butt;stroke-linejoin:miter;stroke-miterlimit:10;stroke-dasharray:none;stroke-opacity:1"
         transform="matrix(1.3333333,0,0,-1.3333333,682.66667,1365.3333)"
         clip-path="url(#clipPath31)" />
      <path
         id="path32"
         d="M 0,0 V 1024"
         style="fill:none;stroke:#5db3f9;stroke-width:5.12;stroke-linecap:butt;stroke-linejoin:miter;stroke-miterlimit:10;stroke-dasharray:none;stroke-opacity:1"
         transform="matrix(1.3333333,0,0,-1.3333333,512,1365.3333)"
         clip-path="url(#clipPath33)" />
      <path
         id="path34"
         d="M 0,0 V 1024"
         style="fill:none;stroke:#5db3f9;stroke-width:5.12;stroke-linecap:butt;stroke-linejoin:miter;stroke-miterlimit:10;stroke-dasharray:none;stroke-opacity:1"
         transform="matrix(1.3333333,0,0,-1.3333333,341.33333,1365.3333)"
         clip-path="url(#clipPath35)" />
      <path
         id="path36"
         d="M 0,0 V 1024"
         style="fill:none;stroke:#5db3f9;stroke-width:5.12;stroke-linecap:butt;stroke-linejoin:miter;stroke-miterlimit:10;stroke-dasharray:none;stroke-opacity:1"
         transform="matrix(1.3333333,0,0,-1.3333333,170.66667,1365.3333)"
         clip-path="url(#clipPath37)" />
      <path
         id="path38"
         d="M 0,0 V 1024"
         style="fill:none;stroke:#5db3f9;stroke-width:5.12;stroke-linecap:butt;stroke-linejoin:miter;stroke-miterlimit:10;stroke-dasharray:none;stroke-opacity:1"
         transform="matrix(1.3333333,0,0,-1.3333333,853.33333,1365.3333)"
         clip-path="url(#clipPath39)" />
      <path
         id="path40"
         d="M 0,0 V 1024"
         style="fill:none;stroke:#5db3f9;stroke-width:5.12;stroke-linecap:butt;stroke-linejoin:miter;stroke-miterlimit:10;stroke-dasharray:none;stroke-opacity:1"
         transform="matrix(1.3333333,0,0,-1.3333333,1024,1365.3333)"
         clip-path="url(#clipPath41)" />
      <path
         id="path42"
         d="M 0,0 V 1024"
         style="fill:none;stroke:#5db3f9;stroke-width:5.12;stroke-linecap:butt;stroke-linejoin:miter;stroke-miterlimit:10;stroke-dasharray:none;stroke-opacity:1"
         transform="matrix(1.3333333,0,0,-1.3333333,1194.6667,1365.3333)"
         clip-path="url(#clipPath43)" />
      <path
         id="path44"
         d="m 0,0 c 226.437,0 410,-183.563 410,-410 0,-226.437 -183.563,-410 -410,-410 -226.437,0 -410,183.563 -410,410 0,226.437 183.563,410 410,410 z"
         style="fill:none;stroke:#5db3f9;stroke-width:5.12;stroke-linecap:butt;stroke-linejoin:miter;stroke-miterlimit:10;stroke-dasharray:none;stroke-opacity:1"
         transform="matrix(1.3333333,0,0,-1.3333333,682.66667,136)"
         clip-path="url(#clipPath45)" />
      <path
         id="path46"
         d="m 0,0 c 141.385,0 256,-114.615 256,-256 0,-141.385 -114.615,-256 -256,-256 -141.385,0 -256,114.615 -256,256 0,141.385 114.615,256 256,256 z"
         style="fill:none;stroke:#5db3f9;stroke-width:5.12;stroke-linecap:butt;stroke-linejoin:miter;stroke-miterlimit:10;stroke-dasharray:none;stroke-opacity:1"
         transform="matrix(1.3333333,0,0,-1.3333333,682.66667,341.33333)"
         clip-path="url(#clipPath47)" />
      <path
         id="path48"
         d="m 0,0 c 56.333,0 102,-45.667 102,-102 0,-56.333 -45.667,-102 -102,-102 -56.333,0 -102,45.667 -102,102 0,56.333 45.667,102 102,102 z"
         style="fill:none;stroke:#5db3f9;stroke-width:5.12;stroke-linecap:butt;stroke-linejoin:miter;stroke-miterlimit:10;stroke-dasharray:none;stroke-opacity:1"
         transform="matrix(1.3333333,0,0,-1.3333333,682.66667,546.66667)"
         clip-path="url(#clipPath49)" />
    </g>
  </g>
</svg>
