<?xml version="1.0" encoding="UTF-8" standalone="no"?>
<!-- Created with Inkscape (http://www.inkscape.org/) -->

<svg
   width="30pt"
   height="100pt"
   viewBox="0 0 30 100"
   version="1.1"
   id="svg1"
   inkscape:version="1.3.2 (091e20e, 2023-11-25)"
   sodipodi:docname="bracket.svg"
   xmlns:inkscape="http://www.inkscape.org/namespaces/inkscape"
   xmlns:sodipodi="http://sodipodi.sourceforge.net/DTD/sodipodi-0.dtd"
   xmlns="http://www.w3.org/2000/svg"
   xmlns:svg="http://www.w3.org/2000/svg">
  <sodipodi:namedview
     id="namedview1"
     pagecolor="#505050"
     bordercolor="#eeeeee"
     borderopacity="1"
     inkscape:showpageshadow="0"
     inkscape:pageopacity="0"
     inkscape:pagecheckerboard="0"
     inkscape:deskcolor="#d1d1d1"
     inkscape:document-units="pt"
     showguides="true"
     inkscape:zoom="3.3535541"
     inkscape:cx="29.222728"
     inkscape:cy="94.973866"
     inkscape:window-width="1440"
     inkscape:window-height="785"
     inkscape:window-x="0"
     inkscape:window-y="25"
     inkscape:window-maximized="1"
     inkscape:current-layer="layer1" />
  <defs
     id="defs1" />
  <g
     inkscape:label="Layer 1"
     inkscape:groupmode="layer"
     id="layer1">
    <path
       style="display:none;fill:none;stroke:none;stroke-width:0.75px;stroke-linecap:butt;stroke-linejoin:miter;stroke-opacity:1"
       d="m 0,100 c 0,0 50,0 25,50 -25,50 25,50 25,50"
       id="path1"
       sodipodi:nodetypes="czc"
       inkscape:label="bottom" />
    <path
       style="display:none;fill:none;stroke:#000000;stroke-width:0.75px;stroke-linecap:butt;stroke-linejoin:miter;stroke-opacity:1"
       d="M 50,0 C 50,0 0,0 25,50 50,100 0,100 0,100"
       id="path2"
       sodipodi:nodetypes="czc"
       inkscape:label="top" />
    <path
       style="display:inline;fill:none;stroke:#000000;stroke-width:0.75px;stroke-linecap:butt;stroke-linejoin:miter;stroke-opacity:1"
       d="M 30,0 C 30,0 0,0 15,25 30,50 0,50 0,50 c 0,0 30,0 15,25 -15,25 15,25 15,25"
       id="path3"
       sodipodi:nodetypes="czczc"
       inkscape:label="full" />
    <path
       style="display:none;fill:none;stroke:#000000;stroke-width:0.75px;stroke-linecap:butt;stroke-linejoin:miter;stroke-opacity:1"
       d="M 50,0 25,50 0,100 25,150 50,200"
       id="path4"
       sodipodi:nodetypes="ccccc"
       inkscape:label="no curve" />
  </g>
</svg>
