<?xml version="1.0" encoding="UTF-8" standalone="no"?>
<svg
   fill="none"
   viewBox="0 0 100 100"
   width="100pt"
   height="100pt"
   class="coolshapes flower-4 "
   version="1.1"
   id="svg10"
   xmlns="http://www.w3.org/2000/svg"
   xmlns:svg="http://www.w3.org/2000/svg">
  <path
     id="path15"
     style="fill:#000000;fill-opacity:1;stroke:none;stroke-width:0;stroke-dasharray:none"
     d="M 49.99934,5 C 46.019117,5 43.222377,9.9429036 41.41159,17.951499 35.840177,11.92064 30.947305,9.0389415 27.500329,11.028828 24.053353,13.019164 24.102067,18.698054 26.53925,26.53925 18.698054,24.102067 13.019164,24.053353 11.028828,27.500329 c -1.9898865,3.446976 0.89268,8.340717 6.92399,13.912578 C 9.9433217,43.222795 5,46.019117 5,49.99934 c 0,3.980222 4.9433217,6.777863 12.952818,8.587751 -6.03131,5.571863 -8.9138765,10.465602 -6.92399,13.912578 1.989886,3.446976 7.668776,3.398262 15.510422,0.961079 -2.437183,7.841196 -2.485897,13.520086 0.961079,15.510423 3.446976,1.989886 8.341167,-0.891811 13.912578,-6.922672 C 43.223245,90.057095 46.019117,95 49.99934,95 c 3.980222,0 6.777863,-4.943322 8.587751,-12.952819 5.571863,6.03131 10.465602,8.913876 13.912578,6.92399 3.446976,-1.990337 3.398262,-7.669227 0.961079,-15.510423 7.841196,2.437183 13.520086,2.485897 15.510423,-0.961079 C 90.961057,69.052693 88.07981,64.158954 82.048499,58.587091 90.057095,56.777203 95,53.979562 95,49.99934 95,46.019117 90.057095,43.223245 82.048499,41.412907 88.07981,35.841046 90.961057,30.947305 88.971171,27.500329 86.980834,24.053353 81.301944,24.102067 73.460748,26.53925 75.897931,18.698054 75.946645,13.019164 72.499669,11.028828 69.052693,9.0389415 64.158954,11.921058 58.587091,17.952818 56.777203,9.9433217 53.979562,5 49.99934,5 Z" />
  <defs
     id="defs9" />
  <defs
     id="defs10" />
</svg>
