<?xml version="1.0" encoding="UTF-8" standalone="no"?>
<!-- Created with Inkscape (http://www.inkscape.org/) -->

<svg
   width="12pt"
   height="57.5pt"
   viewBox="0 0 12 57.5"
   version="1.1"
   id="svg1"
   inkscape:version="1.3.2 (091e20e, 2023-11-25)"
   sodipodi:docname="font.svg"
   inkscape:export-filename="../fonts/Semi/glyphs/A.svg"
   inkscape:export-xdpi="96"
   inkscape:export-ydpi="96"
   xmlns:inkscape="http://www.inkscape.org/namespaces/inkscape"
   xmlns:sodipodi="http://sodipodi.sourceforge.net/DTD/sodipodi-0.dtd"
   xmlns="http://www.w3.org/2000/svg"
   xmlns:svg="http://www.w3.org/2000/svg">
  <sodipodi:namedview
     id="namedview1"
     pagecolor="#505050"
     bordercolor="#eeeeee"
     borderopacity="1"
     inkscape:showpageshadow="0"
     inkscape:pageopacity="0"
     inkscape:pagecheckerboard="0"
     inkscape:deskcolor="#d1d1d1"
     inkscape:document-units="pt"
     inkscape:zoom="7.7589301"
     inkscape:cx="9.6018393"
     inkscape:cy="41.693893"
     inkscape:window-width="1440"
     inkscape:window-height="785"
     inkscape:window-x="0"
     inkscape:window-y="25"
     inkscape:window-maximized="1"
     inkscape:current-layer="layer1"
     showguides="true" />
  <defs
     id="defs1" />
  <g
     inkscape:label="Layer 1"
     inkscape:groupmode="layer"
     id="layer1">
    <path
       id="rect7713"
       style="display:none;fill:#000000;fill-opacity:1;stroke:#000000;stroke-width:0;stroke-linecap:round;stroke-linejoin:round"
       d="m -2.45e-4,2.44e-4 v 57.499512 h 5.50049 V 2.44e-4 Z"
       sodipodi:nodetypes="ccccc"
       inkscape:label="1" />
    <path
       id="rect1-71-6"
       style="display:none;fill:#000000;fill-opacity:1;stroke:#000000;stroke-width:0;stroke-linecap:round;stroke-linejoin:round"
       d="M 2.7495117,2.4404149e-4 C 1.2312678,-2.54826e-5 2.695388e-4,1.2309728 -2.2203326e-8,2.7497557 V 25.000732 H 5.5004883 V 5.5007323 H 6.4995117 V 25.999756 h -3.75 C 1.2312681,25.999486 2.6992521e-4,27.230484 -2.2203326e-8,28.749267 V 57.499756 H 12 V 32.500732 H 6.4995117 v 19.5 H 5.5004883 V 31.500244 h 3.75 C 10.768732,31.500514 11.999731,30.269515 12,28.750732 V 2.7497557 C 12.00027,1.2315118 10.769271,5.1360249e-4 9.2504883,2.4404149e-4 Z"
       sodipodi:nodetypes="ccccccccccccccccccccc"
       inkscape:label="2" />
    <path
       id="rect1-71-6-36-7"
       style="display:none;fill:#000000;fill-opacity:1;stroke:#000000;stroke-width:0;stroke-linecap:round;stroke-linejoin:round"
       d="M 2.749511,0 C 1.231267,0 0,1.230973 0,2.75 V 25 H 5.5 V 5.5 h 1 V 26 H 0 v 5.5 H 6.5 V 52 h -1 V 32.5 H 0 v 22.25 c 0,1.518244 1.230728,2.75 2.75,2.75 h 6.5 C 10.768732,57.5 12,56.269027 12,54.75 V 31.499999 c 0,-1.518488 -1.230729,-2.75 -2.75,-2.75 1.518732,0 2.75,-1.230485 2.75,-2.75 V 2.75 C 12,1.2315117 10.769271,0 9.25,0 Z"
       sodipodi:nodetypes="ssccccccccccccssssscssss"
       inkscape:label="3" />
    <path
       id="rect3"
       style="display:none;fill:#000000;fill-opacity:1;stroke:#000000;stroke-width:0;stroke-linecap:round;stroke-linejoin:round"
       d="m 0,2.44e-4 v 31.5 H 6.499512 V 57.499756 H 12 V 2.44e-4 H 6.499512 V 25.999756 H 5.499024 V 2.44e-4 Z"
       sodipodi:nodetypes="ccccccccccc"
       inkscape:label="4" />
    <path
       id="rect1-265"
       style="display:none;fill:#000000;fill-opacity:1;stroke:#000000;stroke-width:0;stroke-linecap:round;stroke-linejoin:round"
       d="M 0,2.4395837e-4 V 31.500244 H 6.499512 V 52.000732 H 5.500488 v -19.5 H 0 v 22.249512 c -2.6999984e-4,1.518244 1.230729,2.749243 2.749512,2.749512 H 9.250488 C 10.768732,57.500026 11.999731,56.269027 12,54.750244 V 28.749267 c 2.69e-4,-1.518244 -1.230729,-2.749242 -2.749512,-2.749511 h -3.75 V 5.5007323 H 6.499512 V 25.000732 H 12 V 2.4395837e-4 Z"
       sodipodi:nodetypes="cccccccccccccccccccc"
       inkscape:label="5" />
    <path
       id="rect1-71-6-2-1"
       style="display:none;fill:#000000;fill-opacity:1;stroke:#000000;stroke-width:0;stroke-linecap:round;stroke-linejoin:round"
       d="M 2.749511,2.4399986e-4 C 1.231267,-2.5137442e-5 2.7e-4,1.230973 0,2.7497557 V 54.750244 c -2.7e-4,1.518244 1.230728,2.749242 2.749511,2.749512 H 9.250488 C 10.768732,57.500026 11.999731,56.269027 12,54.750244 V 28.749267 c 2.69e-4,-1.518244 -1.230729,-2.749242 -2.749512,-2.749511 h -3.75 V 5.5007323 H 6.500976 V 25.000732 H 12 V 2.7497557 C 12.00027,1.2315117 10.769271,5.1339525e-4 9.250488,2.4399986e-4 Z M 5.500488,31.500244 H 6.500976 V 52.000732 H 5.500488 Z"
       sodipodi:nodetypes="ccccccccccccccccccccc"
       inkscape:label="6" />
    <path
       id="rect1-265-0-2"
       style="display:none;fill:#000000;fill-opacity:1;stroke:#000000;stroke-width:0;stroke-linecap:round;stroke-linejoin:round"
       d="M 0,2.44e-4 V 25.000732 H 5.49902 V 5.5007323 H 6.49951 V 25.999756 h -3.75 C 1.23127,25.999487 2.7e-4,27.230485 0,28.749267 V 57.499756 H 5.49902 V 31.500244 H 9.25049 C 10.76873,31.500513 11.99973,30.269514 12,28.750732 V 2.44e-4 Z"
       sodipodi:nodetypes="ccccccccccccccc"
       inkscape:label="7" />
    <path
       id="rect1-71-6-2-1-3-3"
       style="display:none;fill:#000000;fill-opacity:1;stroke:#000000;stroke-width:0;stroke-linecap:round;stroke-linejoin:round"
       d="M 2.74951,2.4399993e-4 C 1.23127,-2.4584818e-5 2.7e-4,1.2309734 0,2.7497557 V 25.999756 c 0,1.188219 0.93699,2.750688 2.74951,2.751011 C 1.23111,28.751003 2.7e-4,29.981843 0,31.500244 v 23.25 c -2.7e-4,1.518243 1.23073,2.749242 2.74951,2.749512 h 6.50098 c 1.51824,2.69e-4 2.74924,-1.23073 2.74951,-2.749512 v -23.25 C 11.99973,29.981843 10.76889,28.751003 9.25049,28.750732 10.76889,28.750461 11.99973,27.519622 12,26.001221 V 2.7497557 C 12.00027,1.2315125 10.76927,5.1449936e-4 9.25049,2.4399993e-4 Z M 5.50049,5.5007323 H 6.49951 V 25.999756 H 5.50049 Z m 0,25.9995117 H 6.49951 V 52.000732 H 5.50049 Z"
       sodipodi:nodetypes="ccccccccccccccccccccccccc"
       inkscape:label="8" />
    <path
       id="rect1-71-6-2-1-8"
       style="display:none;fill:#000000;fill-opacity:1;stroke:#000000;stroke-width:0;stroke-linecap:round;stroke-linejoin:round"
       d="M 9.25049,57.49976 C 10.76873,57.50003 11.99973,56.26903 12,54.75024 V 2.74976 C 12.00027,1.23151 10.76927,5.1e-4 9.25049,2.4e-4 H 2.74951 C 1.23127,-3e-5 2.7e-4,1.23097 0,2.74976 v 26.00097 c -2.7e-4,1.51825 1.23073,2.74925 2.74951,2.74951 h 3.75 V 51.99927 H 5.49902 v -19.5 H 0 v 22.25097 c -2.7e-4,1.51825 1.23073,2.74925 2.74951,2.74952 z m -2.75098,-31.5 H 5.49902 V 5.49927 h 1.00049 z"
       sodipodi:nodetypes="ccccccccccccccccccccc"
       inkscape:label="9" />
    <path
       id="rect1-71-6-2-1-3-3-1-4"
       style="display:none;fill:#000000;fill-opacity:1;stroke:#000000;stroke-width:0;stroke-linecap:round;stroke-linejoin:round"
       d="M 2.74951,2.4399993e-4 C 1.23127,-2.4584818e-5 2.7e-4,1.2309734 0,2.7497557 V 54.750244 c -2.7e-4,1.518243 1.23073,2.749242 2.74951,2.749512 H 9.25049 C 10.76873,57.500025 11.99973,56.269026 12,54.750244 V 2.7497557 C 12.00027,1.2315125 10.76927,5.1449936e-4 9.25049,2.4399993e-4 Z M 5.49902,5.5007323 H 6.49951 V 52.000732 H 5.49902 Z"
       sodipodi:nodetypes="cccccccccccccc"
       inkscape:label="0" />
    <path
       id="rect1-71-6-2-1-3-3-1-4-9"
       style="display:none;fill:#000000;fill-opacity:1;stroke:#000000;stroke-width:0;stroke-linecap:round;stroke-linejoin:round"
       d="M 2.74951,2.440412e-4 C 1.23127,-2.4543556e-5 2.699778e-4,1.2309734 -2.2203352e-8,2.7497557 V 57.499756 H 5.50049 V 31.500244 H 6.49951 V 57.499756 H 12 V 2.7497557 C 12.00027,1.2315125 10.76927,5.1454063e-4 9.25049,2.440412e-4 Z M 5.50049,5.5007323 H 6.49951 V 25.999756 H 5.50049 Z"
       sodipodi:nodetypes="cccccccccccccccc"
       inkscape:label="A" />
    <path
       id="rect2565"
       style="display:none;fill:#000000;fill-opacity:1;stroke:#000000;stroke-width:0;stroke-linecap:round;stroke-linejoin:round"
       d="M -2.2203295e-8,2.44e-4 V 57.499756 H 5.50049 V 31.500244 h 3.75 C 10.76873,31.500513 11.99973,30.269514 12,28.750732 V 2.7497557 C 12.00027,1.2315125 10.76927,5.1449943e-4 9.25049,2.44e-4 Z M 5.50049,5.5007323 H 6.50098 V 25.999756 H 5.50049 Z"
       sodipodi:nodetypes="cccccccccccccc"
       inkscape:label="P" />
    <path
       id="rect5139"
       style="display:none;fill:#000000;fill-opacity:1;stroke:#000000;stroke-width:0;stroke-linecap:round;stroke-linejoin:round"
       d="M 0,2.44e-4 V 57.499756 H 5.49902 V 5.5007323 H 6.49951 V 57.499756 H 12 V 5.5007323 h 0.99902 V 57.499756 h 5.50049 V 2.7497557 C 18.49978,1.2315125 17.26878,5.1449943e-4 15.75,2.44e-4 Z"
       sodipodi:nodetypes="cccccccccccccc"
       inkscape:label="M" />
    <path
       id="rect8362"
       style="display:none;fill:#000000;fill-opacity:1;stroke:#000000;stroke-width:0;stroke-linecap:round;stroke-linejoin:round"
       d="m -2.45e-4,13 v 12 h 5.50049 V 13 Z m 0,19.5 v 12 h 5.50049 v -12 z"
       sodipodi:nodetypes="cccccccccc"
       inkscape:label="Colon" />
    <path
       id="rect1-7-3-14"
       style="display:inline;fill:#dc8200;fill-opacity:1;stroke:#000000;stroke-width:0;stroke-linecap:round;stroke-linejoin:round"
       d="m -56.104001,-51.419715 a 2.7490239,2.75 0 0 0 -2.749511,2.749512 v 0.250488 h 3 v -3 z" />
    <path
       id="path2562-3"
       style="fill:#dc8200;fill-opacity:1;stroke:#000000;stroke-width:0;stroke-linecap:round;stroke-linejoin:round"
       d="m -52.354002,-51.419715 a 2.75,2.75 0 0 0 -2.74951,2.749512 h 2.74951 z" />
  </g>
</svg>
