<?xml version="1.0" encoding="UTF-8" standalone="no"?>
<!-- Created with Inkscape (http://www.inkscape.org/) -->

<svg
   width="100pt"
   height="100pt"
   viewBox="0 0 100 100"
   version="1.1"
   id="svg1"
   xml:space="preserve"
   inkscape:version="1.3.2 (091e20e, 2023-11-25)"
   sodipodi:docname="icons.svg"
   inkscape:export-filename="../images/prompts/pin.png"
   inkscape:export-xdpi="129.60001"
   inkscape:export-ydpi="129.60001"
   xmlns:inkscape="http://www.inkscape.org/namespaces/inkscape"
   xmlns:sodipodi="http://sodipodi.sourceforge.net/DTD/sodipodi-0.dtd"
   xmlns:xlink="http://www.w3.org/1999/xlink"
   xmlns="http://www.w3.org/2000/svg"
   xmlns:svg="http://www.w3.org/2000/svg"><sodipodi:namedview
     id="namedview1"
     pagecolor="#505050"
     bordercolor="#eeeeee"
     borderopacity="1"
     inkscape:showpageshadow="0"
     inkscape:pageopacity="0"
     inkscape:pagecheckerboard="0"
     inkscape:deskcolor="#d1d1d1"
     inkscape:document-units="pt"
     inkscape:zoom="2.3767102"
     inkscape:cx="41.023091"
     inkscape:cy="61.850199"
     inkscape:window-width="1440"
     inkscape:window-height="784"
     inkscape:window-x="0"
     inkscape:window-y="25"
     inkscape:window-maximized="1"
     inkscape:current-layer="layer6"
     showguides="true" /><defs
     id="defs1"><linearGradient
       id="linearGradient1"
       inkscape:collect="always"><stop
         style="stop-color:#1e5244;stop-opacity:1;"
         offset="0"
         id="stop1" /><stop
         style="stop-color:#000000;stop-opacity:0;"
         offset="1"
         id="stop2" /></linearGradient><clipPath
       id="c"><path
         d="M 6.699219 48.574219 L 56.949219 -1.675781 L 123.949219 48.574219 C 123.949219 90.203125 90.203125 123.949219 48.574219 123.949219 C 6.945312 123.949219 -26.800781 90.203125 -26.800781 48.574219 "
         id="path2-91" /></clipPath><clipPath
       id="a-3"><path
         d="M 6.699219 48.574219 L 56.949219 -1.675781 L 123.949219 48.574219 C 123.949219 90.203125 90.203125 123.949219 48.574219 123.949219 C 6.945312 123.949219 -26.800781 90.203125 -26.800781 48.574219 "
         id="path4-00" /></clipPath><clipPath
       id="a-6"><path
         d="M 13.398438 46.898438 L 67 20.101562 L 375.199219 40.199219 C 375.199219 225.214844 225.214844 375.199219 40.199219 375.199219 C -144.816406 375.199219 -294.800781 225.214844 -294.800781 40.199219 "
         id="path3-14" /></clipPath><clipPath
       clipPathUnits="userSpaceOnUse"
       id="clipPath48"><g
         id="g49"
         style="stroke-width:1"><path
           d="M 5.0000013,9.6132557 H 94.999999 V 56.629093 H 5.0000013 Z m 0,0"
           id="path48"
           style="stroke-width:1" /></g></clipPath><clipPath
       id="a"><path
         d="M 3 0 L 60 0 L 60 73.699219 L 3 73.699219 Z M 3 0 "
         id="path1-77" /></clipPath><clipPath
       id="d"><path
         d="M 28 20 L 66 20 L 66 77 L 28 77 Z M 28 20 "
         id="path1-48" /></clipPath><clipPath
       id="c-0"><path
         d="M 6.699219 48.574219 L 56.949219 -1.675781 L 123.949219 48.574219 C 123.949219 90.203125 90.203125 123.949219 48.574219 123.949219 C 6.945312 123.949219 -26.800781 90.203125 -26.800781 48.574219 "
         id="path2" /></clipPath><clipPath
       id="b"><path
         d="M 28 23 L 49 23 L 49 52 L 28 52 Z M 28 23 "
         id="path3-4" /></clipPath><clipPath
       id="a-60"><path
         d="M 6.699219 48.574219 L 56.949219 -1.675781 L 123.949219 48.574219 C 123.949219 90.203125 90.203125 123.949219 48.574219 123.949219 C 6.945312 123.949219 -26.800781 90.203125 -26.800781 48.574219 "
         id="path4" /></clipPath><linearGradient
       inkscape:collect="always"
       xlink:href="#linearGradient1"
       id="linearGradient2"
       x1="35.353882"
       y1="50.290939"
       x2="64.646118"
       y2="50.290939"
       gradientUnits="userSpaceOnUse" /></defs><g
     inkscape:groupmode="layer"
     id="layer6"
     inkscape:label="other"
     inkscape:highlight-color="#f3215a"><path
       id="path1-79"
       style="display:none;stroke:none;stroke-width:0.75;stroke-dasharray:none"
       d="M 43.056322,11.247625 C 27.082725,11.247625 11.109248,21.434942 10,41.808696 11.607136,71.32412 44.413143,79.45141 63.217652,66.203347 71.984049,72.313459 79.343296,79.82704 85.294874,88.752375 L 90,84.047247 C 81.202609,78.178277 73.773523,70.937379 67.706234,62.334276 72.447003,57.349296 75.638755,50.511773 76.112644,41.808696 75.003396,21.434942 59.029919,11.247625 43.056322,11.247625 Z m 0,1.664934 c 13.755103,0 27.510137,9.631628 26.400889,28.896137 2.218495,38.524688 -55.020272,38.524688 -52.801777,0 C 15.546186,22.544187 29.30122,12.912559 43.056322,12.912559 Z"
       inkscape:label="magnifying-glass" /><path
       id="path2-8-9"
       style="display:none;stroke:none;stroke-width:0;stroke-dasharray:none"
       d="M 49.998914,20 C 42.801816,30.336846 34.037386,39.0994 23.700394,46.296352 l 4.709794,4.711962 C 33.735076,43.360168 39.9215,36.576691 46.965304,30.649078 48.879531,47.100804 48.783272,63.547761 46.668232,80 h 6.661366 c -2.115042,-16.452239 -2.2113,-32.899196 -0.297074,-49.350922 7.04391,5.927628 13.230081,12.71088 18.555116,20.359236 l 4.711966,-4.711962 C 65.96261,39.099398 57.196012,30.336846 49.998914,20 Z"
       inkscape:label="arrow" /><path
       id="path1-380"
       style="display:none;stroke-width:0.75"
       d="M 33.287299,30 30,33.287299 C 36.366047,38.606816 42.479657,44.179517 48.346514,49.999245 42.479574,55.819068 36.366145,61.393102 30,66.7127 L 33.287299,70 C 38.606901,63.633854 44.179419,57.518915 49.999245,51.651973 55.819167,57.518997 61.39302,63.633756 66.7127,70 L 70,66.7127 C 63.633757,61.39302 57.518997,55.819167 51.651973,49.999245 57.518915,44.179419 63.633853,38.606899 70,33.287299 L 66.7127,30 C 61.393101,36.366145 55.819068,42.479574 49.999245,48.346514 44.179517,42.479657 38.606816,36.366047 33.287299,30 Z"
       inkscape:label="cross" /><path
       id="path2-8"
       style="display:none;stroke:none;stroke-width:0;stroke-dasharray:none"
       inkscape:label="options"
       d="m 49.999512,12.46582 c -19.451965,0 -38.903139,12.510266 -39.999024,37.533692 2.191771,50.046858 77.807741,50.046858 79.999512,0 C 88.904116,24.976086 69.451475,12.46582 49.999512,12.46582 Z m 0,1.64209 c 17.260191,0 34.520683,11.96406 33.424804,35.891602 2.191766,47.855081 -69.039915,47.855081 -66.848144,0 C 15.480285,26.07197 32.739319,14.10791 49.999512,14.10791 Z m -17.692383,30.086426 -5.806641,5.755371 5.806641,5.856445 5.805176,-5.856445 z m 17.692383,0 -5.805176,5.755371 5.805176,5.856445 5.80664,-5.856445 z m 17.693847,0 -5.80664,5.755371 5.80664,5.856445 L 73.5,49.949707 Z" /><path
       id="path3-0"
       style="display:none;stroke-width:0.75"
       d="m 10.000488,18.918457 v 7.163086 c 26.665085,-2.388058 53.334428,-2.388058 79.999512,0 v -7.163086 c -26.665084,2.388058 -53.334427,2.388058 -79.999512,0 z m 0,27.499512 v 7.164551 c 26.665085,-2.388058 53.334428,-2.388058 79.999512,0 v -7.164551 c -26.665084,2.388057 -53.334427,2.388057 -79.999512,0 z m 0,27.499511 v 7.164551 c 26.665085,-2.388057 53.334428,-2.388057 79.999512,0 V 73.91748 c -26.665084,2.388058 -53.334427,2.388058 -79.999512,0 z"
       inkscape:label="handle" /><path
       id="path14"
       style="font-size:30px;line-height:1.25;font-family:Trickster;-inkscape-font-specification:Trickster;display:none;stroke:none;stroke-width:0;stroke-dasharray:none"
       d="m 34.35534,10 -8.708645,8.632753 8.708645,8.783181 8.707289,-8.783181 z m 31.290676,0 -8.705933,8.632753 8.705933,8.783181 8.707289,-8.783181 z m -31.290677,31.293388 -8.708645,8.632753 8.708645,8.783181 8.70729,-8.783181 z m 31.290677,0 -8.705933,8.632753 8.705933,8.783181 8.707289,-8.783181 z M 34.355339,72.586776 25.646694,81.216818 34.355339,90 l 8.70729,-8.783182 z m 31.290677,0 -8.705933,8.630042 L 65.646016,90 74.353305,81.216818 Z"
       inkscape:label="grip" /><path
       id="path2-8-6"
       style="display:none;stroke:none;stroke-width:0;stroke-dasharray:none"
       inkscape:label="delete"
       d="m 49.999512,12.46582 c -19.451946,0 -38.90314,12.510291 -39.999024,37.533692 2.191769,50.046808 77.807743,50.046808 79.999512,0 C 88.904117,24.976111 69.451455,12.46582 49.999512,12.46582 Z m 0,1.64209 c 17.260173,0 34.520682,11.964084 33.424804,35.891602 2.191764,47.855033 -69.039913,47.855033 -66.848144,0 C 15.480286,26.071994 32.739336,14.10791 49.999512,14.10791 Z M 29.0625,46.999512 v 6 c 13.958327,-1.999996 27.91716,-1.999996 41.875488,0 v -6 c -13.958328,2.000002 -27.917161,2.000002 -41.875488,0 z" /><path
       id="path11"
       style="display:none;stroke-width:0.749999"
       d="M 84.477757,15.523031 C 79.75692,10.802194 73.763482,7.3535015 67.385434,12.724436 c -1.200672,3.16624 -3.188035,5.548363 -5.936551,7.167996 0.360348,0.514964 0.726956,1.023823 1.098549,1.527727 0.371595,0.503903 0.748176,1.002853 1.13025,1.496025 1.618219,-3.014566 4.09507,-5.17272 7.453302,-6.446198 4.86738,-5.87449 8.406841,-2.710324 11.758491,0.641328 3.351654,3.35165 6.515814,6.891114 0.641328,11.75849 -1.273478,3.358233 -3.431633,5.835083 -6.446198,7.453304 0.493263,0.382161 0.99217,0.758695 1.496024,1.130248 0.50385,0.371559 1.012661,0.738124 1.527726,1.098548 1.619635,-2.748511 4.001758,-4.735876 7.167992,-5.936549 5.370889,-6.378106 1.92224,-12.371489 -2.79859,-17.092324 z m -4.369402,23.028873 c -0.515061,-0.360429 -1.023871,-0.726995 -1.527726,-1.098548 -0.503859,-0.371548 -1.002758,-0.74809 -1.496024,-1.130248 -5.036466,-3.901992 -9.505001,-8.370385 -13.406923,-13.406924 -0.382072,-0.493172 -0.758655,-0.992122 -1.13025,-1.496025 -0.371593,-0.503903 -0.738199,-1.012765 -1.098549,-1.527727 -0.743153,0.437925 -1.531198,0.831213 -2.3873,1.155854 -0.560922,0.671275 -1.137488,1.327073 -1.703297,1.993482 0.690827,0.474596 1.368771,0.962323 2.037374,1.459448 0.668601,0.497123 1.327866,1.003646 1.980069,1.516752 4.704329,3.701014 8.906029,7.902818 12.607092,12.607092 0.5132,0.652301 1.019671,1.31152 1.516753,1.980069 0.49708,0.668549 0.984774,1.346434 1.459448,2.037375 0.666406,-0.56581 1.322205,-1.142376 1.99348,-1.703299 0.324642,-0.856098 0.717929,-1.644146 1.155853,-2.387301 z m -3.149333,4.0906 C 76.484348,41.951563 75.996654,41.273678 75.499574,40.605129 75.002492,39.93658 74.496018,39.277363 73.982821,38.62506 61.816183,53.019009 48.523568,66.290969 34.091254,78.419093 28.264646,81.047745 22.229475,82.909214 15.99142,84.006937 17.089699,77.769127 18.953812,71.734655 21.582918,65.908318 33.710752,51.476491 46.982209,38.184245 61.375729,26.017968 60.723523,25.504863 60.064261,24.998339 59.39566,24.501216 58.727057,24.004091 58.049113,23.516364 57.358286,23.041768 45.121128,37.454645 31.754426,50.742114 17.236275,62.873594 16.509666,72.364504 14.094942,81.40988 9.9999998,89.998348 l 0.0013,8.89e-4 c 8.588797,-4.095387 17.633329,-6.509652 27.124725,-7.236308 l 0.0013,0.0013 C 49.258617,68.246302 62.546143,54.879658 76.959022,42.642504 Z M 63.442365,23.368527 c -0.07695,0.152088 -0.152486,0.306156 -0.225562,0.462098 -0.07308,0.155943 -0.143732,0.312486 -0.212149,0.473071 -0.06842,0.160589 -0.134561,0.324114 -0.19752,0.49014 -0.241073,0.201452 -0.478071,0.405857 -0.715704,0.610844 0.237625,-0.204995 0.474623,-0.409401 0.715704,-0.610844 0.06296,-0.166024 0.129101,-0.329553 0.19752,-0.49014 0.06842,-0.160588 0.139072,-0.317131 0.212149,-0.473071 0.07308,-0.155942 0.148619,-0.31001 0.225562,-0.462098 z m 13.189897,13.189896 c -0.152088,0.07695 -0.306155,0.152488 -0.462099,0.225562 -0.155942,0.07308 -0.312485,0.143733 -0.473071,0.21215 -0.160589,0.06842 -0.324112,0.134562 -0.490141,0.197519 -0.201449,0.241087 -0.405851,0.478084 -0.610844,0.715704 0.204993,-0.23762 0.409395,-0.474617 0.610844,-0.715704 0.166024,-0.06296 0.329556,-0.1291 0.490141,-0.197519 0.160589,-0.06842 0.31713,-0.139072 0.473071,-0.21215 0.155944,-0.07308 0.310011,-0.148617 0.462099,-0.225562 z"
       sodipodi:nodetypes="sccsccsccsccscsssscccssssccccscccccsccccccccsscccssccsscccssc"
       inkscape:label="edit" /><path
       id="path3"
       style="display:none;stroke:none;stroke-width:0;stroke-dasharray:none"
       d="m 49.999512,12.46582 c -19.451927,0 -38.903141,12.510316 -39.999024,37.533692 2.191767,50.046758 77.807745,50.046758 79.999512,0 C 88.904118,24.976136 69.451435,12.46582 49.999512,12.46582 Z m 0,1.64209 c 17.260155,0 34.520681,11.964108 33.424804,35.891602 2.191762,47.854985 -69.039911,47.854985 -66.848144,0 C 15.480287,26.072018 32.739353,14.10791 49.999512,14.10791 Z m -3,14.95459 c 0.927699,6.474576 1.419745,12.949135 1.486816,19.423828 C 42.011635,48.419257 35.537076,47.927213 29.0625,46.999512 v 6 c 6.474576,-0.927699 12.949135,-1.419746 19.423828,-1.486817 -0.06704,6.474975 -0.559077,12.950434 -1.486816,19.425293 h 6 C 52.07177,64.463129 51.579732,57.98767 51.512695,51.512695 c 6.474975,0.06704 12.950434,0.559077 19.425293,1.486817 v -6 C 64.463129,47.927254 57.98767,48.419291 51.512695,48.486328 51.579767,42.011635 52.07181,35.537076 52.999512,29.0625 Z"
       inkscape:label="add" /><g
       id="g2"
       style="display:none"
       inkscape:label="location assets"><path
         id="path1-270"
         style="display:inline;fill:#000000;fill-opacity:1;stroke:url(#linearGradient2);stroke-opacity:0;paint-order:stroke fill markers"
         d="M 50,28.824218 C 40.891629,30.324215 34.375983,39.628932 36.145508,48.880859 41.396803,56.029446 46.003,63.445627 50,71.175781 53.997,63.445627 58.603196,56.029446 63.854492,48.880859 65.624016,39.628932 59.10837,30.324215 50,28.824218 Z m -2.264649,4.32129 c 0.727364,-0.01822 1.483798,0.03809 2.264649,0.17871 8.329075,-1.499992 13.948229,6.524439 9.755859,13.658204 C 56.947806,53.619791 53.689746,60.070418 50,66.305176 46.310252,60.070418 43.052194,53.619791 40.24414,46.982422 36.444805,40.517446 40.704167,33.321587 47.735351,33.145508 Z"
         sodipodi:nodetypes="cccccsccccs" /><path
         id="path5"
         style="color:#000000;fill:#000000;-inkscape-stroke:none"
         d="m 49.999512,37.929199 c -2.753362,0 -5.567421,1.672208 -6.101074,4.918946 l -0.01318,0.08203 0.01318,0.0791 c 0.533653,3.246738 3.347711,4.920411 6.101074,4.920411 2.753362,0 5.568886,-1.673673 6.102539,-4.920411 l 0.01318,-0.0791 -0.01318,-0.08203 c -0.533653,-3.246738 -3.349178,-4.918946 -6.102539,-4.918946 z m 0,1.73877 c 0.652821,0 1.293747,0.260743 1.716797,0.763183 0.423048,0.50244 0.667937,1.261612 0.443847,2.400879 l -0.01904,0.09815 0.01904,0.09521 c 0.22409,1.139266 -0.0208,1.899879 -0.443847,2.402343 -0.423054,0.502465 -1.063984,0.761719 -1.716797,0.761719 -0.652814,0 -1.293744,-0.259254 -1.716797,-0.761719 -0.423054,-0.502464 -0.666473,-1.263077 -0.442383,-2.402343 l 0.01904,-0.09521 -0.01904,-0.09815 c -0.22409,-1.139267 0.01933,-1.898439 0.442383,-2.400879 0.423049,-0.50244 1.063975,-0.763183 1.716797,-0.763183 z" /><path
         id="path6"
         style="color:#000000;fill:#000000;-inkscape-stroke:none"
         d="m 49.999512,59.29248 c -6.106158,0 -12.208815,0.625639 -16.905762,1.889649 -2.348474,0.632004 -4.346945,1.422442 -5.828613,2.396484 -1.481669,0.974042 -2.469403,2.156373 -2.661621,3.559571 l -0.0073,0.05566 0.0073,0.0542 c 0.192218,1.403196 1.179954,2.586952 2.661621,3.561035 1.481666,0.974082 3.480139,1.764426 5.828613,2.396484 4.696948,1.264118 10.799599,1.888184 16.905762,1.888184 6.106163,0 12.210278,-0.624066 16.907226,-1.888184 2.348474,-0.632058 4.345483,-1.422402 5.827149,-2.396484 1.481665,-0.974083 2.470868,-2.157839 2.663086,-3.561035 l 0.0073,-0.0542 -0.0073,-0.05566 C 75.204754,65.734986 74.215554,64.552655 72.733887,63.578613 71.252219,62.604571 69.255212,61.814133 66.906738,61.182129 62.209791,59.918119 56.105671,59.29248 49.999512,59.29248 Z m 0,1.129395 c 5.364269,0 10.734924,0.598567 14.633789,1.775391 1.949433,0.588411 3.527267,1.326896 4.543945,2.167968 1.016679,0.841074 1.46656,1.726773 1.316895,2.771485 l -0.0073,0.05713 0.0073,0.05566 c 0.149665,1.044711 -0.300213,1.933302 -1.316895,2.774414 -1.016681,0.841113 -2.597442,1.576574 -4.546875,2.165039 -3.898865,1.17693 -9.266595,1.77539 -14.630859,1.77539 -5.364265,0 -10.731996,-0.598461 -14.63086,-1.77539 -1.949433,-0.588465 -3.530194,-1.323926 -4.546875,-2.165039 -1.016682,-0.841112 -1.465094,-1.729703 -1.315429,-2.774414 l 0.0073,-0.05566 -0.0073,-0.05713 c -0.149665,-1.044712 0.29875,-1.930411 1.315429,-2.771485 1.016678,-0.841072 2.595978,-1.579557 4.545411,-2.167968 3.898866,-1.176825 9.268054,-1.775391 14.632324,-1.775391 z" /></g><path
       id="path19"
       style="color:#000000;display:none;fill:#ff453a;fill-opacity:1;stroke:none;stroke-width:1.96819;-inkscape-stroke:none;paint-order:stroke fill markers"
       d="M 49.999267,3.9746096 C 32.072281,6.9268856 19.248443,25.241153 22.7312,43.450683 33.066736,57.520446 42.13242,72.117147 49.999267,87.331543 57.866114,72.117147 66.931795,57.520446 77.267333,43.450683 80.750089,25.241153 67.926251,6.9268856 49.999267,3.9746096 Z m 4.458984,8.5048824 C 68.296943,12.826056 76.678244,26.989582 69.200439,39.713867 63.673663,52.777457 57.26138,65.474429 49.999267,77.745605 42.737149,65.474429 36.324872,52.777457 30.798095,39.713867 23.320289,26.98958 31.703055,12.827513 45.541747,12.480957 c 1.431589,-0.03586 2.920658,0.0748 4.45752,0.351562 1.536861,-0.276775 3.027395,-0.388879 4.458984,-0.353027 z m -4.460449,9.416016 c -5.419135,0 -10.956994,3.290961 -12.007324,9.681152 l -0.02637,0.161133 0.02637,0.156738 c 1.05033,6.390191 6.588187,9.684082 12.007324,9.684082 5.419133,0 10.96139,-3.293891 12.011719,-9.684082 l 0.02637,-0.156738 -0.02637,-0.161133 C 60.959192,25.186469 55.416933,21.895508 49.997802,21.895508 Z m 0,3.421875 c 1.284874,0 2.546752,0.514033 3.379394,1.502929 0.832639,0.988896 1.314099,2.483294 0.873047,4.725586 l -0.03662,0.19336 0.03662,0.186035 c 0.441052,2.242289 -0.04041,3.739572 -0.873047,4.728515 -0.83265,0.988946 -2.094536,1.5 -3.379394,1.5 -1.284861,0 -2.545282,-0.511054 -3.37793,-1.5 -0.83265,-0.988943 -1.312632,-2.486226 -0.871582,-4.728515 l 0.03809,-0.186035 -0.03809,-0.19336 c -0.44105,-2.242292 0.03893,-3.73669 0.871582,-4.725586 0.83264,-0.988896 2.093053,-1.502929 3.37793,-1.502929 z m 19.025391,40.703613 c -0.482537,0.763722 -0.971676,1.5256 -1.447266,2.29248 4.113001,0.571092 7.9439,1.338714 11.225098,2.329102 3.836847,1.158104 6.941859,2.611703 8.942871,4.26709 2.001013,1.655389 2.885875,3.398892 2.591308,5.455078 l -0.01465,0.112793 0.01465,0.109863 c 0.294567,2.056186 -0.590289,3.804006 -2.591308,5.459473 -2.001017,1.655467 -5.111884,3.103021 -8.948731,4.26123 -7.67369,2.316416 -18.239496,3.495117 -28.797363,3.495117 -10.557873,0 -21.122209,-1.178703 -28.795899,-3.495117 -3.836847,-1.158209 -6.947713,-2.605763 -8.94873,-4.26123 -2.001019,-1.655467 -2.8844126,-3.403287 -2.5898438,-5.459473 l 0.014648,-0.109863 -0.014648,-0.112793 C 9.3687604,78.30856 10.25216,76.565057 12.253173,74.909668 c 2.001012,-1.655387 5.108953,-3.108986 8.945801,-4.26709 3.280762,-0.990258 7.108932,-1.758029 11.220703,-2.329102 -0.47515,-0.766172 -0.965182,-1.526529 -1.447266,-2.28955 -5.149587,0.615029 -9.999834,1.477223 -14.248535,2.620605 -4.622234,1.243901 -8.5549942,2.799702 -11.4711913,4.716797 -2.9162011,1.917096 -4.85996209,4.244594 -5.23828126,7.006348 L -2.45e-4,80.477539 0.01440344,80.584472 c 0.37831917,2.76175 2.32208406,5.090636 5.23828126,7.007813 2.9161932,1.917174 6.8489573,3.47279 11.4711913,4.716797 9.244466,2.48802 21.255861,3.716308 33.273926,3.716308 12.018064,0 24.032389,-1.228288 33.276855,-3.716308 4.622235,-1.244007 8.553532,-2.799623 11.469727,-4.716797 2.916191,-1.917177 4.862889,-4.246063 5.241211,-7.007813 l 0.01465,-0.106933 -0.01465,-0.109863 c -0.378324,-2.761754 -2.325016,-5.089252 -5.241211,-7.006348 -2.916199,-1.917095 -6.847492,-3.472896 -11.469727,-4.716797 -4.249585,-1.14362 -9.10002,-2.008489 -14.251464,-2.623535 z"
       inkscape:label="location" /><path
       id="path7"
       style="color:#000000;display:none;fill:#ff453a;fill-opacity:1;stroke:none;stroke-width:1.96819;-inkscape-stroke:none;paint-order:stroke fill markers"
       d="M 49.999267,3.9746096 C 32.072281,6.9268856 19.248443,25.241153 22.7312,43.450683 33.066736,57.520446 42.13242,72.117147 49.999267,87.331543 57.866114,72.117147 66.931795,57.520446 77.267333,43.450683 80.750089,25.241153 67.926251,6.9268856 49.999267,3.9746096 Z M 69.023193,66.020996 c -0.482537,0.763722 -0.971676,1.5256 -1.447266,2.29248 4.113001,0.571092 7.9439,1.338714 11.225098,2.329102 3.836847,1.158104 6.941859,2.611703 8.942871,4.26709 2.001013,1.655389 2.885875,3.398892 2.591308,5.455078 l -0.01465,0.112793 0.01465,0.109863 c 0.294567,2.056186 -0.590289,3.804006 -2.591308,5.459473 -2.001017,1.655467 -5.111884,3.103021 -8.948731,4.26123 -7.67369,2.316416 -18.239496,3.495117 -28.797363,3.495117 -10.557873,0 -21.122209,-1.178703 -28.795899,-3.495117 -3.836847,-1.158209 -6.947713,-2.605763 -8.94873,-4.26123 -2.001019,-1.655467 -2.8844126,-3.403287 -2.5898438,-5.459473 l 0.014648,-0.109863 -0.014648,-0.112793 C 9.3687604,78.30856 10.25216,76.565057 12.253173,74.909668 c 2.001012,-1.655387 5.108953,-3.108986 8.945801,-4.26709 3.280762,-0.990258 7.108932,-1.758029 11.220703,-2.329102 -0.47515,-0.766172 -0.965182,-1.526529 -1.447266,-2.28955 -5.149587,0.615029 -9.999834,1.477223 -14.248535,2.620605 -4.622234,1.243901 -8.5549942,2.799702 -11.4711913,4.716797 -2.9162011,1.917096 -4.85996209,4.244594 -5.23828126,7.006348 L -2.45e-4,80.477539 0.01440344,80.584472 c 0.37831917,2.76175 2.32208406,5.090636 5.23828126,7.007813 2.9161932,1.917174 6.8489573,3.47279 11.4711913,4.716797 9.244466,2.48802 21.255861,3.716308 33.273926,3.716308 12.018064,0 24.032389,-1.228288 33.276855,-3.716308 4.622235,-1.244007 8.553532,-2.799623 11.469727,-4.716797 2.916191,-1.917177 4.862889,-4.246063 5.241211,-7.007813 l 0.01465,-0.106933 -0.01465,-0.109863 c -0.378324,-2.761754 -2.325016,-5.089252 -5.241211,-7.006348 -2.916199,-1.917095 -6.847492,-3.472896 -11.469727,-4.716797 -4.249585,-1.14362 -9.10002,-2.008489 -14.251464,-2.623535 z"
       inkscape:label="location"
       sodipodi:nodetypes="cccccccsscccssssscccssccssccsssssssccssc" /><path
       id="path8"
       style="color:#000000;display:none;fill:#ffffff;fill-opacity:1;stroke:none;stroke-width:1.96819;-inkscape-stroke:none;paint-order:stroke fill markers"
       d="m 49.997802,21.895508 c -5.419135,0 -10.956994,3.290961 -12.007324,9.681152 l -0.02637,0.161133 0.02637,0.156738 c 1.05033,6.390191 6.588187,9.684082 12.007324,9.684082 5.419133,0 10.96139,-3.293891 12.011719,-9.684082 l 0.02637,-0.156738 -0.02637,-0.161133 C 60.959192,25.186469 55.416933,21.895508 49.997802,21.895508 Z m 0,3.421875 c 1.284874,0 2.546752,0.514033 3.379394,1.502929 0.832639,0.988896 1.314099,2.483294 0.873047,4.725586 l -0.03662,0.19336 0.03662,0.186035 c 0.441052,2.242289 -0.04041,3.739572 -0.873047,4.728515 -0.83265,0.988946 -2.094536,1.5 -3.379394,1.5 -1.284861,0 -2.545282,-0.511054 -3.37793,-1.5 -0.83265,-0.988943 -1.312632,-2.486226 -0.871582,-4.728515 l 0.03809,-0.186035 -0.03809,-0.19336 c -0.44105,-2.242292 0.03893,-3.73669 0.871582,-4.725586 0.83264,-0.988896 2.093053,-1.502929 3.37793,-1.502929 z"
       inkscape:label="location"
       sodipodi:nodetypes="scccscccssscccssscccss" /><path
       d="m 57.362225,34.23706 c 2.739437,-13.927235 -17.463888,-13.927235 -14.724451,0 -2.739437,13.927234 17.463888,13.927234 14.724451,0 h 8.2183 c -2.739438,16.666667 -28.421613,16.666667 -31.161051,0 2.739438,-16.666666 28.421613,-16.666666 31.161051,0"
       stroke="none"
       fill-rule="nonzero"
       fill="#000000"
       fill-opacity="1"
       id="path2-27"
       style="display:none;fill:#ffffff;fill-opacity:1;stroke-width:1.36971" /></g><g
     inkscape:groupmode="layer"
     id="layer5"
     inkscape:label="tab icons"
     style="display:inline"><path
       id="path1-039"
       style="display:none;stroke-width:0.75"
       inkscape:label="notifications"
       d="m 50,13.839502 c -2.208946,5.39e-4 -3.999294,1.791542 -3.999024,4.000488 h 0.01611 c -9.027678,0.970853 -17.147434,5.272602 -18.124512,12.909668 2.238802,4.186515 2.238802,8.375984 0,12.5625 2.238802,13.69919 -5.729002,24.374996 -15.392578,22.875 v 4.5 c 0.0034,-4.65e-4 0.0068,-9.65e-4 0.01025,-0.0015 L 12.5,70.690088 c 7.396845,2.761693 16.00859,4.575361 25.000488,5.441894 2.197797,13.371356 22.802692,13.371356 25.000488,0 h -0.01318 C 71.484472,75.26536 80.099525,73.450179 87.5,70.687158 v -4.5 c -9.663584,1.499998 -17.629913,-9.175809 -15.391114,-22.875 -2.238799,-4.186516 -2.238799,-8.375984 0,-12.5625 C 71.131809,23.112572 63.01089,18.810833 53.98291,17.83999 h 0.01758 C 54.000758,15.630472 52.209518,13.839233 50,13.839502 Z m 0,4.911621 c 8.255578,0 16.511979,3.99904 15.392578,11.998535 2.238802,4.186515 2.238802,8.375984 0,12.5625 1.702065,10.684418 7.212012,20.074665 14.608887,24.624023 -16.024127,9.149828 -43.979246,9.151552 -60.00293,0.0015 7.398985,-4.548714 12.908072,-13.939728 14.610351,-24.625488 -2.2388,-4.186514 -2.2388,-8.375985 0,-12.5625 C 33.489487,22.750161 41.744419,18.751123 50,18.751123 Z m -5.985352,57.834961 c 3.97999,0.18002 7.99218,0.180319 11.972168,0 1.651377,10.566908 -13.623545,10.566908 -11.972168,0 z" /><path
       id="path1-7938"
       style="display:none;stroke-width:0.75"
       d="m 50.000001,9.9999985 c -8.724026,0 -17.448069,5.3439665 -18.581031,16.0318645 1.003178,9.463585 7.959465,14.735366 15.59594,15.819434 0.771845,2.961506 1.19502,5.922956 1.270157,8.884461 -6.981435,-0.07926 -13.962884,-0.636737 -20.94432,-1.683953 v 6.797775 c 6.958565,-1.043783 13.917158,-1.599583 20.875723,-1.681741 -0.191344,2.920976 -0.721903,5.841784 -1.591017,8.762758 -3.140874,8.828347 -7.902204,16.720825 -14.297015,23.670514 l 5.886094,3.39889 c 2.572827,-8.219437 6.504214,-15.654849 11.783255,-22.311846 5.279476,6.657277 9.210288,14.091965 11.783254,22.311846 l 5.888308,-3.39889 C 61.270141,79.646646 56.50428,71.748609 53.363483,62.912896 52.497562,59.997955 51.970054,57.08278 51.779106,54.167839 c 6.960038,0.08197 13.920111,0.637736 20.880147,1.681741 v -6.797775 c -6.982908,1.047437 -13.965836,1.604885 -20.948745,1.683953 0.07514,-2.961505 0.49831,-5.922955 1.270156,-8.884461 C 60.61941,40.76907 67.577597,35.497835 68.58103,26.031863 67.448068,15.343965 58.724024,9.9999985 50.000001,9.9999985 Z m 0,1.6994445 c 6.458099,0 12.916214,4.777483 11.783253,14.33242 2.265923,19.109875 -25.832431,19.109875 -23.566508,0 -1.132961,-9.554938 5.325153,-14.33242 11.783255,-14.33242 z"
       inkscape:label="credits" /><path
       id="path1-3802"
       style="display:none;stroke-width:0.750001"
       d="m 49.999282,17.320825 c -17.082151,0 -34.164374,10.893925 -35.3506,32.68158 0.111443,2.0469 0.364849,3.997781 0.743712,5.85238 -7.6098088,7.4272 -11.8925964,14.599924 -9.9091962,19.846195 3.7297574,4.558425 12.7514472,4.201041 23.6921762,0.896622 20.217244,13.451188 54.476624,4.590138 56.174507,-26.595197 -0.111628,-2.050385 -0.36377,-4.004219 -0.743712,-5.861647 7.602129,-7.425803 11.894362,-14.599061 9.91151,-19.843878 -1.821154,-2.225772 -4.90392,-3.280268 -8.855024,-3.391879 -4.137149,-0.116867 -9.235802,0.815155 -14.830198,2.50684 -6.093864,-4.056748 -13.462191,-6.091016 -20.833175,-6.091016 z m 0,1.779346 c 13.818094,0 27.63622,9.092025 28.277236,27.27172 C 72.153545,51.445697 64.217572,56.62597 56.423925,61.125634 47.770585,66.121641 38.304367,70.846367 30.296732,73.523133 24.714702,68.375459 21.159418,60.538156 21.766067,50.002405 20.579839,29.400977 35.289587,19.100171 49.999282,19.100171 Z m 30.693715,5.13647 c 3.624669,-0.02077 6.222761,1.118204 7.233224,3.866835 2.817408,3.379717 0.725467,8.043429 -4.056811,13.113408 -1.961659,-6.687815 -5.668379,-11.975046 -10.398052,-15.854251 2.676355,-0.702198 5.125373,-1.113981 7.221639,-1.125992 z m -2.453549,25.566514 c -0.0035,0.0673 -0.003,0.131735 -0.0069,0.19925 C 79.916275,79.244007 49.579528,87.726183 32.669243,75.462343 40.691332,72.69329 49.49624,68.5545 57.90908,63.697345 65.271687,59.446541 72.297028,54.660569 78.239498,49.803155 Z M 16.13147,58.79256 c 1.963093,6.690574 5.671833,11.979589 10.405004,15.858882 C 19.22542,76.567686 13.668805,76.239346 12.072339,71.8967 9.2567123,68.519111 11.353928,63.858639 16.13147,58.79256 Z"
       inkscape:label="bodies" /><path
       id="path24"
       style="color:#000000;display:none;fill:#000000;stroke-width:0.999996;-inkscape-stroke:none"
       inkscape:label="book"
       d="m 30.128906,10.040039 -1.12207,0.177246 c -4.131785,0.648411 -7.503671,4.01948 -8.151856,8.150391 l -0.177246,1.12207 c 0.566977,13.188944 0.812814,47.070955 0.166993,61.981934 l -0.01611,0.08935 0.02637,0.150879 c 0.648167,4.132053 4.017903,7.503653 8.148926,8.151856 l 1.122071,0.177246 c 15.303781,-0.713824 36.789979,-0.575214 49.12207,0 V 86.01709 c -0.95637,0.04461 -1.938737,0.08503 -2.939942,0.123047 -0.651324,-0.171831 -1.21164,-0.50406 -1.658203,-0.950684 -0.819555,-0.819667 -1.261268,-2.024839 -1.019531,-3.46582 l 0.02783,-0.162598 -0.02783,-0.161133 c -0.241692,-1.44024 0.198492,-2.646292 1.018067,-3.46582 0.43719,-0.437168 0.984413,-0.764826 1.618652,-0.94043 1.007093,0.03685 2.057368,0.07144 2.980957,0.112793 -0.531383,-13.04063 -0.679754,-50.130347 0.0059,-67.066406 -15.322914,0.714686 -36.891488,0.570591 -49.125,0 z m 25.444336,3.540527 c 6.382991,0.0085 13.247328,0.107273 20.059571,0.351563 0.407776,13.862833 0.528645,42.833491 0.0542,59.280762 -14.80463,0.541718 -34.056572,0.408567 -45.558106,-0.128907 -2.002414,0.314243 -4.08972,1.311136 -5.783203,2.723145 C 24.007278,60.774679 24.10164,32.833995 24.700196,19.489746 L 24.51123,18.357422 c -0.241694,-1.440246 0.198512,-2.647661 1.018067,-3.467285 0.819556,-0.819628 2.024996,-1.25817 3.46582,-1.016602 l 1.133789,0.19043 c 5.503921,-0.256722 14.806021,-0.497467 25.444336,-0.483399 z M 50.033203,21 l -0.06885,0.01025 c -7.42679,1.162738 -13.56787,7.291881 -14.733398,14.705566 l -0.08203,0.518555 h 4.458984 l -0.08789,-0.524414 c -0.544464,-3.23827 0.459656,-6.096033 2.393554,-8.025879 1.933895,-1.929848 4.801198,-2.935462 8.046387,-2.39209 l 0.07324,0.01318 0.07617,-0.01318 c 3.246343,-0.543387 6.112229,0.462503 8.046387,2.39209 1.934159,1.929584 2.938001,4.785828 2.393554,8.022949 l -0.01172,0.07617 0.01172,0.07471 c 0.544463,3.238271 -0.459659,6.097498 -2.393554,8.027344 -1.933896,1.929855 -4.801198,2.932534 -8.046387,2.38916 l -0.522949,-0.08935 v 4.45166 l 0.518554,-0.08057 c 7.426772,-1.162758 13.56787,-7.290416 14.733399,-14.704101 l 0.01318,-0.06885 -0.01318,-0.07031 C 63.672879,28.301302 57.53247,22.172982 50.103516,21.010254 Z m 1.513184,33.777832 c -3.115878,0 -6.288617,1.873767 -6.89209,5.537109 l -0.01025,0.07471 0.01025,0.07324 C 45.257771,64.126223 48.43051,66 51.546387,66 c 3.11588,0 6.290084,-1.873777 6.893554,-5.537109 l 0.01025,-0.07324 -0.01025,-0.07471 c -0.603472,-3.663342 -3.777674,-5.537109 -6.893554,-5.537109 z m 0,1.747559 c 0.784007,0 1.557479,0.3114 2.069824,0.918457 0.512345,0.607048 0.799239,1.52179 0.536133,2.856445 l -0.01904,0.08935 0.01904,0.08496 c 0.263105,1.334655 -0.02379,2.250853 -0.536133,2.857911 -0.512344,0.607057 -1.285817,0.919912 -2.069824,0.919921 -0.784007,-9e-6 -1.55748,-0.312864 -2.069824,-0.919921 -0.512345,-0.607048 -0.797776,-1.523256 -0.534668,-2.857911 l 0.01758,-0.08496 -0.01758,-0.08935 c -0.263109,-1.334646 0.02232,-2.249388 0.534668,-2.856445 0.512343,-0.607058 1.285816,-0.918457 2.069824,-0.918457 z m 2.910644,20.096191 c 5.698229,3.17e-4 11.748788,0.07456 17.887207,0.246094 -1.228183,1.3202 -2.109831,2.883654 -2.370117,4.54248 l -0.02344,0.150879 0.02344,0.150879 c 0.265779,1.694346 0.98994,3.259653 2.036133,4.562988 -14.329946,0.398697 -31.47459,0.227733 -41.884277,-0.257812 l -1.13086,0.188965 c -1.440309,0.241705 -2.646266,-0.196935 -3.46582,-1.016602 -0.819555,-0.819667 -1.259805,-2.024836 -1.018067,-3.46582 l 0.02637,-0.162598 -0.01611,-0.09961 c -0.01625,-0.375646 -0.02727,-0.943207 -0.04248,-1.359375 0.109873,-0.869704 0.491453,-1.609158 1.050293,-2.167969 0.819572,-0.819528 2.024959,-1.259641 3.46582,-1.018066 l 1.133789,0.190429 C 36.44175,76.823283 44.95999,76.621052 54.457037,76.621581 Z m 17.257324,4.77832 c -0.0095,0.0567 0.01675,0.104649 0.0088,0.161133 0.008,0.05648 -0.0183,0.105908 -0.0088,0.162598 z" /><path
       id="path2-2"
       style="display:none;stroke-width:0.75"
       d="M 38.082952,12.76415 C 30.137186,19.4677 21.278333,24.582436 11.5,28.111893 c 1.832565,15.347729 1.832565,39.014061 0,54.361791 l 2.74885,4.762166 C 21.442805,81.166575 29.387296,76.403961 38.082952,72.936821 46.778316,76.403936 54.723307,81.16675 61.917053,87.23585 69.86282,80.532296 78.721672,75.417564 88.5,71.888108 86.667441,56.540378 86.667441,32.874045 88.5,17.526317 L 85.751155,12.76415 C 78.557407,18.833249 70.612417,23.596063 61.917053,27.063178 53.22169,23.596063 45.276699,18.833251 38.082952,12.76415 Z M 35.566756,69.166101 C 29.764084,73.710917 23.497821,77.449663 16.763264,80.379832 15.273819,66.657668 15.2459,44.616911 16.686313,30.894746 c 5.844468,-4.588197 12.160835,-8.357162 18.952025,-11.305003 0,0 1.422685,35.823816 -0.07158,49.576358 z m 4.960811,-49.576358 c 6.730297,2.921411 12.994087,6.64905 18.794544,11.18152 1.547095,13.781827 1.61947,35.882222 0.211174,49.664048 C 52.749474,77.496791 46.439067,73.740037 40.599152,69.166101 39.104881,55.413559 39.078994,33.342285 40.527567,19.589743 Z m 42.709177,0.02864 c 1.489572,13.722162 1.517239,35.762919 0.07695,49.485084 C 77.451671,73.705492 71.115275,77.48352 64.300818,80.435313 62.892525,66.653487 62.9649,44.553093 64.511994,30.771266 70.292579,26.254322 76.532683,22.535277 83.236743,19.61838 Z"
       inkscape:label="cities"
       sodipodi:nodetypes="cccccccccccccccccccccccccc" /><path
       id="path2-28"
       style="display:none;stroke-width:0.75"
       d="m 49.999512,12.464355 c -19.452036,0 -38.903135,12.511637 -39.999024,37.535157 2.191779,50.047038 77.807734,50.047038 79.999512,0 C 88.904111,24.975992 69.451547,12.464355 49.999512,12.464355 Z m 0,1.643555 c 17.260256,0 34.520694,11.963972 33.424804,35.891602 2.191779,47.855259 -69.041388,47.855259 -66.849609,0 C 15.478817,26.071882 32.739256,14.10791 49.999512,14.10791 Z m 0.04541,8.219727 -0.08936,0.01611 c -8.454661,1.539398 -15.468928,8.55369 -17.0083,17.01123 l -0.106934,0.588868 h 5.707031 l -0.117187,-0.596192 c -0.72085,-3.661974 0.353148,-6.880143 2.496094,-9.023437 2.142945,-2.143294 5.360057,-3.218385 9.020507,-2.497559 l 0.09815,0.01904 0.09522,-0.01904 c 3.661975,-0.720849 6.880144,0.353147 9.023437,2.496094 2.143294,2.142947 3.219851,5.360057 2.499024,9.020508 l -0.02051,0.09814 0.02051,0.09521 c 0.72085,3.661975 -0.353148,6.883073 -2.496094,9.026367 -2.142947,2.143294 -5.361522,3.21692 -9.021973,2.496094 l -0.597656,-0.117187 v 5.707031 l 0.590332,-0.108399 c 8.454658,-1.539385 15.467456,-8.552213 17.00683,-17.009753 l 0.01611,-0.08936 -0.01611,-0.08935 C 65.604642,30.897373 58.590353,23.883124 50.132813,22.34375 Z m 1.000488,40.657226 c -4.086082,0 -8.232881,2.451503 -9.023437,7.261231 l -0.01465,0.08203 0.01465,0.08203 c 0.790556,4.809728 4.937355,7.261231 9.023437,7.261231 4.086082,0 8.234346,-2.451503 9.024903,-7.261231 l 0.01318,-0.08203 -0.01318,-0.08203 C 59.279756,65.436366 55.131492,62.984863 51.04541,62.984863 Z m 0,2.124024 c 1.062395,0 2.11147,0.423447 2.80957,1.252441 0.698102,0.828994 1.083494,2.079289 0.730958,3.871582 l -0.01904,0.09521 0.01904,0.09521 c 0.352536,1.792293 -0.03286,3.042588 -0.730958,3.871582 -0.6981,0.828994 -1.747175,1.252441 -2.80957,1.252441 -1.062395,0 -2.112935,-0.423447 -2.811035,-1.252441 -0.6981,-0.828994 -1.083495,-2.079289 -0.730957,-3.871582 l 0.02051,-0.09521 -0.02051,-0.09521 c -0.352538,-1.792293 0.03286,-3.042588 0.730957,-3.871582 0.6981,-0.828994 1.74864,-1.252441 2.811035,-1.252441 z"
       inkscape:label="info"
       sodipodi:nodetypes="sccssccsccccccscccscccscccccccccscccscccssscccssscccss" /><path
       id="path2-284"
       style="display:none;stroke-width:0.75"
       d="m 49.999512,10.000488 c -11.393847,0 -22.787587,7.086919 -24.00293,21.265137 h 7.291992 c -2.430688,-25.9257478 35.852562,-25.9257478 33.421875,0 1.215344,12.962874 -7.747779,19.445801 -16.710937,19.445801 h -3.645996 c 2.430689,5.400273 2.430689,10.805294 0,16.205566 h 7.291992 C 51.463536,62.069297 51.242103,57.217948 52.977539,52.369629 63.30557,51.239448 72.893229,44.205717 74.002441,31.265625 72.787099,17.087407 61.393358,10.000488 49.999512,10.000488 Z m 0,65.786133 c -6.954102,0 -8.470964,5.834635 -8.71875,7.104492 0.1875,1.00783 1.615993,7.108887 8.71875,7.108887 7.106181,0 8.533382,-6.104645 8.720215,-7.108887 -0.247101,-1.266344 -1.762756,-7.104492 -8.720215,-7.104492 z m 0,1.78125 c 3.209267,0 3.877735,1.925798 3.209472,5.323242 0.667785,3.395016 -2.05e-4,5.327637 -3.209472,5.327637 -3.209267,0 -3.876873,-1.934553 -3.209473,-5.327637 -0.667869,-3.395468 2.06e-4,-5.323242 3.209473,-5.323242 z"
       inkscape:label="question" /><path
       style="font-size:30px;line-height:1.25;font-family:Trickster;-inkscape-font-specification:Trickster;display:none;stroke-width:0.749999"
       d="M 36.68374,68.079384 50.204866,59.475031 C 68.950063,47.592829 73.661971,40.217669 73.661971,29.359795 c 0,-10.448143 -9.423816,-19.359794 -23.764404,-19.359794 -13.418694,0 -23.559539,9.014084 -23.559539,21.920614 0,10.140844 7.580025,19.359794 21.408451,22.944942 -0.717029,0.512164 -1.536491,1.126761 -2.355954,1.638925 L 34.020488,63.777208 Z M 31.049937,32.330345 c 0,-9.21895 5.121638,-13.725991 11.882201,-13.725991 8.604354,0 15.057618,7.682458 15.057618,17.618437 0,5.838668 -1.84379,10.755441 -6.145967,15.160051 C 37.400769,48.309858 31.049937,40.217669 31.049937,32.330345 Z M 36.888605,78.015364 48.770807,89.999999 60.653009,78.015364 48.770807,66.235594 Z"
       id="text1"
       aria-label="?"
       inkscape:label="question2" /><path
       id="path3-8-87"
       style="display:none;stroke-width:0.750001"
       d="m 42.671386,10.000247 c 1.768098,9.96388 -9.903561,14.796885 -15.69873,6.500977 -2.239434,4.740177 -5.730524,8.232733 -10.470703,10.472168 8.295909,5.795167 3.462902,17.465366 -6.500976,15.697265 1.768294,4.935334 1.768294,9.874244 0,14.809571 9.963878,-1.768095 14.796884,9.903563 6.500976,15.69873 l 0.03662,0.03809 0.04248,-0.07617 c 4.622061,2.243128 8.039518,5.695548 10.242188,10.35791 5.795167,-8.295914 17.463898,-3.462909 15.695802,6.500971 4.935332,-1.768294 9.874239,-1.768294 14.80957,0 -1.768099,-9.96388 9.905027,-14.796885 15.700195,-6.500977 2.239434,-4.740179 5.730525,-8.232735 10.470703,-10.472168 -8.295908,-5.795167 -3.464368,-17.465364 6.499512,-15.697265 -1.768294,-4.935332 -1.768294,-9.874241 0,-14.80957 -9.96388,1.768095 -14.79542,-9.903564 -6.499512,-15.698731 l -0.03808,-0.03809 -0.04102,0.07617 c -4.622063,-2.243127 -8.039518,-5.695549 -10.242188,-10.35791 -5.795167,8.295908 -17.465362,3.462904 -15.697265,-6.500977 -4.935333,1.768294 -9.874238,1.768294 -14.809571,0 z m 7.404786,3.979981 c 1.158785,-3.47e-4 2.317371,0.09832 3.476074,0.292969 2.700745,5.387344 8.525312,8.741699 14.4375,8.797851 1.664796,0.01581 3.335521,-0.232876 4.945312,-0.769043 1.850113,1.317347 3.442808,2.892201 4.778321,4.724121 -2.459068,7.336365 1.095025,15.950642 8.0083,19.419434 0.390348,2.318083 0.393708,4.636954 0.0044,6.955078 -6.902442,3.46133 -10.46123,12.052972 -8.028809,19.381348 -1.361961,1.913702 -2.999442,3.552674 -4.911621,4.916015 -1.61114,-0.536714 -3.282327,-0.784867 -4.948242,-0.769043 -5.911705,0.05614 -11.736469,3.408363 -14.4375,8.794922 -2.31737,0.389851 -4.634742,0.390692 -6.952148,0.0015 -2.700745,-5.387345 -8.523847,-8.740236 -14.436036,-8.796387 -1.664796,-0.01581 -3.335521,0.232876 -4.945312,0.769043 -1.850114,-1.317346 -3.442807,-2.893665 -4.77832,-4.725586 2.459068,-7.336364 -1.09649,-15.949177 -8.009765,-19.417968 -0.390253,-2.317524 -0.391959,-4.63605 -0.0029,-6.953614 6.902627,-3.460953 10.457109,-12.052949 8.025878,-19.381347 1.36295,-1.914742 3.003621,-3.553677 4.917481,-4.917481 1.610374,0.536112 3.280272,0.784858 4.945312,0.769043 5.911704,-0.05615 11.735002,-3.408365 14.436035,-8.794922 1.158684,-0.194926 2.317288,-0.29555 3.476075,-0.295898 z M 50,31.999271 c -4.641674,0 -9.289148,1.490397 -12.855469,4.492676 -3.56632,3.002278 -6.032007,7.528039 -6.292969,13.486816 v 0.02051 0.02197 c 0.260962,5.958777 2.726646,10.484668 6.292969,13.486817 3.566324,3.00215 8.2138,4.491211 12.855469,4.491211 4.641667,0 9.289144,-1.489061 12.855468,-4.491211 3.566325,-3.002149 6.032008,-7.52804 6.292969,-13.486817 v -0.02197 -0.02051 C 68.887475,44.019986 66.42179,39.494225 62.855468,36.491947 59.289147,33.489668 54.641672,31.999271 50,31.999271 Z m 0,1.766601 c 3.908002,0 7.808717,1.358302 10.658203,4.048828 2.849486,2.690528 4.676555,6.707021 4.426758,12.161133 l -0.0029,0.02344 0.0029,0.02344 c 0.249798,5.454106 -1.577277,9.473658 -4.426758,12.164058 -2.84948,2.690398 -6.750186,4.047363 -10.658203,4.047363 -3.908017,0 -7.808723,-1.356965 -10.658203,-4.047363 -2.849482,-2.6904 -4.675093,-6.709947 -4.425293,-12.164063 l 0.0015,-0.02344 -0.0015,-0.02344 C 34.666705,44.521726 36.492309,40.505228 39.341797,37.8147 42.191283,35.124174 46.091997,33.765872 50,33.765872 Z"
       inkscape:label="settings" /></g><g
     inkscape:groupmode="layer"
     id="layer3"
     inkscape:label="dwarf moons"><path
       id="path1-00"
       style="display:none;stroke-width:0.75"
       d="m 12.499512,9.140625 v 6.716309 C 22.163285,13.618086 30.130938,29.55254 27.89209,49.999512 30.130938,70.446483 22.163285,86.380938 12.499512,84.14209 v 6.716308 C 23.041533,88.72246 31.548089,72.563009 34.252441,52.867676 c 10.498928,-1.579134 20.995213,-1.57769 31.494141,0.0015 2.704912,19.694724 11.216783,35.853367 21.754395,37.989257 V 84.14209 C 77.837202,86.380938 69.869551,70.446483 72.108398,49.999512 69.869551,29.55254 77.837202,13.618086 87.500977,15.856934 V 9.140625 C 76.963742,11.276438 68.451813,27.439548 65.746582,47.129883 55.247654,48.709037 44.751369,48.710481 34.252441,47.131348 31.54777,27.440404 23.041156,11.276487 12.499512,9.140625 Z m 37.5,11.893066 c -5.80701,0 -11.612999,3.405265 -12.732422,10.215821 2.238847,13.621111 23.227462,13.621111 25.466308,0 C 61.613975,24.438956 55.806522,21.033691 49.999512,21.033691 Z m 0,1.678711 c 3.568162,0 7.137001,2.845978 6.017578,8.53711 2.238847,11.382264 -14.272538,11.382264 -12.033692,0 -1.119423,-5.691132 2.447951,-8.53711 6.016114,-8.53711 z m 0,35.822754 c -5.80701,0 -11.612999,3.405265 -12.732422,10.215821 2.238847,13.621111 23.227462,13.621111 25.466308,0 C 61.613975,61.940421 55.806522,58.535156 49.999512,58.535156 Z m 0,1.678711 c 3.568162,0 7.137001,2.845977 6.017578,8.53711 2.238847,11.382263 -14.272538,11.382263 -12.033692,0 -1.119423,-5.691133 2.447951,-8.53711 6.016114,-8.53711 z"
       inkscape:label="hiiaka" /><path
       id="path1-53"
       style="display:none;stroke-width:0.75"
       d="m 49.999512,21.033691 c -5.80701,0 -11.612999,3.405265 -12.732422,10.215821 2.238847,13.621111 23.227461,13.621111 25.466308,0 C 61.613975,24.438956 55.806522,21.033691 49.999512,21.033691 Z m 0,1.678711 c 3.568162,0 7.137002,2.845978 6.017578,8.53711 2.238848,11.382264 -14.272539,11.382264 -12.033692,0 -1.119423,-5.691132 2.447951,-8.53711 6.016114,-8.53711 z M 14.003906,28.245117 10.125,33.624023 c 11.609647,8.443778 11.609647,24.308664 0,32.752442 l 4.749023,4.749023 c 7.059166,-9.515117 8.637886,-22.310545 4.744629,-33.297363 22.916737,9.728067 45.044538,21.031367 66.382325,33.925781 l 3.874511,-5.377441 c -11.609646,-8.443778 -11.609646,-24.308664 0,-32.752442 L 85.126465,28.875 c -7.05879,9.514611 -8.63856,22.309472 -4.746094,33.295898 C 57.46227,52.445581 35.33636,41.138657 14.003906,28.245117 Z m 35.995606,30.290039 c -5.80701,0 -11.612999,3.405265 -12.732422,10.215821 2.238847,13.621111 23.227461,13.621111 25.466308,0 C 61.613975,61.940421 55.806522,58.535156 49.999512,58.535156 Z m 0,1.678711 c 3.568162,0 7.137002,2.845977 6.017578,8.53711 2.238848,11.382263 -14.272539,11.382263 -12.033692,0 -1.119423,-5.691133 2.447951,-8.53711 6.016114,-8.53711 z"
       inkscape:label="namaka" /><path
       d="M 46.641726,50 C 48.880576,34.830921 40.926538,21.056749 15.813819,9.1409984 c 26.971139,2.2388496 41.405597,2.2388496 68.372362,0 C 59.073463,21.056749 51.119425,34.830921 53.358275,50 c -2.23885,15.173451 5.715188,28.947623 30.827906,40.859002 -26.966765,-2.23885 -41.401223,-2.23885 -68.372362,0 C 40.926538,78.947623 48.880576,65.173451 46.641726,50 h 6.716549 c -2.23885,15.772518 -10.791954,30.587406 -12.475464,34.142453 1.902147,2.23885 16.336605,2.23885 18.234379,0 C 57.43368,80.587406 48.880576,65.772518 46.641726,50 48.880576,34.231853 57.43368,19.416967 59.11719,15.857547 c -1.897774,-2.23885 -16.332232,-2.23885 -18.234379,0 C 42.566321,19.416967 51.119425,34.231853 53.358275,50"
       stroke="none"
       fill-rule="nonzero"
       fill="#000000"
       fill-opacity="1"
       id="path1-23"
       style="display:none;stroke-width:0.75"
       inkscape:label="dysnomia" /><path
       id="path1-30"
       style="display:none;stroke-width:0.75"
       d="m 32.928223,10.400391 c -26.1184257,2.238846 -26.1184257,41.978925 0,44.217773 9.891156,-2.238848 17.631425,5.501421 15.392578,15.392578 2.238847,23.879579 -33.022539,23.879579 -30.783692,0 h -6.716308 c 2.238847,26.118426 41.977462,26.118426 44.216308,0 -2.238846,-10.81818 -11.290707,-19.870039 -22.108886,-22.108887 -23.8795786,2.238848 -23.8795786,-33.022538 0,-30.783691 11.430385,-1.364822 22.861607,-1.887085 34.291992,-1.587891 2.08274,24.408876 2.036565,48.821791 -0.149414,73.230469 h 6.716308 C 71.608911,64.438953 71.557002,40.113029 73.617188,15.791016 c 5.187598,0.276671 10.374901,0.707733 15.5625,1.327148 v -6.717773 c -18.750346,2.238846 -37.50112,2.238846 -56.251465,0 z"
       inkscape:label="styx 2" /><path
       id="path1-45"
       style="display:none;stroke-width:0.75"
       d="m 49.999512,11.658691 c -5.80701,0 -11.612999,3.405265 -12.732422,10.215821 2.238847,13.621111 23.227462,13.621111 25.466308,0 C 61.613975,15.063956 55.806522,11.658691 49.999512,11.658691 Z m -31.483887,0.840821 c 1.040008,17.940133 14.218952,27.54074 28.258301,28.813476 1.051887,5.363062 1.567379,10.727263 1.54248,16.091309 -4.126545,-0.271407 -8.252849,-0.730245 -12.379394,-1.387207 -8.229513,2.238848 -15.182539,9.191874 -17.421387,17.421387 2.238848,19.869769 32.603927,19.869769 34.842773,0 -0.837869,-4.092795 -1.362503,-8.186225 -1.573242,-12.279786 8.779941,-0.347604 17.56088,0.176906 26.340821,1.574707 V 56.01709 C 69.313324,57.4201 60.499664,57.944294 51.687012,57.588867 51.649334,52.163261 52.162597,46.7376 53.226563,41.312988 67.265367,40.039721 80.443426,30.439026 81.483398,12.499512 H 74.76709 c 2.238848,36.381266 -51.772538,36.381266 -49.533692,0 z m 31.483887,0.839355 c 3.568162,0 7.137001,2.844512 6.017578,8.535645 2.238847,11.382264 -14.272538,11.382264 -12.033692,0 -1.119423,-5.691133 2.447951,-8.535645 6.016114,-8.535645 z M 48.200684,61.35498 c -0.217236,4.028107 -0.734121,8.05614 -1.558594,12.083497 2.238847,17.630921 -23.647538,17.630921 -21.408692,0 -2.238846,-7.30249 3.401124,-12.943926 10.703614,-10.705079 4.087964,-0.65082 8.175707,-1.105977 12.263672,-1.378418 z"
       inkscape:label="styx" /><path
       id="path5-01"
       style="display:none;stroke-width:0.75"
       d="M 58.680176,9.6328125 C 48.834199,22.338697 37.690653,33.751754 25.26416,43.87793 25.095224,33.254194 25.643603,22.63106 26.912109,12.007324 h -6.716308 c 2.238848,18.750345 2.238848,37.50112 0,56.251465 h 6.716308 C 26.2801,62.965712 25.832316,57.672959 25.557129,52.379883 l 0.370605,-0.498047 c 4.338206,-5.594321 8.930221,-10.93572 13.768067,-16.03125 1.441885,18.575405 1.197918,35.281393 -0.75,54.51709 15.859911,-2.238841 28.357236,-2.238841 40.858887,0 v -6.717774 c -12.501651,2.238841 -24.999189,2.238841 -34.142579,0 -1.614782,-11.10162 -2.057829,-23.945189 -1.343261,-36.020507 4.113174,7.71327 10.042098,13.243673 16.73584,14.611816 v -6.716309 c -8.410648,1.930188 -15.41661,-6.586337 -15.75586,-18.707519 0.114341,-0.909803 0.234014,-1.812462 0.363281,-2.701172 9.14339,-2.238841 21.640928,-2.238841 34.142579,0 v -6.716309 c -10.253733,1.836276 -20.530923,2.145718 -32.636719,0.969727 5.165146,-4.91831 10.582388,-9.584045 16.26123,-13.987793 z"
       inkscape:label="kerberos 2" /><path
       id="path4-81"
       style="display:none;stroke-width:0.75"
       d="m 49.999512,11.147461 c -5.80701,0 -11.612999,3.405265 -12.732422,10.21582 2.238847,13.621112 23.227462,13.621112 25.466308,0 -1.119423,-6.810555 -6.926876,-10.21582 -12.733886,-10.21582 z m -33.358887,0.84082 c 2.238847,24.999003 2.238847,50.002463 0,75.001465 h 6.716309 C 22.541197,77.881218 22.025499,68.772352 21.804199,59.663086 30.860234,54.441636 39.819708,49.432371 47.972168,44.588379 59.782462,58.694755 69.363724,73.199155 77.20752,88.853027 l 5.588378,-3.726562 C 71.002089,71.450339 61.052112,56.541544 53.494629,41.244141 69.862563,31.147751 81.983163,21.638628 83.359863,11.988281 H 76.643555 C 78.855705,26.125307 50.197007,40.633529 21.694336,52.472168 21.598208,38.977217 22.148465,25.48206 23.356934,11.988281 Z m 33.358887,0.837891 c 3.568162,0 7.137001,2.845977 6.017578,8.537109 2.238847,11.382265 -14.272538,11.382265 -12.033692,0 -1.119423,-5.691132 2.447951,-8.537109 6.016114,-8.537109 z"
       inkscape:label="kerberos" /><path
       id="path1-96"
       style="display:none;stroke-width:0.75"
       d="m 53.181152,11.749512 -6.008789,3.004394 c 6.719329,9.356521 12.109771,19.379681 17.791992,33.303223 -18.348363,1.488644 -34.509617,1.328026 -50.591308,-0.476074 0.08659,-11.444386 0.636291,-22.888152 1.661133,-34.331543 H 9.3178711 c 2.2388479,24.999002 2.2388479,50.002463 0,75.001465 H 16.03418 C 15.009338,76.807585 14.459638,65.362354 14.373047,53.917969 32.554744,51.87768 50.64163,51.937096 65.569336,54.108398 c 2.238848,9.143418 2.238848,21.64089 0,34.142579 h 6.716309 C 70.202046,76.616198 70.06035,64.980876 71.85498,50.639648 77.925908,35.359606 83.560249,24.676909 90.682617,14.753906 L 84.673828,11.749512 C 80.427889,25.248186 74.178428,37.750016 68.926758,43.242188 63.679459,37.750016 57.427091,25.248186 53.181152,11.749512 Z"
       inkscape:label="hydra 2" /><path
       id="path1-97"
       style="display:none;stroke-width:0.75"
       d="m 49.999999,10.4 c -5.807058,0 -11.614133,3.404225 -12.733568,10.214841 2.23887,13.621233 23.228269,13.621233 25.467137,0 C 61.614133,13.804225 55.807061,10.4 49.999999,10.4 Z m 0,1.679152 c 3.568195,0 7.136394,2.844506 6.016961,8.535689 2.238866,11.382365 -14.27279,11.382365 -12.033921,0 -1.119435,-5.691183 2.448756,-8.535689 6.01696,-8.535689 z M 31.249466,33.593287 c -10.4947,0 -20.98939,6.52859 -22.1088295,19.587919 h 6.7166095 c -2.23887,-23.87979 33.02332,-23.87979 30.78445,0 2.123956,10.455737 2.229511,20.908466 0.323592,31.363846 -11.489102,-0.08326 -22.978242,-0.632815 -34.466352,-1.66166 V 89.6 c 24.999233,-2.238867 50.002898,-2.238867 75.002123,0 v -6.716608 c -11.4881,1.028845 -22.977247,1.578403 -34.466343,1.66166 -1.905933,-10.45538 -1.80037,-20.908109 0.323587,-31.363846 -2.238868,-23.87979 33.023318,-23.87979 30.784452,0 h 6.716608 C 88.96064,31.030691 60.09422,27.671016 49.999999,43.09099 45.857137,36.76173 38.555572,33.593287 31.249466,33.593287 Z"
       inkscape:label="hydra" /><path
       id="path2-43"
       clip-path="none"
       style="clip-rule:nonzero;display:none;stroke-width:0.75"
       d="M 10.970215,7.0708008 C 13.041696,40.764259 13.002897,65.205477 10.820801,89.570801 h 6.716308 c -2.238841,-24.998952 -2.238841,-50.00211 0,-64.92627 12.75629,13.726 28.857954,34.851341 48.205079,63.14209 -4.687365,-0.209892 -9.374368,-0.733675 -14.0625,-1.573242 v 6.716309 c 12.501687,-2.238847 24.998311,-2.238847 37.5,0 V 86.213379 C 83.826425,87.17206 78.474416,87.716343 73.12207,87.854004 71.646343,59.595263 71.813714,37.810749 73.649414,16.303711 c 5.176581,0.159217 10.352813,0.697314 15.530274,1.624512 v -6.716309 c -12.501689,2.238847 -24.998313,2.238847 -37.5,0 v 6.716309 C 56.856172,17.001199 62.031426,16.463042 67.207031,16.303711 69.29262,40.71826 69.257757,64.918786 67.070801,79.49707 52.949626,64.302432 34.759016,40.113367 12.5625,7.0708008 Z"
       inkscape:label="nix 2" /><path
       id="path1-27"
       style="display:none;stroke-width:0.75"
       d="m 49.999512,9.3618164 c -5.80701,0 -11.612999,3.4052646 -12.732422,10.2158206 2.238847,13.621111 23.227462,13.621111 25.466308,0 C 61.613975,12.767081 55.806522,9.3618164 49.999512,9.3618164 Z M 9.140625,10.202637 C 10.199182,34.37371 28.025241,47.109082 46.762207,48.42334 47.639733,53.519211 48.147712,58.613918 48.28125,63.708984 36.133804,57.59482 23.092246,50.453666 9.140625,42.266602 c 2.238847,17.937014 2.238847,30.435812 0,42.9375 h 6.716309 c -2.238848,-12.501688 -2.238848,-24.999069 0,-32.06543 9.957824,3.799831 20.782748,8.595318 32.452148,14.361328 -0.05904,5.900647 -0.610099,11.802426 -1.666992,17.704102 h 6.716308 C 52.402953,79.868907 51.859196,74.5335 51.719238,69.199219 c 12.147402,6.113585 25.187598,13.252423 39.13916,21.439453 -2.238847,-17.937014 -2.238847,-30.434348 0,-42.936035 H 84.14209 c 2.238848,12.501687 2.238848,24.999068 0,32.065429 -9.957825,-3.797772 -20.781283,-8.593403 -32.450684,-14.359863 0.05649,-5.661376 0.570355,-11.322575 1.54541,-16.984863 18.7375,-1.313699 36.562998,-14.049003 37.621582,-38.220703 H 84.14209 c 2.238848,48.882954 -70.524004,48.882954 -68.285156,0 z m 40.858887,0.83789 c 3.568162,0 7.137001,2.845978 6.017578,8.53711 2.238847,11.382264 -14.272538,11.382264 -12.033692,0 -1.119423,-5.691132 2.447951,-8.53711 6.016114,-8.53711 z"
       inkscape:label="nix" /><path
       id="path1-02"
       style="display:none;stroke-width:0.75"
       d="M 51.867188,11.510742 C 37.172855,11.821427 23.392165,22.956242 21.643066,38.493164 23.792057,52.192983 34.79771,63.65626 48.295898,66.534668 48.176426,73.856009 47.62552,81.175581 46.64209,88.495605 h 6.716308 C 52.370313,81.140931 51.820519,73.786666 51.70459,66.430664 c 7.197899,-1.669882 14.395693,-1.669863 21.590332,0 -0.115929,7.356002 -0.665724,14.710267 -1.653809,22.064941 h 6.716309 c -2.238847,-16.664544 -2.238847,-33.333525 0,-50.002441 h -6.716309 c 0.988089,7.356634 1.537883,14.714543 1.653809,22.070801 -7.194639,1.669863 -14.392433,1.669883 -21.590332,0 0.115926,-7.356258 0.665719,-14.714167 1.653808,-22.070801 H 46.64209 c 0.978512,7.285333 1.52917,14.571966 1.652344,21.856934 C 35.776675,61.456817 26.216971,51.2639 28.359375,38.493164 26.120528,19.895865 45.83346,8.5139902 60.823242,19.751953 l 3.357422,-5.81543 C 60.167028,12.185101 55.9816,11.42375 51.867188,11.510742 Z"
       inkscape:label="charon 2" /><path
       id="path1-40"
       style="display:none;stroke-width:0.75"
       d="m 49.999512,11.658691 c -5.80701,0 -11.612999,3.405265 -12.732422,10.215821 2.238847,13.621111 23.227462,13.621111 25.466308,0 C 61.613975,15.063956 55.806522,11.658691 49.999512,11.658691 Z m 0,1.678711 c 3.568162,0 7.137001,2.845978 6.017578,8.53711 2.238847,11.382264 -14.272538,11.382264 -12.033692,0 -1.119423,-5.691132 2.447951,-8.53711 6.016114,-8.53711 z M 15.407227,48.320801 9.140625,49.999512 c 2.238847,51.121798 79.478926,51.121798 81.717773,0 l -6.265136,-1.678711 c -14.403833,29.428595 -54.77783,29.428595 -69.186035,0 z m 1.101562,11.540039 c 18.469817,17.397393 48.513094,17.397393 66.98291,0 -6.715664,35.724501 -60.267245,35.724501 -66.98291,0 z"
       inkscape:label="charon" /></g><g
     inkscape:groupmode="layer"
     id="layer2"
     inkscape:label="moons"><path
       id="path1-376"
       style="display:none;stroke-width:0.75"
       d="m 18.515625,9.7822266 c 1.075859,18.5585654 15.142024,28.1937704 29.712891,28.9160154 0.167098,8.151726 0.0936,16.303931 -0.215332,24.455567 C 35.941522,57.069322 22.99016,49.974815 9.140625,41.847656 c 2.238847,17.937014 2.238847,30.434347 0,42.936035 h 6.716309 c -2.238848,-12.501688 -2.238848,-24.999068 0,-32.065429 9.829749,3.750959 20.504866,8.471798 32.002441,14.138672 -0.279316,5.975734 -0.682148,11.951403 -1.217285,17.926757 h 6.716308 C 52.888633,79.538283 52.52214,74.292588 52.249512,69.046875 c 11.997222,6.054626 24.859375,13.102924 38.608886,21.171387 -2.238847,-17.937014 -2.238847,-30.434348 0,-42.936035 H 84.14209 c 2.238848,12.501687 2.238848,24.999067 0,32.065429 C 74.290605,75.59044 63.591637,70.856449 52.064941,65.172363 51.687971,56.347901 51.589616,47.522839 51.770508,38.698242 66.341767,37.976429 80.407512,28.341261 81.483398,9.7822266 H 74.76709 C 75.834316,27.124645 64.119241,36.19329 51.808594,37.001953 52.031345,27.928334 52.545854,18.855112 53.358398,9.7822266 H 46.64209 C 47.454634,18.855109 47.967678,27.928337 48.19043,37.001953 35.880045,36.192984 24.166194,27.124307 25.233398,9.7822266 Z"
       inkscape:label="nereid" /><path
       id="path1-34"
       style="display:none;stroke-width:0.75"
       d="m 27.89209,12.499512 c 1.053794,12.293573 10.415668,18.798292 20.264648,19.519043 0.19842,5.430774 0.210902,10.861218 0.03369,16.291992 C 36.292894,48.259149 24.396009,47.70751 12.499512,46.64209 v 6.716308 c 5.256147,-0.470727 10.51259,-0.837569 15.769043,-1.110351 1.852445,11.752076 1.728222,23.500391 -0.376465,35.25293 h 6.716308 C 32.487715,75.659109 32.379048,63.821434 34.275879,51.97998 c 4.593893,-0.172493 9.187287,-0.26873 13.78125,-0.290039 -0.267145,5.686618 -0.73604,11.374418 -1.415039,17.061036 h 6.716308 c -0.679001,-5.68664 -1.14936,-11.374396 -1.416503,-17.061036 4.593962,0.02131 9.188821,0.117546 13.782714,0.290039 1.896831,11.841454 1.788165,23.679129 -0.332519,35.520997 h 6.716308 c -2.104687,-11.752539 -2.22891,-23.500854 -0.376464,-35.25293 5.256452,0.272782 10.512895,0.639624 15.769043,1.110351 V 46.64209 C 75.604479,47.70751 63.706129,48.259149 51.808594,48.310547 51.631384,42.879784 51.643867,37.449317 51.842285,32.018555 61.6918,31.29834 71.054552,24.793692 72.108398,12.499512 H 65.39209 c 1.033034,11.018362 -5.918248,16.947533 -13.485352,17.797851 0.26011,-5.932733 0.743275,-11.865118 1.45166,-17.797851 H 46.64209 c 0.708386,5.932734 1.19155,11.865117 1.45166,17.797851 C 40.526646,29.447045 33.575364,23.517874 34.608398,12.499512 Z"
       inkscape:label="proteus" /><path
       id="path1-89"
       style="display:none;stroke-width:0.75"
       d="m 27.89209,12.499512 c 1.972278,5.504658 2.204279,11.012111 0.70166,16.517578 -5.364854,-0.274242 -10.729701,-0.644566 -16.094238,-1.125 v 6.716308 c 5.229774,-0.468365 10.459864,-0.833555 15.689941,-1.105957 1.950531,10.898058 10.840676,16.654556 20.126953,17.274903 -0.02274,12.241304 -0.578112,24.483399 -1.674316,36.723633 h 6.716308 C 52.262194,75.260743 51.70682,63.018648 51.684082,50.777344 c 9.28627,-0.620346 18.174949,-6.37686 20.125488,-17.274903 5.230564,0.272409 10.461145,0.637549 15.691407,1.105957 V 27.89209 c -5.364538,0.480434 -10.729385,0.850758 -16.094239,1.125 C 69.90412,23.511623 70.13612,18.00417 72.108398,12.499512 H 65.39209 c 2.000974,5.58475 2.208588,11.17232 0.632812,16.757812 -4.613433,0.176536 -9.227803,0.277696 -13.841308,0.301758 0.277581,-5.686647 0.665554,-11.373272 1.174804,-17.05957 H 46.64209 c 0.50925,5.686298 0.895759,11.372923 1.17334,17.05957 C 43.201924,29.53502 38.589019,29.43386 33.975586,29.257324 32.399811,23.671832 32.607424,18.084262 34.608398,12.499512 Z m 20.074219,20.440429 c 0.219097,5.378096 0.336742,10.755597 0.348632,16.133789 C 41.128289,48.361477 34.43483,43.077365 34.510254,33.221191 38.99575,33.055279 43.480746,32.96172 47.966309,32.939941 Z m 4.066406,0 c 4.485562,0.02178 8.972023,0.115338 13.457519,0.28125 0.07542,9.856174 -6.618035,15.140286 -13.804687,15.852539 0.01189,-5.378185 0.128071,-10.7557 0.347168,-16.133789 z"
       inkscape:label="triton" /><path
       id="path1-84"
       style="display:none;stroke-width:0.75"
       d="m 9.140625,9.3618164 c 2.238847,17.9370146 2.238847,30.4343476 0,42.9360356 h 6.716309 c -2.238848,-12.501688 -2.238848,-24.999068 0,-32.06543 7.955787,1.670876 19.187219,7.110943 31.064941,14.989746 1.922193,11.785803 1.856924,23.567951 -0.200684,35.354004 -4.56593,1.048549 -8.547475,4.330781 -9.454101,9.84668 2.238847,13.621111 23.227462,13.621111 25.466308,0 C 61.82678,74.907 57.845179,71.624749 53.279297,70.576172 51.221685,58.790126 51.154964,47.007964 53.077148,35.222168 64.955249,27.342998 76.186074,21.903346 84.14209,20.232422 c 2.238848,7.066362 2.238848,19.563742 0,32.06543 h 6.716308 c -2.238847,-12.501688 -2.238847,-24.999021 0,-42.9360356 C 74.499947,20.048813 61.998333,26.296702 49.999512,29.790527 38.00069,26.296702 25.499076,20.048813 9.140625,9.3618164 Z M 49.999512,71.885742 c 3.568162,0 7.137001,2.845977 6.017578,8.53711 2.238847,11.382263 -14.272538,11.382263 -12.033692,0 -1.119423,-5.691133 2.447951,-8.53711 6.016114,-8.53711 z"
       inkscape:label="miranda" /><path
       id="path1-41"
       style="display:none;stroke-width:0.75"
       d="M 50.001093,9.3614991 C 38.325787,24.20299 25.066052,37.460537 10.224562,49.135842 l 4.750971,4.748784 c 4.656131,-5.91881 9.579652,-11.569981 14.740469,-16.983679 5.738428,-0.946876 11.475972,-1.487664 17.213248,-1.631029 1.914251,11.770251 1.845192,23.537093 -0.209891,35.307601 -4.565828,1.04859 -8.547231,4.329406 -9.45384,9.845201 2.238835,13.621041 23.227939,13.621041 25.466775,0 -0.90662,-5.515864 -4.88794,-8.796655 -9.453841,-9.845201 -2.055205,-11.771217 -2.124496,-23.538827 -0.209891,-35.309786 5.738026,0.14327 11.476262,0.686214 17.215434,1.633214 5.161392,5.413408 10.086454,11.064778 14.742656,16.983679 l 4.748786,-4.748784 C 74.933947,37.460535 61.676397,24.20299 50.001093,9.3614991 Z m -0.0022,8.5967859 c 5.019023,4.159385 9.843816,8.513026 14.484666,13.050409 -9.655714,1.137791 -19.31142,1.137537 -28.967144,0 4.640115,-4.537443 9.463866,-8.891174 14.482478,-13.050409 z m 0,53.926681 c 3.568143,0 7.136293,2.846652 6.016876,8.537754 2.238834,11.382201 -14.272587,11.382201 -12.033751,0 -1.119419,-5.691102 2.448731,-8.537754 6.016875,-8.537754 z"
       inkscape:label="ariel" /><path
       id="path1-093"
       style="display:none;stroke-width:0.75"
       d="m 21.643066,12.079102 c 1.030917,15.864438 12.6636,24.417069 25.133789,25.671386 2.06397,10.037844 2.051697,20.071656 -0.03955,30.105469 -4.57258,1.044578 -8.562538,4.327314 -9.470215,9.849609 2.238847,13.621112 23.227462,13.621112 25.466308,0 C 61.825726,72.183301 57.835733,68.900553 53.263184,67.855957 51.171935,57.822183 51.158232,47.788293 53.222164,37.750488 65.692644,36.496446 77.32648,27.943866 78.357418,12.079102 h -6.716309 c 2.238847,32.214035 -45.520585,32.214035 -43.281738,0 z m 28.356446,57.089355 c 3.568162,0 7.137001,2.845977 6.017578,8.537109 2.238847,11.382264 -14.272538,11.382264 -12.033692,0 -1.119423,-5.691132 2.447951,-8.537109 6.016114,-8.537109 z"
       inkscape:label="umbriel" /><path
       id="path1-87"
       style="display:none;stroke-width:0.75"
       d="m 49.999512,11.660156 c -10.494596,0 -20.987998,6.528678 -22.107422,19.587891 1.007534,11.75391 9.609859,18.215303 18.971191,19.390137 1.960386,5.871923 1.943492,11.747277 -0.0498,17.61914 -4.604443,1.025353 -8.633664,4.314191 -9.546387,9.867188 2.238847,13.621111 23.227462,13.621111 25.466308,0 -0.912715,-5.552946 -4.941997,-8.841803 -9.546386,-9.867188 -1.993301,-5.871875 -2.010203,-11.747205 -0.04981,-17.61914 9.361222,-1.17493 17.963667,-7.636346 18.971191,-19.390137 C 70.988975,18.188834 60.494108,11.660156 49.999512,11.660156 Z m 0,1.678711 c 8.255749,0 16.512001,5.969391 15.392578,17.90918 2.238847,23.879578 -33.022538,23.879578 -30.783692,0 -1.119423,-11.939789 7.135365,-17.90918 15.391114,-17.90918 z m 0,56.248535 c 3.568162,0 7.137001,2.845978 6.017578,8.53711 2.238847,11.382264 -14.272538,11.382264 -12.033692,0 -1.119423,-5.691132 2.447951,-8.53711 6.016114,-8.53711 z"
       inkscape:label="oberon" /><path
       id="path1-90"
       style="display:none;stroke-width:0.75"
       d="m 12.499512,10.400391 v 6.716308 c 11.443391,-1.024841 22.887158,-1.576006 34.331543,-1.662597 2.023013,18.030154 1.979619,36.060665 -0.137696,54.09082 -4.554202,1.055518 -8.521497,4.334732 -9.426269,9.839355 2.238847,13.621112 23.227462,13.621112 25.466308,0 -0.904852,-5.505106 -4.873029,-8.784135 -9.427734,-9.839355 -2.117295,-18.030081 -2.160694,-36.060741 -0.137695,-54.09082 11.444385,0.08659 22.889616,0.637756 34.333008,1.662597 v -6.716308 c -24.999002,2.238846 -50.002463,2.238846 -75.001465,0 z m 37.5,60.446777 c 3.568162,0 7.137001,2.845977 6.017578,8.537109 2.238847,11.382264 -14.272538,11.382264 -12.033692,0 -1.119423,-5.691132 2.447951,-8.537109 6.016114,-8.537109 z"
       inkscape:label="titania" /><path
       id="path1-4"
       style="display:none;stroke-width:0.75"
       d="M 49.999512,8.6689453 C 37.703343,10.907793 27.454668,21.157955 25.21582,33.458496 h 6.716309 C 29.693281,22.084978 38.630366,13.146407 49.999512,15.385254 68.343191,13.146407 77.334224,34.848228 62.777344,46.234863 55.587433,56.174082 50.420911,69.085975 47.714355,81.41748 36.574325,74.841338 24.63571,65.116799 9.140625,50.039063 c 2.238847,16.988128 2.238847,26.988293 0,36.988769 h 6.716309 c -2.238848,-10.000476 -2.238848,-19.999871 0,-23.012695 C 24.30071,67.90251 36.802557,77.902832 49.999512,91.331543 63.20084,77.902832 75.698313,67.90251 84.14209,64.015137 c 2.238848,3.012824 2.238848,13.012219 0,23.012695 h 6.716308 c -2.238847,-10.000476 -2.238847,-20.000641 0,-36.988769 C 75.638344,64.853087 63.847558,74.491504 52.873535,81.061523 52.810078,69.388641 58.04131,57.765329 67.526367,50.983887 79.975581,35.373175 69.838671,10.907793 49.999512,8.6689453 Z"
       inkscape:label="mimas" /><path
       id="path1-73"
       style="display:none;stroke-width:0.75"
       d="m 20.03215,10.820499 c 2.11781,15.002524 2.11781,31.059862 0,46.062386 12.63653,-2.117808 22.0964,-2.117808 31.55621,0 v -6.353432 c -3.85838,0.863791 -7.71145,1.369219 -11.35428,1.528381 -0.89022,-6.56938 4.51908,-11.319912 11.35428,-9.362627 11.93335,-2.11781 17.72425,11.858921 7.78874,18.799708 -5.09598,8.086555 -8.84765,18.415037 -10.96547,27.684586 h 6.35344 C 52.64726,80.282221 56.11352,70.747925 63.86918,65.98699 71.81097,55.050493 64.93635,38.459582 51.58836,36.341775 43.88407,38.314076 37.31083,44.500223 34.73274,52.022674 31.60967,51.828669 28.76823,51.332556 26.38559,50.529453 25.03563,45.016247 24.55026,36.497141 24.92132,28.801209 33.84227,27.031567 42.76255,27.143218 51.6835,29.14039 v -6.353433 c -8.77272,1.963986 -17.54481,2.10266 -26.31753,0.423976 0.25499,-2.230147 0.59172,-4.28949 1.01962,-6.037002 15.74293,-2.117808 34.66262,-2.117808 53.58226,0 v -6.353432 c -18.91964,2.117809 -37.83934,2.117809 -59.9357,0 z"
       inkscape:label="enceladus" /><path
       id="path1-13"
       style="display:none;stroke-width:0.75"
       d="m 12.499512,10.820801 v 6.716308 c 11.475127,-1.027683 22.950633,-1.578375 34.426758,-1.662597 1.944188,11.935818 1.853393,23.868997 -0.28418,35.805176 h 6.716308 c -0.167122,-0.933212 -0.317788,-1.867616 -0.45996,-2.800782 -0.255094,-6.38676 5.246026,-10.80304 12.104003,-8.840332 12.61538,-2.238848 18.732835,12.537528 8.229493,19.875 -5.382854,8.548723 -9.348068,19.466783 -11.586914,29.266114 h 6.716308 C 66.12248,79.773905 69.782054,69.694166 77.980957,64.661133 86.376634,53.099585 79.1133,35.561112 65.002441,33.322266 c -5.010267,1.281987 -9.563548,4.251948 -12.965332,8.194336 -0.70122,-8.54731 -0.356745,-17.093858 1.035645,-25.64209 11.476124,0.08422 22.953095,0.634914 34.428223,1.662597 v -6.716308 c -24.999002,2.238847 -50.002463,2.238847 -75.001465,0 z"
       inkscape:label="tethys" /><path
       id="path2-19"
       style="display:none;stroke-width:0.75"
       d="M 49.999512,10.125 C 36.710729,26.584026 24.208897,39.085857 4.3916016,55.73291 c 16.7257624,-2.238847 25.3495744,-2.238847 33.9682614,0 v -3.358887 -3.357421 c -0.156055,0.04054 -0.30981,0.06786 -0.46582,0.106933 0.0158,-6.140972 5.414293,-10.305202 12.105469,-8.38916 12.615378,-2.238848 18.737227,12.536062 8.233886,19.873535 -5.387226,8.548722 -9.352461,19.468249 -11.591308,29.267578 h 6.716308 c -2.238846,-9.405781 1.42512,-19.485521 9.624024,-24.518554 2.221891,-3.05973 3.337477,-6.538854 3.528808,-10.041504 7.031545,-1.809668 14.533618,-1.671631 29.096192,0.41748 C 75.794501,39.085857 63.292666,26.584026 49.999512,10.125 Z m 0,9.498047 c 11.710219,8.544351 24.211849,21.045978 29.393554,29.393555 0.582584,2.145917 -6.287315,2.210937 -13.461914,0.243164 -1.843816,-7.464387 -7.727023,-13.939944 -15.93164,-15.2417 -8.01761,2.052509 -14.868622,8.422838 -17.680664,16.207032 -6.217688,0.893516 -11.323091,0.497296 -11.712891,-1.208496 5.18608,-8.347577 17.687707,-20.849204 29.393555,-29.393555 z"
       inkscape:label="dione" /><path
       id="path1-72"
       style="display:none;stroke-width:0.75"
       d="m 12.499512,9.140625 v 6.716309 c 6.496812,-0.581839 12.993961,-1.008179 19.491211,-1.287598 1.881754,11.811196 1.768101,23.618548 -0.347168,35.430176 h 6.716308 C 38.19274,49.0663 38.042075,48.133362 37.899902,47.200195 37.644751,40.813435 43.145368,36.397155 49.999512,38.359863 62.61489,36.121016 68.736739,50.895926 58.233398,58.233398 53.152911,66.29537 49.356962,76.455231 47.061035,85.806152 35.539985,85.725309 24.01956,85.173796 12.499512,84.14209 v 6.716308 c 24.999002,-2.238847 50.002463,-2.238847 75.001465,0 V 84.14209 c -11.492705,1.029258 -22.987255,1.579694 -34.480957,1.662598 -1.444878,-8.899182 2.254373,-18.090565 9.962402,-22.822266 8.395676,-11.561548 1.127949,-29.10002 -12.98291,-31.338867 -5.007764,1.281988 -9.559611,4.251947 -12.960938,8.194336 -0.696857,-8.494113 -0.361498,-16.987415 1.009278,-25.482422 16.484525,-0.47048 32.969895,0.02527 49.453125,1.501465 V 9.140625 c -24.999002,2.238847 -50.002463,2.238847 -75.001465,0 z"
       inkscape:label="iapetus" /><path
       id="path1-38"
       style="display:none;stroke-width:0.75"
       d="m 56.816895,12.080566 c -7.937632,0 -15.875694,4.824931 -16.995118,14.475586 0.242512,2.090718 0.805469,3.954989 1.618653,5.592774 0.161941,1.831014 -0.033,3.662466 -0.597657,5.493164 -6.949519,2.796295 -12.637839,8.984666 -14.654296,16.187988 h 6.716308 c -2.238847,-7.070733 3.209517,-12.51912 10.275879,-10.280273 11.399754,-2.238847 16.913373,11.06695 7.26709,17.547363 -4.766295,7.932166 -8.387129,17.893601 -10.625977,26.822754 h 6.717774 C 44.300703,79.388689 47.618804,70.262667 55.196777,65.846191 61.130691,57.420309 58.266474,45.674877 50.48877,39.962402 59.942571,43.294696 72.388607,38.82746 73.812012,26.556152 72.692588,16.905497 64.754526,12.080566 56.816895,12.080566 Z m 0,1.678711 c 5.698784,0 11.398232,4.265643 10.278808,12.796875 2.238847,17.062464 -22.795,17.062464 -20.556152,0 C 45.420127,18.02492 51.11811,13.759277 56.816895,13.759277 Z M 45.364746,37.091309 c 0.201128,0.166476 0.406574,0.326009 0.615234,0.481933 -0.17741,-0.06273 -0.352784,-0.128863 -0.533203,-0.186035 -0.02859,-0.0986 -0.05554,-0.197295 -0.08203,-0.295898 z"
       inkscape:label="rhea" /><path
       id="path3-2"
       style="display:none;stroke-width:0.75"
       d="m 49.279293,12.000002 c -5.146936,0 -10.292595,2.726052 -12.055384,8.173968 C 31.932587,19.918317 26.641532,19.500277 21.35021,18.907982 v 6.252597 c 5.291999,-0.592371 10.583734,-1.010345 15.875734,-1.265989 1.560816,4.820189 5.769614,7.505881 10.284629,8.05999 0.512199,7.044949 0.06083,14.090133 -1.357579,21.135082 h 6.252598 c -0.141872,-0.704643 -0.272303,-1.408052 -0.39486,-2.112695 -0.54915,-6.208786 4.675854,-10.600735 11.235137,-8.723512 11.743962,-2.084198 17.438874,11.670708 7.661059,18.501338 -5.01103,7.958214 -8.703161,18.122772 -10.787358,27.245205 h 6.252597 C 64.28797,79.243927 67.695154,69.860948 75.32771,65.175574 83.143449,54.412651 76.38201,38.085053 63.245869,36.000857 58.539657,37.205044 54.268491,40.011491 51.09279,43.73112 50.778818,39.805808 50.762623,35.87989 51.048,31.954581 c 4.515014,-0.554109 8.723812,-3.239801 10.284628,-8.05999 5.291999,0.255644 10.583736,0.673618 15.875736,1.265989 V 18.907982 C 71.917046,19.500277 66.62599,19.918317 61.334668,20.17397 59.57188,14.726054 54.426219,12.000002 49.279286,12.000002 Z m 0,1.650669 c 3.142208,0 6.280997,2.247059 6.104016,6.741081 -4.069427,0.09957 -8.138606,0.09954 -12.208035,0 -0.176982,-4.494023 2.961808,-6.741081 6.104019,-6.741081 z m -2.827103,9.967113 c 0.392287,2.169585 0.692475,4.339465 0.901661,6.50905 -2.377219,-0.738402 -4.318039,-2.888933 -4.178577,-6.450026 1.091955,-0.02671 2.184961,-0.04665 3.276916,-0.05903 z m 5.654205,0 c 1.092462,0.01237 2.18445,0.03229 3.276914,0.05902 0.139427,3.560174 -1.802192,5.711086 -4.178575,6.450026 0.209185,-2.169585 0.509374,-4.339467 0.901661,-6.509051 z"
       inkscape:label="titan" /><path
       id="path1-340"
       style="display:none;stroke-width:0.75"
       d="M 76.24295,10.125001 C 60.28071,29.030855 42.94394,46.560418 24.24453,62.72904 23.73558,45.985522 24.22533,29.241621 25.7247,12.499397 h -6.71652 c 2.23884,24.998919 2.23884,50.002286 0,75.001204 H 25.7247 C 25.24122,82.102055 24.86902,76.702847 24.59434,71.30398 l 0.14657,-0.179282 c 5.04819,-5.979125 10.23626,-11.818367 15.55821,-17.523749 9.50433,7.509842 18.2761,15.751385 26.31294,24.725648 -2.75438,2.55108 -5.79334,4.819228 -9.11934,6.799608 l 4.7488,4.748794 c 1.94359,-3.259339 4.16675,-6.239687 6.65749,-8.950996 2.52164,2.910605 4.97224,5.891259 7.34401,8.950996 l 4.7488,-4.748794 c -3.06013,-2.372074 -6.04004,-4.824219 -8.951,-7.3462 2.71142,-2.490892 5.6915,-4.711616 8.951,-6.655307 l -4.7488,-4.748794 c -1.98052,3.326241 -4.2483,6.362608 -6.79961,9.11716 C 60.42514,67.416759 52.14556,58.598378 44.60619,49.040183 56.11246,37.029155 68.24042,25.639746 80.99174,14.873795 Z"
       inkscape:label="callisto" /><path
       id="path1-11"
       style="display:none;stroke-width:0.75"
       d="m 26.211914,10.820801 c 1.630416,20.650862 2.068467,39.519618 1.324219,57.906738 -5.571565,-0.108293 -11.142805,-0.65879 -16.715332,-1.656738 v 6.716308 c 5.52174,-0.988853 11.0422,-1.538468 16.562988,-1.653808 -0.277432,5.707632 -0.664251,11.378246 -1.171875,17.046387 h 6.716309 c -0.510106,-5.695847 -0.897147,-11.389911 -1.174805,-17.046387 5.522252,0.115139 11.044178,0.664693 16.567383,1.653808 v -6.716308 c -5.574481,0.998298 -11.147675,1.548719 -16.721192,1.656738 -0.736174,-17.976625 -0.297573,-35.471684 1.328614,-51.19043 15.392074,-2.238847 34.143082,-2.238847 49.535156,0 2.238848,2.890386 2.238848,9.142457 0,15.391114 h 6.716309 c -2.238848,-6.248657 -2.238848,-12.500495 0,-22.107422 -22.108616,2.238847 -40.859158,2.238847 -62.967774,0 z"
       inkscape:label="ganymede" /><path
       id="path1-62"
       style="display:none;stroke-width:0.75"
       d="m 20.195801,10.820801 c 2.238848,22.108615 2.238848,40.857692 0,62.966308 14.134149,-1.431306 26.893156,-1.942721 39.159668,-1.543945 -0.0978,5.645293 -0.648514,11.290252 -1.659668,16.936524 h 6.716308 c -1.003195,-5.601831 -1.552578,-11.202362 -1.656738,-16.803223 5.743956,0.268011 11.397339,0.735781 17.049317,1.410644 v -6.716308 c -5.715359,0.68243 -11.429067,1.154496 -17.049317,1.420898 0.103744,-5.60379 0.653018,-11.207252 1.656738,-16.812011 h -6.716308 c 1.011854,5.650177 1.562435,11.299044 1.659668,16.948242 C 47.763141,69.006575 36.662794,68.489082 26.912109,67.070801 25.5116,57.442304 24.987202,46.499858 25.338867,35.887207 34.118786,34.05676 42.899769,34.190413 51.679688,36.287109 v -6.716308 c -8.683749,2.073731 -17.368498,2.221955 -26.052247,0.454101 0.279545,-4.308873 0.706281,-8.511379 1.284668,-12.487793 15.392074,-2.238847 34.142233,-2.238847 52.892579,0 v -6.716308 c -18.750346,2.238847 -37.500271,2.238847 -59.608887,0 z"
       inkscape:label="europa" /><path
       id="path1-8"
       style="display:none;stroke-width:0.75"
       d="m 40.624512,9.140625 v 6.716309 c 2.057643,-0.737239 4.116037,-1.229255 6.174316,-1.480957 1.493593,17.556097 1.88365,35.114221 1.168945,52.671386 -5.57254,-0.108156 -11.144757,-0.65715 -16.718261,-1.655273 v 6.716308 c 5.522229,-0.98894 11.043177,-1.538535 16.564453,-1.653808 -0.246994,5.056749 -0.584955,10.11344 -1.015137,15.169922 -2.058307,-0.2517 -4.116646,-0.745174 -6.174316,-1.482422 v 6.716308 c 6.248656,-2.238847 12.501342,-2.238847 18.75,0 V 84.14209 c -2.058152,0.73742 -4.115529,1.230777 -6.174317,1.482422 -0.430179,-5.056457 -0.768144,-10.113198 -1.015136,-15.169922 5.521275,0.115273 11.043689,0.664868 16.565918,1.653808 V 65.39209 c -5.573017,0.998035 -11.14621,1.547048 -16.718262,1.655273 -0.714706,-17.557153 -0.326108,-35.115302 1.16748,-52.671386 2.058761,0.251647 4.116192,0.743546 6.174317,1.480957 V 9.140625 c -6.248658,2.238847 -12.501344,2.238847 -18.75,0 z"
       inkscape:label="io" /><path
       d="M 69.72986,17.522336 C 51.447381,4.3822141 21.314742,21.777024 23.553591,49.998771 21.314742,78.220516 51.447381,95.6197 69.72986,82.475206 64.023417,76.598226 56.57662,63.698605 54.337771,49.998771 56.57662,36.303309 64.023417,23.403688 69.72986,17.522336 H 83.162957 C 65.6632,25.043471 58.815469,36.902376 61.054319,49.998771 58.815469,63.099538 65.6632,74.958443 83.162957,82.475206 51.447381,98.203997 19.075893,79.514851 16.837043,49.998771 19.075893,20.487063 51.447381,1.797917 83.162957,17.522336"
       stroke="none"
       fill-rule="nonzero"
       fill="#000000"
       fill-opacity="1"
       id="path1-915"
       style="display:none;stroke-width:0.75"
       inkscape:label="moon" /><path
       id="path1-17"
       style="display:none;stroke-width:0.75"
       d="m 48.005859,10.400391 c -13.852866,2.238846 -20.131896,20.382366 -10.538086,30.780761 4.920962,2.331604 9.43305,5.181057 13.543946,8.541504 -11.196969,0.124025 -22.1308,8.138507 -23.689453,20.288086 2.238847,26.118426 41.978926,26.118426 44.217773,0 C 69.301192,64.815917 67.15414,59.633973 65.063965,54.37793 64.957677,54.29581 64.847402,54.224848 64.740234,54.14502 l 0.02637,-0.03369 c -0.07975,-0.03775 -0.157768,-0.0777 -0.237305,-0.115723 -1.712178,-1.24527 -3.528813,-2.20651 -5.408205,-2.895998 C 52.433869,47.120017 46.598375,42.055196 41.617676,35.898926 30.510895,30.008835 35.748735,14.879317 48.237305,17.118164 c 6.825817,-2.471484 13.039897,0.664818 14.922363,7.03125 -1.914428,0.227159 -4.505813,-0.314361 -7.098633,-1.627441 v 6.716308 c 4.420848,-2.238848 8.840976,-2.238848 16.615723,0 -2.238848,-7.774747 -2.238848,-12.194875 0,-16.615722 h -6.716309 c 1.646861,3.251906 2.081125,6.501996 1.305176,8.415527 -5.15996,-5.376227 -12.085366,-9.228041 -19.259766,-10.637695 z m 0.301758,42.27539 c 4.263042,0.04787 8.673377,2.028957 12.007324,6.451172 0.03968,0.01425 0.07499,0.03229 0.114258,0.04687 0.06036,0.07404 0.122991,0.145372 0.183106,0.219727 l 0.08642,-0.109864 c 4.642933,1.861488 6.303504,6.106239 4.125,10.727051 2.238847,23.879579 -33.022539,23.879579 -30.783691,0 C 32.57079,59.539508 40.169078,52.584394 48.307612,52.675776 Z"
       inkscape:label="deimos" /><path
       id="path1-9"
       style="display:none;stroke-width:0.75"
       d="M 50,10.125001 C 46.0864,17.20883 42.9599,20.335346 38.25045,21.874548 l 4.7488,4.748794 c 0.94689,-2.886302 2.49063,-5.176075 4.07976,-6.325166 0.32137,4.194038 0.58049,8.388354 0.77616,12.582555 -9.73781,0.83027 -18.9207,7.325569 -19.96373,19.493666 1.04342,12.172636 10.2328,18.669503 19.97466,19.495853 -0.27872,6.00161 -0.68691,12.003511 -1.22436,18.004749 h 6.71652 C 52.82082,83.873949 52.41274,77.871683 52.1339,71.87025 61.87589,71.044034 71.06513,64.547188 72.10856,52.374397 71.06552,40.206134 61.88279,33.710858 52.14483,32.880731 c 0.19567,-4.195766 0.45465,-8.391329 0.77616,-12.586927 1.59149,1.147909 3.13457,3.440246 4.07976,6.329538 l 4.7488,-4.748794 C 57.04449,20.335346 53.91797,17.20883 50,10.125001 Z m -2.06612,24.469843 c 0.50459,11.853828 0.5041,23.707467 10e-4,35.561294 C 40.42939,69.241417 33.58093,63.31598 34.60677,52.374397 33.58104,41.433864 40.42804,35.510438 47.93269,34.594844 Z m 4.13224,0 c 7.50521,0.915003 14.35173,6.838311 13.32592,17.779553 1.0259,10.942289 -5.82204,16.867608 -13.32811,17.781741 -0.50216,-11.853979 -0.50219,-23.707316 10e-4,-35.561294 z"
       inkscape:label="phobos" /></g><g
     inkscape:groupmode="layer"
     id="layer4"
     inkscape:label="dwarf planets"><path
       id="path1-91"
       style="display:none;stroke-width:0.75"
       d="m 31.249512,10.820801 c -26.1184258,2.238847 -26.1184258,41.977462 0,44.216308 v -6.716308 c -23.8795786,2.238847 -23.8795786,-33.022539 0,-30.783692 5.179899,-0.927635 10.358578,-1.465581 15.537597,-1.624511 2.085923,24.421099 2.042055,48.846182 -0.145019,73.26709 h 6.716308 c -2.187071,-24.420882 -2.2324,-48.846016 -0.146484,-73.26709 5.179019,0.15893 10.359164,0.696876 15.539063,1.624511 23.879578,-2.238847 23.879578,33.022539 0,30.783692 v 6.716308 c 26.118424,-2.238846 26.118424,-41.977461 0,-44.216308 -12.501689,2.238847 -24.999777,2.238847 -37.501465,0 z m 0,11.891601 c -5.80701,0 -11.614463,3.405265 -12.733887,10.215821 2.238848,13.621111 23.228927,13.621111 25.467773,0 C 42.863975,26.117667 37.056522,22.712402 31.249512,22.712402 Z m 37.501465,0 c -5.80701,0 -11.614464,3.405265 -12.733887,10.215821 2.238847,13.621111 23.227461,13.621111 25.466308,0 C 80.363975,26.117667 74.557986,22.712402 68.750977,22.712402 Z m -37.501465,1.680176 c 3.568162,0 7.137001,2.844513 6.017578,8.535645 2.238847,11.382264 -14.272538,11.382264 -12.033692,0 -1.119423,-5.691132 2.447951,-8.535645 6.016114,-8.535645 z m 37.501465,0 c 3.568162,0 7.135537,2.844513 6.016113,8.535645 2.238848,11.382264 -14.272538,11.382264 -12.033692,0 -1.119423,-5.691132 2.449416,-8.535645 6.017579,-8.535645 z"
       inkscape:label="makemake" /><path
       id="path1-35"
       style="display:none;stroke-width:0.75"
       d="m 49.999512,10.400391 c -5.80701,0 -11.612999,3.405264 -12.732422,10.21582 2.238847,13.621111 23.227462,13.621111 25.466308,0 -1.119423,-6.810556 -6.926876,-10.21582 -12.733886,-10.21582 z m 0,1.678711 c 3.568162,0 7.137001,2.845977 6.017578,8.537109 2.238847,11.382265 -14.272538,11.382265 -12.033692,0 -1.119423,-5.691132 2.447951,-8.537109 6.016114,-8.537109 z m -37.5,23.928222 v 6.716309 c 5.186793,-0.464516 10.373943,-0.825408 15.561035,-1.097168 1.590674,24.578596 -6.246607,43.429984 -15.561035,41.257324 v 6.716309 c 10.833797,-2.182103 19.42145,-23.033546 21.922851,-48.259278 10.384626,-0.386294 20.769671,-0.386258 31.154297,0 2.501606,25.225743 11.094776,46.077175 21.924317,48.259278 V 82.883789 C 78.186366,85.056492 70.347402,66.204301 71.938477,41.625 c 5.187603,0.271768 10.375195,0.634071 15.5625,1.098633 v -6.716309 c -24.999002,2.238847 -50.002463,2.238847 -75.001465,0 z m 37.5,11.893067 c -5.80701,0 -11.612999,3.405264 -12.732422,10.21582 2.238847,13.621111 23.227462,13.621111 25.466308,0 -1.119423,-6.810556 -6.926876,-10.21582 -12.733886,-10.21582 z m 0,1.678711 c 3.568162,0 7.137001,2.845977 6.017578,8.537109 2.238847,11.382264 -14.272538,11.382264 -12.033692,0 -1.119423,-5.691132 2.447951,-8.537109 6.016114,-8.537109 z"
       inkscape:label="haumea" /><path
       id="path1-37"
       style="display:none;stroke-width:0.75"
       d="m 46.64209,12.499512 c 0.713763,7.969897 1.197399,15.940142 1.456055,23.910644 C 43.987037,26.815064 35.248929,19.290954 21.874512,18.515625 v 6.717773 c 14.886975,-0.916121 23.678166,7.586259 26.381836,17.799317 0.07727,4.644496 0.07726,9.289097 0,13.933594 -2.70359,10.213173 -11.494735,18.71691 -26.381836,17.800781 v 6.716308 C 35.248929,80.70807 43.987037,73.185424 48.098145,63.590332 47.839489,71.560834 47.355853,79.53108 46.64209,87.500977 h 6.716308 C 52.644766,79.532545 52.161035,71.563764 51.902344,63.594727 56.014212,73.18779 64.753533,80.708184 78.125977,81.483398 V 74.76709 c -14.885599,0.916037 -23.67729,-7.586055 -26.381836,-17.797852 -0.07733,-4.646457 -0.07733,-9.292996 0,-13.939453 2.704625,-10.211683 11.496361,-18.712416 26.381836,-17.796387 v -6.717773 c -13.372444,0.775214 -22.111765,8.297073 -26.223633,17.890137 0.258691,-7.969038 0.742422,-15.937818 1.456054,-23.90625 z"
       inkscape:label="eris" /><path
       id="path1-0"
       style="display:none;stroke-width:0.75"
       d="m 47.160645,11.734863 c -5.022437,-0.143881 -10.121772,1.295188 -14.472657,4.656739 l 4.749024,4.747558 C 47.14014,8.2745347 65.952226,16.066789 63.713379,32.022949 65.952226,41.914105 58.211341,49.654374 44.961914,47.415527 46.010439,54.84326 46.562498,61.528154 46.628906,67.82666 40.94309,67.73476 35.257604,67.183941 29.570801,66.165527 v 6.717774 c 5.683873,-1.017889 11.366429,-1.568807 17.049316,-1.661133 -0.106642,5.88261 -0.658151,11.467973 -1.658203,17.052246 h 6.717774 c -1.03835,-5.798127 -1.590326,-11.590149 -1.665528,-17.052246 5.685328,0.09197 11.370326,0.642807 17.056641,1.661133 v -6.717774 c -5.682409,1.017627 -11.3635,1.568593 -17.044922,1.661133 0.120087,-5.021924 0.671191,-9.68183 1.653809,-13.694824 7.459908,-2.238848 16.511152,-11.290708 18.75,-22.108887 C 68.89048,20.024948 58.210005,12.051402 47.160645,11.734863 Z"
       inkscape:label="ceres" /><path
       id="path1-1"
       style="display:none;stroke-width:0.75"
       d="m 49.999512,12.079102 c -5.80701,0 -11.612999,3.405264 -12.732422,10.21582 2.238847,13.621111 23.227462,13.621111 25.466308,0 -1.119423,-6.810556 -6.926876,-10.21582 -12.733886,-10.21582 z m -31.483887,0.84082 c 1.039029,17.923247 14.194245,27.521871 28.21875,28.809082 0.758885,5.455175 1.244505,10.910861 1.45752,16.366699 -5.647244,-0.09752 -11.29416,-0.646699 -16.942383,-1.658203 v 6.716309 c 5.68192,-1.017539 11.362522,-1.567057 17.043457,-1.659668 0.160924,8.809145 -0.388729,17.619313 -1.650879,26.427246 h 6.716308 c -1.262149,-8.807933 -1.811802,-17.6181 -1.650878,-26.427246 5.680446,0.09268 11.362025,0.642217 17.043457,1.659668 V 56.4375 C 63.102753,57.449004 57.454373,57.998188 51.807129,58.095703 52.020143,52.639846 52.507224,47.184198 53.266113,41.729004 67.290074,40.441263 80.444405,30.842551 81.483398,12.919922 H 74.76709 c 2.238848,36.381265 -51.772538,36.381265 -49.533692,0 z m 31.483887,0.837891 c 3.568162,-1e-6 7.137001,2.845977 6.017578,8.537109 2.238847,11.382264 -14.272538,11.382264 -12.033692,0 -1.119423,-5.691132 2.447951,-8.537109 6.016114,-8.537109 z"
       inkscape:label="pluto" /></g><g
     inkscape:label="planets"
     inkscape:groupmode="layer"
     id="layer1"><path
       id="path1-36"
       style="display:none;stroke-width:0.75"
       d="m 18.515625,12.499512 c 1.075859,18.558565 15.142024,28.19377 29.712891,28.916015 0.111109,5.420329 0.115473,10.840897 0.01611,16.261231 -5.664824,-0.09497 -11.32931,-0.645015 -16.995117,-1.659668 v 6.716308 c 5.64041,-1.010104 11.279512,-1.55956 16.918945,-1.658203 -0.232955,8.808949 -0.737523,17.617536 -1.526367,26.425782 h 6.716308 c -0.78884,-8.808237 -1.293408,-17.616842 -1.526364,-26.425782 5.638945,0.09871 11.279023,0.648186 16.918946,1.658203 V 56.01709 C 63.085658,57.031655 57.420195,57.581722 51.755859,57.676758 51.656499,52.25642 51.659399,46.83586 51.770508,41.415527 66.341767,40.693714 80.407512,31.058546 81.483398,12.499512 H 74.76709 C 75.834316,29.84193 64.119241,38.910575 51.808594,39.719238 52.031345,30.645619 52.545854,21.572397 53.358398,12.499512 H 46.64209 c 0.812544,9.072882 1.325588,18.14611 1.54834,27.219726 C 35.880045,38.910269 24.166194,29.841592 25.233398,12.499512 Z"
       inkscape:label="neptune" /><path
       id="path1-3"
       style="display:none;stroke-width:0.75"
       d="m 27.89209,12.079102 c 2.238848,12.501687 2.238848,24.998312 0,37.5 h 6.716308 c -0.936291,-5.22824 -1.475734,-10.455268 -1.628906,-15.682618 4.957022,-0.805834 9.913311,-1.261955 14.869629,-1.363769 0.889779,11.776652 0.509699,23.55504 -1.144043,35.330566 -4.559111,1.052607 -8.53244,4.332945 -9.437988,9.842285 2.238847,13.621112 23.227462,13.621112 25.466308,0 C 61.827861,72.19629 57.854455,68.915927 53.29541,67.863281 51.641665,56.087744 51.260123,44.309377 52.149902,32.532715 c 4.956749,0.101823 9.913642,0.559269 14.871094,1.365234 -0.15323,5.226873 -0.6927,10.45339 -1.628906,15.681153 h 6.716308 c -2.238847,-12.501688 -2.238847,-24.998313 0,-37.5 H 65.39209 c 0.936294,5.22825 1.475735,10.455256 1.628906,15.682617 -4.859246,0.789992 -9.7181,1.245905 -14.57666,1.359375 0.246402,-2.55569 0.547868,-5.111498 0.914062,-7.666992 H 46.64209 c 0.366194,2.555494 0.666195,5.111302 0.912598,7.666992 -4.85821,-0.113462 -9.7163,-0.569489 -14.575196,-1.359375 0.153172,-5.22735 0.692615,-10.454378 1.628906,-15.682617 z m 22.107422,57.089355 c 3.568162,0 7.137001,2.845977 6.017578,8.537109 2.238847,11.382264 -14.272538,11.382264 -12.033692,0 -1.119423,-5.691132 2.447951,-8.537109 6.016114,-8.537109 z"
       inkscape:label="uranus" /><path
       id="path1-83"
       style="display:none;stroke-width:0.75"
       d="m 38.884753,11.000001 c 0.676708,4.447629 1.138499,8.894929 1.387028,13.341885 -4.170369,-0.118617 -8.339812,-0.643484 -12.508403,-1.57713 v 6.41714 c 4.215224,-0.944089 8.431322,-1.470585 12.648366,-1.581305 0.275974,8.523407 -0.229934,17.045547 -1.526991,25.570379 h 6.417144 c -0.161804,-1.063332 -0.307622,-2.126489 -0.444944,-3.189769 0.06375,-5.821263 5.203859,-9.75351 11.566319,-7.931602 12.053007,-2.139045 17.901957,11.977833 7.866841,18.988217 -5.142915,8.167639 -8.936388,18.599686 -11.075418,27.962183 h 6.417143 C 57.492787,80.013505 60.993812,70.383605 68.827227,65.574932 76.848633,54.528773 69.909274,37.771503 56.423272,35.632459 51.69798,36.84213 47.393534,39.622599 44.157158,43.319657 43.732349,38.079694 43.605241,32.840332 43.774896,27.60059 c 4.217033,0.110716 8.433152,0.637217 12.648376,1.581305 v -6.41714 c -4.168591,0.933646 -8.338055,1.458515 -12.508423,1.57713 0.248539,-4.446956 0.71032,-8.894256 1.387048,-13.341884 z"
       inkscape:label="saturn" /><path
       id="path1-7"
       style="display:none;stroke-width:0.75"
       d="m 24.392578,11.044922 -3.357422,5.816894 c 22.213562,10.240976 22.213562,40.197967 0,50.434571 l 1.678711,6.266601 c 11.933317,-1.424873 23.867465,-1.940065 35.800781,-1.551269 -0.09752,5.647244 -0.646698,11.29416 -1.658203,16.942383 h 6.716309 c -1.003371,-5.602807 -1.552717,-11.204315 -1.656738,-16.806153 5.683205,0.267231 11.366111,0.736448 17.049316,1.415039 V 66.84668 c -5.683209,0.678592 -11.366108,1.147808 -17.049316,1.415039 0.103952,-5.602326 0.653279,-11.204322 1.656738,-16.807617 h -6.716309 c 1.011505,5.648222 1.560688,11.295138 1.658203,16.942382 -9.318023,0.303589 -18.637055,0.0537 -27.955078,-0.748535 C 45.217881,51.412871 43.172125,24.18749 24.392578,11.044922 Z"
       inkscape:label="jupiter" /><path
       id="path1-50"
       style="display:none;stroke-width:0.75"
       d="m 74.24254,10.400369 v 6.716548 c 2.95473,-1.496358 5.90707,-1.990592 7.85783,-1.486736 C 76.67984,22.79833 70.26561,28.971483 62.84714,34.142229 43.87052,20.770197 10.76294,28.971165 9.141,58.758639 c 2.23885,41.121323 64.4806,41.121323 66.71945,0 -0.47815,-8.781483 -3.70017,-15.68104 -8.48313,-20.711542 5.1207,-7.261145 11.2045,-13.558261 18.25186,-18.890291 0.50528,1.951721 0.0105,4.906558 -1.48673,7.860022 H 90.859 c -2.23885,-4.416476 -2.23885,-8.837339 0,-16.616459 -7.77475,2.238847 -12.19561,2.238847 -16.61646,0 z m -31.74182,19.19857 c 13.8813,0 27.76261,9.720648 26.64319,29.1597 2.23885,38.882477 -55.52521,38.882477 -53.28636,0 -1.11943,-19.439052 12.76189,-29.1597 26.64317,-29.1597 z"
       inkscape:label="mars" /><path
       id="path1-18-9"
       style="display:none;stroke-width:0.749999"
       d="m 50.000001,11.677794 c -19.860121,0 -39.720281,12.773189 -40.8391602,38.321678 2.2377612,51.096978 79.4405582,51.096978 81.6783182,0 C 89.720279,24.450986 69.860122,11.677794 50.000001,11.677794 Z m -3.273602,1.818182 c 1.012146,11.604823 1.539761,23.210652 1.58654,34.816433 C 37.489512,48.268847 26.666174,47.805778 15.843532,46.922549 16.254985,26.000202 31.019654,14.851551 46.726399,13.495976 Z m 6.547204,0 c 15.706745,1.355575 30.471414,12.504227 30.882867,33.426572 -10.822642,0.883229 -21.64598,1.346238 -32.469407,1.38986 0.04678,-11.605781 0.574394,-23.211607 1.58654,-34.816432 z m -4.960664,38.190558 c -0.04678,11.605781 -0.574394,23.211614 -1.58654,34.816434 -15.707293,-1.355624 -30.472405,-12.50281 -30.882867,-33.426574 10.822642,-0.883229 21.64598,-1.346237 32.469407,-1.38986 z m 3.374124,0 c 10.823427,0.04356 21.646765,0.506631 32.469407,1.38986 C 83.746008,74.000159 68.980896,85.147345 53.273603,86.502968 52.261457,74.898148 51.733842,63.292315 51.687063,51.686534 Z"
       inkscape:label="terra" /><path
       id="path1-2"
       style="display:none;stroke-width:0.75"
       d="m 49.999268,12.080322 c -10.494596,0 -20.987998,6.528678 -22.107422,19.587891 1.003326,11.704811 9.53821,18.16009 18.854004,19.374023 0.948331,5.477255 1.466847,10.953321 1.555664,16.429688 -5.683865,-0.09218 -11.367395,-0.643069 -17.052246,-1.661133 V 72.5271 c 5.68485,-1.018063 11.368382,-1.567486 17.052246,-1.659668 -0.09218,5.683863 -0.641605,11.367396 -1.659668,17.052246 h 6.716308 c -1.018063,-5.68485 -1.567485,-11.368383 -1.659668,-17.052246 5.683376,0.09225 11.367885,0.641692 17.052247,1.659668 v -6.716309 c -5.684364,1.017977 -11.36887,1.568879 -17.052247,1.661133 0.08882,-5.476388 0.607327,-10.952412 1.555665,-16.429688 C 62.569766,49.828151 71.104845,43.372832 72.108154,31.668213 70.988731,18.609 60.493864,12.080322 49.999268,12.080322 Z m 0,1.678711 c 8.255749,0 16.512001,5.969391 15.392578,17.90918 2.238847,23.879578 -33.022538,23.879578 -30.783692,0 -1.119423,-11.939789 7.135365,-17.90918 15.391114,-17.90918 z"
       inkscape:label="venus" /><path
       id="path1"
       style="display:none;stroke-width:0.75"
       d="m 68.358886,12.499268 c -0.862296,8.134552 -6.176207,13.132989 -12.51123,15.001465 6.334845,1.868569 11.648953,6.86562 12.51123,15 -0.97866,9.23228 -7.690858,14.429404 -15.123047,15.590332 -0.911027,4.236522 -1.424786,8.472461 -1.532226,12.708984 C 56.135956,70.68735 60.567658,70.135597 65,69.14331 v 6.716308 c -4.432342,-0.992285 -8.864044,-1.542575 -13.296386,-1.655272 0.112782,4.431854 0.66456,8.864532 1.656737,13.296386 h -6.71631 c 0.992177,-4.431854 1.542493,-8.864532 1.655274,-13.296386 -4.433318,0.112528 -8.867463,0.662768 -13.30078,1.655272 V 69.14331 c 4.433318,0.992505 8.867463,1.544209 13.300781,1.656739 C 48.191877,66.563558 47.679568,62.327557 46.768554,58.091066 39.334096,56.931906 32.620024,51.735375 31.641114,42.500733 32.503352,34.366727 37.816417,29.369505 44.150877,27.500734 37.81624,25.632055 32.50337,20.633446 31.641114,12.499268 h 6.716307 C 37.237999,21.940031 43.619067,26.659912 50,26.659912 c 6.380932,0 12.762002,-4.719881 11.642578,-14.160644 z M 50,28.338623 c -6.380933,0 -12.762001,4.721346 -11.642579,14.16211 -2.238847,18.881528 25.524004,18.881528 23.285157,0 C 62.762002,33.059969 56.380932,28.338623 50,28.338623 Z"
       inkscape:label="mercury" /></g><path
     id="path1-39"
     style="display:none;stroke-width:0.749999"
     d="m 49.999998,11.676853 c -19.86004,0 -39.720122,12.775325 -40.8389995,38.323713 2.2377525,51.096774 79.4402525,51.096774 81.6780025,0 C 89.720121,24.452178 69.86004,11.676853 49.999998,11.676853 Z m 0,1.678315 c 17.622291,0 35.244613,12.215885 34.125743,36.645398 2.23775,48.859024 -70.489232,48.859024 -68.251482,0 -1.118875,-24.429513 16.50345,-36.645398 34.125739,-36.645398 z m 0,26.575507 c -5.559411,0 -10.069889,4.510478 -10.069889,10.069891 0,5.563783 4.510478,10.06989 10.069889,10.06989 5.563784,0 10.06989,-4.506107 10.06989,-10.06989 0,-5.559413 -4.506106,-10.069891 -10.06989,-10.069891 z"
     inkscape:label="sol" /></svg>
