<?xml version="1.0" encoding="UTF-8" standalone="no"?>
<svg
   width="100pt"
   height="50pt"
   viewBox="0 0 100 50"
   version="1.1"
   id="svg60"
   sodipodi:docname="kilroy.svg"
   inkscape:version="1.3.2 (091e20e, 2023-11-25)"
   xmlns:inkscape="http://www.inkscape.org/namespaces/inkscape"
   xmlns:sodipodi="http://sodipodi.sourceforge.net/DTD/sodipodi-0.dtd"
   xmlns="http://www.w3.org/2000/svg"
   xmlns:svg="http://www.w3.org/2000/svg"
   xmlns:rdf="http://www.w3.org/1999/02/22-rdf-syntax-ns#"
   xmlns:cc="http://creativecommons.org/ns#"
   xmlns:dc="http://purl.org/dc/elements/1.1/">
  <sodipodi:namedview
     id="namedview1"
     pagecolor="#727272"
     bordercolor="#000000"
     borderopacity="0.25"
     inkscape:showpageshadow="2"
     inkscape:pageopacity="0.0"
     inkscape:pagecheckerboard="0"
     inkscape:deskcolor="#d1d1d1"
     inkscape:document-units="pt"
     inkscape:zoom="5.0122614"
     inkscape:cx="66.137811"
     inkscape:cy="38.505573"
     inkscape:window-width="1440"
     inkscape:window-height="784"
     inkscape:window-x="0"
     inkscape:window-y="25"
     inkscape:window-maximized="1"
     inkscape:current-layer="svg60" />
  <defs
     id="defs54" />
  <metadata
     id="metadata57">
    <rdf:RDF>
      <cc:Work
         rdf:about="">
        <dc:format>image/svg+xml</dc:format>
        <dc:type
           rdf:resource="http://purl.org/dc/dcmitype/StillImage" />
      </cc:Work>
    </rdf:RDF>
  </metadata>
  <path
     style="display:none;fill:#000000;stroke:none;stroke-width:0;stroke-dasharray:none"
     d="m 47.678467,46.930241 c -1.294311,-0.03204 -1.791819,-0.137855 -2.690149,-0.572167 -0.432326,-0.209017 -0.643062,-0.355102 -1.119499,-0.776046 -0.548913,-0.48498 -0.629583,-0.584665 -1.395276,-1.724153 -0.493226,-0.73401 -0.649382,-1.012607 -0.916342,-1.634823 -0.188328,-0.438949 -0.273366,-0.715389 -0.397995,-1.293824 -0.222432,-1.032354 -0.361118,-1.994657 -0.449385,-3.118127 -0.03329,-0.423699 -0.08021,-1.006971 -0.104272,-1.296162 -0.0366,-0.439862 -0.04367,-0.801613 -0.0433,-2.213259 4.63e-4,-1.540775 0.0063,-1.789495 0.06811,-2.861339 0.03721,-0.645636 0.08345,-1.371976 0.102753,-1.614089 0.04683,-0.587472 0.171179,-2.004001 0.231852,-2.641237 0.09568,-1.00487 0.107449,-1.213782 0.07498,-1.331136 -0.04049,-0.146352 -0.14248,-0.236579 -0.305748,-0.270473 -0.09887,-0.02053 -0.854171,-0.01483 -3.049934,0.02302 -1.605181,0.02767 -4.563782,0.07731 -6.574668,0.110316 -2.010886,0.03301 -3.837741,0.06587 -4.059678,0.07304 -0.221938,0.0072 -0.750185,0.01889 -1.173883,0.02606 -2.861831,0.04841 -3.59933,0.06528 -3.725956,0.08524 -0.45602,0.07186 -0.576012,0.291684 -0.61408,1.124974 -0.02605,0.570282 -0.03912,0.720417 -0.149014,1.711912 -0.207682,1.873807 -0.233038,2.021889 -0.440523,2.572805 -0.13244,0.351658 -0.268332,0.612754 -0.419425,0.805865 -0.11541,0.147509 -0.781007,0.770951 -1.007762,0.94394 -0.1876,0.143115 -0.364439,0.206444 -0.576486,0.206444 -0.25987,0 -0.426983,-0.07253 -0.625518,-0.27149 -0.240954,-0.241473 -0.387098,-0.515956 -0.632716,-1.188349 -0.08289,-0.226921 -0.175617,-0.379066 -0.23103,-0.379066 -0.06196,0 -0.118714,0.09867 -0.23733,0.4126 -0.135739,0.359262 -0.212502,0.640172 -0.291567,1.066981 -0.0299,0.161409 -0.08086,0.365005 -0.113246,0.452434 -0.167844,0.453126 -0.595772,0.804678 -1.1175,0.918048 -0.693967,0.150798 -1.562592,-0.173481 -1.957716,-0.730862 -0.144745,-0.204182 -0.203437,-0.326312 -0.458279,-0.953594 -0.318457,-0.78387 -0.429201,-0.975056 -0.540135,-0.932486 -0.07295,0.028 -0.117492,0.163393 -0.216727,0.6588 -0.08509,0.424797 -0.158413,0.650894 -0.264894,0.816829 -0.287846,0.448568 -0.927119,0.763728 -1.628346,0.802768 -0.293399,0.01633 -0.531505,-0.01724 -0.8312873,-0.117228 C 9.255825,33.642075 8.8555799,33.268375 8.554894,32.663136 8.4150753,32.3817 8.3405605,32.127735 8.29031,31.761366 8.1964983,31.077398 8.1487703,30.890878 8.0587224,30.856325 7.9955887,30.832098 7.9531977,30.867674 7.6790674,31.174955 7.3891155,31.499972 6.9399546,31.917482 6.731144,32.056082 6.3992743,32.276365 6.0600296,32.334899 5.6746854,32.238368 5.0722321,32.087451 4.7341298,31.758871 4.4536161,31.051695 4.3676241,30.834908 4.2732125,30.474419 4.2351537,30.217547 4.2075915,30.031522 4.0739925,28.707696 4.0488141,28.371126 4.0167976,27.943141 3.9385163,27.230724 3.9138629,27.142978 3.864631,26.967747 3.7309756,26.855218 3.5144358,26.806692 3.3087484,26.760595 2.0751408,26.658133 1.4323724,26.633758 0.56705055,26.60094 0.41133452,26.568184 0.19549166,26.373569 -0.00677207,26.191197 -0.05598919,25.928633 0.0661464,25.683541 c 0.07329743,-0.14709 0.19031322,-0.242889 0.39667629,-0.324752 0.13586539,-0.0539 0.16165292,-0.05502 1.62985881,-0.07117 1.0611948,-0.01168 1.5200462,-0.02502 1.5896335,-0.04623 0.2446926,-0.07459 0.3265603,-0.178858 0.4517267,-0.575325 0.1171757,-0.371155 0.2199515,-0.565912 0.3839004,-0.727474 0.1888648,-0.186117 0.1852692,-0.183821 1.301801,-0.831557 1.0303494,-0.597741 1.3031783,-0.743934 1.5635067,-0.837786 0.365011,-0.131592 1.5160162,-0.426132 1.9483766,-0.498584 0.3051809,-0.05114 2.0113936,-0.267059 2.6290076,-0.332696 0.427802,-0.04546 2.166836,-0.09584 2.677921,-0.07758 0.531177,0.01898 1.811384,0.210511 2.421133,0.362221 0.744257,0.185175 1.210134,0.338442 1.736368,0.571241 0.739889,0.327315 0.945747,0.458587 1.308662,0.83453 0.272777,0.282563 0.425894,0.49352 0.574699,0.791782 0.225009,0.451 0.395076,0.605897 0.723273,0.658751 0.357399,0.05756 2.813076,-0.142197 3.348376,-0.27237 0.241417,-0.05871 0.393572,-0.182935 0.437162,-0.356924 0.01248,-0.04983 0.02875,-0.28869 0.03614,-0.530803 0.02309,-0.756446 0.0582,-0.953651 0.454963,-2.555641 0.131587,-0.531304 0.319176,-1.318173 0.416865,-1.748597 0.09769,-0.430423 0.215784,-0.903156 0.262434,-1.050517 0.04665,-0.147364 0.302634,-0.813175 0.568856,-1.479581 0.266222,-0.666409 0.684768,-1.723393 0.930104,-2.348852 0.496254,-1.265153 0.548901,-1.379546 0.939821,-2.042068 0.150795,-0.255564 0.333239,-0.569211 0.40543,-0.696992 0.654525,-1.158552 0.660925,-1.167804 1.395641,-2.0176119 0.362033,-0.418743 0.546768,-0.605633 1.196229,-1.21018 0.194847,-0.181375 0.524067,-0.503901 0.7316,-0.716726 0.378903,-0.388568 0.625384,-0.598788 0.943285,-0.804516 0.825507,-0.534225 1.858138,-1.163856 2.201031,-1.342049 0.297885,-0.154803 1.456283,-0.659908 2.128116,-0.92794 0.563783,-0.224923 2.290612,-0.758211 2.763063,-0.8533 0.296931,-0.05976 1.780682,-0.279089 2.237715,-0.330774 1.290434,-0.145935 3.206592,-0.253942 4.010766,-0.226075 0.631246,0.02188 1.574692,0.147853 2.347766,0.313498 0.55148,0.118163 0.879081,0.180416 1.137198,0.216095 0.546969,0.07561 0.777806,0.143172 1.504038,0.440218 0.289191,0.118285 0.784423,0.305912 1.100515,0.416949 0.727536,0.255566 0.917943,0.340137 1.685845,0.748795 0.343879,0.183004 0.729786,0.387824 0.857568,0.455156 0.550542,0.290096 0.659236,0.351766 0.859292,0.487545 0.116166,0.07884 0.319761,0.237164 0.452434,0.351826 0.402163,0.347567 0.712672,0.599224 1.084952,0.879323 0.624701,0.470018 1.044861,0.823398 1.601861,1.347258 0.878837,0.826553 1.25465,1.25131 2.052744,2.3200739 0.630698,0.844601 0.696729,0.940173 1.106715,1.601861 0.634944,1.024749 0.746636,1.216378 1.347033,2.311083 0.217706,0.39694 1.032767,2.01854 1.032767,2.054732 0,0.0038 0.04287,0.09887 0.09526,0.211153 0.139713,0.299422 0.390997,0.957455 1.095918,2.869853 0.380712,1.032843 0.368301,0.996814 0.695154,2.01761 0.151245,0.472351 0.308939,0.917784 0.358262,1.011975 0.106909,0.204161 0.245833,0.315706 0.442344,0.355171 0.182088,0.03657 3.351031,0.03692 3.613598,3.7e-4 0.232499,-0.03234 0.454402,-0.130675 0.580971,-0.257462 0.08848,-0.08863 0.135919,-0.176349 0.366601,-0.677885 0.211631,-0.460121 0.526196,-0.839434 0.956842,-1.153803 0.611982,-0.446738 1.16256,-0.690592 2.313745,-1.02477 1.065724,-0.309372 1.755358,-0.471453 2.186139,-0.513804 0.245696,-0.02415 1.271538,-0.107655 1.699684,-0.138349 0.361373,-0.02591 1.490245,-0.01784 1.895332,0.01354 0.06726,0.0052 0.331378,0.01598 0.586942,0.02392 1.097766,0.03413 2.224004,0.112377 2.861339,0.198805 0.495406,0.06718 1.267385,0.276803 1.626317,0.441609 0.100881,0.04632 0.370507,0.186904 0.599169,0.312407 0.228664,0.125506 0.565991,0.307489 0.749618,0.40441 0.537304,0.283598 0.626455,0.371776 1.156202,1.143585 0.307755,0.448379 0.400469,0.551507 0.571211,0.635349 l 0.13975,0.06863 h 1.173883 c 0.645636,0 2.868681,-0.0055 4.940094,-0.01223 l 3.766205,-0.01223 0.146735,0.05835 c 0.42073,0.16731 0.53277,0.607739 0.23156,0.910266 -0.135181,0.135777 -0.304313,0.204791 -0.589927,0.240726 -0.128887,0.01622 -1.835638,0.03464 -4.630635,0.04998 -3.123727,0.01714 -4.455309,0.03236 -4.524341,0.05168 -0.324629,0.0909 -0.373723,0.271427 -0.265305,0.97562 0.06617,0.429799 0.06963,0.492808 0.06903,1.259478 -6.47e-4,0.856883 -0.02033,1.11995 -0.124304,1.663 -0.12475,0.651562 -0.260208,1.032039 -0.521344,1.464363 -0.23686,0.392133 -0.502285,0.589593 -0.941158,0.70016 -0.709816,0.178827 -1.361685,-0.143825 -2.001424,-0.99064 -0.12194,-0.161409 -0.249553,-0.323734 -0.283585,-0.360724 -0.169135,-0.183822 -0.241031,-0.01112 -0.29779,0.715335 -0.03228,0.413158 -0.05929,0.589674 -0.132994,0.869253 -0.109433,0.41511 -0.289496,0.727265 -0.59989,1.03996 -0.373669,0.376442 -0.761648,0.559578 -1.187378,0.56047 -0.419115,9.24e-4 -0.733403,-0.16226 -1.218483,-0.632488 -0.380837,-0.369174 -0.538387,-0.609159 -0.762332,-1.161212 -0.07079,-0.174498 -0.142084,-0.264843 -0.193448,-0.245134 -0.05012,0.01923 -0.10261,0.156513 -0.196127,0.512904 -0.298983,1.139446 -0.566668,1.702795 -0.999537,2.103568 -0.73252,0.6782 -1.927239,0.469568 -2.632719,-0.459743 -0.275635,-0.363089 -0.472069,-0.780708 -0.658193,-1.399313 -0.106259,-0.353155 -0.167345,-0.496474 -0.235852,-0.553328 -0.03656,-0.03035 -0.04814,-0.0259 -0.09979,0.03832 -0.03213,0.03996 -0.07918,0.127675 -0.104537,0.194928 -0.213534,0.566281 -0.478269,0.895878 -0.87346,1.087466 -0.200611,0.09726 -0.345823,0.127879 -0.608562,0.12834 -0.272502,4.62e-4 -0.475804,-0.05057 -0.733676,-0.184242 -0.324237,-0.168063 -0.819706,-0.693009 -1.118858,-1.185423 -0.28485,-0.468871 -0.718186,-1.517315 -0.863863,-2.090086 -0.145539,-0.572237 -0.325332,-1.564832 -0.461781,-2.54941 -0.09304,-0.671312 -0.145701,-0.796844 -0.370287,-0.882614 -0.140756,-0.05375 0.07894,-0.05666 -8.459379,0.111926 -1.345074,0.02656 -2.63818,0.05384 -2.873567,0.06062 -0.235388,0.0068 -0.725118,0.01831 -1.088288,0.02561 -1.132611,0.02278 -3.79352,0.08286 -4.267553,0.09637 -0.248838,0.0071 -0.804599,0.01945 -1.235023,0.02746 -1.155663,0.02152 -1.314318,0.04525 -1.44151,0.215608 -0.08754,0.117253 -0.0704,0.358058 0.05155,0.72409 0.105982,0.318102 0.150734,0.565199 0.214845,1.18623 0.03676,0.356048 0.156552,1.069659 0.309941,1.8463 0.07123,0.360666 0.167803,0.825947 0.941558,4.536569 0.391597,1.877955 0.410039,1.978723 0.461023,2.518956 0.02158,0.228663 0.06034,0.602838 0.08614,0.831501 0.09148,0.810884 0.220186,2.861956 0.220186,3.508991 0,0.747488 -0.123446,1.350173 -0.474779,2.317924 -0.228086,0.628269 -0.385071,0.988104 -0.580791,1.331262 -0.575044,1.008228 -0.938314,1.379909 -1.886849,1.930523 -0.839362,0.48724 -0.973642,0.531995 -2.119951,0.706519 -0.605457,0.09218 -1.038348,0.114287 -1.84642,0.09428 z m 1.313269,-1.461334 c 1.354313,-0.220647 2.048118,-0.497176 2.705568,-1.078368 0.263103,-0.232586 0.426515,-0.446863 0.5834,-0.764998 0.285775,-0.579504 0.463439,-1.117744 0.809285,-2.451754 l 0.08876,-0.342383 -0.0015,-0.574714 c -8.32e-4,-0.316092 -0.01507,-0.734288 -0.03171,-0.929323 -0.02646,-0.310235 -0.425127,-3.124439 -0.639192,-4.512113 -0.0415,-0.269014 -0.361255,-1.908783 -0.71057,-3.643928 -1.375483,-6.832402 -1.269474,-6.312653 -1.858056,-9.109821 -0.350798,-1.667128 -0.373093,-1.789121 -0.373193,-2.042066 0,-0.200507 0.01041,-0.292138 0.04119,-0.359816 0.109337,-0.240396 0.335075,-0.376165 0.591248,-0.355603 0.364292,0.02924 0.627208,0.295026 0.793785,0.802442 0.05716,0.174111 0.09157,0.34552 0.307117,1.529946 0.08596,0.472361 0.178769,0.946864 0.206238,1.05445 0.06952,0.272283 0.213721,0.680625 0.290361,0.822237 0.07976,0.147384 0.240213,0.291433 0.366884,0.329387 0.126684,0.03796 0.679182,0.03647 2.621505,-0.0071 0.867574,-0.01944 1.847032,-0.0414 2.176575,-0.04879 0.329543,-0.0074 0.846786,-0.01875 1.149428,-0.02525 0.302641,-0.0065 0.81438,-0.01753 1.137198,-0.02452 0.322818,-0.007 0.845563,-0.0183 1.161655,-0.02513 0.316093,-0.0068 0.805822,-0.01804 1.088288,-0.02492 0.282466,-0.0069 1.289436,-0.02861 2.237714,-0.04831 0.948277,-0.01969 1.772346,-0.04231 1.831264,-0.05025 0.156115,-0.02105 0.215665,-0.05563 0.26125,-0.151688 0.05996,-0.126349 0.0322,-0.226714 -0.319868,-1.156688 -0.17023,-0.449653 -0.323385,-0.856069 -0.340348,-0.903147 -0.01696,-0.04708 -0.144172,-0.382734 -0.282695,-0.745904 -0.138523,-0.36317 -0.281972,-0.742848 -0.318775,-0.843729 -0.149274,-0.409159 -0.565961,-1.441182 -0.745507,-1.84642 -0.01788,-0.04035 -0.106507,-0.24945 -0.196952,-0.464661 C 63.423564,17.003601 63.227773,16.60893 62.602824,15.421376 62.080424,14.428687 61.580062,13.51908 61.37461,13.188609 61.247012,12.983361 61.030551,12.70428 60.382347,11.909318 60.064396,11.519375 59.757558,11.12981 59.045969,10.212626 58.804494,9.9013851 58.537061,9.5867991 58.411517,9.4663131 58.193203,9.2567901 57.17176,8.4251401 56.739365,8.1048581 c -0.27381,-0.202815 -1.257324,-0.831825 -1.673805,-1.070489 -0.530607,-0.304065 -2.523812,-1.247003 -3.365777,-1.592274 -0.384194,-0.15755 -1.350576,-0.400879 -2.61511,-0.65847 -0.709869,-0.144603 -0.991082,-0.189128 -1.809736,-0.28653 -0.637643,-0.07587 -0.713774,-0.07988 -1.467353,-0.07737 -0.437149,0.0015 -1.009417,0.0152 -1.271707,0.03055 -0.660847,0.03867 -2.203686,0.189773 -2.543412,0.249105 -0.338766,0.05916 -2.007949,0.480974 -2.382954,0.60218 -0.40315,0.130306 -1.522034,0.601436 -2.006879,0.845042 -0.439438,0.22079 -1.47954,0.785579 -1.785393,0.969492 -0.467636,0.281194 -1.290836,0.85828 -1.882991,1.320024 -0.800503,0.62421 -0.7731,0.595677 -1.753157,1.8254249 -0.30015,0.376621 -0.755703,0.943386 -1.012338,1.259478 -0.50967,0.627751 -0.7459,0.951104 -1.036262,1.418442 -0.267262,0.430157 -0.271794,0.440077 -0.815688,1.78528 -0.7653,1.892809 -0.778506,1.929473 -1.105396,3.069152 -0.165907,0.578416 -0.390945,1.319283 -0.500089,1.646371 -0.230098,0.68957 -0.274779,0.866153 -0.341471,1.349539 -0.02691,0.195036 -0.08309,0.602227 -0.124849,0.904868 -0.04176,0.302642 -0.135706,0.913428 -0.208768,1.357302 -0.147271,0.894712 -0.164151,1.151963 -0.08676,1.322348 0.05715,0.125818 0.190149,0.236199 0.352869,0.29285 0.195909,0.0682 1.006619,0.07186 2.853475,0.01287 1.633505,-0.05218 7.26284,-0.225671 8.767438,-0.270208 1.19178,-0.03528 1.387006,-0.0464 1.522864,-0.08674 0.251096,-0.07456 0.340509,-0.211073 0.374037,-0.571047 0.01206,-0.129472 0.03923,-0.928727 0.06037,-1.776124 0.02115,-0.847397 0.04872,-1.61417 0.06127,-1.70394 0.06643,-0.475148 0.329609,-0.753877 0.711811,-0.753877 0.296584,0 0.563473,0.233426 0.680544,0.595215 0.06106,0.188713 0.06661,0.524295 0.03443,2.082705 -0.05658,2.740031 -0.07902,3.362257 -0.168034,4.658848 -0.258846,3.770429 -0.272319,3.995968 -0.29362,4.915635 -0.0079,0.342994 -0.0299,1.242246 -0.04879,1.998342 -0.04861,1.945975 -0.0175,2.790019 0.160264,4.347962 0.158844,1.39211 0.187136,1.562663 0.414281,2.497184 0.207449,0.853498 0.535833,1.680778 0.915179,2.305557 0.358807,0.590955 0.501448,0.754188 1.12577,1.288288 0.524822,0.448981 0.769121,0.641598 0.942657,0.743241 0.354222,0.207467 1.114416,0.434383 1.84642,0.551146 0.330607,0.05273 1.317593,0.03372 1.72902,-0.03331 z M 40.965407,16.395523 c -0.140078,-0.02929 -0.374977,-0.15937 -0.498144,-0.275855 -0.437052,-0.413347 -0.455565,-1.103496 -0.04056,-1.512008 0.514407,-0.506359 1.338307,-0.342201 1.657891,0.330325 0.08628,0.181569 0.09044,0.202024 0.09086,0.447061 4.62e-4,0.241647 -0.0045,0.267301 -0.08313,0.435118 -0.106767,0.227818 -0.32351,0.439431 -0.5323,0.519705 -0.14134,0.05434 -0.458787,0.08405 -0.594611,0.05565 z m 9.064639,-0.349548 c -0.425044,-0.135796 -0.706297,-0.513501 -0.710682,-0.9544 -0.0081,-0.813581 0.884369,-1.300448 1.570682,-0.856863 0.423107,0.273469 0.578874,0.83735 0.35492,1.284834 -0.227812,0.455193 -0.741377,0.67772 -1.21492,0.526429 z M 15.306949,32.547819 c 0.189061,-0.116222 0.446009,-0.566513 0.631952,-1.107478 0.09223,-0.26831 0.09247,-0.270071 0.09305,-0.672537 2.77e-4,-0.221937 -0.01393,-0.733677 -0.03167,-1.137199 -0.04934,-1.122218 -0.04916,-2.110842 4.62e-4,-2.326172 0.08081,-0.350973 0.288994,-0.642483 0.550312,-0.770595 0.08694,-0.04262 0.170105,-0.05986 0.320729,-0.06648 0.187741,-0.0083 0.215282,-0.0031 0.358809,0.06759 0.264999,0.13046 0.47139,0.40017 0.595482,0.778175 0.08399,0.255835 0.138142,0.606584 0.261529,1.693856 0.06593,0.581014 0.11708,0.843653 0.214566,1.101814 0.199971,0.529554 0.370191,0.751186 0.610311,0.794636 0.136631,0.02472 0.334134,-0.07831 0.431304,-0.225016 0.116411,-0.175745 0.15037,-0.323882 0.32431,-1.414646 0.08908,-0.55859 0.09185,-0.715468 0.04792,-2.714604 -0.0205,-0.932934 -0.02881,-1.074321 -0.07363,-1.252918 -0.121993,-0.486139 -0.315103,-0.838062 -0.60867,-1.109253 -0.430375,-0.39757 -1.286053,-0.83142 -2.328598,-1.180664 -0.516493,-0.173022 -0.601708,-0.189194 -1.614089,-0.306323 -1.30405,-0.150878 -1.372443,-0.155129 -2.311082,-0.143637 -0.851178,0.01042 -0.859847,0.01105 -1.552949,0.11262 -0.383346,0.05618 -0.812547,0.125253 -0.95378,0.153502 -0.6239509,0.1248 -2.7838308,0.825587 -3.5094207,1.138652 -0.2824039,0.121846 -0.4232403,0.218506 -0.6392098,0.438709 -0.4006647,0.408513 -0.5940023,0.826817 -0.7334254,1.586826 -0.077931,0.42481 -0.049156,1.491794 0.064965,2.408905 0.025943,0.208487 0.069986,0.588165 0.097872,0.843728 0.096965,0.888628 0.1912347,1.157862 0.449123,1.282705 0.13162,0.06371 0.2407227,0.06351 0.3733576,-6.47e-4 0.2235147,-0.108203 0.4132779,-0.471451 0.6122354,-1.171959 l 0.086825,-0.305698 0.019002,-0.70922 c 0.01802,-0.672504 0.022969,-0.726317 0.0956,-1.039377 0.1545061,-0.665963 0.2626438,-0.915814 0.5506472,-1.272271 0.1354069,-0.167591 0.3190253,-0.317361 0.3890839,-0.317361 0.020154,0 0.052856,-0.01621 0.07267,-0.03603 0.031731,-0.03173 0.049434,-0.0289 0.1484823,0.02377 0.061852,0.03289 0.1124561,0.05237 0.1124561,0.04329 0,-0.05531 0.2328254,0.223564 0.4080963,0.488805 0.3894268,0.589328 0.4063936,0.657076 0.5588338,2.23145 0.1214951,1.254779 0.1715875,1.574446 0.3525716,2.249943 0.064869,0.242113 0.1470617,0.567526 0.1826525,0.723139 0.076083,0.332668 0.1690282,0.542891 0.2962932,0.670155 0.259936,0.259936 0.58904,0.241416 0.785211,-0.04419 0.161772,-0.23552 0.24603,-0.615672 0.312936,-1.411892 0.02099,-0.249742 0.06079,-0.612911 0.08845,-0.807045 0.0767,-0.538249 0.08424,-0.846702 0.03553,-1.453588 -0.02371,-0.295326 -0.03712,-0.63072 -0.02982,-0.745315 0.03157,-0.49518 0.274997,-0.844963 0.699507,-1.005112 0.110332,-0.04162 0.175261,-0.04969 0.332729,-0.04134 0.308147,0.01634 0.532008,0.155676 0.730975,0.454962 0.167185,0.251482 0.246931,0.52173 0.307899,1.04344 0.09151,0.783048 0.252764,1.827051 0.367876,2.381713 0.121766,0.586736 0.476046,1.43687 0.772493,1.853674 0.205258,0.288594 0.415269,0.361477 0.641271,0.222549 z m 64.366887,-1.198376 c 0.269822,-0.09978 0.476122,-0.399876 0.573843,-0.834733 0.04627,-0.205921 0.05111,-0.323415 0.06054,-1.471046 0.0099,-1.203407 0.0079,-1.272182 -0.0553,-1.956472 -0.08911,-0.964291 -0.0698,-1.233729 0.114419,-1.596674 0.144684,-0.285046 0.408525,-0.504667 0.696348,-0.579637 0.187146,-0.04874 0.291845,-0.0466 0.472624,0.0097 0.401236,0.124876 0.738794,0.591707 0.859146,1.188167 0.04899,0.242786 0.0772,0.531463 0.132644,1.357547 0.05545,0.826182 0.111736,1.144368 0.331676,1.8751 0.139983,0.465077 0.231027,0.668898 0.368616,0.825205 0.229939,0.261226 0.495932,0.298957 0.69614,0.09875 0.153715,-0.153715 0.198261,-0.323619 0.242888,-0.926431 0.01999,-0.269976 0.07035,-0.920065 0.111923,-1.444644 0.04576,-0.577477 0.0702,-1.026144 0.06195,-1.137199 -0.01554,-0.209228 -0.06222,-0.354965 -0.219291,-0.684765 -0.183891,-0.386105 -0.222187,-0.606783 -0.148834,-0.857631 0.12934,-0.442317 0.515311,-0.71725 1.097862,-0.782024 0.42837,-0.04763 0.788847,0.06813 1.040403,0.334114 0.226011,0.238976 0.283994,0.416029 0.549132,1.676845 0.07547,0.358903 0.174143,0.762173 0.219265,0.896157 0.101978,0.302818 0.280172,0.651498 0.405997,0.794445 0.216995,0.246518 0.488927,0.251761 0.664681,0.01281 0.212874,-0.289413 0.43479,-1.234503 0.43479,-1.851673 0,-0.244921 -0.06968,-0.878678 -0.132979,-1.209527 -0.06717,-0.351052 -0.349524,-1.153371 -0.560835,-1.593615 -0.168449,-0.350949 -0.57395,-1.027166 -0.724252,-1.207773 -0.141377,-0.169883 -0.290379,-0.282867 -0.565936,-0.42913 -0.285004,-0.151283 -0.549954,-0.253214 -0.799326,-0.307519 -0.278829,-0.06072 -2.553878,-0.428332 -2.942597,-0.475479 -0.327934,-0.03977 -2.06394,-0.111934 -2.833638,-0.117784 -0.550442,-0.0042 -0.572251,-0.0014 -1.797508,0.229257 -1.117803,0.210434 -1.529599,0.31521 -2.152119,0.54758 -0.891479,0.332768 -1.621123,0.8507 -1.985909,1.409684 -0.141098,0.216214 -0.304464,0.578658 -0.433803,0.96245 -0.244407,0.725219 -0.260443,1.059333 -0.09685,2.017723 0.140114,0.820836 0.310012,1.533913 0.506936,2.127663 0.385987,1.163789 0.602936,1.503274 1.049485,1.642257 0.312559,0.09728 0.53252,0.03279 0.670889,-0.196684 0.146427,-0.242845 0.152541,-0.411192 0.08136,-2.24039 -0.03375,-0.867211 -0.02982,-1.41345 0.01155,-1.608718 0.06843,-0.32294 0.243278,-0.54243 0.546563,-0.686113 0.153954,-0.07294 0.17954,-0.07739 0.444597,-0.07736 0.249869,0 0.294885,0.0068 0.403523,0.06051 0.243123,0.120249 0.429712,0.388015 0.513173,0.736428 0.02066,0.08624 0.07064,0.431935 0.111061,0.768204 0.06737,0.560416 0.317736,2.166782 0.405943,2.604552 0.129707,0.643733 0.406409,1.475184 0.587568,1.76556 0.223541,0.358308 0.582664,0.479892 0.98164,0.332345 z"
     id="path73"
     inkscape:label="original" />
  <path
     id="path2"
     style="color:#000000;fill:#6d00d9;stroke-linecap:round;stroke-linejoin:round;-inkscape-stroke:none;paint-order:stroke fill markers"
     d="M 48.572512,2.9189013 C 39.362595,2.9339673 34.22749,8.3718661 31.548098,13.700152 28.917168,18.932063 28.51657,24.076556 28.502688,24.26314 H 24.327883 C 23.901017,23.13364 22.890774,22.266928 21.677981,21.676226 20.146149,20.930135 18.218196,20.537903 16.260988,20.46773 14.303781,20.39756 12.319666,20.650795 10.677004,21.292437 9.1608352,21.88467 7.8802722,22.852718 7.3825705,24.26314 H 0.749758 a 0.75,0.75 0 0 0 -0.75,0.75 0.75,0.75 0 0 0 0.75,0.75 h 6.3208008 c -0.148944,1.256678 -0.040717,2.434517 0.1933594,3.394043 0.1518914,0.622626 0.3527919,1.152763 0.5976562,1.577637 0.2448645,0.424875 0.4817272,0.838723 1.1147461,0.943359 0.38642,0.06387 0.778995,-0.04172 1.0737305,-0.222656 0.294736,-0.180939 0.514691,-0.420797 0.703125,-0.682617 0.217783,-0.302599 0.338415,-0.677206 0.492187,-1.029785 0.166546,0.758466 0.370884,1.529774 0.685547,2.181152 0.335826,0.695187 0.8263,1.39103 1.69043,1.480957 0.432692,0.04503 0.869003,-0.08096 1.195313,-0.309082 0.32631,-0.228122 0.55467,-0.532912 0.733886,-0.858398 0.170705,-0.310027 0.21309,-0.687548 0.316407,-1.03711 0.157696,0.461163 0.282953,0.946263 0.509765,1.343262 0.382122,0.668842 0.956268,1.325574 1.828125,1.328613 0.444023,0.0015 0.86274,-0.18982 1.161621,-0.454101 0.298883,-0.264282 0.506557,-0.588873 0.672364,-0.938965 0.231332,-0.488444 0.324343,-1.067042 0.437988,-1.630371 0.03516,0.07212 0.05027,0.155903 0.08789,0.225586 0.287367,0.532292 0.639564,1.062231 1.31836,1.250976 0.338767,0.0942 0.719645,0.07475 1.037109,-0.06299 0.317464,-0.137738 0.556688,-0.367911 0.738281,-0.619629 0.363188,-0.503433 0.55014,-1.120131 0.688477,-1.816406 0.243069,-1.223401 0.289423,-2.705782 0.224121,-4.063477 h 19.508789 c -0.0418,1.970642 -0.140635,4.169886 -0.361816,6.089356 -0.42973,3.729299 -0.08583,7.505304 1.136718,10.40625 0.611274,1.450472 1.450435,2.688938 2.559083,3.558105 1.108648,0.869168 2.495742,1.341603 4.056152,1.253906 1.85223,-0.104097 3.300629,-0.638951 4.328613,-1.577636 1.027984,-0.938685 1.591463,-2.23488 1.835449,-3.703125 0.487973,-2.936493 -0.198661,-6.662837 -1.125,-10.746094 -0.450766,-1.986953 -0.823906,-3.713638 -1.157226,-5.280762 h 19.662597 c 0.06366,1.285252 0.354864,2.63843 0.792481,3.780762 0.28738,0.750162 0.62942,1.407981 1.086914,1.908691 0.457495,0.500711 1.167277,0.88405 1.896973,0.681153 0.731588,-0.203425 1.039715,-0.827134 1.252441,-1.413574 0.01711,-0.04717 0.01632,-0.104218 0.03223,-0.152344 0.186771,0.555148 0.349961,1.130538 0.626953,1.601074 0.415838,0.706398 1.03346,1.381554 1.939453,1.378418 0.447953,-0.0016 0.86149,-0.220872 1.139648,-0.498047 0.278159,-0.277174 0.462785,-0.606626 0.615235,-0.963867 0.236878,-0.555084 0.345844,-1.215064 0.457031,-1.863281 0.168105,0.413894 0.312097,0.85255 0.528809,1.201172 0.18235,0.293345 0.382167,0.558532 0.65625,0.774902 0.274083,0.216369 0.676678,0.387174 1.100097,0.322266 0.844294,-0.129427 1.370404,-0.830408 1.637695,-1.524903 0.214885,-0.55833 0.275416,-1.186423 0.33252,-1.803222 0.152853,0.228352 0.264399,0.483619 0.451172,0.681152 0.429369,0.454106 1.050123,0.85986 1.785644,0.738281 0.482637,-0.07978 0.80636,-0.385796 1.057618,-0.751465 0.251257,-0.365667 0.437146,-0.827376 0.55664,-1.387207 0.156226,-0.731913 0.192583,-1.638452 0.04687,-2.709961 h 6.243164 a 0.75,0.75 0 0 0 0.749996,-0.75 0.75,0.75 0 0 0 -0.749996,-0.75 h -6.500976 a 0.75,0.75 0 0 0 -0.04541,0.0059 c -0.0303,-0.115349 -0.05661,-0.227376 -0.09082,-0.345703 -0.459875,-1.590527 -1.870084,-2.643054 -3.549316,-3.273926 -1.679231,-0.630873 -3.69422,-0.879636 -5.677735,-0.807129 -1.983515,0.07251 -3.929907,0.46477 -5.475585,1.209961 -1.441174,0.694809 -2.603355,1.768287 -2.847657,3.210937 H 70.660891 C 70.484038,23.151232 69.649256,18.62301 66.929934,13.864215 63.822815,8.426774 58.180735,2.9031836 48.572512,2.9189013 Z m 0.0015,1.5 c 9.040009,-0.014788 14.109989,5.0405224 17.052246,10.1894537 2.396092,4.193146 3.262029,8.238459 3.512695,9.654785 H 55.24927 a 0.74999499,0.74999499 0 0 0 -0.205078,0.04102 c -0.548925,-2.63017 -0.886231,-4.365234 -0.886231,-4.365234 a 0.75,0.75 0 0 0 -0.877441,-0.596192 0.75,0.75 0 0 0 -0.594727,0.877442 c 0,0 0.899244,4.711453 2.361328,11.15625 0.916539,4.040057 1.521484,7.675765 1.107422,10.16748 -0.207031,1.245858 -0.642929,2.179563 -1.368164,2.841797 -0.725234,0.662234 -1.786063,1.098753 -3.399902,1.189453 -1.221722,0.06866 -2.19887,-0.271525 -3.04834,-0.9375 -0.849471,-0.665975 -1.561712,-1.684702 -2.100586,-2.963379 -1.077747,-2.557353 -1.433939,-6.130335 -1.02832,-9.650391 0.580522,-5.037914 0.363281,-11.762695 0.363281,-11.762695 a 0.75,0.75 0 0 0 -0.773438,-0.726562 0.75,0.75 0 0 0 -0.726562,0.773437 c 0,0 0.05082,1.674983 0.03223,3.955078 H 30.011477 c 0.03945,-0.466098 0.477976,-5.118515 2.876953,-9.88916 2.524991,-5.0212409 7.055274,-9.9409606 15.685547,-9.9550787 z m -4.208496,9.2944347 a 1.05,1.05 0 0 0 -1.050293,1.048828 1.05,1.05 0 0 0 1.050293,1.050293 1.05,1.05 0 0 0 1.050293,-1.050293 1.05,1.05 0 0 0 -1.050293,-1.048828 z m 9.172851,0 a 1.05,1.05 0 0 0 -1.050293,1.048828 1.05,1.05 0 0 0 1.050293,1.050293 1.05,1.05 0 0 0 1.048828,-1.050293 1.05,1.05 0 0 0 -1.048828,-1.048828 z m 30.584473,7.617187 c 1.591395,0.0095 3.166369,0.255068 4.413574,0.723633 1.425378,0.535501 2.356784,1.323506 2.635254,2.286621 0.496972,1.718825 0.49589,3.006882 0.322266,3.820313 -0.08681,0.406715 -0.219995,0.694372 -0.326661,0.849609 -0.04911,0.07147 -0.08814,0.104611 -0.108398,0.120117 -0.07226,-0.008 -0.197125,-0.06482 -0.408691,-0.288574 -0.256977,-0.271781 -0.545137,-0.728944 -0.785157,-1.208496 -0.480039,-0.959106 -0.786621,-1.979004 -0.786621,-1.979004 a 0.750075,0.750075 0 0 0 -1.463379,0.303223 c 0,0 0.156189,1.355066 0.07764,2.708496 -0.03928,0.676714 -0.146193,1.349244 -0.316406,1.791504 -0.157152,0.408324 -0.287715,0.498528 -0.429199,0.534667 -0.06554,-0.05705 -0.17136,-0.171789 -0.288575,-0.360351 -0.252046,-0.405465 -0.524352,-1.051116 -0.74707,-1.710938 -0.445435,-1.319641 -0.726562,-2.693847 -0.726562,-2.693847 a 0.750075,0.750075 0 0 0 -1.483887,0.156738 c 0,0 0.01009,1.566128 -0.200684,3.099609 -0.105402,0.766741 -0.274449,1.523061 -0.483398,2.012696 -0.104474,0.244817 -0.219434,0.415988 -0.294434,0.490722 -0.075,0.07473 -0.06973,0.06 -0.08643,0.06006 -0.105207,3.64e-4 -0.342393,-0.132883 -0.640136,-0.638672 -0.297745,-0.505787 -0.576282,-1.268026 -0.789551,-2.041992 -0.426537,-1.547934 -0.616699,-3.127442 -0.616699,-3.127441 a 0.750075,0.750075 0 0 0 -1.494141,0.09814 c 0,0 0.0093,1.141839 -0.133301,2.304199 -0.07132,0.581181 -0.184196,1.165099 -0.329589,1.565918 -0.127219,0.350718 -0.278338,0.472967 -0.262208,0.483399 -0.0618,0.0137 -0.137745,0.0028 -0.36914,-0.250489 -0.252431,-0.276275 -0.549789,-0.796748 -0.793945,-1.434082 -0.488313,-1.274667 -0.78178,-3.019653 -0.688477,-4.315429 0.06474,-0.899078 0.762096,-1.671032 2.041992,-2.288086 1.279896,-0.617055 3.064022,-0.995597 4.88086,-1.062012 0.227104,-0.0083 0.45381,-0.01161 0.681152,-0.01025 z m -68.586949,0.628418 c 0.223431,-0.0017 0.447496,7.79e-4 0.670898,0.0088 1.787216,0.06408 3.549742,0.439926 4.814942,1.056152 1.2652,0.616226 1.956536,1.389035 2.021484,2.291016 0.100351,1.393663 0.06459,3.056087 -0.166992,4.22168 -0.115791,0.582797 -0.296377,1.035305 -0.435059,1.227539 -0.06934,0.09612 -0.113203,0.121318 -0.117187,0.123047 -0.004,0.0017 0.0179,0.0091 -0.04102,-0.0073 0.02457,0.0068 -0.195527,-0.139771 -0.398437,-0.515625 -0.202911,-0.375854 -0.397608,-0.909673 -0.552246,-1.439942 -0.309277,-1.060535 -0.46875,-2.097656 -0.46875,-2.097656 a 0.750075,0.750075 0 0 0 -1.491211,0.127441 c 0,0 0.02385,1.503781 -0.19043,2.970703 -0.107139,0.733462 -0.284003,1.453494 -0.500977,1.911621 -0.108488,0.229063 -0.223828,0.387168 -0.306152,0.459961 -0.08232,0.07279 -0.102485,0.07639 -0.164062,0.07617 -0.05745,-2e-4 -0.265428,-0.104055 -0.533204,-0.572754 -0.26777,-0.46873 -0.518681,-1.181365 -0.710445,-1.904329 -0.383527,-1.445928 -0.550781,-2.922363 -0.550781,-2.922364 a 0.750075,0.750075 0 0 0 -1.494141,0.102539 c 0,0 0.02531,1.407393 -0.190429,2.745117 -0.107874,0.668863 -0.286526,1.314524 -0.495118,1.69336 -0.104295,0.189418 -0.210693,0.30326 -0.279785,0.351562 -0.06909,0.0483 -0.08857,0.05657 -0.18164,0.04687 -0.02337,-0.0024 -0.2509,-0.137619 -0.493653,-0.640136 -0.242752,-0.502519 -0.456848,-1.242247 -0.613769,-1.984864 -0.313844,-1.485234 -0.42041,-2.976562 -0.42041,-2.976562 a 0.750075,0.750075 0 0 0 -1.488282,-0.07178 c 0,0 -0.198516,1.166872 -0.574218,2.267578 -0.1878521,0.550352 -0.4248215,1.079324 -0.6474613,1.388672 -0.097703,0.135754 -0.1865738,0.216811 -0.2446289,0.259277 -0.037896,-0.03626 -0.082778,-0.08441 -0.1303711,-0.166992 C 9.0151207,29.732278 8.8446181,29.312158 8.7199728,28.801218 8.4706824,27.77934 8.3870113,26.385222 8.7302268,24.980906 8.9681455,24.007426 9.8421425,23.22885 11.221926,22.68989 c 1.207311,-0.471589 2.74995,-0.71909 4.313965,-0.730957 z m -6.3149416,8.239746 c 0.00475,7.85e-4 0.00432,7.09e-4 0.00879,0.0015 -0.00417,0.0018 -0.00268,-4.56e-4 -0.00879,-0.0015 z"
     inkscape:label="simplified" />
</svg>
