<?xml version="1.0" encoding="UTF-8" standalone="no"?>
<svg
   version="1.1"
   width="100pt"
   height="100pt"
   viewBox="0 0 100 100"
   xml:space="preserve"
   id="svg32"
   sodipodi:docname="pioneer-plaque.svg"
   inkscape:export-filename="../images/pioneer-plaque.png"
   inkscape:export-xdpi="720"
   inkscape:export-ydpi="720"
   inkscape:version="1.3.2 (091e20e, 2023-11-25)"
   xmlns:inkscape="http://www.inkscape.org/namespaces/inkscape"
   xmlns:sodipodi="http://sodipodi.sourceforge.net/DTD/sodipodi-0.dtd"
   xmlns="http://www.w3.org/2000/svg"
   xmlns:svg="http://www.w3.org/2000/svg"><defs
   id="defs32">

</defs><sodipodi:namedview
   id="namedview32"
   pagecolor="#797979"
   bordercolor="#000000"
   borderopacity="0.25"
   inkscape:showpageshadow="2"
   inkscape:pageopacity="0.0"
   inkscape:pagecheckerboard="0"
   inkscape:deskcolor="#d1d1d1"
   inkscape:document-units="pt"
   inkscape:zoom="3.4572601"
   inkscape:cx="56.258423"
   inkscape:cy="74.336322"
   inkscape:window-width="1440"
   inkscape:window-height="784"
   inkscape:window-x="0"
   inkscape:window-y="25"
   inkscape:window-maximized="1"
   inkscape:current-layer="svg32"
   showguides="true" />





<path
   d="m 41.819858,49.899188 -2.262678,0.746887 m -0.94419,0.311666 -0.787647,0.259994 m -1.184578,0.391024 -0.536635,0.177138 m -1.227075,0.405049 -0.536635,0.177138 m -0.366468,0.120965 -0.536635,0.177138 m -1.683941,0.555858 -0.536635,0.177138 m -1.173952,0.387509 -0.536635,0.177138 m -0.791459,0.261258 -0.536635,0.177138 m -0.855206,0.282296 -0.536635,0.177138 m -0.83396,0.275283 -0.536635,0.177138 m -2.055805,0.678605 -0.536635,0.177138 m -0.377093,0.124475 -0.536635,0.177138 m -0.323971,0.106945 -0.536635,0.177138 m -0.83396,0.275278 -0.536635,0.177138 m 20.540221,-7.077703 0.177138,0.536633 m -3.437708,0.539654 0.177139,0.536634 m -1.499398,-0.10017 0.177139,0.536634 m -0.642933,-0.382876 0.177138,0.536633 m -2.446017,0.212304 0.177139,0.536638 m -0.597855,-0.397764 0.177138,0.536634 m -0.597856,-0.397754 0.177139,0.536628 m -1.424269,-0.124967 0.177139,0.536638 m -0.642932,-0.382886 0.177138,0.536639 m -1.529449,-0.09025 0.177139,0.536633 m -1.5595,-0.08033 0.177137,0.536638 m -1.529448,-0.09025 0.177138,0.536629 m -1.544475,-0.08529 0.177139,0.536634 m -0.597855,-0.397759 0.177138,0.536638 m -0.627907,-0.387843 0.177138,0.536633 m -0.61288,-0.392791 0.177138,0.536628 m -3.227352,0.470217 0.177139,0.536634 m -1.514424,-0.09521 0.177139,0.536639 m -0.642933,-0.382876 0.177138,0.536633 m 20.87992,-9.374927 2.116491,1.493656 m -5.826809,-4.112123 3.008519,2.123189 m -5.749245,-4.057383 0.461716,0.32584 m -1.224465,-0.864133 0.461715,0.325846 m -1.198609,-0.84589 0.461715,0.325845 m -3.3705,-2.378647 0.461715,0.325846 m -1.302033,-0.918878 0.461716,0.325846 m -1.276177,-0.90063 0.461715,0.325846 m -2.930952,-2.068447 0.461715,0.325844 m -1.224464,-0.864135 0.461715,0.325844 m -1.431309,-1.01011 0.461715,0.325844 m -1.289105,-0.909753 0.461716,0.325844 m -1.521806,-1.073975 0.461715,0.325844 m -1.909646,-1.347685 0.461716,0.325844 m 16.221241,11.10189 -0.325843,0.461715 m -0.734247,-1.209845 -0.325843,0.461715 m -0.006,-0.695883 -0.325844,0.461719 m -0.006,-0.695893 -0.325843,0.461715 m -0.006,-0.695883 -0.325844,0.461715 m -2.376097,-2.368542 -0.325844,0.461714 m -0.01286,-0.700748 -0.325844,0.461715 m -0.01287,-0.700753 -0.325843,0.461714 m -0.01287,-0.700748 -0.325844,0.461715 m -0.01286,-0.700748 -0.325844,0.461714 m -0.01287,-0.700753 -0.325844,0.461715 m -2.505373,-2.459777 -0.325844,0.461714 m -0.0071,-0.696646 -0.325844,0.461718 m -0.007,-0.696648 -0.325844,0.461714 m -0.007,-0.696644 -0.325844,0.461715 m -0.007,-0.696643 -0.325844,0.461715 m -3.28105,-3.007189 -0.325844,0.461715 m -0.798887,-1.255465 -0.325843,0.461716 m -0.04906,-0.726298 -0.325844,0.461716 M 41.9185,49.930238 41.554139,47.381502 m -0.1238,-0.865983 -1.157062,-8.093749 m -0.231283,-1.61785 -0.07998,-0.559427 m -0.204412,-1.429882 -0.07997,-0.559428 m -0.193216,-1.351562 -0.07997,-0.559427 m -0.0723,-0.505718 -0.07997,-0.559428 m -0.126038,-0.881647 -0.07997,-0.559428 m -0.197694,-1.38289 -0.07997,-0.559428 m -0.128277,-0.897311 -0.07998,-0.559428 m -0.06782,-0.47439 -0.07997,-0.559427 m -0.123798,-0.865984 -0.07998,-0.559427 m -0.05438,-0.380406 -0.07997,-0.559428 m -0.05662,-0.39607 -0.07997,-0.559427 m -0.06558,-0.458726 -0.07997,-0.559427 m -0.117081,-0.818992 -0.07998,-0.559428 M 37.40863,18.383214 37.32866,17.823786 M 37.23173,17.14577 37.15176,16.586342 M 37.0817,16.096289 37.00173,15.536861 m 3.74354,24.189775 -0.559427,0.07997 m 0.212341,-2.507874 -0.559428,0.07997 m 0.333261,-1.662025 -0.559427,0.07997 m 0.496728,-0.51856 -0.559427,0.07997 m 0.346697,-1.568042 -0.559428,0.07997 m 0.494489,-0.534225 -0.559427,0.07997 m 0.201144,-2.586195 -0.559427,0.07998 m 0.348936,-1.552378 -0.559428,0.07997 m 0.490011,-0.565552 -0.559427,0.07997 m 0.353414,-1.52105 -0.559427,0.07997 m 0.198905,-2.601859 -0.559428,0.07997 m -0.05637,-4.387537 -0.559428,0.07998 m 0.366851,-1.427067 -0.559428,0.07998 m 0.494489,-0.534224 -0.559427,0.07997 m 0.02424,-3.823639 -0.559428,0.07997 m 5.260212,34.771497 0.924125,-2.403086 m 0.291272,-0.757419 0.202838,-0.527458 m 0.4219,-1.097104 0.202838,-0.527458 m 0.836497,-2.175216 0.202838,-0.527458 m 0.126569,-0.329128 0.202839,-0.527458 m 0.836497,-2.17522 0.202838,-0.527457 m 0.223118,-0.580195 0.202839,-0.527458 m 0.660435,-1.717388 0.202838,-0.527458 m 0.154967,-0.402973 0.202838,-0.527458 m 0.51277,-1.333399 0.202838,-0.527458 m 0.143608,-0.373435 0.202837,-0.527458 m 0.137929,-0.358667 0.202838,-0.527458 m 0.217439,-0.565425 0.202838,-0.527458 m 0.149287,-0.388205 0.202838,-0.527458 m 0.473013,-1.230017 0.202839,-0.527458 m -7.46518,20.199562 -0.527458,-0.202835 m 0.953415,-0.904817 -0.527458,-0.20284 m 1.078363,-1.229727 -0.527458,-0.202835 m 0.694054,-0.230377 -0.527458,-0.20284 m 0.694053,-0.230372 -0.527458,-0.20284 M 44.879836,42.9959 44.352378,42.793064 m 1.40777,-2.086318 -0.527458,-0.202835 m 0.697842,-0.24023 -0.527458,-0.202836 m 0.697842,-0.240225 -0.527458,-0.20284 m 0.697836,-0.24021 -0.527457,-0.202841 m 1.458885,-2.219234 -0.527458,-0.202838 m 0.697842,-0.240226 -0.527458,-0.202838 m 0.697838,-0.240218 -0.527458,-0.202837 m 1.419129,-2.115853 -0.527458,-0.202838 m 0.692161,-0.225453 -0.527458,-0.202838 m 2.50958,-4.951447 -0.527458,-0.202839 m 0.680802,-0.195915 -0.527458,-0.202838 m 1.055645,-1.170653 -0.527458,-0.202838 m -8.069718,22.978006 -0.666508,0.777531 m 3.152204,-3.56433 -0.374374,0.423322 m 1.045247,-1.181907 -0.374373,0.423323 m 1.569367,-1.77455 -0.374374,0.423318 m 1.05573,-1.19376 -0.374373,0.423323 m 1.349235,-1.525636 -0.374374,0.423317 m 1.716118,-1.940487 -0.374373,0.423322 m 1.317787,-1.49008 -0.374373,0.423317 m 2.030591,-2.296073 -0.374373,0.42332 m 1.317788,-1.490078 -0.374373,0.42332 m 1.055728,-1.193759 -0.374374,0.42332 m 1.370199,-1.549343 -0.374373,0.42332 m 2.020112,-2.284222 -0.374374,0.42332 m 1.055723,-1.193751 -0.374373,0.42332 m 1.055738,-1.193766 -0.374374,0.42332 M 44.69433,47.328299 44.27101,46.953925 m 1.985195,-1.391709 -0.423319,-0.374373 m 0.727307,0.03064 -0.423319,-0.374373 m 2.069055,-1.48653 -0.42332,-0.374374 m 1.408664,-0.739797 -0.42332,-0.374374 m 0.73779,0.01879 -0.423319,-0.374374 m 1.398181,-0.72794 -0.42332,-0.374373 m 1.419147,-0.75165 -0.42332,-0.374373 m 0.732549,0.02471 -0.42332,-0.374372 m 0.732549,0.02472 -0.42332,-0.374373 m 1.419147,-0.75165 -0.423321,-0.374373 m 2.100505,-1.522088 -0.423322,-0.374374 m 1.419148,-0.75165 -0.423323,-0.374373 m 0.727309,0.03064 -0.423323,-0.374373 m 0.727314,0.03064 -0.423323,-0.374374 m -14.14457,16.169269 1.568924,-2.06827 m 0.655281,-0.86384 23.444343,-30.906062 m 1.518008,-2.001146 0.341529,-0.450234 m 0.273809,-0.360953 0.34153,-0.450233 m 0.47667,-0.628375 0.34153,-0.450234 m 1.761438,-2.3220566 0.341535,-0.4502339 m 0.287325,-0.3787772 0.341535,-0.450234 m 0.287325,-0.3787777 0.341535,-0.450234 M 75.24518,5.8342193 75.58671,5.3839854 m 0.632194,-0.8333991 0.34153,-0.4502339 m 0.300852,-0.3966071 0.341535,-0.450234 m 0.28733,-0.3787772 0.34153,-0.450234 M 79.227973,0.58380481 79.569508,0.13357135 M 66.796409,17.439541 66.346177,17.098008 m 1.822913,-1.468034 -0.450233,-0.341533 m 0.727478,-0.02395 -0.450232,-0.341534 m 0.727468,-0.02394 -0.450238,-0.341533 m 0.727478,-0.02395 -0.450233,-0.341533 M 70.353204,12.75071 69.902971,12.409177 M 71.30664,11.493823 70.856408,11.15229 m 0.732543,-0.03063 -0.450232,-0.341533 m 0.732543,-0.03063 -0.450232,-0.341533 m 0.732543,-0.03063 -0.450232,-0.341533 m 0.732548,-0.03063 -0.450232,-0.3415334 M 74.633525,7.1080789 74.183292,6.7665459 M 74.91077,6.7425953 74.460533,6.4010628 M 75.188006,6.3771204 74.737773,6.0355873 M 76.12116,5.1469709 75.670922,4.8054379 M 78.339083,2.2231403 77.88885,1.8816073 m 0.722968,-0.018008 -0.450233,-0.341533 M 78.884553,1.5040595 78.43432,1.1625264 M 79.157282,1.1445311 78.707045,0.80299861 M 41.908564,49.95685 44.320966,49.341856 m 0.807637,-0.205892 4.721721,-1.203706 M 46.135069,49.17098 45.99547,48.623379 m 4.899185,-0.665758 -0.1396,-0.547601 m 0.401626,0.189211 0.547601,-0.139604 m 0.464361,-0.118377 0.547603,-0.139599 m 0.364694,-0.09298 0.547602,-0.139599 m 0.441365,-0.112515 0.547597,-0.139599 m 0.372364,-0.09493 0.547602,-0.139599 m 1.276991,-0.325542 0.547602,-0.139599 m -1.307944,0.625028 -0.139599,-0.547602 m 0.591912,0.432293 -0.139599,-0.547602 m 1.427548,0.219265 -0.139599,-0.547602 m 2.523841,-0.06021 -0.139604,-0.547601 m 2.937823,-0.165749 -0.139599,-0.547601 m -4.696503,1.488873 0.547602,-0.139599 m 0.433695,-0.110562 0.547602,-0.139599 m 0.840013,-0.214148 0.547602,-0.139599 m 0.855343,-0.218052 0.547596,-0.139599 m 0.870678,-0.221962 0.547602,-0.139599 m 0.41836,-0.106653 0.547602,-0.139598 m 0.571686,-0.145744 0.547602,-0.139598 m 0.493648,0.165748 -0.139599,-0.547602 m 0.584247,0.43425 -0.139599,-0.547602 m 0.576577,0.436202 -0.139599,-0.547601 m 0.478304,0.169663 0.547601,-0.139604 m 0.939674,-0.239548 0.547597,-0.139604 m 2.250627,-0.573751 0.547602,-0.139599 m -1.536564,0.391718 0.547602,-0.139599 m -2.756899,0.994407 -0.139599,-0.547601 m 1.588544,0.178221 -0.139604,-0.547596 m 0.576582,0.436197 -0.139599,-0.547597 m -8.953454,2.794284 -0.139604,-0.547607 m -19.576299,5.284151 2.271734,0.699726 m 0.888617,0.273706 26.912912,8.289531 m 1.57701,0.485742 0.540076,0.166349 m 0.397491,0.12243 0.540076,0.166355 m 0.382367,0.117775 0.540076,0.166349 m 1.168719,0.359979 0.540076,0.166349 m 0.367248,0.113121 0.540075,0.166349 m 0.337004,0.103801 0.540076,0.16635 m 2.378477,0.732605 0.540076,0.166349 m 0.367247,0.113116 0.540076,0.166354 m 0.775538,0.238874 0.540081,0.16635 m 0.412611,0.127094 0.540075,0.16635 m 0.352129,0.108455 0.540075,0.166355 m 0.972127,0.299429 0.540075,0.166349 m 1.607255,0.495056 0.540075,0.16635 m 0.881395,0.271481 0.540076,0.16635 m 0.836031,0.257507 0.540076,0.166355 m -24.425328,-7.22767 0.166349,-0.540075 m 4.527837,1.985943 0.166349,-0.540075 m 2.988052,1.511678 0.166355,-0.540081 m 0.272057,0.675112 0.166349,-0.540075 m 2.891818,1.482035 0.166354,-0.540075 m 0.229283,0.661934 0.166349,-0.540075 m 0.218592,0.658642 0.166349,-0.540076 m 0.218592,0.658647 0.166355,-0.54008 m 0.218591,0.658646 0.16635,-0.540075 m 2.143312,1.251484 0.166355,-0.540081 m 2.816965,1.458979 0.16635,-0.540076 m 0.239978,0.665233 0.166355,-0.540075 m 1.063326,0.918831 0.166354,-0.540076 m 0.25067,0.668526 0.166349,-0.540075 m 0.261366,0.671819 0.166355,-0.54008 m 1.191643,0.958358 0.166354,-0.540076 m 1.21303,0.964945 0.166355,-0.540076 M 41.994414,49.95308 l 0.634999,0.727473 m 0.325538,0.372951 0.371619,0.425742 m 1.074712,1.231227 0.371619,0.425742 m 0.845798,0.968972 0.371619,0.425743 m 1.18917,1.362354 0.371619,0.425742 m 0.242292,0.27758 0.371619,0.425737 m 0.887416,1.016658 0.371619,0.425742 m 0.273508,0.313336 0.371619,0.425742 m 0.221481,0.253737 0.371619,0.425742 m 0.554449,0.635195 0.371618,0.425742 m 0.648097,0.742479 0.371619,0.425743 m 1.01228,1.159704 0.371619,0.425737 m 0.835395,0.957058 0.371614,0.425738 m -12.27107,-13.628499 0.42574,-0.371619 m 0.521138,1.456394 0.42574,-0.37162 m 0.510733,1.444476 0.42574,-0.371615 m -0.123989,0.717316 0.42574,-0.371619 m 2.685434,3.935888 0.425739,-0.371619 m -0.123988,0.717316 0.425739,-0.371615 m 1.72815,2.83919 0.42574,-0.371619 m 0.593976,1.539841 0.42574,-0.37162 m 0.458706,1.384877 0.425741,-0.37162 m -0.134395,0.705392 0.425738,-0.371615 m -0.123987,0.717317 0.425738,-0.37162 m 0.469112,1.39679 0.425742,-0.371615 m -0.134394,0.705393 0.425737,-0.37162 m 0.489924,1.420638 0.425742,-0.37162 m -0.123991,0.717316 0.425742,-0.37162 m -0.123991,0.717317 0.425742,-0.37162 m -0.123991,0.717316 0.425742,-0.37162 M 46.295023,54.880032 46.666645,55.30578 m -0.02408,0.402079 0.425737,-0.371609 M 43.303716,52.184735 41.918888,49.934538 M 72.648275,99.866428 43.816903,53.018603 m 28.086031,46.175826 0.481273,-0.296187 M 59.358738,79.775313 59.062546,79.294036 m 0.768906,1.249392 -0.296187,-0.481278 m 0.793786,1.289814 -0.296192,-0.481272 m 0.802083,1.303289 -0.296192,-0.481278 m 0.789641,1.283079 -0.296193,-0.481273 m 1.154546,1.876003 -0.296192,-0.481278 m 1.552618,2.522839 -0.296187,-0.481278 m 0.963794,1.566068 -0.296188,-0.481278 m 1.071608,1.741248 -0.296187,-0.481278 m 1.299672,2.111826 -0.296192,-0.481273 m 0.83111,1.350456 -0.296193,-0.481278 m 0.511882,0.831747 -0.01241,-0.02016 m 0.316269,0.5139 -0.159686,-0.259475 m 0.863393,1.402924 -0.296187,-0.481278 m 0.794644,1.291217 -0.296187,-0.481278 m 1.691873,2.749111 -0.296187,-0.481278 m 0.800511,1.300746 -0.296192,-0.481278 m 0.782921,1.272162 -0.296187,-0.481273 M 58.638715,79.144465 59.119992,78.848273 m 2.163487,4.593641 0.481278,-0.296192 m -0.276028,0.629698 0.481273,-0.296187 m 0.322126,1.601623 0.481278,-0.296192 m -0.129427,0.867914 0.481278,-0.296192 m 0.984775,2.678369 0.481277,-0.296193 m 0.327988,1.611154 0.481278,-0.296187 m -0.229118,0.705927 0.481277,-0.296193 m 1.289722,3.173867 0.481272,-0.296192 m 0.65052,2.135231 0.481278,-0.296187 m -0.223252,0.715451 0.481278,-0.296192 m -0.240847,0.686872 0.481278,-0.296193 m -0.246709,0.677337 0.481278,-0.296187 M 41.917848,49.895078 41.680419,52.463193 m -0.08394,0.907914 -1.242738,13.441851 m -0.255954,2.768478 -0.05202,0.562711 m -0.04737,0.512406 -0.05203,0.562716 m -0.04377,0.473407 -0.05203,0.562716 m -0.113295,1.225437 -0.05203,0.562711 m -0.129776,1.403695 -0.05202,0.562716 m -0.126686,1.370271 -0.05202,0.56271 m -0.04995,0.540261 -0.05202,0.562716 m -0.07261,0.785361 -0.05203,0.562716 m -0.08754,0.946907 -0.05203,0.562716 m -0.08754,0.946907 -0.05203,0.562711 m -0.04531,0.490125 -0.05203,0.56271 m 1.449869,-18.751498 0.562715,0.05202 m -0.744,1.908815 0.562715,0.05202 m -0.609066,0.449328 0.562715,0.05202 m -0.605977,0.415904 0.562716,0.05203 m -0.605977,0.415905 0.562716,0.05202 m -0.893356,3.524279 0.562716,0.05203 m -0.609067,0.449323 0.562716,0.05202 m -0.681169,1.229203 0.562715,0.05203 m -0.611126,0.471609 0.562715,0.05202 m -0.696619,1.396323 0.562715,0.05203 m -0.608036,0.438181 0.562715,0.05203 m -0.786232,2.365598 0.562715,0.05203 m -0.704859,1.485451 0.562715,0.05203 m -0.701769,1.452027 0.562716,0.05202 m -0.795503,2.46587 0.562716,0.05203 m -0.604947,0.404761 0.562715,0.05203 m -0.603916,0.393618 0.562715,0.05203 m 3.070342,-35.923105 -0.504787,0.610386 m -0.779353,0.942396 -0.360146,0.435488 m -0.5575,0.674126 -0.360146,0.435488 m -0.60792,0.735097 -0.360146,0.435488 m -0.870103,1.052126 -0.360146,0.435488 m -0.849935,1.027745 -0.360146,0.435488 m -0.335653,0.405871 -0.360146,0.435488 m -0.849935,1.027739 -0.360147,0.435488 m -0.880187,1.064322 -0.360145,0.435488 m -0.315485,0.381484 -0.360147,0.435488 m -0.577667,0.698513 -0.360146,0.435488 m -0.607921,0.735097 -0.360145,0.435488 m -0.315485,0.381484 -0.360146,0.435488 m -0.224728,0.271743 -0.360146,0.435488 m -0.224728,0.271738 -0.360147,0.435488 m 12.345505,-15.371534 0.435488,0.360143 m -1.363218,0.761667 0.435488,0.360143 m -1.433806,0.84702 0.435488,0.360148 m -1.34305,0.737275 0.435488,0.360148 m -0.738008,0.0057 0.435488,0.360147 m -1.322881,0.712888 0.435488,0.360148 m -0.748092,0.01785 0.435488,0.360147 m -2.059016,1.603022 0.435488,0.360148 m -0.707756,-0.03092 0.435489,0.360147 m -1.373303,0.773854 0.435489,0.360148 m -0.738008,0.0057 0.435488,0.360143 m -2.01868,1.554252 0.435488,0.360143 m -1.423723,0.834829 0.435489,0.360143 m -3.158173,2.93212 0.435488,0.360148 m -0.738008,0.0057 0.435488,0.360143 m 13.714728,-17.278799 -2.457026,0.15122 m -0.729718,0.04489 -9.68595,0.596078 m 1.546086,-0.378658 0.03487,0.564036 m -2.956545,-0.572163 0.563816,-0.03839 m -1.479164,0.100667 0.563797,-0.03837 m -3.231709,0.219943 0.563803,-0.03836 m -1.858705,0.126498 0.563824,-0.03837 m -1.63543,0.111297 0.563794,-0.03839 m -1.456846,0.09918 0.563819,-0.03837 m -2.49496,0.169791 0.563802,-0.03837 m -1.780554,0.121176 0.563804,-0.03838 m -1.981498,0.134847 0.563823,-0.03837 m -1.568475,0.106745 0.563821,-0.03836 m -1.613107,0.109756 0.563808,-0.03836 m -1.992657,0.135602 0.563816,-0.03835 m -1.601962,0.109016 0.56381,-0.03836 m -2.5284599,0.172083 0.5638019,-0.03839 m -1.6354391,0.111307 0.5638195,-0.03837 m -1.4010418,0.09533 0.5638324,-0.03836 m -2.0149895,0.137133 0.5638086,-0.03837 m -1.5684637,0.106745 0.5638084,-0.03837 m 22.6719762,-1.82619 0.03838,0.56381 m -2.404875,-0.402768 0.03835,0.563836 m -0.429058,-0.537229 0.03835,0.563815 m -0.451385,-0.535708 0.03838,0.563805 m -0.440245,-0.536454 0.03837,0.563816 m -1.467199,-0.466585 0.03837,0.563815 m -3.376051,-0.336654 0.03838,0.563815 m -0.484891,-0.533428 0.03837,0.563811 m -1.411398,-0.470366 0.03839,0.56382 m -1.456067,-0.467334 0.03838,0.563794 m -3.342582,-0.338935 0.03838,0.5638 m -2.371393,-0.405013 0.03837,0.56381 m -0.429073,-0.537214 0.03836,0.5638 m -0.48487,-0.533432 0.03836,0.563825 M 7.1818688,51.34209 7.2202428,51.90591 M 41.829955,49.832612 21.643868,51.813033 m -1.103306,0.107074 -0.562417,0.05517 m -1.174671,0.115237 -0.56242,0.05518 m -0.417474,0.04097 -0.562412,0.05517 m -1.631215,0.16004 -0.562415,0.05517 m -0.384073,0.03768 -0.562413,0.05517 m -0.484292,0.04753 -0.56241,0.05517 m -0.306146,0.03003 -0.562421,0.05518 m -0.473127,0.04645 -0.562419,0.05515 m -0.729268,0.07152 -0.5624251,0.05519 m -0.8740041,0.08575 -0.5624411,0.05519 m -0.9408187,0.09231 -0.5624186,0.05517 m -0.3395356,0.03331 -0.5624191,0.05518 m -0.3840601,0.03767 -0.562428,0.05519 m -0.3283912,0.03221 -0.5624019,0.05518 m -2.3039056,0.22603 1.7906372,-0.175678 m 19.9232319,-2.238535 0.05518,0.562403 m -2.700756,-0.302866 0.05519,0.562423 m -1.346471,-0.435734 0.05517,0.562423 m -0.480362,-0.520703 0.05518,0.562424 m -2.464532,-0.326046 0.05517,0.562439 m -0.433127,-0.525352 0.05518,0.562403 m -0.464613,-0.522244 0.05518,0.562423 m -5.220364,-0.05567 0.05517,0.562393 m -1.4881998,-0.421818 0.055196,0.562434 m -1.5197125,-0.418751 0.055187,0.562429 m -5.2046125,-0.05721 0.055171,0.562413 M 41.85653,49.958176 98.10428,49.822738"
   style="display:inline;fill:none;fill-opacity:1;stroke:#ffffff;stroke-width:0.267145;stroke-linecap:round;stroke-linejoin:round;stroke-miterlimit:4;stroke-dasharray:none;stroke-opacity:1;opacity:1"
   id="path26"
   sodipodi:nodetypes="cccccccccccccccccccccccccccccccccccccccccccccccccccccccccccccccccccccccccccccccccccccccccccccccccccccccccccccccccccccccccccccccccccccccccccccccccccccccccccccccccccccccccccccccccccccccccccccccccccccccccccccccccccccccccccccccccccccccccccccccccccccccccccccccccccccccccccccccccccccccccccccccccccccccccccccccccccccccccccccccccccccccccccccccccccccccccccccccccccccccccccccccccccccccccccccccccccccccccccccccccccccccccccccccccccccccccccccccccccccccccccccccccccccccccccccccccccccccccccccccccccccccccccccccccccccccccccccccccccccccccccccccccccccccccccccccccccccccccccccccccccccccccccccccccccccccccccccccccccccccccccccccccccccccccccccccccccccccccccccccccccccccccccccccccccccccccccccccccccccccccccccccccccccccccccccccccccccccccccccccccccccccccccccccccccccccccccccccccccccccccccccccccccccccccccccccccccccccccccccccccccccccccccccccccccccccccccccccccccccccccccccccccccccccccccccccccccccccccccccccccccccccccccccccccccccc" />

</svg>
