<?xml version="1.0" encoding="UTF-8" standalone="no"?>
<!-- Created with Inkscape (http://www.inkscape.org/) -->

<svg
   width="100pt"
   height="45pt"
   viewBox="0 0 100 45"
   version="1.1"
   id="svg1"
   inkscape:version="1.3.2 (091e20e, 2023-11-25)"
   sodipodi:docname="tab-system.svg"
   xmlns:inkscape="http://www.inkscape.org/namespaces/inkscape"
   xmlns:sodipodi="http://sodipodi.sourceforge.net/DTD/sodipodi-0.dtd"
   xmlns="http://www.w3.org/2000/svg"
   xmlns:svg="http://www.w3.org/2000/svg">
  <sodipodi:namedview
     id="namedview1"
     pagecolor="#505050"
     bordercolor="#eeeeee"
     borderopacity="1"
     inkscape:showpageshadow="0"
     inkscape:pageopacity="0"
     inkscape:pagecheckerboard="0"
     inkscape:deskcolor="#d1d1d1"
     inkscape:document-units="pt"
     inkscape:zoom="5.0687632"
     inkscape:cx="60.271113"
     inkscape:cy="28.310654"
     inkscape:window-width="1440"
     inkscape:window-height="785"
     inkscape:window-x="0"
     inkscape:window-y="25"
     inkscape:window-maximized="1"
     inkscape:current-layer="g26" />
  <defs
     id="defs1">
    <inkscape:path-effect
       effect="fillet_chamfer"
       id="path-effect23"
       is_visible="true"
       lpeversion="1"
       nodesatellites_param="F,0,1,1,0,5.3006303,0,1 @ F,0,0,1,0,3.5,0,1 @ F,0,0,1,0,3.5,0,1 @ F,0,0,1,0,3.5,0,1 | F,0,0,1,0,5.3006303,0,1 @ F,0,0,1,0,3.5,0,1 @ F,0,0,1,0,3.5,0,1 @ F,0,0,1,0,3.5,0,1 | F,0,0,1,0,3.5,0,1 @ F,0,0,1,0,3.5,0,1 @ F,0,0,1,0,3.5,0,1 @ F,0,0,1,0,3.5,0,1 | F,0,0,1,0,3.5,0,1 @ F,0,0,1,0,3.5,0,1 @ F,0,0,1,0,3.5,0,1 @ F,0,0,1,0,3.5,0,1 | F,0,0,1,0,3.5,0,1 @ F,0,0,1,0,3.5,0,1 @ F,0,0,1,0,3.5,0,1 @ F,0,0,1,0,3.5,0,1"
       radius="3.5"
       unit="pt"
       method="arc"
       mode="F"
       chamfer_steps="1"
       flexible="false"
       use_knot_distance="true"
       apply_no_radius="true"
       apply_with_radius="true"
       only_selected="false"
       hide_knots="false" />
    <inkscape:path-effect
       effect="fillet_chamfer"
       id="path-effect12"
       is_visible="true"
       lpeversion="1"
       nodesatellites_param="F,0,1,1,0,4.7745236,0,1 @ F,0,0,1,0,1.8981163,0,1 @ F,0,0,1,0,3.5,0,1 @ F,0,0,1,0,3.5,0,1 | F,0,0,1,0,4.7745236,0,1 @ F,0,0,1,0,3.5,0,1 @ F,0,0,1,0,3.5,0,1 @ F,0,0,1,0,1.8862537,0,1 | F,0,0,1,0,3.5,0,1 @ F,0,0,1,0,3.5,0,1 @ F,0,0,1,0,3.5,0,1 @ F,0,0,1,0,3.5,0,1 | F,0,0,1,0,3.5,0,1 @ F,0,0,1,0,3.5,0,1 @ F,0,0,1,0,3.5,0,1 @ F,0,0,1,0,3.5,0,1 | F,0,0,1,0,3.5,0,1 @ F,0,0,1,0,3.5,0,1 @ F,0,0,1,0,3.5,0,1 @ F,0,0,1,0,3.5,0,1"
       radius="3.5"
       unit="pt"
       method="arc"
       mode="F"
       chamfer_steps="1"
       flexible="false"
       use_knot_distance="true"
       apply_no_radius="true"
       apply_with_radius="true"
       only_selected="false"
       hide_knots="false" />
  </defs>
  <g
     inkscape:label="Layer 1"
     inkscape:groupmode="layer"
     id="layer1">
    <path
       id="path14"
       style="color:#000000;display:none;fill:#ffffff;fill-opacity:1;stroke-linecap:round;stroke-linejoin:round;-inkscape-stroke:none;paint-order:markers fill stroke"
       d="M 0,0 V 32.332031 C 16.935515,43.08011 37.512371,45 49.999512,45 62.410648,45 83.02765,43.103589 100.00049,32.332031 V 0 Z"
       sodipodi:nodetypes="ccsccc"
       inkscape:label="background" />
    <path
       id="path15"
       style="color:#000000;display:none;fill:#ffffff;fill-opacity:1;stroke-linecap:round;stroke-linejoin:round;-inkscape-stroke:none;paint-order:markers fill stroke"
       d="M 0,0 V 32.332031 C 16.935515,43.08011 37.512371,45 49.999512,45 62.410648,45 83.02765,43.103589 100.00049,32.332031 V 0 C 100.00103,13.8075 77.614513,25.000758 49.999512,25.000488 22.385084,25.000353 -5.3903495e-4,13.807214 0,0 Z"
       sodipodi:nodetypes="ccscccc"
       inkscape:label="tab swoop (original)" />
    <path
       id="path17"
       style="color:#000000;display:none;fill:#000000;stroke-linecap:round;stroke-linejoin:round;-inkscape-stroke:none;paint-order:markers fill stroke"
       d="M 1.5,8.6425781 V 31.45459 C 17.913243,41.578029 37.834875,43.5 49.999512,43.5 62.090164,43.5 82.051174,41.599521 98.500488,31.45459 V 8.6425781 C 95.832104,12.66089 91.610116,16.228145 86.027344,19.019531 76.705949,23.680229 64.009655,26.500625 49.999512,26.500488 35.98966,26.50042 23.294243,23.680217 13.973145,19.019531 8.3903919,16.228073 4.1682622,12.66097 1.5,8.6425781 Z"
       inkscape:label="tab swoop (inset)" />
    <g
       id="g26"
       inkscape:label="tabs">
      <path
         style="color:#000000;fill:#000000;stroke-linecap:round;stroke-linejoin:round;-inkscape-stroke:none;paint-order:markers fill stroke"
         d="M 1.5,13.943208 V 27.95459 a 5.9223941,5.9223941 60.012591 0 0 3.0300509,5.250867 c 0.7933743,0.429506 1.5931443,0.8412 2.3979167,1.236519 A 4.9328041,4.9328041 169.90455 0 0 12.579366,33.435771 L 20.82786,25.187276 A 2.1874077,2.1874077 76.803153 0 0 19.985826,21.596355 C 14.276589,19.510892 8.9141263,16.644871 4.8871324,12.707076 A 1.955929,1.955929 159.95047 0 0 1.5,13.943208 Z"
         id="path18"
         inkscape:label="1" />
      <path
         style="color:#000000;fill:#000000;stroke-linecap:round;stroke-linejoin:round;-inkscape-stroke:none;paint-order:markers fill stroke"
         d="m 21.917704,25.511007 -8.359822,8.359822 a 2.2740837,2.2740837 78.206649 0 0 0.783415,3.752172 c 6.2023,2.273556 12.487717,3.709345 18.356994,4.592307 a 3.9451182,3.9451182 146.32364 0 0 4.3746,-2.914888 l 2.641327,-9.857188 a 3.0327533,3.0327533 55.6852 0 0 -2.572324,-3.768794 c -3.258144,-0.424537 -6.391612,-1.007496 -9.368651,-1.73334 a 6.1840421,6.1840421 164.99158 0 0 -5.855539,1.569909 z"
         id="path24"
         inkscape:label="2" />
      <path
         style="color:#000000;fill:#000000;stroke-linecap:round;stroke-linejoin:round;-inkscape-stroke:none;paint-order:markers fill stroke"
         d="m 40.727841,29.532574 -2.648553,9.883582 a 2.9393066,2.9393066 55.201774 0 0 2.578394,3.710068 c 6.547242,0.521326 12.793119,0.469361 18.686598,6.7e-5 a 2.9393442,2.9393442 124.79765 0 0 2.578385,-3.710135 L 59.274112,29.532574 A 4.309198,4.309198 35.621795 0 0 54.875855,26.3812 c -3.389024,0.164494 -6.628536,0.151659 -9.749768,8.2e-5 a 4.3090847,4.3090847 144.37885 0 0 -4.398246,3.151292 z"
         id="path26"
         inkscape:label="3" />
      <path
         style="color:#000000;fill:#000000;stroke-linecap:round;stroke-linejoin:round;-inkscape-stroke:none;paint-order:markers fill stroke"
         d="m 72.227242,23.941107 c -2.97751,0.725942 -6.111397,1.30887 -9.370111,1.733393 a 3.0326845,3.0326845 124.31527 0 0 -2.572326,3.768732 l 2.641327,9.857188 a 3.9453176,3.9453176 33.677159 0 0 4.374629,2.914996 c 5.864932,-0.881938 12.152663,-2.316145 18.359859,-4.591083 a 2.2739681,2.2739681 101.79429 0 0 0.783451,-3.752039 l -8.361287,-8.361287 a 6.1840725,6.1840725 15.008322 0 0 -5.855542,-1.5699 z"
         id="path25"
         inkscape:label="4" />
      <path
         style="color:#000000;fill:#000000;stroke-linecap:round;stroke-linejoin:round;-inkscape-stroke:none;paint-order:markers fill stroke"
         d="M 95.113312,12.707052 C 91.09119,16.640111 85.733539,19.50734 80.01465,21.596338 a 2.1874171,2.1874171 103.1966 0 0 -0.842022,3.590938 l 8.249959,8.249959 a 4.9315361,4.9315361 10.090219 0 0 5.651218,1.00564 c 0.804428,-0.395448 1.603862,-0.80732 2.396963,-1.236974 a 5.9240428,5.9240428 119.9826 0 0 3.02972,-5.251311 V 13.943208 a 1.9559541,1.9559541 20.049647 0 0 -3.387176,-1.236156 z"
         id="path23"
         inkscape:label="5" />
    </g>
  </g>
</svg>
