<?xml version="1.0" encoding="UTF-8" standalone="no"?>
<!-- Created with Inkscape (http://www.inkscape.org/) -->

<svg
   width="100pt"
   height="45pt"
   viewBox="0 0 100 45"
   version="1.1"
   id="svg1"
   inkscape:version="1.3.2 (091e20e, 2023-11-25)"
   sodipodi:docname="tab-system-aero2.svg"
   inkscape:export-filename="pressed.png"
   inkscape:export-xdpi="900"
   inkscape:export-ydpi="900"
   xmlns:inkscape="http://www.inkscape.org/namespaces/inkscape"
   xmlns:sodipodi="http://sodipodi.sourceforge.net/DTD/sodipodi-0.dtd"
   xmlns:xlink="http://www.w3.org/1999/xlink"
   xmlns="http://www.w3.org/2000/svg"
   xmlns:svg="http://www.w3.org/2000/svg">
  <sodipodi:namedview
     id="namedview1"
     pagecolor="#505050"
     bordercolor="#eeeeee"
     borderopacity="1"
     inkscape:showpageshadow="0"
     inkscape:pageopacity="0"
     inkscape:pagecheckerboard="0"
     inkscape:deskcolor="#d1d1d1"
     inkscape:document-units="pt"
     inkscape:zoom="3.6966427"
     inkscape:cx="63.841712"
     inkscape:cy="17.71878"
     inkscape:window-width="1440"
     inkscape:window-height="785"
     inkscape:window-x="0"
     inkscape:window-y="25"
     inkscape:window-maximized="1"
     inkscape:current-layer="layer1" />
  <defs
     id="defs1">
    <linearGradient
       id="linearGradient75"
       inkscape:collect="always"
       inkscape:label="top blob">
      <stop
         style="stop-color:#ffffff;stop-opacity:0.80000001;"
         offset="0"
         id="stop75" />
      <stop
         style="stop-color:#ffffff;stop-opacity:0.05;"
         offset="1"
         id="stop76" />
    </linearGradient>
    <inkscape:path-effect
       effect="fillet_chamfer"
       id="path-effect72"
       is_visible="true"
       lpeversion="1"
       nodesatellites_param="F,0,0,1,0,0,0,1 @ F,0,0,1,0,0,0,1 @ F,0,0,1,0,0,0,1 @ F,0,0,1,0,4,0,1 @ F,0,0,1,0,5,0,1 @ F,0,0,1,0,0,0,1 @ F,0,0,1,0,0,0,1 @ F,0,0,1,0,0,0,1 @ F,0,0,1,0,0,0,1 @ F,0,0,1,0,0,0,1 @ F,0,0,1,0,0,0,1 @ F,0,0,1,0,0,0,1 | F,0,0,1,0,0,0,1 @ F,0,0,1,0,0,0,1 @ F,0,0,1,0,0,0,1 @ F,0,0,1,0,0,0,1 @ F,0,0,1,0,0,0,1 @ F,0,0,1,0,0,0,1 @ F,0,0,1,0,0,0,1 @ F,0,0,1,0,0,0,1 @ F,0,0,1,0,5,0,1 @ F,0,0,1,0,4,0,1 @ F,0,0,1,0,0,0,1 @ F,0,0,1,0,0,0,1 @ F,0,0,1,0,0,0,1 | F,0,0,1,0,0,0,1 @ F,0,0,1,0,0,0,1 @ F,0,0,1,0,0,0,1 @ F,0,0,1,0,5,0,1 @ F,0,0,1,0,5,0,1 @ F,0,0,1,0,0,0,1 @ F,0,0,1,0,0,0,1 @ F,0,0,1,0,0,0,1 @ F,0,0,1,0,0,0,1 @ F,0,0,1,0,0,0,1 @ F,0,0,1,0,0,0,1 | F,0,0,1,0,0,0,1 @ F,0,0,1,0,0,0,1 @ F,0,0,1,0,0,0,1 @ F,0,0,1,0,0,0,1 @ F,0,0,1,0,0,0,1 @ F,0,0,1,0,0,0,1 @ F,0,0,1,0,0,0,1 @ F,0,0,1,0,0,0,1 @ F,0,0,1,0,5,0,1 @ F,0,0,1,0,5,0,1 @ F,0,0,1,0,0,0,1 | F,0,0,1,0,0,0,1 @ F,0,0,1,0,0,0,1 @ F,0,0,1,0,5,0,1 @ F,0,0,1,0,5,0,1 @ F,0,0,1,0,0,0,1 @ F,0,0,1,0,0,0,1 @ F,0,0,1,0,0,0,1 @ F,0,0,1,0,0,0,1 @ F,0,0,1,0,0,0,1 @ F,0,0,1,0,0,0,1"
       radius="0"
       unit="px"
       method="auto"
       mode="F"
       chamfer_steps="1"
       flexible="false"
       use_knot_distance="true"
       apply_no_radius="true"
       apply_with_radius="true"
       only_selected="false"
       hide_knots="false" />
    <linearGradient
       id="linearGradient48"
       inkscape:collect="always"
       inkscape:label="bottom blob">
      <stop
         style="stop-color:#ffffff;stop-opacity:0.80000001;"
         offset="0"
         id="stop48" />
      <stop
         style="stop-color:#ffffff;stop-opacity:0;"
         offset="1"
         id="stop49" />
    </linearGradient>
    <linearGradient
       id="linearGradient37"
       inkscape:collect="always"
       inkscape:label="stroke">
      <stop
         style="stop-color:#000000;stop-opacity:0;"
         offset="0"
         id="stop37" />
      <stop
         style="stop-color:#000000;stop-opacity:0.5;"
         offset="1"
         id="stop38" />
    </linearGradient>
    <inkscape:path-effect
       effect="fillet_chamfer"
       id="path-effect32"
       is_visible="true"
       lpeversion="1"
       nodesatellites_param="F,0,0,1,0,0,0,1 @ F,0,0,1,0,0,0,1 @ F,0,0,1,0,0,0,1 @ F,0,0,1,0,3,0,1 @ F,0,0,1,0,4,0,1 @ F,0,0,1,0,0,0,1 @ F,0,0,1,0,0,0,1 @ F,0,0,1,0,0,0,1 @ F,0,0,1,0,0,0,1 @ F,0,0,1,0,0,0,1 @ F,0,0,1,0,0,0,1 @ F,0,0,1,0,0,0,1 | F,0,0,1,0,0,0,1 @ F,0,0,1,0,0,0,1 @ F,0,0,1,0,0,0,1 @ F,0,0,1,0,0,0,1 @ F,0,0,1,0,0,0,1 @ F,0,0,1,0,0,0,1 @ F,0,0,1,0,0,0,1 @ F,0,0,1,0,0,0,1 @ F,0,0,1,0,4,0,1 @ F,0,0,1,0,3,0,1 @ F,0,0,1,0,0,0,1 @ F,0,0,1,0,0,0,1 @ F,0,0,1,0,0,0,1 | F,0,0,1,0,0,0,1 @ F,0,0,1,0,0,0,1 @ F,0,0,1,0,0,0,1 @ F,0,0,1,0,5,0,1 @ F,0,0,1,0,5,0,1 @ F,0,0,1,0,0,0,1 @ F,0,0,1,0,0,0,1 @ F,0,0,1,0,0,0,1 @ F,0,0,1,0,0,0,1 @ F,0,0,1,0,0,0,1 @ F,0,0,1,0,0,0,1 | F,0,0,1,0,0,0,1 @ F,0,0,1,0,0,0,1 @ F,0,0,1,0,0,0,1 @ F,0,0,1,0,0,0,1 @ F,0,0,1,0,0,0,1 @ F,0,0,1,0,0,0,1 @ F,0,0,1,0,0,0,1 @ F,0,0,1,0,0,0,1 @ F,0,0,1,0,5,0,1 @ F,0,0,1,0,5,0,1 @ F,0,0,1,0,0,0,1 | F,0,0,1,0,0,0,1 @ F,0,0,1,0,0,0,1 @ F,0,0,1,0,5,0,1 @ F,0,0,1,0,5,0,1 @ F,0,0,1,0,0,0,1 @ F,0,0,1,0,0,0,1 @ F,0,0,1,0,0,0,1 @ F,0,0,1,0,0,0,1 @ F,0,0,1,0,0,0,1 @ F,0,0,1,0,0,0,1"
       radius="0"
       unit="px"
       method="auto"
       mode="F"
       chamfer_steps="1"
       flexible="false"
       use_knot_distance="true"
       apply_no_radius="true"
       apply_with_radius="true"
       only_selected="false"
       hide_knots="false" />
    <inkscape:path-effect
       effect="fillet_chamfer"
       id="path-effect23"
       is_visible="true"
       lpeversion="1"
       nodesatellites_param="F,0,1,1,0,5.3006303,0,1 @ F,0,0,1,0,3.5,0,1 @ F,0,0,1,0,3.5,0,1 @ F,0,0,1,0,3.5,0,1 | F,0,0,1,0,5.3006303,0,1 @ F,0,0,1,0,3.5,0,1 @ F,0,0,1,0,3.5,0,1 @ F,0,0,1,0,3.5,0,1 | F,0,0,1,0,3.5,0,1 @ F,0,0,1,0,3.5,0,1 @ F,0,0,1,0,3.5,0,1 @ F,0,0,1,0,3.5,0,1 | F,0,0,1,0,3.5,0,1 @ F,0,0,1,0,3.5,0,1 @ F,0,0,1,0,3.5,0,1 @ F,0,0,1,0,3.5,0,1 | F,0,0,1,0,3.5,0,1 @ F,0,0,1,0,3.5,0,1 @ F,0,0,1,0,3.5,0,1 @ F,0,0,1,0,3.5,0,1"
       radius="3.5"
       unit="pt"
       method="arc"
       mode="F"
       chamfer_steps="1"
       flexible="false"
       use_knot_distance="true"
       apply_no_radius="true"
       apply_with_radius="true"
       only_selected="false"
       hide_knots="false" />
    <inkscape:path-effect
       effect="fillet_chamfer"
       id="path-effect12"
       is_visible="true"
       lpeversion="1"
       nodesatellites_param="F,0,1,1,0,4.7745236,0,1 @ F,0,0,1,0,1.8981163,0,1 @ F,0,0,1,0,3.5,0,1 @ F,0,0,1,0,3.5,0,1 | F,0,0,1,0,4.7745236,0,1 @ F,0,0,1,0,3.5,0,1 @ F,0,0,1,0,3.5,0,1 @ F,0,0,1,0,1.8862537,0,1 | F,0,0,1,0,3.5,0,1 @ F,0,0,1,0,3.5,0,1 @ F,0,0,1,0,3.5,0,1 @ F,0,0,1,0,3.5,0,1 | F,0,0,1,0,3.5,0,1 @ F,0,0,1,0,3.5,0,1 @ F,0,0,1,0,3.5,0,1 @ F,0,0,1,0,3.5,0,1 | F,0,0,1,0,3.5,0,1 @ F,0,0,1,0,3.5,0,1 @ F,0,0,1,0,3.5,0,1 @ F,0,0,1,0,3.5,0,1"
       radius="3.5"
       unit="pt"
       method="arc"
       mode="F"
       chamfer_steps="1"
       flexible="false"
       use_knot_distance="true"
       apply_no_radius="true"
       apply_with_radius="true"
       only_selected="false"
       hide_knots="false" />
    <linearGradient
       inkscape:collect="always"
       xlink:href="#linearGradient37"
       id="linearGradient38"
       x1="15.428223"
       y1="19.717283"
       x2="6.9272461"
       y2="34.441406"
       gradientUnits="userSpaceOnUse" />
    <linearGradient
       inkscape:collect="always"
       xlink:href="#linearGradient37"
       id="linearGradient41"
       x1="37.142578"
       y1="25.674316"
       x2="32.698242"
       y2="42.215332"
       gradientUnits="userSpaceOnUse" />
    <linearGradient
       inkscape:collect="always"
       xlink:href="#linearGradient37"
       id="linearGradient43"
       x1="37.972649"
       y1="26.374865"
       x2="37.972649"
       y2="43.498203"
       gradientUnits="userSpaceOnUse" />
    <linearGradient
       inkscape:collect="always"
       xlink:href="#linearGradient37"
       id="linearGradient45"
       x1="62.856445"
       y1="25.674316"
       x2="67.300781"
       y2="42.215332"
       gradientUnits="userSpaceOnUse" />
    <linearGradient
       inkscape:collect="always"
       xlink:href="#linearGradient37"
       id="linearGradient47"
       x1="86.988602"
       y1="18.514273"
       x2="95.471191"
       y2="33.206543"
       gradientUnits="userSpaceOnUse" />
    <radialGradient
       inkscape:collect="always"
       xlink:href="#linearGradient48"
       id="radialGradient49"
       cx="7.1637096"
       cy="32.826389"
       fx="7.1637096"
       fy="32.826389"
       r="9.4805632"
       gradientTransform="matrix(1.0515617,0,0,1.7072317,0.94648034,-21.619747)"
       gradientUnits="userSpaceOnUse" />
    <radialGradient
       inkscape:collect="always"
       xlink:href="#linearGradient48"
       id="radialGradient51"
       cx="26.337624"
       cy="45.975922"
       fx="26.337624"
       fy="45.975922"
       r="12.97489"
       gradientTransform="matrix(1,0,0,1.3492997,0,-20.28076)"
       gradientUnits="userSpaceOnUse" />
    <radialGradient
       inkscape:collect="always"
       xlink:href="#linearGradient48"
       id="radialGradient52"
       cx="50.000938"
       cy="46.467644"
       fx="50.000938"
       fy="46.467644"
       r="11.530958"
       gradientTransform="matrix(1,0,0,1.3873756,0,-21.469796)"
       gradientUnits="userSpaceOnUse" />
    <radialGradient
       inkscape:collect="always"
       xlink:href="#linearGradient48"
       id="radialGradient53"
       cx="73.662598"
       cy="45.977947"
       fx="73.662598"
       fy="45.977947"
       r="12.976598"
       gradientTransform="matrix(1,0,0,1.3491719,0,-20.276974)"
       gradientUnits="userSpaceOnUse" />
    <radialGradient
       inkscape:collect="always"
       xlink:href="#linearGradient48"
       id="radialGradient54"
       cx="91.369492"
       cy="32.98251"
       fx="91.369492"
       fy="32.98251"
       r="9.4803362"
       gradientTransform="matrix(1.0528485,-5.8186291e-8,0,1.7685507,-4.6785259,-23.906995)"
       gradientUnits="userSpaceOnUse" />
    <linearGradient
       inkscape:collect="always"
       xlink:href="#linearGradient75"
       id="linearGradient76"
       x1="15.505667"
       y1="20.30438"
       x2="11.490234"
       y2="27.259312"
       gradientUnits="userSpaceOnUse" />
    <linearGradient
       inkscape:collect="always"
       xlink:href="#linearGradient75"
       id="linearGradient78"
       x1="35.018463"
       y1="25.877861"
       x2="32.93111"
       y2="33.667973"
       gradientUnits="userSpaceOnUse" />
    <linearGradient
       inkscape:collect="always"
       xlink:href="#linearGradient75"
       id="linearGradient80"
       x1="41.031986"
       y1="26.875095"
       x2="41.031986"
       y2="34.999355"
       gradientUnits="userSpaceOnUse" />
    <linearGradient
       inkscape:collect="always"
       xlink:href="#linearGradient75"
       id="linearGradient82"
       x1="64.980499"
       y1="25.878155"
       x2="67.067787"
       y2="33.668011"
       gradientUnits="userSpaceOnUse" />
    <linearGradient
       inkscape:collect="always"
       xlink:href="#linearGradient75"
       id="linearGradient84"
       x1="84.493637"
       y1="20.304895"
       x2="88.508774"
       y2="27.259312"
       gradientUnits="userSpaceOnUse" />
  </defs>
  <g
     inkscape:label="Layer 1"
     inkscape:groupmode="layer"
     id="layer1">
    <g
       id="g5"
       inkscape:label="fills"
       style="display:inline">
      <path
         style="color:#000000;fill:#ff0000;fill-opacity:1;stroke-linecap:round;stroke-linejoin:round;-inkscape-stroke:none;paint-order:markers fill stroke"
         d="M 1.5,13.943208 V 27.95459 a 5.9223941,5.9223941 60.012591 0 0 3.0300509,5.250867 c 0.7933743,0.429506 1.5931443,0.8412 2.3979167,1.236519 A 4.9328041,4.9328041 169.90455 0 0 12.579366,33.435771 L 20.82786,25.187276 A 2.1874077,2.1874077 76.803153 0 0 19.985826,21.596355 C 14.276589,19.510892 8.9141263,16.644871 4.8871324,12.707076 A 1.955929,1.955929 159.95047 0 0 1.5,13.943208 Z"
         id="path1"
         inkscape:label="1" />
      <path
         style="color:#000000;fill:#ff0000;fill-opacity:1;stroke-linecap:round;stroke-linejoin:round;-inkscape-stroke:none;paint-order:markers fill stroke"
         d="m 21.917704,25.511007 -8.359822,8.359822 a 2.2740837,2.2740837 78.206649 0 0 0.783415,3.752172 c 6.2023,2.273556 12.487717,3.709345 18.356994,4.592307 a 3.9451182,3.9451182 146.32364 0 0 4.3746,-2.914888 l 2.641327,-9.857188 a 3.0327533,3.0327533 55.6852 0 0 -2.572324,-3.768794 c -3.258144,-0.424537 -6.391612,-1.007496 -9.368651,-1.73334 a 6.1840421,6.1840421 164.99158 0 0 -5.855539,1.569909 z"
         id="path2"
         inkscape:label="2" />
      <path
         style="color:#000000;fill:#ff0000;fill-opacity:1;stroke-linecap:round;stroke-linejoin:round;-inkscape-stroke:none;paint-order:markers fill stroke"
         d="m 40.727841,29.532574 -2.648553,9.883582 a 2.9393066,2.9393066 55.201774 0 0 2.578394,3.710068 c 6.547242,0.521326 12.793119,0.469361 18.686598,6.7e-5 a 2.9393442,2.9393442 124.79765 0 0 2.578385,-3.710135 L 59.274112,29.532574 A 4.309198,4.309198 35.621795 0 0 54.875855,26.3812 c -3.389024,0.164494 -6.628536,0.151659 -9.749768,8.2e-5 a 4.3090847,4.3090847 144.37885 0 0 -4.398246,3.151292 z"
         id="path3"
         inkscape:label="3" />
      <path
         style="color:#000000;fill:#ff0000;fill-opacity:1;stroke-linecap:round;stroke-linejoin:round;-inkscape-stroke:none;paint-order:markers fill stroke"
         d="m 72.227242,23.941107 c -2.97751,0.725942 -6.111397,1.30887 -9.370111,1.733393 a 3.0326845,3.0326845 124.31527 0 0 -2.572326,3.768732 l 2.641327,9.857188 a 3.9453176,3.9453176 33.677159 0 0 4.374629,2.914996 c 5.864932,-0.881938 12.152663,-2.316145 18.359859,-4.591083 a 2.2739681,2.2739681 101.79429 0 0 0.783451,-3.752039 l -8.361287,-8.361287 a 6.1840725,6.1840725 15.008322 0 0 -5.855542,-1.5699 z"
         id="path4"
         inkscape:label="4" />
      <path
         style="color:#000000;fill:#ff0000;fill-opacity:1;stroke-linecap:round;stroke-linejoin:round;-inkscape-stroke:none;paint-order:markers fill stroke"
         d="M 95.113312,12.707052 C 91.09119,16.640111 85.733539,19.50734 80.01465,21.596338 a 2.1874171,2.1874171 103.1966 0 0 -0.842022,3.590938 l 8.249959,8.249959 a 4.9315361,4.9315361 10.090219 0 0 5.651218,1.00564 c 0.804428,-0.395448 1.603862,-0.80732 2.396963,-1.236974 a 5.9240428,5.9240428 119.9826 0 0 3.02972,-5.251311 V 13.943208 a 1.9559541,1.9559541 20.049647 0 0 -3.387176,-1.236156 z"
         id="path5"
         inkscape:label="5" />
    </g>
    <g
       id="g84"
       inkscape:label="export"
       style="display:none">
      <g
         id="g11"
         inkscape:label="strokes"
         style="display:inline">
        <path
           style="color:#000000;display:inline;fill:url(#linearGradient38);fill-opacity:1;stroke:none;stroke-linecap:round;stroke-linejoin:round;stroke-opacity:0.333333;-inkscape-stroke:none;paint-order:markers fill stroke"
           d="M 3.7514648,12.104004 A 1.955929,1.955929 0 0 0 1.5,13.943848 v 14.01123 a 5.9223941,5.9223941 0 0 0 3.0307617,5.25 c 0.7933727,0.429506 1.5917136,0.841011 2.3964844,1.236328 a 4.9328041,4.9328041 0 0 0 5.6528319,-1.006347 l 8.24707,-8.247071 a 2.1874077,2.1874077 0 0 0 -0.84082,-3.591797 C 14.277103,19.510732 8.9137045,16.645307 4.8867188,12.70752 a 1.955929,1.955929 0 0 0 -1.135254,-0.603516 z m -0.3940429,0.479004 c 0.1037243,-0.0062 0.2100603,-0.002 0.3178711,0.01465 0.324342,0.05026 0.6206803,0.208952 0.84375,0.449707 a 0.50005,0.50005 0 0 0 0.017578,0.01758 c 4.0989608,4.008168 9.52525,6.899991 15.27832,9.001465 a 0.50005,0.50005 0 0 0 0.0059,0.0015 c 1.182626,0.415163 1.522928,1.87307 0.647461,2.77002 l -8.241211,8.24414 a 0.50005,0.50005 0 0 0 -0.0044,0.0044 c -1.326143,1.358246 -3.3649658,1.720094 -5.0786131,0.903808 h -0.00146 C 6.3474916,33.599569 5.5590221,33.194145 4.7753906,32.77002 l -0.00146,-0.0029 c -0.00128,-6.95e-4 -0.0031,-7.65e-4 -0.00439,-0.0015 C 3.035419,31.792779 1.972242,29.951009 1.9995117,27.962402 a 0.50005,0.50005 0 0 0 0,-0.0015 0.50005,0.50005 0 0 0 0,-0.0015 0.50005,0.50005 0 0 0 0,-0.0015 0.50005,0.50005 0 0 0 0,-0.0015 0.50005,0.50005 0 0 0 0,-0.0015 V 13.967285 c 0.036418,-0.762706 0.63184,-1.34071 1.3579102,-1.384277 z"
           id="path18"
           inkscape:label="1" />
        <path
           style="color:#000000;display:inline;fill:url(#linearGradient41);stroke:none;stroke-linecap:round;stroke-linejoin:round;stroke-opacity:1;-inkscape-stroke:none;paint-order:markers fill stroke"
           d="m 26.522461,23.755371 a 6.1840421,6.1840421 0 0 0 -4.605469,1.756348 l -8.358398,8.358398 a 2.2740837,2.2740837 0 0 0 0.782226,3.75293 c 6.202288,2.273552 12.488157,3.709325 18.357422,4.592285 a 3.9451182,3.9451182 0 0 0 4.374024,-2.915039 l 2.642578,-9.856934 a 3.0327533,3.0327533 0 0 0 -2.572266,-3.769043 c -3.258138,-0.424535 -6.392107,-1.007066 -9.36914,-1.73291 a 6.1840421,6.1840421 0 0 0 -1.250977,-0.186035 z m -0.02197,0.498047 c 0.388114,0.01755 0.773477,0.07671 1.149903,0.172852 a 0.50005,0.50005 0 0 0 0.0044,0.0015 c 2.995674,0.730389 6.14783,1.3149 9.42334,1.7417 a 0.50005,0.50005 0 0 0 0.0044,0 c 1.529202,0.184964 2.53257,1.657984 2.14746,3.149414 l -2.639648,9.851074 a 0.50005,0.50005 0 0 0 -0.0029,0.0044 c -0.440913,1.699345 -2.076478,2.79096 -3.814453,2.545899 C 26.931953,40.841543 20.68043,39.414319 14.51811,37.155804 v -0.0015 c -1.228854,-0.46754 -1.550209,-2.006288 -0.609375,-2.925293 a 0.50005,0.50005 0 0 0 0.0029,-0.0044 l 8.354004,-8.355468 0.0059,-0.0044 c 1.126053,-1.098419 2.657384,-1.683001 4.229004,-1.611328 z"
           id="path9"
           inkscape:label="2" />
        <path
           style="color:#000000;display:inline;fill:url(#linearGradient43);stroke:none;stroke-linecap:round;stroke-linejoin:round;stroke-opacity:1;-inkscape-stroke:none;paint-order:markers fill stroke"
           d="m 45.125977,26.381836 a 4.3090847,4.3090847 0 0 0 -4.397461,3.150879 l -2.649903,9.883301 a 2.9393066,2.9393066 0 0 0 2.57959,3.710449 c 6.54723,0.521324 12.79208,0.469292 18.685547,0 a 2.9393442,2.9393442 0 0 0 2.57959,-3.710449 l -2.649902,-9.883301 a 4.309198,4.309198 0 0 0 -4.397461,-3.150879 c -3.389018,0.164494 -6.628776,0.151577 -9.75,0 z m -0.02783,0.499512 a 0.50005,0.50005 0 0 0 0.0029,0 c 3.136591,0.152324 6.394112,0.165303 9.799805,0 a 0.50005,0.50005 0 0 0 0.0029,0 c 1.792578,-0.10205 3.407969,1.054461 3.887695,2.784668 l 2.648437,9.878906 a 0.50005,0.50005 0 0 0 0.0015,0.0044 c 0.408437,1.479716 -0.61082,2.946558 -2.140136,3.079102 -5.866206,0.466932 -12.083923,0.518667 -18.600586,0 -1.529327,-0.132521 -2.548599,-1.599385 -2.140137,-3.079102 a 0.50005,0.50005 0 0 0 0.0015,-0.0044 l 2.648437,-9.878906 c 0.479692,-1.730225 2.095112,-2.886756 3.887696,-2.784668 z"
           id="path11"
           inkscape:label="3" />
        <path
           style="color:#000000;display:inline;fill:url(#linearGradient45);stroke:none;stroke-linecap:round;stroke-linejoin:round;stroke-opacity:1;-inkscape-stroke:none;paint-order:markers fill stroke"
           d="m 73.478027,23.755371 a 6.1840725,6.1840725 0 0 0 -1.250976,0.186035 c -2.977504,0.725942 -6.111898,1.308389 -9.370606,1.73291 a 3.0326845,3.0326845 0 0 0 -2.572265,3.769043 l 2.642578,9.856934 a 3.9453176,3.9453176 0 0 0 4.374023,2.915039 c 5.86492,-0.881936 12.153168,-2.315888 18.360352,-4.59082 a 2.2739681,2.2739681 0 0 0 0.782226,-3.75293 L 78.083496,25.511719 A 6.1840725,6.1840725 0 0 0 73.478027,23.755371 Z M 73.5,24.253418 c 1.574015,-0.07178 3.108351,0.514066 4.234863,1.615723 l 8.355469,8.355468 a 0.50005,0.50005 0 0 0 0.0029,0.0044 c 0.940939,0.918962 0.619558,2.457834 -0.609375,2.925293 v 0.0015 c -6.165853,2.259399 -12.417689,3.686704 -18.253418,4.564453 -1.739473,0.247246 -3.378985,-0.845274 -3.820313,-2.545899 a 0.50005,0.50005 0 0 0 0,-0.0015 0.50005,0.50005 0 0 0 0,-0.0015 0.50005,0.50005 0 0 0 0,-0.0015 l -2.642578,-9.851074 v -0.0029 -0.0015 C 60.38533,27.82443 61.388689,26.35419 62.916504,26.169434 a 0.50005,0.50005 0 0 0 0.0059,0 c 3.276071,-0.426784 6.427181,-1.011209 9.42334,-1.7417 a 0.50005,0.50005 0 0 0 0.0059,-0.0015 C 72.727912,24.33022 73.111887,24.27097 73.5,24.253418 Z"
           id="path10"
           inkscape:label="4" />
        <path
           style="color:#000000;display:inline;fill:url(#linearGradient47);stroke:none;stroke-linecap:round;stroke-linejoin:round;stroke-opacity:1;-inkscape-stroke:none;paint-order:markers fill stroke"
           d="M 96.249023,12.104004 A 1.9559541,1.9559541 0 0 0 95.11377,12.70752 c -4.022114,3.933051 -9.380733,6.799677 -15.09961,8.888671 a 2.1874171,2.1874171 0 0 0 -0.84082,3.591797 l 8.248535,8.248535 a 4.9315361,4.9315361 0 0 0 5.651367,1.006348 c 0.804426,-0.395448 1.60485,-0.806674 2.397949,-1.236328 a 5.9240428,5.9240428 0 0 0 3.029297,-5.251465 v -14.01123 a 1.9559541,1.9559541 0 0 0 -2.251465,-1.839844 z m 0.394043,0.479004 c 0.724049,0.04414 1.317768,0.619964 1.356446,1.379883 v 13.992187 a 0.50005,0.50005 0 0 0 0,0.0073 c 0.02774,1.991156 -1.035421,3.834751 -2.772949,4.807618 -0.783659,0.424438 -1.572684,0.830332 -2.368653,1.221679 -1.713583,0.817122 -3.752431,0.454609 -5.078613,-0.903808 a 0.50005,0.50005 0 0 0 -0.0044,-0.0059 l -8.24414,-8.24414 c -0.875458,-0.896953 -0.533693,-2.354851 0.648926,-2.77002 a 0.50005,0.50005 0 0 0 0.0059,-0.0015 c 5.76279,-2.105034 11.182856,-4.998121 15.276855,-9.001465 a 0.50005,0.50005 0 0 0 0.01758,-0.01758 c 0.22267,-0.240321 0.520088,-0.399152 0.84375,-0.449707 h 0.0029 c 0.107503,-0.01641 0.212971,-0.02095 0.316406,-0.01465 z"
           id="path8"
           inkscape:label="5" />
      </g>
      <g
         id="g29"
         inkscape:label="bottom blobs"
         style="display:inline">
        <path
           style="color:#000000;fill:url(#radialGradient49);stroke-linecap:round;stroke-linejoin:round;-inkscape-stroke:none;paint-order:markers fill stroke"
           d="m 3.5141602,12.581543 c -0.053026,-0.0024 -0.1048763,-0.0016 -0.1567383,0.0015 -0.7260688,0.04357 -1.3214922,0.621573 -1.3579102,1.384277 v 13.987793 a 0.50005,0.50005 0 0 0 0,0.0015 0.50005,0.50005 0 0 0 0,0.0015 0.50005,0.50005 0 0 0 0,0.0015 0.50005,0.50005 0 0 0 0,0.0015 0.50005,0.50005 0 0 0 0,0.0015 c -0.02727,1.988603 1.0359014,3.830384 2.7700196,4.803223 0.00129,7.35e-4 0.00311,7.7e-4 0.00439,0.0015 l 0.00146,0.0029 c 0.7836299,0.424123 1.5720628,0.829507 2.3671875,1.220214 h 0.00146 c 1.7136439,0.816286 3.7524742,0.454434 5.0786132,-0.903808 a 0.50005,0.50005 0 0 1 0.0044,-0.0044 l 8.241211,-8.24414 c 0.875465,-0.896948 0.535163,-2.354857 -0.647461,-2.77002 a 0.50005,0.50005 0 0 1 -0.0059,-0.0015 C 14.061883,19.964936 8.6355737,17.073101 4.5366211,13.064941 A 0.50005,0.50005 0 0 1 4.519043,13.047363 C 4.2959737,12.80661 3.9996342,12.647916 3.675293,12.597656 3.621388,12.589356 3.5671859,12.583896 3.5141602,12.581546 Z"
           id="path12"
           inkscape:label="1" />
        <path
           style="color:#000000;fill:url(#radialGradient51);stroke-linecap:round;stroke-linejoin:round;-inkscape-stroke:none;paint-order:markers fill stroke"
           d="m 26.500488,24.253418 c -1.571616,-0.07167 -3.102953,0.512911 -4.229004,1.611328 l -0.0059,0.0044 -8.354004,8.355468 a 0.50005,0.50005 0 0 1 -0.0029,0.0044 c -0.940832,0.919003 -0.619475,2.457753 0.609375,2.925293 v 0.0015 c 6.162308,2.258509 12.413855,3.685741 18.254883,4.564453 1.737971,0.245061 3.373542,-0.846556 3.814453,-2.545899 a 0.50005,0.50005 0 0 1 0.0029,-0.0044 l 2.639648,-9.851074 c 0.38511,-1.491428 -0.618262,-2.964452 -2.14746,-3.149414 a 0.50005,0.50005 0 0 1 -0.0044,0 c -3.275504,-0.4268 -6.427672,-1.011311 -9.42334,-1.7417 a 0.50005,0.50005 0 0 1 -0.0044,-0.0015 c -0.376426,-0.09614 -0.761789,-0.155302 -1.149903,-0.172852 z"
           id="path27"
           inkscape:label="2" />
        <path
           style="color:#000000;fill:url(#radialGradient52);stroke-linecap:round;stroke-linejoin:round;-inkscape-stroke:none;paint-order:markers fill stroke"
           d="m 44.76416,26.876953 c -1.656272,0.04928 -3.104,1.166979 -3.553711,2.789063 l -2.648437,9.878906 a 0.50005,0.50005 0 0 1 -0.0015,0.0044 c -0.408462,1.479715 0.610812,2.946581 2.140137,3.079102 6.516649,0.518665 12.73439,0.466932 18.600586,0 1.529312,-0.132544 2.548573,-1.599388 2.140136,-3.079102 a 0.50005,0.50005 0 0 1 -0.0015,-0.0044 l -2.648437,-9.878906 c -0.479726,-1.730205 -2.095121,-2.886718 -3.887695,-2.784668 a 0.50005,0.50005 0 0 1 -0.0029,0 c -3.405687,0.165301 -6.66322,0.152324 -9.799805,0 a 0.50005,0.50005 0 0 1 -0.0029,0 c -0.112037,-0.0064 -0.223567,-0.0077 -0.333985,-0.0044 z"
           id="path29"
           inkscape:label="3" />
        <path
           style="color:#000000;fill:url(#radialGradient53);stroke-linecap:round;stroke-linejoin:round;-inkscape-stroke:none;paint-order:markers fill stroke"
           d="m 73.5,24.253418 c -0.388113,0.01755 -0.772171,0.07684 -1.148437,0.172852 a 0.50005,0.50005 0 0 1 -0.0059,0.0015 c -2.996153,0.730491 -6.147275,1.314916 -9.42334,1.7417 a 0.50005,0.50005 0 0 1 -0.0059,0 c -1.527813,0.184754 -2.531142,1.655071 -2.148926,3.145019 v 0.0015 0.0029 l 2.642578,9.851074 a 0.50005,0.50005 0 0 0 0,0.0015 0.50005,0.50005 0 0 0 0,0.0015 0.50005,0.50005 0 0 0 0,0.0015 c 0.441328,1.700623 2.080842,2.793145 3.820313,2.545899 5.835717,-0.877747 12.087577,-2.30506 18.253418,-4.564453 v -0.0015 c 1.228929,-0.467459 1.550312,-2.006333 0.609375,-2.925293 a 0.50005,0.50005 0 0 1 -0.0029,-0.0044 L 77.734863,25.869141 C 76.608353,24.767486 75.074011,24.181638 73.5,24.253418 Z"
           id="path28"
           inkscape:label="4" />
        <path
           style="color:#000000;fill:url(#radialGradient54);stroke-linecap:round;stroke-linejoin:round;-inkscape-stroke:none;paint-order:markers fill stroke"
           d="m 96.486328,12.581543 c -0.05273,0.0024 -0.105916,0.0079 -0.159668,0.01611 h -0.0029 c -0.32366,0.05055 -0.62108,0.209388 -0.84375,0.449707 a 0.50005,0.50005 0 0 1 -0.01758,0.01758 c -4.093991,4.003336 -9.514077,6.896435 -15.276855,9.001465 a 0.50005,0.50005 0 0 1 -0.0059,0.0015 c -1.182617,0.415169 -1.524382,1.873069 -0.648926,2.77002 l 8.24414,8.24414 a 0.50005,0.50005 0 0 1 0.0044,0.0059 c 1.32618,1.358413 3.365034,1.720928 5.078613,0.903808 0.795967,-0.391345 1.584994,-0.797243 2.368653,-1.221679 1.737524,-0.972865 2.800689,-2.816466 2.772949,-4.807618 a 0.50005,0.50005 0 0 1 0,-0.0073 V 13.962891 c -0.03868,-0.759919 -0.632397,-1.335743 -1.356446,-1.379883 -0.05172,-0.0031 -0.104004,-0.0039 -0.156738,-0.0015 z"
           id="path26"
           inkscape:label="5" />
      </g>
      <g
         id="g75"
         inkscape:label="top blobs"
         style="display:inline">
        <path
           style="color:#000000;fill:url(#linearGradient76);stroke-linecap:round;stroke-linejoin:round;-inkscape-stroke:none;paint-order:markers fill stroke"
           d="m 3.5141602,12.581543 c -0.053026,-0.0024 -0.1048766,-0.0016 -0.1567383,0.0015 -0.7260667,0.04357 -1.3214922,0.621576 -1.3579102,1.384277 v 3.588867 c 0,2.209137 1.4160318,5.103547 3.2768555,6.292969 1.9334753,1.235861 4.000523,2.367782 6.2138668,3.410156 2.497688,1.176285 6.181985,0.37531 8.134278,-1.577636 l 0.84375,-0.84375 c 0.875462,-0.896945 0.53516,-2.354857 -0.647461,-2.77002 -0.002,-4.77e-4 -0.0039,-9.3e-4 -0.0059,-0.0015 -5.752991,-2.10164 -11.1793796,-4.993317 -15.2783199,-9.001465 -0.006,-0.0057 -0.011865,-0.01157 -0.017578,-0.01758 -0.2230687,-0.24075 -0.51941,-0.399447 -0.84375,-0.449707 -0.053905,-0.0083 -0.1081074,-0.01376 -0.1611328,-0.01611 z"
           id="path65"
           inkscape:label="1" />
        <path
           style="color:#000000;fill:url(#linearGradient78);fill-opacity:1;stroke-linecap:round;stroke-linejoin:round;-inkscape-stroke:none;paint-order:markers fill stroke"
           d="m 26.500488,24.253418 c -1.57161,-0.07167 -3.102956,0.512914 -4.229004,1.611328 l -0.0059,0.0044 -0.571289,0.571289 c -1.952271,1.952967 -1.424537,4.291888 1.233398,5.039062 3.194477,0.898002 6.537171,1.629657 10.003418,2.188477 2.725938,0.439468 5.533042,-1.491313 6.247559,-4.158692 l 0.05127,-0.190429 c 0.38511,-1.491425 -0.618268,-2.964455 -2.14746,-3.149414 -0.0015,6e-6 -0.0029,6e-6 -0.0044,0 -3.275495,-0.4268 -6.427681,-1.011311 -9.42334,-1.7417 -0.0015,-4.81e-4 -0.0029,-9.33e-4 -0.0044,-0.0015 -0.376426,-0.09614 -0.761789,-0.155302 -1.149903,-0.172852 z"
           id="path73"
           inkscape:label="2" />
        <path
           style="color:#000000;fill:url(#linearGradient80);fill-opacity:1;stroke-linecap:round;stroke-linejoin:round;-inkscape-stroke:none;paint-order:markers fill stroke"
           d="m 44.76416,26.876953 c -1.656266,0.04928 -3.104,1.166982 -3.553711,2.789063 l -0.01172,0.04541 c -0.714906,2.667274 0.934578,5.04446 3.692872,5.170898 3.395042,0.155625 6.805518,0.156453 10.21875,0 2.758293,-0.126432 4.407777,-2.503624 3.692871,-5.170898 l -0.01172,-0.04541 c -0.479726,-1.730202 -2.095127,-2.886718 -3.887695,-2.784668 -9.77e-4,3e-6 -0.002,3e-6 -0.0029,0 -3.405678,0.165298 -6.663229,0.152324 -9.799805,0 -9.76e-4,3e-6 -0.002,3e-6 -0.0029,0 -0.112037,-0.0064 -0.223567,-0.0077 -0.333985,-0.0044 z"
           id="path75"
           inkscape:label="3" />
        <path
           style="color:#000000;fill:url(#linearGradient82);stroke-linecap:round;stroke-linejoin:round;-inkscape-stroke:none;paint-order:markers fill stroke"
           d="m 73.5,24.253418 c -0.388113,0.01755 -0.772174,0.07684 -1.148437,0.172852 -0.0019,5e-4 -0.0039,9.52e-4 -0.0059,0.0015 -2.996144,0.730491 -6.147284,1.314916 -9.42334,1.7417 -0.002,1.1e-5 -0.0039,1.1e-5 -0.0059,0 -1.52781,0.184751 -2.531139,1.655077 -2.148926,3.145019 v 0.0015 0.0029 l 0.05127,0.190429 c 0.715244,2.667185 3.523064,4.598029 6.249023,4.158692 3.467272,-0.558814 6.810993,-1.290305 10.006348,-2.188477 2.65795,-0.747115 3.184523,-3.086414 1.231933,-5.039062 l -0.571208,-0.57133 C 76.608352,24.767489 75.074005,24.181638 73.5,24.253418 Z"
           id="path74"
           inkscape:label="4" />
        <path
           style="color:#000000;fill:url(#linearGradient84);stroke-linecap:round;stroke-linejoin:round;-inkscape-stroke:none;paint-order:markers fill stroke"
           d="m 96.486328,12.581543 c -0.05273,0.0024 -0.105916,0.0079 -0.159668,0.01611 h -0.0029 c -0.323657,0.05055 -0.62108,0.209391 -0.84375,0.449707 -0.0057,0.006 -0.01157,0.01186 -0.01758,0.01758 -4.093979,4.003324 -9.514095,6.896441 -15.276855,9.001465 -0.0019,5e-4 -0.0039,9.53e-4 -0.0059,0.0015 -1.182614,0.415169 -1.524379,1.873072 -0.648926,2.77002 l 0.842285,0.842285 c 1.95262,1.95262 5.637654,2.754545 8.135742,1.579101 2.136725,-1.00541 4.214966,-2.131068 6.213867,-3.408691 1.860845,-1.189383 3.276856,-4.083832 3.276856,-6.292969 v -3.594726 c -0.03868,-0.759919 -0.632397,-1.335743 -1.356446,-1.379883 -0.05172,-0.0031 -0.104004,-0.0039 -0.156738,-0.0015 z"
           id="path72"
           inkscape:label="5" />
      </g>
    </g>
  </g>
</svg>
