<?xml version="1.0" encoding="UTF-8" standalone="no"?>
<!-- Created with Inkscape (http://www.inkscape.org/) -->

<svg
   width="100pt"
   height="45pt"
   viewBox="0 0 100 45"
   version="1.1"
   id="svg1"
   inkscape:version="1.3.2 (091e20e, 2023-11-25)"
   sodipodi:docname="tab-system-aero.svg"
   inkscape:export-filename="../images/tabs/unpressed.png"
   inkscape:export-xdpi="900"
   inkscape:export-ydpi="900"
   xmlns:inkscape="http://www.inkscape.org/namespaces/inkscape"
   xmlns:sodipodi="http://sodipodi.sourceforge.net/DTD/sodipodi-0.dtd"
   xmlns:xlink="http://www.w3.org/1999/xlink"
   xmlns="http://www.w3.org/2000/svg"
   xmlns:svg="http://www.w3.org/2000/svg">
  <sodipodi:namedview
     id="namedview1"
     pagecolor="#505050"
     bordercolor="#eeeeee"
     borderopacity="1"
     inkscape:showpageshadow="0"
     inkscape:pageopacity="0"
     inkscape:pagecheckerboard="0"
     inkscape:deskcolor="#d1d1d1"
     inkscape:document-units="pt"
     inkscape:zoom="4.3908199"
     inkscape:cx="62.289049"
     inkscape:cy="36.211915"
     inkscape:window-width="1440"
     inkscape:window-height="784"
     inkscape:window-x="0"
     inkscape:window-y="25"
     inkscape:window-maximized="1"
     inkscape:current-layer="layer1" />
  <defs
     id="defs1">
    <inkscape:path-effect
       effect="fillet_chamfer"
       id="path-effect60"
       is_visible="true"
       lpeversion="1"
       nodesatellites_param="F,0,0,1,0,0,0,1 @ F,0,0,1,0,4,0,1 @ F,0,0,1,0,0,0,1 @ F,0,0,1,0,4,0,1 @ F,0,0,1,0,0,0,1"
       radius="0"
       unit="px"
       method="auto"
       mode="F"
       chamfer_steps="1"
       flexible="false"
       use_knot_distance="true"
       apply_no_radius="true"
       apply_with_radius="true"
       only_selected="false"
       hide_knots="false" />
    <linearGradient
       id="linearGradient52"
       inkscape:collect="always"
       inkscape:label="top blob">
      <stop
         style="stop-color:#ffffff;stop-opacity:0.80000001;"
         offset="0"
         id="stop52" />
      <stop
         style="stop-color:#ffffff;stop-opacity:0.05;"
         offset="1"
         id="stop53" />
    </linearGradient>
    <linearGradient
       id="linearGradient48"
       inkscape:collect="always"
       inkscape:label="bottom blob">
      <stop
         style="stop-color:#ffffff;stop-opacity:0.80000001;"
         offset="0"
         id="stop47" />
      <stop
         style="stop-color:#ffffff;stop-opacity:0;"
         offset="1"
         id="stop48" />
    </linearGradient>
    <inkscape:path-effect
       effect="fillet_chamfer"
       id="path-effect27"
       is_visible="true"
       lpeversion="1"
       nodesatellites_param="F,0,0,1,0,0,0,1 @ F,0,0,1,0,0,0,1 @ F,0,0,1,0,0,0,1 @ F,0,0,1,0,4,0,1 @ F,0,0,1,0,4,0,1 @ F,0,0,1,0,0,0,1 @ F,0,0,1,0,0,0,1 @ F,0,0,1,0,0,0,1 @ F,0,0,1,0,0,0,1 @ F,0,0,1,0,0,0,1 @ F,0,0,1,0,0,0,1 @ F,0,0,1,0,0,0,1 | F,0,0,1,0,0,0,1 @ F,0,0,1,0,0,0,1 @ F,0,0,1,0,0,0,1 @ F,0,0,1,0,0,0,1 @ F,0,0,1,0,0,0,1 @ F,0,0,1,0,0,0,1 @ F,0,0,1,0,0,0,1 @ F,0,0,1,0,4,0,1 @ F,0,0,1,0,4,0,1 @ F,0,0,1,0,0,0,1 @ F,0,0,1,0,0,0,1 @ F,0,0,1,0,0,0,1 | F,0,0,1,0,0,0,1 @ F,0,0,1,0,0,0,1 @ F,0,0,1,0,0,0,1 @ F,0,0,1,0,0,0,1 @ F,0,0,1,0,0,0,1 @ F,0,0,1,0,0,0,1 @ F,0,0,1,0,5,0,1 @ F,0,0,1,0,5,0,1 @ F,0,0,1,0,0,0,1 @ F,0,0,1,0,0,0,1 | F,0,0,1,0,0,0,1 @ F,0,0,1,0,0,0,1 @ F,0,0,1,0,5,0,1 @ F,0,0,1,0,5,0,1 @ F,0,0,1,0,0,0,1 @ F,0,0,1,0,0,0,1 @ F,0,0,1,0,0,0,1 @ F,0,0,1,0,0,0,1 @ F,0,0,1,0,0,0,1 @ F,0,0,1,0,0,0,1"
       radius="0"
       unit="px"
       method="auto"
       mode="F"
       chamfer_steps="1"
       flexible="false"
       use_knot_distance="true"
       apply_no_radius="true"
       apply_with_radius="true"
       only_selected="false"
       hide_knots="false" />
    <inkscape:path-effect
       effect="fillet_chamfer"
       id="path-effect13"
       is_visible="true"
       lpeversion="1"
       nodesatellites_param="F,0,0,1,0,5.5,0,1 @ F,0,0,1,0,3.5,0,1 @ F,0,0,1,0,3.5,0,1 @ F,0,0,1,0,3.5,0,1 | F,0,0,1,0,5.5,0,1 @ F,0,0,1,0,3.5,0,1 @ F,0,0,1,0,3.5,0,1 @ F,0,0,1,0,3.5,0,1 | F,0,0,1,0,3.5,0,1 @ F,0,0,1,0,3.5,0,1 @ F,0,0,1,0,3.5,0,1 @ F,0,0,1,0,3.5,0,1 | F,0,0,1,0,3.5,0,1 @ F,0,0,1,0,3.5,0,1 @ F,0,0,1,0,3.5,0,1 @ F,0,0,1,0,3.5,0,1"
       radius="3.5"
       unit="pt"
       method="arc"
       mode="F"
       chamfer_steps="1"
       flexible="false"
       use_knot_distance="true"
       apply_no_radius="true"
       apply_with_radius="true"
       only_selected="false"
       hide_knots="false" />
    <inkscape:path-effect
       effect="fillet_chamfer"
       id="path-effect11"
       is_visible="true"
       lpeversion="1"
       nodesatellites_param="F,0,0,1,0,5.5,0,1 @ F,0,0,1,0,3.5,0,1 @ F,0,0,1,0,3.5,0,1 @ F,0,0,1,0,3.5,0,1 | F,0,0,1,0,5.5,0,1 @ F,0,0,1,0,3.5,0,1 @ F,0,0,1,0,3.5,0,1 @ F,0,0,1,0,3.5,0,1 | F,0,0,1,0,3.5,0,1 @ F,0,0,1,0,3.5,0,1 @ F,0,0,1,0,3.5,0,1 @ F,0,0,1,0,3.5,0,1 | F,0,0,1,0,3.5,0,1 @ F,0,0,1,0,3.5,0,1 @ F,0,0,1,0,3.5,0,1 @ F,0,0,1,0,3.5,0,1"
       radius="3.5"
       unit="pt"
       method="arc"
       mode="F"
       chamfer_steps="1"
       flexible="false"
       use_knot_distance="true"
       apply_no_radius="true"
       apply_with_radius="true"
       only_selected="false"
       hide_knots="false" />
    <radialGradient
       inkscape:collect="always"
       xlink:href="#linearGradient48"
       id="radialGradient41"
       cx="8.6270399"
       cy="33.058205"
       fx="8.6270399"
       fy="33.058205"
       r="9.4813204"
       gradientTransform="matrix(1.0514228,0,0,1.7110004,-0.59034999,-22.103317)"
       gradientUnits="userSpaceOnUse" />
    <radialGradient
       inkscape:collect="always"
       xlink:href="#linearGradient48"
       id="radialGradient43"
       cx="26.324905"
       cy="46.008755"
       fx="26.324905"
       fy="46.008755"
       r="12.987631"
       gradientTransform="matrix(1,0,0,1.3508607,0,-20.358056)"
       gradientUnits="userSpaceOnUse" />
    <radialGradient
       inkscape:collect="always"
       xlink:href="#linearGradient48"
       id="radialGradient44"
       cx="63.312885"
       cy="56.796421"
       fx="63.312885"
       fy="56.796421"
       r="24.099846"
       gradientTransform="matrix(1.155603,0,0,0.75127247,-9.85168,-0.31664913)"
       gradientUnits="userSpaceOnUse" />
    <radialGradient
       inkscape:collect="always"
       xlink:href="#linearGradient48"
       id="radialGradient45"
       cx="91.369316"
       cy="33.055511"
       fx="91.369316"
       fy="33.055511"
       r="9.4801483"
       gradientTransform="matrix(1.0528527,0,0,1.7109223,-4.6785126,-22.099162)"
       gradientUnits="userSpaceOnUse" />
    <linearGradient
       inkscape:collect="always"
       xlink:href="#linearGradient52"
       id="linearGradient55"
       x1="60.254665"
       y1="26.482592"
       x2="61.004665"
       y2="34.528919"
       gradientUnits="userSpaceOnUse" />
    <linearGradient
       inkscape:collect="always"
       xlink:href="#linearGradient52"
       id="linearGradient57"
       x1="35.018318"
       y1="25.877857"
       x2="32.931026"
       y2="33.66774"
       gradientUnits="userSpaceOnUse" />
    <linearGradient
       inkscape:collect="always"
       xlink:href="#linearGradient52"
       id="linearGradient59"
       x1="16.420963"
       y1="20.712505"
       x2="12.399735"
       y2="27.677475"
       gradientUnits="userSpaceOnUse" />
    <linearGradient
       inkscape:collect="always"
       xlink:href="#linearGradient52"
       id="linearGradient60"
       x1="83.57946"
       y1="20.712549"
       x2="87.600792"
       y2="27.6777"
       gradientUnits="userSpaceOnUse" />
  </defs>
  <g
     inkscape:label="Layer 1"
     inkscape:groupmode="layer"
     id="layer1">
    <path
       id="path2"
       style="color:#000000;display:none;fill:#ffffff;stroke-linecap:round;stroke-linejoin:round;-inkscape-stroke:none;paint-order:stroke fill markers"
       d="M 0,0 V 28.332031 C 0,30.54117 1.5075156,33.302376 3.4407579,34.370727 19.64974,43.328153 38.346903,45 49.999512,45 61.582973,45 80.314327,43.348091 96.559726,34.370693 98.49297,33.30236 100.00049,30.54117 100.00049,28.332031 V 0 Z"
       sodipodi:nodetypes="ccsccc"
       inkscape:label="background" />
    <path
       id="path3"
       style="color:#000000;display:none;fill:#000000;fill-opacity:1;stroke-linecap:round;stroke-linejoin:round;-inkscape-stroke:none;paint-order:stroke fill markers"
       d="m 0,0 v 32.332031 c 1.8789916,1.192497 3.7914268,2.279503 5.7011719,3.234375 C 18.388953,41.910298 33.490241,45 49.999512,45 c 16.509269,0 31.612023,-3.089702 44.299804,-9.433594 1.909603,-0.9548 3.822316,-2.041986 5.701174,-3.234375 V 0 A 50,25 0 0 1 49.999512,25.000488 50,25 0 0 1 0,0 Z"
       inkscape:label="tab swoop" />
    <g
       id="g15"
       inkscape:label="fills"
       style="display:none">
      <path
         style="color:#000000;fill:#6e544b;fill-opacity:1;stroke-linecap:round;stroke-linejoin:round;-inkscape-stroke:none;paint-order:fill markers stroke"
         d="m 1.5,14.142578 v 13.817871 a 5.9903568,5.9903568 60.289899 0 0 3.0130244,5.280231 c 0.7502557,0.416114 1.5236431,0.821166 2.3796953,1.240603 A 4.9413759,4.9413759 169.8285 0 0 12.548604,33.466532 L 20.82786,25.187276 A 2.1874076,2.1874076 76.803154 0 0 19.985826,21.596355 C 14.343924,19.535488 9.0406648,16.712367 5.0301717,12.845957 A 2.0431349,2.0431349 159.83187 0 0 1.5,14.142578 Z"
         id="path5"
         inkscape:label="1" />
      <path
         style="color:#000000;fill:#6e544b;fill-opacity:1;stroke-linecap:round;stroke-linejoin:round;-inkscape-stroke:none;paint-order:fill markers stroke"
         d="m 21.917704,25.511007 -8.384725,8.384724 a 2.2754069,2.2754069 78.21743 0 0 0.78294,3.753425 c 5.739473,2.109752 11.890603,3.64007 18.372674,4.605158 a 3.9519016,3.9519016 146.26795 0 0 4.375538,-2.921659 l 2.650058,-9.889431 a 3.0327267,3.0327267 55.685446 0 0 -2.572295,-3.768786 c -3.258144,-0.424537 -6.391612,-1.007496 -9.368651,-1.73334 a 6.1840424,6.1840424 164.99158 0 0 -5.855539,1.569909 z"
         id="path14"
         inkscape:label="2" />
      <path
         style="color:#000000;fill:#6e544b;fill-opacity:1;stroke-linecap:round;stroke-linejoin:round;-inkscape-stroke:none;paint-order:fill markers stroke"
         d="m 72.227541,23.942251 c -9.795066,2.393542 -19.454976,2.798213 -27.102748,2.436009 a 4.3136751,4.3136751 144.35305 0 0 -4.398317,3.15434 l -2.656077,9.912827 a 2.9290328,2.9290328 55.103617 0 0 2.579585,3.698245 c 10.220417,0.776315 27.904847,0.799654 45.034648,-5.494758 a 2.2751737,2.2751737 101.78239 0 0 0.782877,-3.753183 l -8.384725,-8.384724 a 6.1806043,6.1806043 14.998611 0 0 -5.855243,-1.568756 z"
         id="path15"
         inkscape:label="3" />
      <path
         style="color:#000000;fill:#6e544b;fill-opacity:1;stroke-linecap:round;stroke-linejoin:round;-inkscape-stroke:none;paint-order:fill markers stroke"
         d="m 94.970273,12.845934 c -4.005661,3.861782 -9.304264,6.686073 -14.955623,8.750404 a 2.1874171,2.1874171 103.1966 0 0 -0.842022,3.590938 l 8.277791,8.277791 a 4.9425678,4.9425678 10.167747 0 0 5.655195,1.014244 c 0.891311,-0.43612 1.668975,-0.843521 2.3824,-1.23781 a 5.9831759,5.9831759 119.70176 0 0 3.012474,-5.281052 V 14.142578 a 2.0431594,2.0431594 20.168234 0 0 -3.530215,-1.296644 z"
         id="path13"
         inkscape:label="4" />
    </g>
    <g
       id="g60"
       inkscape:label="export"
       style="display:inline">
      <g
         id="g21"
         inkscape:label="strokes"
         style="display:inline;fill:none;stroke:none;stroke-width:0;stroke-dasharray:none">
        <path
           style="color:#000000;fill:#000000;stroke:none;stroke-width:0;stroke-linecap:round;stroke-linejoin:round;stroke-dasharray:none;paint-order:fill markers stroke;fill-opacity:0.25"
           d="M 4.0107422,12.256348 A 2.0431349,2.0431349 0 0 0 1.5,14.143066 v 13.817872 a 5.9903568,5.9903568 0 0 0 3.0131836,5.279296 c 0.7502549,0.416114 1.5228549,0.821286 2.3789062,1.240723 A 4.9413759,4.9413759 0 0 0 12.549316,33.46582 l 8.277832,-8.277832 a 2.1874076,2.1874076 0 0 0 -0.84082,-3.591797 C 14.344432,19.535326 9.0407625,16.713086 5.0302734,12.84668 A 2.0431349,2.0431349 0 0 0 4.0107422,12.256348 Z m -0.5800781,0.443847 c 0.1439267,-0.01243 0.2891891,-0.0048 0.4321289,0.0249 0.2858795,0.05932 0.5628195,0.207337 0.8027343,0.46289 a 0.50005,0.50005 0 0 0 0.017578,0.01758 c 4.0814912,3.934857 9.4465667,6.784132 15.1318357,8.86084 a 0.50005,0.50005 0 0 0 0.0059,0.0015 c 1.18232,0.414883 1.525036,1.872801 0.65039,2.77002 l -8.276367,8.274902 a 0.50005,0.50005 0 0 0 -0.0029,0.0044 C 10.865183,34.47782 8.8243939,34.844334 7.1074219,34.029785 6.2636414,33.616226 5.5015654,33.216586 4.762207,32.806641 l -0.00293,-0.0015 C 3.0284379,31.812879 1.9722507,29.961829 1.9995117,27.966797 a 0.50005,0.50005 0 0 0 0,-0.0015 0.50005,0.50005 0 0 0 0,-0.0015 0.50005,0.50005 0 0 0 0,-0.0015 0.50005,0.50005 0 0 0 0,-0.0015 V 14.167969 C 2.0344397,13.467791 2.46004,12.996426 3.0073242,12.79541 3.1441453,12.74516 3.2867373,12.71262 3.4306641,12.7002 Z"
           id="path18"
           inkscape:label="1" />
        <path
           style="color:#000000;fill:#000000;stroke:none;stroke-width:0;stroke-linecap:round;stroke-linejoin:round;stroke-dasharray:none;paint-order:fill markers stroke;fill-opacity:0.25"
           d="m 25.678711,23.774414 a 6.1840424,6.1840424 0 0 0 -3.761719,1.737305 l -8.383301,8.383301 a 2.2754069,2.2754069 0 0 0 0.782227,3.754394 c 5.739467,2.10975 11.890006,3.640382 18.37207,4.605469 a 3.9519016,3.9519016 0 0 0 4.375489,-2.922363 l 2.651367,-9.889161 a 3.0327267,3.0327267 0 0 0 -2.572266,-3.769043 c -3.258141,-0.424536 -6.392104,-1.007066 -9.36914,-1.73291 a 6.1840424,6.1840424 0 0 0 -2.094727,-0.166992 z m 0.51709,0.474609 c 0.483721,-0.0038 0.972222,0.05428 1.453125,0.177247 a 0.50005,0.50005 0 0 0 0.0059,0.0015 c 2.99562,0.730375 6.147778,1.314893 9.42334,1.7417 a 0.50005,0.50005 0 0 0 0.0044,0 c 1.529105,0.184955 2.532433,1.65805 2.14746,3.149414 l -2.648437,9.884765 a 0.50005,0.50005 0 0 0 -0.0015,0.0029 C 36.13909,40.907518 34.501174,42.002298 32.76123,41.759766 26.311913,40.799511 20.197372,39.277896 14.494629,37.182129 13.264784,36.714738 12.941899,35.174 13.882324,34.253906 a 0.50005,0.50005 0 0 0 0.0044,-0.0044 l 8.380371,-8.380371 c 1.064675,-1.041134 2.477549,-1.608694 3.928711,-1.620118 z"
           id="path20"
           inkscape:label="2" />
        <path
           style="color:#000000;fill:#000000;stroke:none;stroke-width:0;stroke-linecap:round;stroke-linejoin:round;stroke-dasharray:none;paint-order:fill markers stroke;fill-opacity:0.25"
           d="m 74.321777,23.774414 a 6.1806043,6.1806043 0 0 0 -2.094726,0.168457 c -9.795056,2.39354 -19.454775,2.798239 -27.102539,2.436035 a 4.3136751,4.3136751 0 0 0 -4.397461,3.153809 l -2.657227,9.912598 a 2.9290328,2.9290328 0 0 0 2.57959,3.69873 c 10.220407,0.776314 27.905372,0.799777 45.035156,-5.494629 a 2.2751737,2.2751737 0 0 0 0.782227,-3.754394 l -8.383301,-8.383301 a 6.1806043,6.1806043 0 0 0 -3.761719,-1.737305 z m -0.517089,0.473145 c 1.451166,0.01131 2.862744,0.580433 3.927246,1.621582 l 8.381836,8.380371 a 0.50005,0.50005 0 0 0 0.0029,0.0044 c 0.940428,0.919984 0.620426,2.460927 -0.609375,2.928223 -17.021655,6.253636 -34.637984,6.235155 -44.8154,5.462396 -1.526455,-0.127525 -2.546258,-1.589368 -2.138672,-3.065918 a 0.50005,0.50005 0 0 0 0,-0.0015 0.50005,0.50005 0 0 0 0,-0.0015 0.50005,0.50005 0 0 0 0,-0.0015 l 2.655761,-9.908203 c 0.479965,-1.731033 2.095637,-2.889618 3.889161,-2.789063 a 0.50005,0.50005 0 0 0 0.0029,0 c 7.68521,0.363978 17.38857,-0.04077 27.244629,-2.449219 a 0.50005,0.50005 0 0 0 0.0059,-0.0015 c 0.480814,-0.12316 0.969402,-0.182481 1.453125,-0.178711 z"
           id="path21"
           inkscape:label="3" />
        <path
           style="color:#000000;fill:#000000;stroke:none;stroke-width:0;stroke-linecap:round;stroke-linejoin:round;stroke-dasharray:none;paint-order:fill markers stroke;fill-opacity:0.25"
           d="m 95.989746,12.256348 a 2.0431594,2.0431594 0 0 0 -1.019531,0.588867 c -4.005657,3.861778 -9.304701,6.686647 -14.956055,8.750976 a 2.1874171,2.1874171 0 0 0 -0.84082,3.591797 l 8.276367,8.276367 a 4.9425678,4.9425678 0 0 0 5.655762,1.015137 c 0.89131,-0.436119 1.668411,-0.843504 2.381836,-1.237793 a 5.9831759,5.9831759 0 0 0 3.013183,-5.280761 V 14.143066 a 2.0431594,2.0431594 0 0 0 -2.510742,-1.886718 z m 0.580078,0.443847 c 0.143437,0.01243 0.285052,0.04496 0.421875,0.09521 0.545472,0.200351 0.970404,0.670366 1.007813,1.366699 v 13.798829 a 0.50005,0.50005 0 0 0 0,0.0059 c 0.02907,1.996302 -1.026608,3.848768 -2.759766,4.839844 -0.703918,0.388933 -1.469442,0.78946 -2.349609,1.220214 -1.716804,0.814045 -3.754636,0.448793 -5.081543,-0.911132 a 0.50005,0.50005 0 0 0 -0.0044,-0.0044 l -8.273437,-8.273437 c -0.874652,-0.89722 -0.533396,-2.355129 0.648926,-2.77002 a 0.50005,0.50005 0 0 0 0.0059,-0.0015 C 85.88034,19.98621 91.239349,17.13571 95.315918,13.205566 a 0.50005,0.50005 0 0 0 0.01758,-0.01758 c 0.23992,-0.255558 0.519779,-0.403569 0.805664,-0.46289 0.142943,-0.02966 0.287227,-0.03733 0.430664,-0.0249 z"
           id="path19"
           inkscape:label="4" />
      </g>
      <g
         id="g27"
         inkscape:label="bottom blobs"
         style="display:inline">
        <path
           style="color:#000000;display:inline;fill:url(#radialGradient41);stroke-linecap:round;stroke-linejoin:round;-inkscape-stroke:none;paint-order:fill markers stroke"
           d="m 3.4306641,12.700195 c -0.1439268,0.01243 -0.2865188,0.04496 -0.4233399,0.09521 -0.5472842,0.201016 -0.9728845,0.672381 -1.0078125,1.372559 v 13.792969 a 0.50005,0.50005 0 0 0 0,0.0015 0.50005,0.50005 0 0 0 0,0.0015 0.50005,0.50005 0 0 0 0,0.0015 0.50005,0.50005 0 0 0 0,0.0015 c -0.027261,1.995032 1.0289263,3.846082 2.7597656,4.838379 l 0.00293,0.0015 c 0.7393582,0.409945 1.5014344,0.809585 2.3452149,1.223144 1.7169719,0.814549 3.7577608,0.448035 5.0844728,-0.912597 a 0.50005,0.50005 0 0 1 0.0029,-0.0044 l 8.276367,-8.274902 c 0.874646,-0.897219 0.53193,-2.355137 -0.65039,-2.77002 a 0.50005,0.50005 0 0 1 -0.0059,-0.0015 C 14.129672,19.989698 8.7645966,17.140423 4.6831055,13.205566 a 0.50005,0.50005 0 0 1 -0.017578,-0.01758 C 4.4256125,12.932435 4.1486725,12.784418 3.862793,12.725098 3.7198532,12.695437 3.5745908,12.687766 3.4306641,12.700195 Z"
           id="path17"
           inkscape:label="1" />
        <path
           style="color:#000000;display:inline;fill:url(#radialGradient43);stroke-linecap:round;stroke-linejoin:round;-inkscape-stroke:none;paint-order:fill markers stroke"
           d="m 26.195801,24.249059 c -1.451163,0.01142 -2.864036,0.578984 -3.928711,1.620118 l -8.380371,8.380371 a 0.50005,0.50005 0 0 1 -0.0044,0.0044 c -0.940425,0.920094 -0.61754,2.460832 0.612305,2.928223 5.702743,2.095766 11.817284,3.617382 18.266601,4.577637 1.739944,0.242532 3.37786,-0.852248 3.818848,-2.553223 a 0.50005,0.50005 0 0 1 0.0015,-0.0029 L 39.23001,29.31892 c 0.384973,-1.491364 -0.618355,-2.964459 -2.14746,-3.149414 a 0.50005,0.50005 0 0 1 -0.0044,0 c -3.275562,-0.426807 -6.42772,-1.011324 -9.42334,-1.7417 a 0.50005,0.50005 0 0 1 -0.0059,-0.0015 c -0.480904,-0.122963 -0.969404,-0.181055 -1.453125,-0.177247 z"
           id="path27"
           inkscape:label="2" />
        <path
           style="color:#000000;display:inline;fill:url(#radialGradient44);stroke-linecap:round;stroke-linejoin:round;-inkscape-stroke:none;paint-order:fill markers stroke"
           d="m 73.804688,24.247559 c -0.483723,-0.0038 -0.972312,0.05555 -1.453125,0.178711 a 0.50005,0.50005 0 0 1 -0.0059,0.0015 c -9.85606,2.408447 -19.559419,2.813197 -27.244629,2.449219 a 0.50005,0.50005 0 0 1 -0.0029,0 c -1.793525,-0.100556 -3.409196,1.058029 -3.889161,2.789063 l -2.655761,9.908203 a 0.50005,0.50005 0 0 0 0,0.0015 0.50005,0.50005 0 0 0 0,0.0015 0.50005,0.50005 0 0 0 0,0.0015 c -0.407586,1.47655 0.612217,2.938392 2.138672,3.065918 10.177416,0.772759 27.793745,0.79124 44.815429,-5.462402 1.229801,-0.467296 1.549803,-2.008239 0.609375,-2.928223 a 0.50005,0.50005 0 0 1 -0.0029,-0.0044 l -8.381836,-8.380371 c -1.064502,-1.041149 -2.47608,-1.610274 -3.927246,-1.621582 z"
           id="path26"
           inkscape:label="3" />
        <path
           style="color:#000000;display:inline;fill:url(#radialGradient45);stroke-linecap:round;stroke-linejoin:round;-inkscape-stroke:none;paint-order:fill markers stroke"
           d="m 96.569824,12.700195 c -0.143437,-0.01243 -0.287721,-0.0048 -0.430664,0.0249 -0.285885,0.05932 -0.565744,0.207332 -0.805664,0.46289 a 0.50005,0.50005 0 0 1 -0.01758,0.01758 c -4.07657,3.930144 -9.435577,6.780644 -15.130371,8.86084 a 0.50005,0.50005 0 0 1 -0.0059,0.0015 c -1.182322,0.414891 -1.523578,1.8728 -0.648926,2.77002 l 8.273437,8.273437 a 0.50005,0.50005 0 0 1 0.0044,0.0044 c 1.326907,1.359925 3.364739,1.725176 5.081543,0.911132 0.880168,-0.430755 1.645691,-0.831281 2.349609,-1.220214 1.733157,-0.991076 2.788836,-2.843542 2.759766,-4.839844 a 0.50005,0.50005 0 0 1 0,-0.0059 V 14.162109 C 97.962064,13.465776 97.537133,12.995761 96.991661,12.79541 96.854838,12.74516 96.713223,12.71262 96.569786,12.7002 Z"
           id="path25"
           inkscape:label="4" />
      </g>
      <g
         id="g30"
         inkscape:label="top blobs"
         style="display:inline;fill:none">
        <path
           style="color:#000000;display:inline;fill:url(#linearGradient59);stroke-linecap:round;stroke-linejoin:round;-inkscape-stroke:none;paint-order:fill markers stroke"
           d="m 3.4306641,12.700195 c -0.1439267,0.01243 -0.2865189,0.04496 -0.4233399,0.09521 -0.5472836,0.201016 -0.9728845,0.672381 -1.0078125,1.372559 V 17.5581 c 0,2.209139 1.4160403,5.10246 3.2769918,6.291684 2.1977839,1.404474 4.5651406,2.672754 7.1232315,3.827691 2.013172,0.908915 4.958116,0.272711 6.520474,-1.289125 l 1.550982,-1.550464 c 0.874646,-0.897218 0.531929,-2.355137 -0.65039,-2.77002 -0.002,-4.88e-4 -0.0039,-9.88e-4 -0.0059,-0.0015 -5.685154,-2.076797 -11.0503085,-4.925947 -15.1317955,-8.8608 -0.006,-0.0057 -0.011865,-0.01157 -0.017578,-0.01758 -0.2399147,-0.25555 -0.5168551,-0.40357 -0.8027343,-0.46289 -0.1429397,-0.02966 -0.2882024,-0.03733 -0.4321289,-0.0249 z"
           id="path22"
           inkscape:label="1" />
        <path
           style="color:#000000;display:inline;fill:url(#linearGradient57);stroke-linecap:round;stroke-linejoin:round;-inkscape-stroke:none;paint-order:fill markers stroke"
           d="m 26.195801,24.249059 c -1.451162,0.01142 -2.864037,0.578985 -3.928711,1.620118 l -0.571888,0.571888 c -1.952622,1.952622 -1.425435,4.290838 1.232499,5.038026 3.19449,0.898023 6.537043,1.629839 10.003326,2.188649 2.725942,0.439457 5.533459,-1.491177 6.247977,-4.158558 l 0.05098,-0.190298 c 0.384973,-1.491363 -0.618357,-2.96446 -2.14746,-3.149414 -0.0015,6e-6 -0.0029,6e-6 -0.0044,0 -3.275559,-0.426807 -6.427723,-1.011324 -9.42334,-1.7417 -0.002,-4.88e-4 -0.0039,-9.88e-4 -0.0059,-0.0015 -0.480904,-0.122963 -0.969405,-0.181055 -1.453125,-0.177247 z"
           id="path30"
           inkscape:label="2" />
        <path
           style="color:#000000;display:inline;fill:url(#linearGradient55);stroke-linecap:round;stroke-linejoin:round;-inkscape-stroke:none;paint-order:fill markers stroke"
           d="m 73.804688,24.247559 c -0.483723,-0.0038 -0.972313,0.05555 -1.453125,0.178711 -0.002,5.12e-4 -0.0039,0.001 -0.0059,0.0015 -9.85605,2.408445 -19.559426,2.813197 -27.244629,2.449219 -9.67e-4,3e-6 -0.0019,3e-6 -0.0029,0 -1.793524,-0.100556 -3.409196,1.05803 -3.889161,2.789063 l -0.01219,0.04547 c -0.714907,2.667277 0.935375,5.042163 3.693789,5.165798 8.219581,0.368413 20.088991,0.0067 32.181147,-3.39713 2.657643,-0.748095 3.184709,-3.086501 1.232088,-5.039122 L 77.731919,25.86918 c -1.064501,-1.041148 -2.476082,-1.610274 -3.927246,-1.621582 z"
           id="path29"
           inkscape:label="3" />
        <path
           style="color:#000000;display:inline;fill:url(#linearGradient60);stroke-linecap:round;stroke-linejoin:round;-inkscape-stroke:none;paint-order:fill markers stroke"
           d="m 96.569824,12.700195 c -0.143437,-0.01243 -0.287721,-0.0048 -0.430664,0.0249 -0.285885,0.05932 -0.565744,0.207333 -0.805664,0.46289 -0.0057,0.006 -0.01157,0.01187 -0.01758,0.01758 -4.076566,3.93014 -9.435583,6.780646 -15.130371,8.86084 -0.002,5.12e-4 -0.0039,0.001 -0.0059,0.0015 -1.182321,0.414891 -1.523577,1.872801 -0.648926,2.77002 l 1.549991,1.549991 c 1.562097,1.562097 4.506889,2.198659 6.520079,1.289784 2.456735,-1.109118 4.840738,-2.369868 7.121747,-3.827797 1.86085,-1.18938 3.276933,-4.082625 3.276933,-6.291764 v -3.395996 c -0.03741,-0.696332 -0.462341,-1.166348 -1.007813,-1.366699 -0.136823,-0.05025 -0.278438,-0.0828 -0.421875,-0.09521 z"
           id="path28"
           inkscape:label="4" />
      </g>
    </g>
  </g>
</svg>
