<?xml version="1.0" encoding="UTF-8" standalone="no"?>
<!-- Created with Inkscape (http://www.inkscape.org/) -->

<svg
   width="100pt"
   height="45pt"
   viewBox="0 0 100 45"
   version="1.1"
   id="svg1"
   inkscape:export-filename="tabs.svg"
   inkscape:export-xdpi="900"
   inkscape:export-ydpi="900"
   inkscape:version="1.3.2 (091e20e, 2023-11-25)"
   sodipodi:docname="tab-system.svg"
   xmlns:inkscape="http://www.inkscape.org/namespaces/inkscape"
   xmlns:sodipodi="http://sodipodi.sourceforge.net/DTD/sodipodi-0.dtd"
   xmlns="http://www.w3.org/2000/svg"
   xmlns:svg="http://www.w3.org/2000/svg">
  <sodipodi:namedview
     id="namedview1"
     pagecolor="#505050"
     bordercolor="#eeeeee"
     borderopacity="1"
     inkscape:showpageshadow="0"
     inkscape:pageopacity="0"
     inkscape:pagecheckerboard="0"
     inkscape:deskcolor="#d1d1d1"
     inkscape:document-units="pt"
     showguides="true"
     inkscape:zoom="5.3170836"
     inkscape:cx="67.612253"
     inkscape:cy="36.768276"
     inkscape:window-width="1440"
     inkscape:window-height="785"
     inkscape:window-x="0"
     inkscape:window-y="25"
     inkscape:window-maximized="1"
     inkscape:current-layer="layer1" />
  <defs
     id="defs1">
    <inkscape:path-effect
       effect="fillet_chamfer"
       id="path-effect5"
       is_visible="true"
       lpeversion="1"
       nodesatellites_param="F,0,0,1,0,4,0,1 @ F,0,0,1,0,4,0,1 @ F,0,0,1,0,4,0,1 @ F,0,0,1,0,4,0,1 @ F,0,0,1,0,4,0,1 @ F,0,0,1,0,4,0,1"
       radius="4"
       unit="pt"
       method="arc"
       mode="F"
       chamfer_steps="1"
       flexible="false"
       use_knot_distance="true"
       apply_no_radius="true"
       apply_with_radius="true"
       only_selected="false"
       hide_knots="false" />
    <inkscape:path-effect
       effect="fillet_chamfer"
       id="path-effect4"
       is_visible="true"
       lpeversion="1"
       nodesatellites_param="F,0,0,1,0,4,0,1 @ F,0,0,1,0,4,0,1 @ F,0,0,1,0,4,0,1 @ F,0,0,1,0,4,0,1 @ F,0,0,1,0,4,0,1 @ F,0,0,1,0,4,0,1"
       radius="4"
       unit="pt"
       method="auto"
       mode="F"
       chamfer_steps="1"
       flexible="false"
       use_knot_distance="true"
       apply_no_radius="true"
       apply_with_radius="true"
       only_selected="false"
       hide_knots="false" />
    <inkscape:path-effect
       effect="fillet_chamfer"
       id="path-effect39"
       is_visible="true"
       lpeversion="1"
       nodesatellites_param="F,0,1,1,0,5.209574,0,1 @ F,0,0,1,0,3.5,0,1 @ F,0,0,1,0,3.5,0,1 @ F,0,0,1,0,3.5,0,1 | F,0,0,1,0,5.209574,0,1 @ F,0,0,1,0,3.5,0,1 @ F,0,0,1,0,3.5,0,1 @ F,0,0,1,0,3.5,0,1 | F,0,0,1,0,3.5,0,1 @ F,0,0,1,0,3.5,0,1 @ F,0,0,1,0,3.5,0,1 @ F,0,0,1,0,3.5,0,1 | F,0,0,1,0,3.5,0,1 @ F,0,0,1,0,3.5,0,1 @ F,0,0,1,0,3.5,0,1 @ F,0,0,1,0,3.5,0,1 | F,0,0,1,0,3.5,0,1 @ F,0,0,1,0,3.5,0,1 @ F,0,0,1,0,3.5,0,1 @ F,0,0,1,0,3.5,0,1"
       radius="3.5"
       unit="pt"
       method="arc"
       mode="F"
       chamfer_steps="1"
       flexible="false"
       use_knot_distance="true"
       apply_no_radius="true"
       apply_with_radius="true"
       only_selected="false"
       hide_knots="false" />
    <inkscape:path-effect
       effect="fillet_chamfer"
       id="path-effect37"
       is_visible="true"
       lpeversion="1"
       nodesatellites_param="F,0,0,1,0,3.5,0,1 @ F,0,0,1,0,3.5,0,1 @ F,0,0,1,0,3.5,0,1 @ F,0,0,1,0,3.5,0,1 | F,0,0,1,0,3.5,0,1 @ F,0,0,1,0,3.5,0,1 @ F,0,0,1,0,3.5,0,1 @ F,0,0,1,0,3.5,0,1 | F,0,0,1,0,3.5,0,1 @ F,0,0,1,0,3.5,0,1 @ F,0,0,1,0,3.5,0,1 @ F,0,0,1,0,3.5,0,1 | F,0,0,1,0,3.5,0,1 @ F,0,0,1,0,3.5,0,1 @ F,0,0,1,0,3.5,0,1 @ F,0,0,1,0,3.5,0,1 | F,0,0,1,0,3.5,0,1 @ F,0,0,1,0,3.5,0,1 @ F,0,0,1,0,3.5,0,1 @ F,0,0,1,0,3.5,0,1"
       radius="3.5"
       unit="pt"
       method="arc"
       mode="F"
       chamfer_steps="1"
       flexible="false"
       use_knot_distance="true"
       apply_no_radius="true"
       apply_with_radius="true"
       only_selected="false"
       hide_knots="false" />
    <inkscape:path-effect
       effect="fillet_chamfer"
       id="path-effect35"
       is_visible="true"
       lpeversion="1"
       nodesatellites_param="F,0,0,1,0,3.5,0,1 @ F,0,0,1,0,3.5,0,1 @ F,0,0,1,0,3.5,0,1 @ F,0,0,1,0,3.5,0,1 | F,0,0,1,0,3.5,0,1 @ F,0,0,1,0,3.5,0,1 @ F,0,0,1,0,3.5,0,1 @ F,0,0,1,0,3.5,0,1 | F,0,0,1,0,3.5,0,1 @ F,0,0,1,0,3.5,0,1 @ F,0,0,1,0,3.5,0,1 @ F,0,0,1,0,3.5,0,1 | F,0,0,1,0,3.5,0,1 @ F,0,0,1,0,3.5,0,1 @ F,0,0,1,0,3.5,0,1 @ F,0,0,1,0,3.5,0,1 | F,0,0,1,0,3.5,0,1 @ F,0,0,1,0,3.5,0,1 @ F,0,0,1,0,3.5,0,1 @ F,0,0,1,0,3.5,0,1"
       radius="3.5"
       unit="pt"
       method="arc"
       mode="F"
       chamfer_steps="1"
       flexible="false"
       use_knot_distance="true"
       apply_no_radius="true"
       apply_with_radius="true"
       only_selected="false"
       hide_knots="false" />
    <inkscape:path-effect
       effect="fillet_chamfer"
       id="path-effect34"
       is_visible="true"
       lpeversion="1"
       nodesatellites_param="F,0,0,1,0,4.5,0,1 @ F,0,0,1,0,4.5,0,1 @ F,0,0,1,0,4.5,0,1 @ F,0,0,1,0,4.5,0,1 @ F,0,0,1,0,4.5,0,1"
       radius="4"
       unit="pt"
       method="arc"
       mode="F"
       chamfer_steps="1"
       flexible="false"
       use_knot_distance="true"
       apply_no_radius="true"
       apply_with_radius="true"
       only_selected="false"
       hide_knots="false" />
    <inkscape:path-effect
       effect="fillet_chamfer"
       id="path-effect32"
       is_visible="true"
       lpeversion="1"
       nodesatellites_param="F,0,0,1,0,4.5,0,1 @ F,0,0,1,0,4.5,0,1 @ F,0,0,1,0,4.5,0,1 @ F,0,0,1,0,4.5,0,1 @ F,0,0,1,0,4.5,0,1"
       radius="4"
       unit="pt"
       method="arc"
       mode="F"
       chamfer_steps="1"
       flexible="false"
       use_knot_distance="true"
       apply_no_radius="true"
       apply_with_radius="true"
       only_selected="false"
       hide_knots="false" />
    <inkscape:path-effect
       effect="fillet_chamfer"
       id="path-effect31"
       is_visible="true"
       lpeversion="1"
       nodesatellites_param="F,0,0,1,0,4,0,1 @ F,0,0,1,0,4,0,1 @ F,0,0,1,0,4,0,1 @ F,0,0,1,0,4,0,1 @ F,0,0,1,0,4,0,1 @ F,0,0,1,0,4,0,1 @ F,0,0,1,0,4,0,1 @ F,0,0,1,0,4,0,1 @ F,0,0,1,0,4,0,1"
       radius="4"
       unit="pt"
       method="arc"
       mode="F"
       chamfer_steps="1"
       flexible="false"
       use_knot_distance="true"
       apply_no_radius="true"
       apply_with_radius="true"
       only_selected="false"
       hide_knots="false" />
    <inkscape:path-effect
       effect="fillet_chamfer"
       id="path-effect30"
       is_visible="true"
       lpeversion="1"
       nodesatellites_param="F,0,1,1,0,5.2286798,0,1 @ F,0,0,1,0,3.5,0,1 @ F,0,0,1,0,3.5,0,1 @ F,0,0,1,0,3.5,0,1"
       radius="3.5"
       unit="pt"
       method="arc"
       mode="F"
       chamfer_steps="1"
       flexible="false"
       use_knot_distance="true"
       apply_no_radius="true"
       apply_with_radius="true"
       only_selected="false"
       hide_knots="false" />
    <inkscape:path-effect
       effect="fillet_chamfer"
       id="path-effect28"
       is_visible="true"
       lpeversion="1"
       nodesatellites_param="F,0,1,1,0,5.2286798,0,1 @ F,0,0,1,0,3.5,0,1 @ F,0,0,1,0,3.5,0,1 @ F,0,0,1,0,3.5,0,1"
       radius="3.5"
       unit="pt"
       method="arc"
       mode="F"
       chamfer_steps="1"
       flexible="false"
       use_knot_distance="true"
       apply_no_radius="true"
       apply_with_radius="true"
       only_selected="false"
       hide_knots="false" />
    <inkscape:path-effect
       effect="fillet_chamfer"
       id="path-effect26"
       is_visible="true"
       lpeversion="1"
       nodesatellites_param="F,0,1,1,0,5.2286798,0,1 @ F,0,0,1,0,3.5,0,1 @ F,0,0,1,0,3.5,0,1 @ F,0,0,1,0,3.5,0,1"
       radius="3.5"
       unit="pt"
       method="arc"
       mode="F"
       chamfer_steps="1"
       flexible="false"
       use_knot_distance="true"
       apply_no_radius="true"
       apply_with_radius="true"
       only_selected="false"
       hide_knots="false" />
    <inkscape:path-effect
       effect="fillet_chamfer"
       id="path-effect24"
       is_visible="true"
       lpeversion="1"
       nodesatellites_param="F,0,1,1,0,5.2286798,0,1 @ F,0,0,1,0,3.5,0,1 @ F,0,0,1,0,3.5,0,1 @ F,0,0,1,0,3.5,0,1"
       radius="3.5"
       unit="pt"
       method="arc"
       mode="F"
       chamfer_steps="1"
       flexible="false"
       use_knot_distance="true"
       apply_no_radius="true"
       apply_with_radius="true"
       only_selected="false"
       hide_knots="false" />
    <inkscape:path-effect
       effect="fillet_chamfer"
       id="path-effect22"
       is_visible="true"
       lpeversion="1"
       nodesatellites_param="F,0,1,1,0,5.2286798,0,1 @ F,0,0,1,0,3.5,0,1 @ F,0,0,1,0,3.5,0,1 @ F,0,0,1,0,3.5,0,1"
       radius="3.5"
       unit="pt"
       method="arc"
       mode="F"
       chamfer_steps="1"
       flexible="false"
       use_knot_distance="true"
       apply_no_radius="true"
       apply_with_radius="true"
       only_selected="false"
       hide_knots="false" />
    <inkscape:path-effect
       effect="fillet_chamfer"
       id="path-effect20"
       is_visible="true"
       lpeversion="1"
       nodesatellites_param="F,0,1,1,0,5.2286798,0,1 @ F,0,0,1,0,3.5,0,1 @ F,0,0,1,0,3.5,0,1 @ F,0,0,1,0,3.5,0,1"
       radius="3.5"
       unit="pt"
       method="arc"
       mode="F"
       chamfer_steps="1"
       flexible="false"
       use_knot_distance="true"
       apply_no_radius="true"
       apply_with_radius="true"
       only_selected="false"
       hide_knots="false" />
    <inkscape:path-effect
       effect="fillet_chamfer"
       id="path-effect18"
       is_visible="true"
       lpeversion="1"
       nodesatellites_param="F,0,1,1,0,5.2286798,0,1 @ F,0,0,1,0,3.5,0,1 @ F,0,0,1,0,3.5,0,1 @ F,0,0,1,0,3.5,0,1"
       radius="3.5"
       unit="pt"
       method="arc"
       mode="F"
       chamfer_steps="1"
       flexible="false"
       use_knot_distance="true"
       apply_no_radius="true"
       apply_with_radius="true"
       only_selected="false"
       hide_knots="false" />
    <inkscape:path-effect
       effect="fillet_chamfer"
       id="path-effect16"
       is_visible="true"
       lpeversion="1"
       nodesatellites_param="F,0,1,1,0,5.2286798,0,1 @ F,0,0,1,0,3.5,0,1 @ F,0,0,1,0,3.5,0,1 @ F,0,0,1,0,3.5,0,1"
       radius="3.5"
       unit="pt"
       method="arc"
       mode="F"
       chamfer_steps="1"
       flexible="false"
       use_knot_distance="true"
       apply_no_radius="true"
       apply_with_radius="true"
       only_selected="false"
       hide_knots="false" />
    <inkscape:path-effect
       effect="fillet_chamfer"
       id="path-effect14"
       is_visible="true"
       lpeversion="1"
       nodesatellites_param="F,0,1,1,0,5.2286798,0,1 @ F,0,0,1,0,3.5,0,1 @ F,0,0,1,0,3.5,0,1 @ F,0,0,1,0,3.5,0,1"
       radius="3.5"
       unit="pt"
       method="arc"
       mode="F"
       chamfer_steps="1"
       flexible="false"
       use_knot_distance="true"
       apply_no_radius="true"
       apply_with_radius="true"
       only_selected="false"
       hide_knots="false" />
    <inkscape:path-effect
       effect="fillet_chamfer"
       id="path-effect12"
       is_visible="true"
       lpeversion="1"
       nodesatellites_param="F,0,1,1,0,5.2286798,0,1 @ F,0,0,1,0,3.5,0,1 @ F,0,0,1,0,3.5,0,1 @ F,0,0,1,0,3.5,0,1"
       radius="3.5"
       unit="pt"
       method="arc"
       mode="F"
       chamfer_steps="1"
       flexible="false"
       use_knot_distance="true"
       apply_no_radius="true"
       apply_with_radius="true"
       only_selected="false"
       hide_knots="false" />
    <inkscape:path-effect
       effect="fillet_chamfer"
       id="path-effect10"
       is_visible="true"
       lpeversion="1"
       nodesatellites_param="F,0,1,1,0,5.2286798,0,1 @ F,0,0,1,0,3.5,0,1 @ F,0,0,1,0,3.5,0,1 @ F,0,0,1,0,3.5,0,1 | F,0,0,1,0,5.2286798,0,1 @ F,0,0,1,0,3.5,0,1 @ F,0,0,1,0,3.5,0,1 @ F,0,0,1,0,3.5,0,1 | F,0,0,1,0,3.5,0,1 @ F,0,0,1,0,3.5,0,1 @ F,0,0,1,0,3.5,0,1 @ F,0,0,1,0,3.5,0,1 | F,0,0,1,0,3.5,0,1 @ F,0,0,1,0,3.5,0,1 @ F,0,0,1,0,3.5,0,1 @ F,0,0,1,0,3.5,0,1 | F,0,0,1,0,3.5,0,1 @ F,0,0,1,0,3.5,0,1 @ F,0,0,1,0,3.5,0,1 @ F,0,0,1,0,3.5,0,1"
       radius="3.5"
       unit="pt"
       method="arc"
       mode="F"
       chamfer_steps="1"
       flexible="false"
       use_knot_distance="true"
       apply_no_radius="true"
       apply_with_radius="true"
       only_selected="false"
       hide_knots="false" />
    <inkscape:path-effect
       effect="fillet_chamfer"
       id="path-effect8"
       is_visible="true"
       lpeversion="1"
       nodesatellites_param="F,0,0,1,0,3.5,0,1 @ F,0,0,1,0,3.5,0,1 @ F,0,0,1,0,3.5,0,1 @ F,0,0,1,0,3.5,0,1 | F,0,0,1,0,3.5,0,1 @ F,0,0,1,0,3.5,0,1 @ F,0,0,1,0,3.5,0,1 @ F,0,0,1,0,3.5,0,1 | F,0,0,1,0,3.5,0,1 @ F,0,0,1,0,3.5,0,1 @ F,0,0,1,0,3.5,0,1 @ F,0,0,1,0,3.5,0,1 | F,0,0,1,0,3.5,0,1 @ F,0,0,1,0,3.5,0,1 @ F,0,0,1,0,3.5,0,1 @ F,0,0,1,0,3.5,0,1 | F,0,0,1,0,3.5,0,1 @ F,0,0,1,0,3.5,0,1 @ F,0,0,1,0,3.5,0,1 @ F,0,0,1,0,3.5,0,1"
       radius="3.5"
       unit="pt"
       method="arc"
       mode="F"
       chamfer_steps="1"
       flexible="false"
       use_knot_distance="true"
       apply_no_radius="true"
       apply_with_radius="true"
       only_selected="false"
       hide_knots="false" />
  </defs>
  <g
     inkscape:label="Layer 1"
     inkscape:groupmode="layer"
     id="layer1">
    <path
       id="path2-9"
       style="color:#000000;display:none;fill:#000000;fill-opacity:1;stroke:#fc0000;stroke-width:0;stroke-linecap:round;stroke-linejoin:round;stroke-dasharray:none;stroke-opacity:1;paint-order:stroke fill markers"
       d="m 0,0 v 27.871582 4.460449 c 1.8789897,1.192496 3.7914287,2.279504 5.7011719,3.234375 C 18.38894,41.910292 33.490257,45 49.999512,45 c 16.509252,0 31.612036,-3.089708 44.299804,-9.433594 1.909601,-0.954799 3.822321,-2.041987 5.701174,-3.234375 V 27.871582 0 Z"
       inkscape:label="background" />
    <path
       id="path2"
       style="color:#000000;display:none;fill:#ffffff;stroke-linecap:round;stroke-linejoin:round;-inkscape-stroke:none;paint-order:stroke fill markers"
       d="m 0,0 v 32.332031 c 1.8789916,1.192497 3.7914268,2.279503 5.7011719,3.234375 C 18.388953,41.910298 33.490241,45 49.999512,45 c 16.509269,0 31.612023,-3.089702 44.299804,-9.433594 1.909603,-0.9548 3.822316,-2.041986 5.701174,-3.234375 V 0 A 50,25 0 0 1 49.999512,25.000488 50,25 0 0 1 0,0 Z"
       inkscape:label="original tab shape" />
    <path
       id="path1"
       style="color:#000000;display:none;fill:#ffffff;stroke-linecap:round;stroke-linejoin:round;-inkscape-stroke:none;paint-order:stroke fill markers"
       inkscape:label="original tab shape (corner phase 1)"
       d="m 0,0 v 28.331543 c -0.03778216,2.489409 1.2801758,4.802709 3.440918,6.039551 14.462793,7.992444 30.906727,10.183452 42.55957,10.562988 2.665309,0.0868 5.332738,0.0868 7.998047,0 11.608941,-0.378072 28.073609,-2.557066 42.561035,-10.562988 2.160754,-1.236831 3.47872,-3.550138 3.44092,-6.039551 V 0 C 100.00103,13.8075 77.614513,25.000758 49.999512,25.000488 22.385084,25.000353 -5.3903495e-4,13.807214 0,0 Z"
       sodipodi:nodetypes="cccssccccc" />
    <path
       id="path5"
       style="color:#000000;display:inline;fill:#ffffff;stroke-width:0;stroke-linecap:round;stroke-linejoin:round;stroke-dasharray:none;paint-order:stroke fill markers"
       inkscape:label="original tab shape (extended)"
       d="m 0,0 v 28.332059 c -0.03778138,2.489454 1.2801493,4.802796 3.4408467,6.039661 14.4624933,7.992589 30.9060863,10.183637 42.5586873,10.56318 2.665254,0.0868 5.332628,0.0868 7.997882,0 11.6087,-0.378079 28.073027,-2.557113 42.560152,-10.56318 2.16071,-1.236854 3.478652,-3.550203 3.440849,-6.039661 V 0 Z"
       sodipodi:nodetypes="ccccccccc" />
    <path
       id="path3"
       style="color:#000000;display:none;fill:#808080;fill-opacity:1;stroke-linecap:round;stroke-linejoin:round;-inkscape-stroke:none;paint-order:fill markers stroke"
       d="M 1.0004883,6.8891602 V 31.751953 c 3.6557733,2.279337 6.0465203,3.408694 8.6953125,4.567383 L 23.701172,22.313965 C 17.645568,20.465312 5.8742783,16.013832 1.0004883,6.8891602 Z M 99,6.8891602 C 94.113781,16.036913 82.296369,20.48324 76.299316,22.313965 L 90.304688,36.319336 C 93.389456,34.969869 95.688353,33.816702 99,31.751953 Z M 24.79834,22.631836 10.680176,36.75 c 7.712714,3.248576 16.231035,5.388548 25.347656,6.452637 L 40.751953,25.570313 C 35.045622,25.043386 29.674271,24.037681 24.79834,22.631836 Z m 50.403808,0 c -4.875758,1.405755 -10.247607,2.411536 -15.953613,2.938477 l 4.724121,17.632324 C 73.089228,42.13843 81.607687,39.998693 89.320313,36.75 Z M 41.76416,25.661133 37.03418,43.313965 c 8.154177,0.87671 17.098028,0.949931 25.932129,0 L 58.236328,25.661133 c -5.532968,0.452712 -10.995431,0.448073 -16.472168,0 z"
       sodipodi:nodetypes="ccccccccccccccccccccccccc"
       inkscape:label="tab group" />
    <path
       id="path35"
       style="color:#000000;display:none;fill:#808080;fill-opacity:1;stroke-linecap:round;stroke-linejoin:round;-inkscape-stroke:none;paint-order:fill markers stroke"
       d="m 1.0004883,10.38916 v 17.862793 a 6.0071659,6.0071659 60.329276 0 0 3.0105786,5.284378 c 0.8922538,0.498181 1.714742,0.927561 2.5063509,1.318251 a 4.9285363,4.9285363 169.86934 0 0 5.6532572,-1.01012 l 9.055623,-9.055623 A 2.179765,2.179765 76.710805 0 0 20.38069,21.208648 C 14.889658,19.220207 7.4610376,15.686841 2.9081001,9.8184861 A 1.0523251,1.0523251 163.34512 0 0 1.0004883,10.38916 Z M 97.092278,9.8185497 C 92.532265,15.695785 85.090302,19.227906 79.619696,21.20879 a 2.179651,2.179651 103.28815 0 0 -0.845506,3.580049 l 9.055624,9.055623 a 4.9298663,4.9298663 10.117874 0 0 5.652632,1.008707 c 0.8304,-0.409213 1.649531,-0.837726 2.506922,-1.316046 A 6.0060753,6.0060753 119.66747 0 0 99,28.251953 V 10.38916 A 1.0523749,1.0523749 16.652221 0 0 97.092278,9.8185497 Z M 22.323466,25.10671 13.15505,34.275126 a 2.2822899,2.2822899 78.296106 0 0 0.779417,3.762375 c 5.817424,2.157486 12.052701,3.721123 18.624054,4.703819 a 3.9491895,3.9491895 146.28535 0 0 4.375098,-2.919445 l 2.912547,-10.8708 a 3.0305496,3.0305496 55.662287 0 0 -2.572732,-3.766156 c -3.158829,-0.40929 -6.198951,-0.967805 -9.09097,-1.661138 a 6.2121721,6.2121721 164.88132 0 0 -5.858998,1.582929 z m 49.494546,-1.582956 c -2.892006,0.693305 -5.932217,1.251834 -9.090967,1.661137 a 3.0305717,3.0305717 124.33743 0 0 -2.572723,3.766184 l 2.912547,10.8708 a 3.9491648,3.9491648 33.714398 0 0 4.375095,2.919414 c 6.571341,-0.982724 12.806678,-2.546247 18.624073,-4.703754 a 2.2823115,2.2823115 101.70358 0 0 0.779402,-3.762409 L 77.677022,25.10671 a 6.2122359,6.2122359 15.118901 0 0 -5.85901,-1.582956 z m -30.959704,5.518123 -2.918276,10.891344 a 2.9327514,2.9327514 55.137579 0 0 2.579207,3.702379 c 6.084891,0.470527 12.521238,0.49886 18.962036,2.51e-4 a 2.9329809,2.9329809 124.86034 0 0 2.579182,-3.70263 L 59.14218,29.041877 a 4.314332,4.314332 35.653711 0 0 -4.398404,-3.155188 c -3.174426,0.150101 -6.331367,0.14921 -9.487061,-8e-6 a 4.3143353,4.3143353 144.34624 0 0 -4.398407,3.155196 z"
       sodipodi:nodetypes="ccccccccccccccccccccccccc"
       inkscape:label="tab group (corner phase 1)"
       inkscape:path-effect="#path-effect37"
       inkscape:original-d="M 1.0004883,6.8891602 V 31.751953 c 3.6557733,2.279337 6.0465203,3.408694 8.6953125,4.567383 L 23.701172,22.313965 C 17.645568,20.465312 5.8742783,16.013832 1.0004883,6.8891602 Z M 99,6.8891602 C 94.113781,16.036913 82.296369,20.48324 76.299316,22.313965 L 90.304688,36.319336 C 93.389456,34.969869 95.688353,33.816702 99,31.751953 Z M 24.79834,22.631836 10.680176,36.75 c 7.712714,3.248576 16.231035,5.388548 25.347656,6.452637 L 40.751953,25.570313 C 35.045622,25.043386 29.674271,24.037681 24.79834,22.631836 Z m 50.403808,0 c -4.875758,1.405755 -10.247607,2.411536 -15.953613,2.938477 l 4.724121,17.632324 C 73.089228,42.13843 81.607687,39.998693 89.320313,36.75 Z M 41.76416,25.661133 37.03418,43.313965 c 8.154177,0.87671 17.098028,0.949931 25.932129,0 L 58.236328,25.661133 c -5.532968,0.452712 -10.995431,0.448073 -16.472168,0 z" />
    <path
       id="path4"
       style="color:#000000;display:none;fill:#ff0000;fill-opacity:1;stroke-linecap:round;stroke-linejoin:round;-inkscape-stroke:none;paint-order:fill markers stroke"
       inkscape:label="tab group (corner phase 2)"
       d="m 2.4521484,10.516113 a 1.6910397,1.6910397 0 0 0 -1.4516601,1.582032 v 16.154296 a 6.0071659,6.0071659 0 0 0 3.0102539,5.283692 c 0.8922529,0.49818 1.7147395,0.92767 2.5063476,1.318359 A 4.9285363,4.9285363 0 0 0 12.171387,33.84375 l 9.054199,-9.054199 A 2.179765,2.179765 0 0 0 20.380371,21.208008 C 15.310866,19.372212 8.5897344,16.219607 4.0048828,11.128418 A 1.6910397,1.6910397 0 0 0 2.4521484,10.516113 Z m 95.0947266,0 a 1.6911056,1.6911056 0 0 0 -1.55127,0.612305 c -4.592092,5.099081 -11.324218,8.25201 -16.375488,10.081055 a 2.179651,2.179651 0 0 0 -0.845215,3.580078 l 9.0542,9.054199 a 4.9298663,4.9298663 0 0 0 5.652832,1.009277 c 0.830399,-0.409212 1.650422,-0.83711 2.507812,-1.315429 A 6.0060753,6.0060753 0 0 0 99,28.252441 V 12.098145 A 1.6911056,1.6911056 0 0 0 97.546875,10.516113 Z M 26.929688,23.342285 a 6.2121721,6.2121721 0 0 0 -4.606934,1.765137 l -9.166992,9.166992 a 2.2822899,2.2822899 0 0 0 0.779297,3.763184 c 5.817418,2.157483 12.052677,3.720918 18.624023,4.703613 a 3.9491895,3.9491895 0 0 0 4.374023,-2.919434 L 39.84668,28.951172 a 3.0305496,3.0305496 0 0 0 -2.573731,-3.766113 c -3.158826,-0.40929 -6.198804,-0.967801 -9.09082,-1.661133 a 6.2121721,6.2121721 0 0 0 -1.252441,-0.181641 z m 46.141113,0 a 6.2122359,6.2122359 0 0 0 -1.252442,0.181641 c -2.892003,0.693304 -5.932073,1.25183 -9.09082,1.661133 a 3.0305717,3.0305717 0 0 0 -2.57373,3.766113 l 2.913574,10.870605 a 3.9491648,3.9491648 0 0 0 4.374023,2.919434 c 6.571335,-0.982723 12.806635,-2.546109 18.624024,-4.703613 a 2.2823115,2.2823115 0 0 0 0.779297,-3.763184 l -9.166993,-9.166992 a 6.2122359,6.2122359 0 0 0 -4.606933,-1.765137 z m -27.814453,2.544434 a 4.3143353,4.3143353 0 0 0 -4.397461,3.155273 l -2.919434,10.891113 a 2.9327514,2.9327514 0 0 0 2.57959,3.703125 c 6.084885,0.470527 12.521611,0.498609 18.962402,0 a 2.9329809,2.9329809 0 0 0 2.57959,-3.703125 L 59.141602,29.041992 a 4.314332,4.314332 0 0 0 -4.397461,-3.155273 c -3.174423,0.150101 -6.332102,0.149218 -9.487793,0 z" />
    <g
       id="g50"
       inkscape:label="tabs"
       style="display:none">
      <path
         style="color:#000000;display:inline;fill:#ff0000;fill-opacity:1;stroke-linecap:round;stroke-linejoin:round;-inkscape-stroke:none;paint-order:fill markers stroke"
         d="m 1.0004883,12.098734 v 16.153219 a 6.0071659,6.0071659 60.329276 0 0 3.0105786,5.284378 c 0.8922538,0.498181 1.714742,0.927561 2.5063509,1.318251 a 4.9285363,4.9285363 169.86934 0 0 5.6532572,-1.01012 l 9.055623,-9.055623 A 2.179765,2.179765 76.710805 0 0 20.38069,21.208648 C 15.31118,19.37285 8.5901422,16.220218 4.005286,11.129024 a 1.6910397,1.6910397 162.11404 0 0 -3.0047977,0.96971 z"
         id="path37"
         inkscape:label="tab1" />
      <path
         style="color:#000000;display:inline;fill:#ff0000;fill-opacity:1;stroke-linecap:round;stroke-linejoin:round;-inkscape-stroke:none;paint-order:fill markers stroke"
         d="m 22.323466,25.10671 -9.168416,9.168416 a 2.2822899,2.2822899 78.296106 0 0 0.779417,3.762375 c 5.817424,2.157486 12.052701,3.721123 18.624054,4.703819 a 3.9491895,3.9491895 146.28535 0 0 4.375098,-2.919445 l 2.912547,-10.8708 a 3.0305496,3.0305496 55.662287 0 0 -2.572732,-3.766156 c -3.158829,-0.40929 -6.198951,-0.967805 -9.09097,-1.661138 a 6.2121721,6.2121721 164.88132 0 0 -5.858998,1.582929 z"
         id="path48"
         inkscape:label="tab2" />
      <path
         style="color:#000000;display:inline;fill:#ff0000;fill-opacity:1;stroke-linecap:round;stroke-linejoin:round;-inkscape-stroke:none;paint-order:fill markers stroke"
         d="m 40.858308,29.041877 -2.918276,10.891344 a 2.9327514,2.9327514 55.137579 0 0 2.579207,3.702379 c 6.084891,0.470527 12.521238,0.49886 18.962036,2.51e-4 a 2.9329809,2.9329809 124.86034 0 0 2.579182,-3.70263 L 59.14218,29.041877 a 4.314332,4.314332 35.653711 0 0 -4.398404,-3.155188 c -3.174426,0.150101 -6.331367,0.14921 -9.487061,-8e-6 a 4.3143353,4.3143353 144.34624 0 0 -4.398407,3.155196 z"
         id="path50"
         inkscape:label="tab3" />
      <path
         style="color:#000000;display:inline;fill:#ff0000;fill-opacity:1;stroke-linecap:round;stroke-linejoin:round;-inkscape-stroke:none;paint-order:fill markers stroke"
         d="m 71.818012,23.523754 c -2.892006,0.693305 -5.932217,1.251834 -9.090967,1.661137 a 3.0305717,3.0305717 124.33743 0 0 -2.572723,3.766184 l 2.912547,10.8708 a 3.9491648,3.9491648 33.714398 0 0 4.375095,2.919414 c 6.571341,-0.982724 12.806678,-2.546247 18.624073,-4.703754 a 2.2823115,2.2823115 101.70358 0 0 0.779402,-3.762409 L 77.677022,25.10671 a 6.2122359,6.2122359 15.118901 0 0 -5.85901,-1.582956 z"
         id="path49"
         inkscape:label="tab4" />
      <path
         style="color:#000000;display:inline;fill:#ff0000;fill-opacity:1;stroke-linecap:round;stroke-linejoin:round;-inkscape-stroke:none;paint-order:fill markers stroke"
         d="M 95.995067,11.129071 C 91.40297,16.228157 84.670971,19.379744 79.619696,21.20879 a 2.179651,2.179651 103.28815 0 0 -0.845506,3.580049 l 9.055624,9.055623 a 4.9298663,4.9298663 10.117874 0 0 5.652632,1.008707 c 0.8304,-0.409213 1.649531,-0.837726 2.506922,-1.316046 A 6.0060753,6.0060753 119.66747 0 0 99,28.251953 V 12.098734 a 1.6911056,1.6911056 17.884402 0 0 -3.004933,-0.969663 z"
         id="path47"
         inkscape:label="tab5" />
    </g>
  </g>
</svg>
