<?xml version="1.0" encoding="UTF-8" standalone="no"?>
<!-- Created with Inkscape (http://www.inkscape.org/) -->

<svg
   width="100pt"
   height="45pt"
   viewBox="0 0 100 45"
   version="1.1"
   id="svg1"
   inkscape:version="1.3.2 (091e20e, 2023-11-25)"
   sodipodi:docname="tab-system2.svg"
   inkscape:export-filename="tab-system2.png"
   inkscape:export-xdpi="900"
   inkscape:export-ydpi="900"
   xmlns:inkscape="http://www.inkscape.org/namespaces/inkscape"
   xmlns:sodipodi="http://sodipodi.sourceforge.net/DTD/sodipodi-0.dtd"
   xmlns="http://www.w3.org/2000/svg"
   xmlns:svg="http://www.w3.org/2000/svg">
  <sodipodi:namedview
     id="namedview1"
     pagecolor="#505050"
     bordercolor="#eeeeee"
     borderopacity="1"
     inkscape:showpageshadow="0"
     inkscape:pageopacity="0"
     inkscape:pagecheckerboard="0"
     inkscape:deskcolor="#d1d1d1"
     inkscape:document-units="pt"
     inkscape:zoom="4.3368937"
     inkscape:cx="61.795381"
     inkscape:cy="10.2608"
     inkscape:window-width="1440"
     inkscape:window-height="785"
     inkscape:window-x="0"
     inkscape:window-y="25"
     inkscape:window-maximized="1"
     inkscape:current-layer="g19"
     showguides="true" />
  <defs
     id="defs1">
    <inkscape:path-effect
       effect="fillet_chamfer"
       id="path-effect8"
       is_visible="true"
       lpeversion="1"
       nodesatellites_param="F,0,1,1,0,9.9985782,0,1 @ F,0,0,1,0,3.5,0,1 @ F,0,0,1,0,3.5,0,1 @ F,0,0,1,0,3.5,0,1 | F,0,0,1,0,9.9985782,0,1 @ F,0,0,1,0,3.5,0,1 @ F,0,0,1,0,3.5,0,1 @ F,0,0,1,0,3.5,0,1 | F,0,0,1,0,3.5,0,1 @ F,0,0,1,0,3.5,0,1 @ F,0,0,1,0,3.5,0,1 @ F,0,0,1,0,3.5,0,1 | F,0,0,1,0,3.5,0,1 @ F,0,0,1,0,3.5,0,1 @ F,0,0,1,0,3.5,0,1 @ F,0,0,1,0,3.5,0,1 | F,0,0,1,0,3.5,0,1 @ F,0,0,1,0,3.5,0,1 @ F,0,0,1,0,3.5,0,1 @ F,0,0,1,0,3.5,0,1"
       radius="3.5"
       unit="pt"
       method="arc"
       mode="F"
       chamfer_steps="1"
       flexible="false"
       use_knot_distance="true"
       apply_no_radius="true"
       apply_with_radius="true"
       only_selected="false"
       hide_knots="false" />
    <inkscape:path-effect
       effect="fillet_chamfer"
       id="path-effect6"
       is_visible="true"
       lpeversion="1"
       nodesatellites_param="F,0,1,1,0,9.9985782,0,1 @ F,0,0,1,0,3.5,0,1 @ F,0,0,1,0,3.5,0,1 @ F,0,0,1,0,3.5,0,1 | F,0,0,1,0,9.9985782,0,1 @ F,0,0,1,0,3.5,0,1 @ F,0,0,1,0,3.5,0,1 @ F,0,0,1,0,3.5,0,1 | F,0,0,1,0,3.5,0,1 @ F,0,0,1,0,3.5,0,1 @ F,0,0,1,0,3.5,0,1 @ F,0,0,1,0,3.5,0,1 | F,0,0,1,0,3.5,0,1 @ F,0,0,1,0,3.5,0,1 @ F,0,0,1,0,3.5,0,1 @ F,0,0,1,0,3.5,0,1 | F,0,0,1,0,3.5,0,1 @ F,0,0,1,0,3.5,0,1 @ F,0,0,1,0,3.5,0,1 @ F,0,0,1,0,3.5,0,1"
       radius="3.5"
       unit="pt"
       method="arc"
       mode="F"
       chamfer_steps="1"
       flexible="false"
       use_knot_distance="true"
       apply_no_radius="true"
       apply_with_radius="true"
       only_selected="false"
       hide_knots="false" />
    <inkscape:path-effect
       effect="fillet_chamfer"
       id="path-effect4"
       is_visible="true"
       lpeversion="1"
       nodesatellites_param="F,0,0,1,0,3.5,0,1 @ F,0,0,1,0,3.5,0,1 @ F,0,0,1,0,3.5,0,1 @ F,0,0,1,0,3.5,0,1 | F,0,0,1,0,3.5,0,1 @ F,0,0,1,0,3.5,0,1 @ F,0,0,1,0,3.5,0,1 @ F,0,0,1,0,3.5,0,1 | F,0,0,1,0,3.5,0,1 @ F,0,0,1,0,3.5,0,1 @ F,0,0,1,0,3.5,0,1 @ F,0,0,1,0,3.5,0,1 | F,0,0,1,0,3.5,0,1 @ F,0,0,1,0,3.5,0,1 @ F,0,0,1,0,3.5,0,1 @ F,0,0,1,0,3.5,0,1 | F,0,0,1,0,3.5,0,1 @ F,0,0,1,0,3.5,0,1 @ F,0,0,1,0,3.5,0,1 @ F,0,0,1,0,3.5,0,1"
       radius="3.5"
       unit="pt"
       method="arc"
       mode="F"
       chamfer_steps="1"
       flexible="false"
       use_knot_distance="true"
       apply_no_radius="true"
       apply_with_radius="true"
       only_selected="false"
       hide_knots="false" />
    <inkscape:path-effect
       effect="fillet_chamfer"
       id="path-effect3"
       is_visible="true"
       lpeversion="1"
       nodesatellites_param="F,0,0,1,0,3.5,0,1 @ F,0,0,1,0,3.5,0,1 @ F,0,0,1,0,3.5,0,1 @ F,0,0,1,0,3.5,0,1 | F,0,0,1,0,3.5,0,1 @ F,0,0,1,0,3.5,0,1 @ F,0,0,1,0,3.5,0,1 @ F,0,0,1,0,3.5,0,1 | F,0,0,1,0,3.5,0,1 @ F,0,0,1,0,3.5,0,1 @ F,0,0,1,0,3.5,0,1 @ F,0,0,1,0,3.5,0,1 | F,0,0,1,0,3.5,0,1 @ F,0,0,1,0,3.5,0,1 @ F,0,0,1,0,3.5,0,1 @ F,0,0,1,0,3.5,0,1 | F,0,0,1,0,3.5,0,1 @ F,0,0,1,0,3.5,0,1 @ F,0,0,1,0,3.5,0,1 @ F,0,0,1,0,3.5,0,1 @ F,0,0,1,0,3.5,0,1"
       radius="3.5"
       unit="pt"
       method="arc"
       mode="F"
       chamfer_steps="1"
       flexible="false"
       use_knot_distance="true"
       apply_no_radius="true"
       apply_with_radius="true"
       only_selected="false"
       hide_knots="false" />
  </defs>
  <g
     inkscape:label="Layer 1"
     inkscape:groupmode="layer"
     id="layer1">
    <path
       id="path2"
       style="color:#000000;display:none;fill:#ff0000;fill-opacity:1;stroke-linecap:round;stroke-linejoin:round;-inkscape-stroke:none;paint-order:stroke fill markers"
       d="m 0,0 v 32.332031 c 3.0190348,1.916023 5.5928724,3.244651 8.4331055,4.527832 L 23.982422,21.310547 C 9.1116914,16.779858 0.02666034,8.7069872 0,0 Z m 100.00049,0 c -0.004,8.7133695 -9.081211,16.797094 -23.957521,21.335449 l 15.524414,15.524414 c 3.472526,-1.568821 5.965631,-2.961886 8.433107,-4.527832 z M 26.462402,22.012207 10.649414,37.825195 c 7.506866,3.119364 15.745013,5.204463 24.530274,6.288575 l 5.258789,-19.628907 c -4.87855,-0.47239 -9.589009,-1.305768 -13.976075,-2.472656 z m 47.107911,0.03223 c -4.391649,1.173434 -9.109232,2.01228 -13.996583,2.488769 l 5.247071,19.580567 c 8.785573,-1.084116 17.023253,-3.169223 24.530273,-6.288575 z m -30.861329,2.666015 -5.267578,19.656739 c 7.798333,0.802154 16.523474,0.88408 25.117676,0 L 57.295898,24.728027 c -4.992327,0.371587 -9.769716,0.352853 -14.586914,-0.01758 z"
       sodipodi:nodetypes="ccccccccccccccccccccccccc"
       inkscape:label="tab group" />
    <path
       id="path3"
       style="color:#000000;display:none;fill:#ff0000;fill-opacity:1;stroke-linecap:round;stroke-linejoin:round;-inkscape-stroke:none;paint-order:stroke fill markers"
       d="m 0,3.5 v 25.332031 a 6.0342995,6.0342995 60.472382 0 0 3.0015912,5.299333 c 0.7682147,0.432591 1.5213991,0.834992 2.274309,1.21844 A 4.8613529,4.8613529 170.27919 0 0 10.907979,34.384989 L 21.507548,23.785421 A 2.1794396,2.1794396 76.705028 0 0 20.661721,20.205916 C 9.638989,16.213581 2.3782852,10.152969 0.48956224,3.4546685 A 0.24816772,0.24816772 174.70972 0 0 0,3.5 Z M 99.519673,3.4558747 C 97.646337,10.160974 90.390443,16.230489 79.363247,20.229533 a 2.180406,2.180406 103.28395 0 0 -0.845404,3.58079 l 10.574666,10.574666 a 4.861978,4.861978 9.7154854 0 0 5.631724,0.964215 c 0.801513,-0.407897 1.553302,-0.811263 2.274905,-1.21724 a 6.0327096,6.0327096 119.52287 0 0 3.001352,-5.299933 V 3.5 A 0.24367631,0.24367631 5.2434263 0 0 99.519673,3.4558747 Z M 23.987528,24.487081 13.124288,35.350321 a 2.2716582,2.2716582 78.169266 0 0 0.78509,3.74797 c 5.587933,2.046703 11.545995,3.552894 17.804125,4.531232 a 3.9230982,3.9230982 146.4744 0 0 4.371929,-2.896526 l 3.447301,-12.867361 a 3.0451344,3.0451344 55.794563 0 0 -2.57095,-3.782265 c -2.425387,-0.326074 -4.798115,-0.743048 -7.09801,-1.247351 a 6.3584352,6.3584352 164.30612 0 0 -5.876245,1.651061 z m 46.18231,-1.61513 c -2.306349,0.508251 -4.686372,0.928604 -7.119688,1.257436 a 3.0470465,3.0470465 124.18454 0 0 -2.570477,3.784539 l 3.435185,12.819127 a 3.92334,3.92334 33.524006 0 0 4.37213,2.896485 C 74.545253,42.651195 80.503135,41.144992 86.091105,39.09828 A 2.2716503,2.2716503 101.83085 0 0 86.8762,35.350324 L 76.045187,24.519311 a 6.3504166,6.3504166 15.662704 0 0 -5.875349,-1.64736 z m -29.24193,21.800844 c 5.780709,0.420713 11.959634,0.45119 18.144703,3.29e-4 a 2.9194361,2.9194361 124.99011 0 0 2.580462,-3.686635 l -3.451166,-12.87776 a 4.351552,4.351552 35.877834 0 0 -4.400215,-3.18263 c -2.563191,0.09924 -5.084073,0.09438 -7.598992,-0.0091 a 4.3406186,4.3406186 144.19158 0 0 -4.399673,3.174127 C 40.65114,32.3896 39.499252,36.688038 38.347364,40.986475 a 2.9191774,2.9191774 55.006726 0 0 2.580544,3.68632 z"
       sodipodi:nodetypes="ccccccccccccccccccccccccc"
       inkscape:label="tab group (corner phase 1)"
       inkscape:path-effect="#path-effect4"
       inkscape:original-d="m 0,0 v 32.332031 c 3.0190348,1.916023 5.5928724,3.244651 8.4331055,4.527832 L 23.982422,21.310547 C 9.1116914,16.779858 0.02666034,8.7069872 0,0 Z m 100.00049,0 c -0.004,8.7133695 -9.081211,16.797094 -23.957521,21.335449 l 15.524414,15.524414 c 3.472526,-1.568821 5.965631,-2.961886 8.433107,-4.527832 z M 26.462402,22.012207 10.649414,37.825195 c 7.506866,3.119364 15.745013,5.204463 24.530274,6.288575 l 5.258789,-19.628907 c -4.87855,-0.47239 -9.589009,-1.305768 -13.976075,-2.472656 z m 47.107911,0.03223 c -4.391649,1.173434 -9.109232,2.01228 -13.996583,2.488769 l 5.247071,19.580567 C 73.606374,43.029657 81.844054,40.94455 89.351074,37.825198 Z M 37.441406,44.367191 c 7.798333,0.802154 16.523474,0.88408 25.117676,0 L 57.295898,24.728027 c -4.992327,0.371587 -9.769716,0.352853 -14.586914,-0.01758 -1.755857,6.552248 -3.511718,13.104496 -5.267578,19.656744 z" />
    <path
       id="path4"
       style="color:#000000;display:none;fill:#ff0000;fill-opacity:1;stroke-linecap:round;stroke-linejoin:round;-inkscape-stroke:none;paint-order:stroke fill markers"
       d="M 0,9.9985782 V 28.832031 a 6.0342995,6.0342995 60.472382 0 0 3.0015912,5.299333 c 0.7682147,0.432591 1.5213991,0.834992 2.274309,1.21844 A 4.8613529,4.8613529 170.27919 0 0 10.907979,34.384989 L 21.507548,23.785421 A 2.1794396,2.1794396 76.705028 0 0 20.661721,20.205916 C 12.880238,17.387532 6.973612,13.538395 3.5082564,9.1618115 A 1.9093867,1.9093867 166.58482 0 0 0,9.9985782 Z M 96.512347,9.1688113 C 93.053612,13.55107 87.148261,17.406275 79.363247,20.229533 a 2.180406,2.180406 103.28395 0 0 -0.845404,3.58079 l 10.574666,10.574666 a 4.861978,4.861978 9.7154854 0 0 5.631724,0.964215 c 0.801513,-0.407897 1.553302,-0.811263 2.274905,-1.21724 a 6.0327096,6.0327096 119.52287 0 0 3.001352,-5.299933 V 9.9985782 A 1.8976549,1.8976549 13.380942 0 0 96.512347,9.1688113 Z M 23.987528,24.487081 13.124288,35.350321 a 2.2716582,2.2716582 78.169266 0 0 0.78509,3.74797 c 5.587933,2.046703 11.545995,3.552894 17.804125,4.531232 a 3.9230982,3.9230982 146.4744 0 0 4.371929,-2.896526 l 3.447301,-12.867361 a 3.0451344,3.0451344 55.794563 0 0 -2.57095,-3.782265 c -2.425387,-0.326074 -4.798115,-0.743048 -7.09801,-1.247351 a 6.3584352,6.3584352 164.30612 0 0 -5.876245,1.651061 z m 46.18231,-1.61513 c -2.306349,0.508251 -4.686372,0.928604 -7.119688,1.257436 a 3.0470465,3.0470465 124.18454 0 0 -2.570477,3.784539 l 3.435185,12.819127 a 3.92334,3.92334 33.524006 0 0 4.37213,2.896485 C 74.545253,42.651195 80.503135,41.144992 86.091105,39.09828 A 2.2716503,2.2716503 101.83085 0 0 86.8762,35.350324 L 76.045187,24.519311 a 6.3504166,6.3504166 15.662704 0 0 -5.875349,-1.64736 z m -29.24193,21.800844 c 5.780709,0.420713 11.959634,0.45119 18.144703,3.29e-4 a 2.9194361,2.9194361 124.99011 0 0 2.580462,-3.686635 l -3.451166,-12.87776 a 4.351552,4.351552 35.877834 0 0 -4.400215,-3.18263 c -2.563191,0.09924 -5.084073,0.09438 -7.598992,-0.0091 a 4.3406186,4.3406186 144.19158 0 0 -4.399673,3.174127 C 40.65114,32.3896 39.499252,36.688038 38.347364,40.986475 a 2.9191774,2.9191774 55.006726 0 0 2.580544,3.68632 z"
       sodipodi:nodetypes="ccccccccccccccccccccccccc"
       inkscape:label="tab group (corner phase 2)"
       inkscape:path-effect="#path-effect6"
       inkscape:original-d="m 0,0 v 32.332031 c 3.0190348,1.916023 5.5928724,3.244651 8.4331055,4.527832 L 23.982422,21.310547 C 9.1116914,16.779858 0.02666034,8.7069872 0,0 Z m 100.00049,0 c -0.004,8.7133695 -9.081211,16.797094 -23.957521,21.335449 l 15.524414,15.524414 c 3.472526,-1.568821 5.965631,-2.961886 8.433107,-4.527832 z M 26.462402,22.012207 10.649414,37.825195 c 7.506866,3.119364 15.745013,5.204463 24.530274,6.288575 l 5.258789,-19.628907 c -4.87855,-0.47239 -9.589009,-1.305768 -13.976075,-2.472656 z m 47.107911,0.03223 c -4.391649,1.173434 -9.109232,2.01228 -13.996583,2.488769 l 5.247071,19.580567 C 73.606374,43.029657 81.844054,40.94455 89.351074,37.825198 Z M 37.441406,44.367191 c 7.798333,0.802154 16.523474,0.88408 25.117676,0 L 57.295898,24.728027 c -4.992327,0.371587 -9.769716,0.352853 -14.586914,-0.01758 -1.755857,6.552248 -3.511718,13.104496 -5.267578,19.656744 z" />
    <g
       id="g19"
       inkscape:label="tabs">
      <path
         style="color:#000000;fill:#ff0000;fill-opacity:1;stroke-linecap:round;stroke-linejoin:round;-inkscape-stroke:none;paint-order:stroke fill markers"
         d="M 0,9.9985782 V 28.832031 a 6.0342995,6.0342995 60.472382 0 0 3.0015912,5.299333 c 0.7682147,0.432591 1.5213991,0.834992 2.274309,1.21844 A 4.8613529,4.8613529 170.27919 0 0 10.907979,34.384989 L 21.507548,23.785421 A 2.1794396,2.1794396 76.705028 0 0 20.661721,20.205916 C 12.880238,17.387532 6.973612,13.538395 3.5082564,9.1618115 A 1.9093867,1.9093867 166.58482 0 0 0,9.9985782 Z"
         id="path6"
         inkscape:label="1" />
      <path
         style="color:#000000;fill:#ff0000;fill-opacity:1;stroke-linecap:round;stroke-linejoin:round;-inkscape-stroke:none;paint-order:stroke fill markers"
         d="m 23.987528,24.487081 -10.86324,10.86324 a 2.2716582,2.2716582 78.169266 0 0 0.78509,3.74797 c 5.587933,2.046703 11.545995,3.552894 17.804125,4.531232 a 3.9230982,3.9230982 146.4744 0 0 4.371929,-2.896526 l 3.447301,-12.867361 a 3.0451344,3.0451344 55.794563 0 0 -2.57095,-3.782265 c -2.425387,-0.326074 -4.798115,-0.743048 -7.09801,-1.247351 a 6.3584352,6.3584352 164.30612 0 0 -5.876245,1.651061 z"
         id="path17"
         inkscape:label="2" />
      <path
         style="color:#000000;fill:#ff0000;fill-opacity:1;stroke-linecap:round;stroke-linejoin:round;-inkscape-stroke:none;paint-order:stroke fill markers"
         d="m 40.927908,44.672795 c 5.780709,0.420713 11.959634,0.45119 18.144703,3.29e-4 a 2.9194361,2.9194361 124.99011 0 0 2.580462,-3.686635 l -3.451166,-12.87776 a 4.351552,4.351552 35.877834 0 0 -4.400215,-3.18263 c -2.563191,0.09924 -5.084073,0.09438 -7.598992,-0.0091 a 4.3406186,4.3406186 144.19158 0 0 -4.399673,3.174127 C 40.65114,32.3896 39.499252,36.688038 38.347364,40.986475 a 2.9191774,2.9191774 55.006726 0 0 2.580544,3.68632 z"
         id="path19"
         inkscape:label="3" />
      <path
         style="color:#000000;fill:#ff0000;fill-opacity:1;stroke-linecap:round;stroke-linejoin:round;-inkscape-stroke:none;paint-order:stroke fill markers"
         d="m 70.169838,22.871951 c -2.306349,0.508251 -4.686372,0.928604 -7.119688,1.257436 a 3.0470465,3.0470465 124.18454 0 0 -2.570477,3.784539 l 3.435185,12.819127 a 3.92334,3.92334 33.524006 0 0 4.37213,2.896485 C 74.545253,42.651195 80.503135,41.144992 86.091105,39.09828 A 2.2716503,2.2716503 101.83085 0 0 86.8762,35.350324 L 76.045187,24.519311 a 6.3504166,6.3504166 15.662704 0 0 -5.875349,-1.64736 z"
         id="path18"
         inkscape:label="4" />
      <path
         style="color:#000000;fill:#ff0000;fill-opacity:1;stroke-linecap:round;stroke-linejoin:round;-inkscape-stroke:none;paint-order:stroke fill markers"
         d="M 96.512347,9.1688113 C 93.053612,13.55107 87.148261,17.406275 79.363247,20.229533 a 2.180406,2.180406 103.28395 0 0 -0.845404,3.58079 l 10.574666,10.574666 a 4.861978,4.861978 9.7154854 0 0 5.631724,0.964215 c 0.801513,-0.407897 1.553302,-0.811263 2.274905,-1.21724 a 6.0327096,6.0327096 119.52287 0 0 3.001352,-5.299933 V 9.9985782 A 1.8976549,1.8976549 13.380942 0 0 96.512347,9.1688113 Z"
         id="path16"
         inkscape:label="5" />
    </g>
  </g>
</svg>
