<?xml version="1.0" encoding="UTF-8" standalone="no"?>
<!-- Created with Inkscape (http://www.inkscape.org/) -->

<svg
   width="100pt"
   height="100pt"
   viewBox="0 0 100 100"
   version="1.1"
   id="svg1"
   xml:space="preserve"
   inkscape:version="1.3.2 (091e20e, 2023-11-25)"
   sodipodi:docname="tab-icons.svg"
   inkscape:export-filename="symbols/mercury.svg"
   inkscape:export-xdpi="72"
   inkscape:export-ydpi="72"
   xmlns:inkscape="http://www.inkscape.org/namespaces/inkscape"
   xmlns:sodipodi="http://sodipodi.sourceforge.net/DTD/sodipodi-0.dtd"
   xmlns="http://www.w3.org/2000/svg"
   xmlns:svg="http://www.w3.org/2000/svg"><sodipodi:namedview
     id="namedview1"
     pagecolor="#505050"
     bordercolor="#eeeeee"
     borderopacity="1"
     inkscape:showpageshadow="0"
     inkscape:pageopacity="0"
     inkscape:pagecheckerboard="0"
     inkscape:deskcolor="#d1d1d1"
     inkscape:document-units="pt"
     inkscape:zoom="1.9588858"
     inkscape:cx="48.241709"
     inkscape:cy="110.52201"
     inkscape:window-width="1440"
     inkscape:window-height="785"
     inkscape:window-x="0"
     inkscape:window-y="25"
     inkscape:window-maximized="1"
     inkscape:current-layer="layer6"
     showguides="true" /><defs
     id="defs1"><clipPath
       id="c"><path
         d="M 6.699219 48.574219 L 56.949219 -1.675781 L 123.949219 48.574219 C 123.949219 90.203125 90.203125 123.949219 48.574219 123.949219 C 6.945312 123.949219 -26.800781 90.203125 -26.800781 48.574219 "
         id="path2-91" /></clipPath><clipPath
       id="a-3"><path
         d="M 6.699219 48.574219 L 56.949219 -1.675781 L 123.949219 48.574219 C 123.949219 90.203125 90.203125 123.949219 48.574219 123.949219 C 6.945312 123.949219 -26.800781 90.203125 -26.800781 48.574219 "
         id="path4-00" /></clipPath><clipPath
       id="a-6"><path
         d="M 13.398438 46.898438 L 67 20.101562 L 375.199219 40.199219 C 375.199219 225.214844 225.214844 375.199219 40.199219 375.199219 C -144.816406 375.199219 -294.800781 225.214844 -294.800781 40.199219 "
         id="path3-14" /></clipPath><clipPath
       clipPathUnits="userSpaceOnUse"
       id="clipPath48"><g
         id="g49"
         style="stroke-width:1"><path
           d="M 5.0000013,9.6132557 H 94.999999 V 56.629093 H 5.0000013 Z m 0,0"
           id="path48"
           style="stroke-width:1" /></g></clipPath><clipPath
       id="a"><path
         d="M 3 0 L 60 0 L 60 73.699219 L 3 73.699219 Z M 3 0 "
         id="path1-77" /></clipPath><clipPath
       id="d"><path
         d="M 28 20 L 66 20 L 66 77 L 28 77 Z M 28 20 "
         id="path1-48" /></clipPath><clipPath
       id="c-0"><path
         d="M 6.699219 48.574219 L 56.949219 -1.675781 L 123.949219 48.574219 C 123.949219 90.203125 90.203125 123.949219 48.574219 123.949219 C 6.945312 123.949219 -26.800781 90.203125 -26.800781 48.574219 "
         id="path2" /></clipPath><clipPath
       id="b"><path
         d="M 28 23 L 49 23 L 49 52 L 28 52 Z M 28 23 "
         id="path3-4" /></clipPath><clipPath
       id="a-60"><path
         d="M 6.699219 48.574219 L 56.949219 -1.675781 L 123.949219 48.574219 C 123.949219 90.203125 90.203125 123.949219 48.574219 123.949219 C 6.945312 123.949219 -26.800781 90.203125 -26.800781 48.574219 "
         id="path4" /></clipPath></defs><g
     inkscape:groupmode="layer"
     id="layer6"
     inkscape:label="other"
     inkscape:highlight-color="#f3215a"><path
       id="path1-79"
       style="display:inline;stroke-width:0.749999"
       d="m 42.906738,10.415039 c -16.316584,0 -32.633047,10.406062 -33.766113,31.217285 1.641645,30.149185 35.152068,38.450985 54.360352,24.918457 8.95463,6.24131 16.471896,13.916224 22.551269,23.033203 l 4.806152,-4.806152 C 81.872109,78.782839 74.283505,71.386463 68.085938,62.598633 72.928502,57.506614 76.188788,50.522275 76.672852,41.632324 75.539786,20.821101 59.223323,10.415039 42.906738,10.415039 Z m 0,1.700684 c 14.050455,0 28.10084,9.838441 26.967774,29.516601 2.266131,39.351897 -56.201678,39.351897 -53.935547,0 -1.133066,-19.67816 12.917318,-29.516601 26.967773,-29.516601 z"
       inkscape:label="magnifying-glass" /></g><g
     inkscape:groupmode="layer"
     id="layer5"
     inkscape:label="tab icons"
     style="display:inline"><path
       id="path1-039"
       style="display:none;stroke-width:0.75"
       d="m 50.000001,12.68165 c -11.428813,0 -22.856793,4.763497 -24.075867,14.292055 2.438147,4.559288 2.438147,9.121779 0,13.681066 2.438147,14.918982 -6.239102,26.545348 -16.7631342,24.91179 v 4.900681 c 0.00368,-5.06e-4 0.00745,-0.0011 0.01116,-0.0016 l -0.01116,0.0048 c 8.0554682,3.007598 17.4339852,4.982751 27.2265312,5.926442 2.393491,14.561955 24.833044,14.561955 27.226533,0 h -0.01435 C 73.397467,75.453055 82.779579,73.476293 90.839,70.46725 V 65.566568 C 80.31496,67.200126 71.639315,55.57376 74.077461,40.654778 71.639315,36.095491 71.639315,31.533 74.077461,26.973712 72.85839,17.445147 61.428813,12.68165 50.000001,12.68165 Z m 0,1.22517 c 8.990665,0 17.982207,4.355106 16.763133,13.066885 2.438148,4.559288 2.438148,9.121779 0,13.681066 1.853619,11.635772 7.854162,21.862108 15.909663,26.816547 -17.450933,9.964537 -47.895142,9.966454 -65.345593,0.0016 8.057799,-4.953736 14.057405,-15.18091 15.911258,-26.818142 -2.438147,-4.559286 -2.438147,-9.121778 0,-13.681065 -1.219073,-8.71178 7.770872,-13.066885 16.761539,-13.066885 z m -6.518288,62.984588 c 4.334372,0.196051 8.7038,0.196375 13.038171,0 1.798418,11.507799 -14.836589,11.507799 -13.038171,0 z"
       inkscape:label="notifications" /><path
       id="path7"
       style="display:none;stroke-width:0.749999"
       d="m 49.999512,11.67627 c -19.860104,0 -39.719498,12.776241 -40.8383792,38.324707 2.2377592,51.096923 79.4404652,51.096923 81.6782222,0 C 89.720477,24.452511 69.859603,11.67627 49.999512,11.67627 Z m 0,1.67871 c 17.622345,0 35.245344,12.21641 34.126465,36.645997 2.237759,48.859166 -70.489224,48.859166 -68.251465,0 C 14.755633,25.57139 32.377167,13.35498 49.999512,13.35498 Z m -0.169922,6.424805 c -14.408295,2.13889 -23.644395,18.133925 -18.292969,31.681641 6.048792,8.003106 11.474766,16.367692 16.286133,25.085449 0.01568,0.02836 0.02986,0.0566 0.04541,0.08496 0.644337,1.168762 1.27633,2.344312 1.898438,3.525879 0.01141,0.02096 0.02271,0.04203 0.03369,0.06299 0.614548,-1.189254 1.243032,-2.371908 1.87793,-3.550781 0.01141,-0.02139 0.02214,-0.04455 0.03369,-0.06592 5.251311,-9.743403 11.19661,-19.134631 17.874026,-28.224608 2.52323,-13.192627 -6.76844,-26.46072 -19.756348,-28.59961 z m 2.443359,6.161133 c 0.264368,-0.007 0.527331,-0.0066 0.786621,0 10.02599,0.251071 16.099246,10.51282 10.681641,19.731445 -4.023368,9.509963 -8.69816,18.74956 -13.990723,27.679688 C 44.98676,65.299788 40.765663,56.934541 37.092773,48.253418 28.654189,37.914041 36.657851,24.056906 49.82959,26.195801 c 0.835083,-0.150392 1.650241,-0.233862 2.443359,-0.254883 z m -2.271972,5.938477 c -4.651678,0 -9.303109,2.654705 -10.372559,7.964355 2.1389,10.623458 18.604753,10.623458 20.743652,0 -1.06945,-5.30965 -5.719415,-7.964355 -10.371093,-7.964355 z m 0,1.604003 c 2.512779,0 5.023063,2.120151 3.953613,6.360352 2.1389,8.484562 -10.049041,8.484562 -7.910156,0 -1.069437,-4.2402 1.443764,-6.360351 3.956543,-6.360352 z"
       inkscape:label="location" /><path
       id="path1-18"
       style="display:none;stroke-width:0.749999"
       d="m 50.000001,11.677794 c -19.860121,0 -39.720281,12.773189 -40.8391605,38.321678 2.2377615,51.096978 79.4405585,51.096978 81.6783185,0 C 89.720279,24.450986 69.860122,11.677794 50.000001,11.677794 Z m -3.273602,1.818182 c 1.012146,11.604823 1.539761,23.210652 1.58654,34.816433 C 37.489512,48.268847 26.666174,47.805778 15.843532,46.922549 16.254985,26.000202 31.019654,14.851551 46.726399,13.495976 Z m 6.547204,0 c 15.706745,1.355575 30.471414,12.504227 30.882867,33.426572 -10.822642,0.883229 -21.64598,1.346238 -32.469407,1.38986 0.04678,-11.605781 0.574394,-23.211607 1.58654,-34.816432 z m -4.960664,38.190558 c -0.04678,11.605781 -0.574394,23.211614 -1.58654,34.816434 -15.707293,-1.355624 -30.472405,-12.50281 -30.882867,-33.426574 10.822642,-0.883229 21.64598,-1.346237 32.469407,-1.38986 z m 3.374124,0 c 10.823427,0.04356 21.646765,0.506631 32.469407,1.38986 C 83.746008,74.000159 68.980896,85.147345 53.273603,86.502968 52.261457,74.898148 51.733842,63.292315 51.687063,51.686534 Z"
       inkscape:label="bodies" /><path
       id="path1-74"
       style="display:none;stroke-width:0.749999"
       d="m 50,10 c -15.074298,2.237759 -24.737761,18.972915 -19.138999,33.146853 1.378208,1.823499 2.726027,3.665452 4.042846,5.524476 -4.338573,-0.278188 -8.677162,-0.670774 -13.015735,-1.188812 v 6.713287 c 5.29647,-0.632415 10.59294,-1.079935 15.88941,-1.354896 3.622981,5.373092 6.998139,10.888521 10.122383,16.549388 -3.620998,5.892997 -7.499323,11.652953 -11.636796,17.266173 l 5.830414,3.326051 C 44.516095,84.288625 47.142885,78.710484 49.97158,73.23645 52.842973,78.694787 55.492692,84.281002 57.910833,90 l 5.817301,-3.356643 C 59.522305,81.078637 55.6054,75.3467 51.971155,69.451486 c 3.047415,-5.65406 6.318844,-11.195813 9.820793,-16.632431 5.43997,0.272464 10.87997,0.7272 16.31994,1.376749 v -6.713287 c -4.540375,0.542134 -9.080705,0.950879 -13.62108,1.230333 1.98964,-2.960484 4.047381,-5.891256 6.177895,-8.791522 C 73.308561,26.118892 63.588259,12.237759 50,10 Z m 3.378484,6.446678 C 63.86792,16.709353 70.22221,27.44442 64.554197,37.089161 62.857734,41.099053 61.045042,45.06153 59.130234,48.977273 53.023008,49.21411 46.915782,49.213512 40.808556,48.975073 39.364155,45.951729 37.985469,42.890074 36.673947,39.790196 27.845274,28.97295 36.219413,14.475564 50,16.713325 c 1.164904,-0.209791 2.293378,-0.293783 3.378484,-0.266609 z M 50,52.517483 c 2.435163,0 4.870325,0.04026 7.305503,0.115826 -2.316487,4.540127 -4.778562,9.013201 -7.386361,13.413462 C 47.326844,61.664876 44.886146,57.195569 42.602704,52.635495 45.068449,52.558025 47.53424,52.51749 50,52.51749 Z"
       inkscape:label="credits" /></g><g
     inkscape:groupmode="layer"
     id="layer3"
     inkscape:label="dwarf moons"><path
       id="path1-00"
       style="display:none;stroke-width:0.75"
       d="m 12.499512,9.140625 v 6.716309 C 22.163285,13.618086 30.130938,29.55254 27.89209,49.999512 30.130938,70.446483 22.163285,86.380938 12.499512,84.14209 v 6.716308 C 23.041533,88.72246 31.548089,72.563009 34.252441,52.867676 c 10.498928,-1.579134 20.995213,-1.57769 31.494141,0.0015 2.704912,19.694724 11.216783,35.853367 21.754395,37.989257 V 84.14209 C 77.837202,86.380938 69.869551,70.446483 72.108398,49.999512 69.869551,29.55254 77.837202,13.618086 87.500977,15.856934 V 9.140625 C 76.963742,11.276438 68.451813,27.439548 65.746582,47.129883 55.247654,48.709037 44.751369,48.710481 34.252441,47.131348 31.54777,27.440404 23.041156,11.276487 12.499512,9.140625 Z m 37.5,11.893066 c -5.80701,0 -11.612999,3.405265 -12.732422,10.215821 2.238847,13.621111 23.227462,13.621111 25.466308,0 C 61.613975,24.438956 55.806522,21.033691 49.999512,21.033691 Z m 0,1.678711 c 3.568162,0 7.137001,2.845978 6.017578,8.53711 2.238847,11.382264 -14.272538,11.382264 -12.033692,0 -1.119423,-5.691132 2.447951,-8.53711 6.016114,-8.53711 z m 0,35.822754 c -5.80701,0 -11.612999,3.405265 -12.732422,10.215821 2.238847,13.621111 23.227462,13.621111 25.466308,0 C 61.613975,61.940421 55.806522,58.535156 49.999512,58.535156 Z m 0,1.678711 c 3.568162,0 7.137001,2.845977 6.017578,8.53711 2.238847,11.382263 -14.272538,11.382263 -12.033692,0 -1.119423,-5.691133 2.447951,-8.53711 6.016114,-8.53711 z"
       inkscape:label="hiiaka" /><path
       id="path1-53"
       style="display:none;stroke-width:0.75"
       d="m 49.999512,21.033691 c -5.80701,0 -11.612999,3.405265 -12.732422,10.215821 2.238847,13.621111 23.227461,13.621111 25.466308,0 C 61.613975,24.438956 55.806522,21.033691 49.999512,21.033691 Z m 0,1.678711 c 3.568162,0 7.137002,2.845978 6.017578,8.53711 2.238848,11.382264 -14.272539,11.382264 -12.033692,0 -1.119423,-5.691132 2.447951,-8.53711 6.016114,-8.53711 z M 14.003906,28.245117 10.125,33.624023 c 11.609647,8.443778 11.609647,24.308664 0,32.752442 l 4.749023,4.749023 c 7.059166,-9.515117 8.637886,-22.310545 4.744629,-33.297363 22.916737,9.728067 45.044538,21.031367 66.382325,33.925781 l 3.874511,-5.377441 c -11.609646,-8.443778 -11.609646,-24.308664 0,-32.752442 L 85.126465,28.875 c -7.05879,9.514611 -8.63856,22.309472 -4.746094,33.295898 C 57.46227,52.445581 35.33636,41.138657 14.003906,28.245117 Z m 35.995606,30.290039 c -5.80701,0 -11.612999,3.405265 -12.732422,10.215821 2.238847,13.621111 23.227461,13.621111 25.466308,0 C 61.613975,61.940421 55.806522,58.535156 49.999512,58.535156 Z m 0,1.678711 c 3.568162,0 7.137002,2.845977 6.017578,8.53711 2.238848,11.382263 -14.272539,11.382263 -12.033692,0 -1.119423,-5.691133 2.447951,-8.53711 6.016114,-8.53711 z"
       inkscape:label="namaka" /><path
       d="M 46.641726,50 C 48.880576,34.830921 40.926538,21.056749 15.813819,9.1409984 c 26.971139,2.2388496 41.405597,2.2388496 68.372362,0 C 59.073463,21.056749 51.119425,34.830921 53.358275,50 c -2.23885,15.173451 5.715188,28.947623 30.827906,40.859002 -26.966765,-2.23885 -41.401223,-2.23885 -68.372362,0 C 40.926538,78.947623 48.880576,65.173451 46.641726,50 h 6.716549 c -2.23885,15.772518 -10.791954,30.587406 -12.475464,34.142453 1.902147,2.23885 16.336605,2.23885 18.234379,0 C 57.43368,80.587406 48.880576,65.772518 46.641726,50 48.880576,34.231853 57.43368,19.416967 59.11719,15.857547 c -1.897774,-2.23885 -16.332232,-2.23885 -18.234379,0 C 42.566321,19.416967 51.119425,34.231853 53.358275,50"
       stroke="none"
       fill-rule="nonzero"
       fill="#000000"
       fill-opacity="1"
       id="path1-23"
       style="display:none;stroke-width:0.75"
       inkscape:label="dysnomia" /><path
       id="path1-30"
       style="display:none;stroke-width:0.75"
       d="m 32.928223,10.400391 c -26.1184257,2.238846 -26.1184257,41.978925 0,44.217773 9.891156,-2.238848 17.631425,5.501421 15.392578,15.392578 2.238847,23.879579 -33.022539,23.879579 -30.783692,0 h -6.716308 c 2.238847,26.118426 41.977462,26.118426 44.216308,0 -2.238846,-10.81818 -11.290707,-19.870039 -22.108886,-22.108887 -23.8795786,2.238848 -23.8795786,-33.022538 0,-30.783691 11.430385,-1.364822 22.861607,-1.887085 34.291992,-1.587891 2.08274,24.408876 2.036565,48.821791 -0.149414,73.230469 h 6.716308 C 71.608911,64.438953 71.557002,40.113029 73.617188,15.791016 c 5.187598,0.276671 10.374901,0.707733 15.5625,1.327148 v -6.717773 c -18.750346,2.238846 -37.50112,2.238846 -56.251465,0 z"
       inkscape:label="styx 2" /><path
       id="path1-45"
       style="display:none;stroke-width:0.75"
       d="m 49.999512,11.658691 c -5.80701,0 -11.612999,3.405265 -12.732422,10.215821 2.238847,13.621111 23.227462,13.621111 25.466308,0 C 61.613975,15.063956 55.806522,11.658691 49.999512,11.658691 Z m -31.483887,0.840821 c 1.040008,17.940133 14.218952,27.54074 28.258301,28.813476 1.051887,5.363062 1.567379,10.727263 1.54248,16.091309 -4.126545,-0.271407 -8.252849,-0.730245 -12.379394,-1.387207 -8.229513,2.238848 -15.182539,9.191874 -17.421387,17.421387 2.238848,19.869769 32.603927,19.869769 34.842773,0 -0.837869,-4.092795 -1.362503,-8.186225 -1.573242,-12.279786 8.779941,-0.347604 17.56088,0.176906 26.340821,1.574707 V 56.01709 C 69.313324,57.4201 60.499664,57.944294 51.687012,57.588867 51.649334,52.163261 52.162597,46.7376 53.226563,41.312988 67.265367,40.039721 80.443426,30.439026 81.483398,12.499512 H 74.76709 c 2.238848,36.381266 -51.772538,36.381266 -49.533692,0 z m 31.483887,0.839355 c 3.568162,0 7.137001,2.844512 6.017578,8.535645 2.238847,11.382264 -14.272538,11.382264 -12.033692,0 -1.119423,-5.691133 2.447951,-8.535645 6.016114,-8.535645 z M 48.200684,61.35498 c -0.217236,4.028107 -0.734121,8.05614 -1.558594,12.083497 2.238847,17.630921 -23.647538,17.630921 -21.408692,0 -2.238846,-7.30249 3.401124,-12.943926 10.703614,-10.705079 4.087964,-0.65082 8.175707,-1.105977 12.263672,-1.378418 z"
       inkscape:label="styx" /><path
       id="path5-01"
       style="display:none;stroke-width:0.75"
       d="M 58.680176,9.6328125 C 48.834199,22.338697 37.690653,33.751754 25.26416,43.87793 25.095224,33.254194 25.643603,22.63106 26.912109,12.007324 h -6.716308 c 2.238848,18.750345 2.238848,37.50112 0,56.251465 h 6.716308 C 26.2801,62.965712 25.832316,57.672959 25.557129,52.379883 l 0.370605,-0.498047 c 4.338206,-5.594321 8.930221,-10.93572 13.768067,-16.03125 1.441885,18.575405 1.197918,35.281393 -0.75,54.51709 15.859911,-2.238841 28.357236,-2.238841 40.858887,0 v -6.717774 c -12.501651,2.238841 -24.999189,2.238841 -34.142579,0 -1.614782,-11.10162 -2.057829,-23.945189 -1.343261,-36.020507 4.113174,7.71327 10.042098,13.243673 16.73584,14.611816 v -6.716309 c -8.410648,1.930188 -15.41661,-6.586337 -15.75586,-18.707519 0.114341,-0.909803 0.234014,-1.812462 0.363281,-2.701172 9.14339,-2.238841 21.640928,-2.238841 34.142579,0 v -6.716309 c -10.253733,1.836276 -20.530923,2.145718 -32.636719,0.969727 5.165146,-4.91831 10.582388,-9.584045 16.26123,-13.987793 z"
       inkscape:label="kerberos 2" /><path
       id="path4-81"
       style="display:none;stroke-width:0.75"
       d="m 49.999512,11.147461 c -5.80701,0 -11.612999,3.405265 -12.732422,10.21582 2.238847,13.621112 23.227462,13.621112 25.466308,0 -1.119423,-6.810555 -6.926876,-10.21582 -12.733886,-10.21582 z m -33.358887,0.84082 c 2.238847,24.999003 2.238847,50.002463 0,75.001465 h 6.716309 C 22.541197,77.881218 22.025499,68.772352 21.804199,59.663086 30.860234,54.441636 39.819708,49.432371 47.972168,44.588379 59.782462,58.694755 69.363724,73.199155 77.20752,88.853027 l 5.588378,-3.726562 C 71.002089,71.450339 61.052112,56.541544 53.494629,41.244141 69.862563,31.147751 81.983163,21.638628 83.359863,11.988281 H 76.643555 C 78.855705,26.125307 50.197007,40.633529 21.694336,52.472168 21.598208,38.977217 22.148465,25.48206 23.356934,11.988281 Z m 33.358887,0.837891 c 3.568162,0 7.137001,2.845977 6.017578,8.537109 2.238847,11.382265 -14.272538,11.382265 -12.033692,0 -1.119423,-5.691132 2.447951,-8.537109 6.016114,-8.537109 z"
       inkscape:label="kerberos" /><path
       id="path1-96"
       style="display:none;stroke-width:0.75"
       d="m 53.181152,11.749512 -6.008789,3.004394 c 6.719329,9.356521 12.109771,19.379681 17.791992,33.303223 -18.348363,1.488644 -34.509617,1.328026 -50.591308,-0.476074 0.08659,-11.444386 0.636291,-22.888152 1.661133,-34.331543 H 9.3178711 c 2.2388479,24.999002 2.2388479,50.002463 0,75.001465 H 16.03418 C 15.009338,76.807585 14.459638,65.362354 14.373047,53.917969 32.554744,51.87768 50.64163,51.937096 65.569336,54.108398 c 2.238848,9.143418 2.238848,21.64089 0,34.142579 h 6.716309 C 70.202046,76.616198 70.06035,64.980876 71.85498,50.639648 77.925908,35.359606 83.560249,24.676909 90.682617,14.753906 L 84.673828,11.749512 C 80.427889,25.248186 74.178428,37.750016 68.926758,43.242188 63.679459,37.750016 57.427091,25.248186 53.181152,11.749512 Z"
       inkscape:label="hydra 2" /><path
       id="path1-03"
       style="display:none;stroke-width:0.75"
       d="m 49.999512,10.400391 c -5.80701,0 -11.612999,3.405264 -12.732422,10.21582 2.238847,13.621111 23.227462,13.621111 25.466308,0 -1.119423,-6.810556 -6.926876,-10.21582 -12.733886,-10.21582 z m 0,1.678711 c 3.568162,0 7.137001,2.845977 6.017578,8.537109 2.238847,11.382265 -14.272538,11.382265 -12.033692,0 -1.119423,-5.691132 2.447951,-8.537109 6.016114,-8.537109 z m -18.75,17.072753 c -10.494596,0 -20.989463,6.530143 -22.108887,19.589356 h 6.716309 c -2.238848,-23.879579 33.024003,-23.879579 30.785156,0 2.137573,11.936179 2.228368,23.867893 0.28418,35.803711 C 35.450145,84.4607 23.974639,83.911473 12.499512,82.883789 v 6.716309 c 24.999002,-2.238847 50.002463,-2.238847 75.001465,0 V 82.883789 C 76.025849,83.911473 64.548878,84.4607 53.072754,84.544922 51.128576,72.609126 51.220829,60.677368 53.358398,48.741211 c -2.238846,-23.879579 33.02254,-23.879579 30.783692,0 h 6.716308 C 88.959741,26.591453 60.095803,23.229945 50.000977,38.648438 45.858006,32.320052 38.555075,29.151855 31.249512,29.151855 Z"
       inkscape:label="hydra" /><path
       id="path2-43"
       clip-path="none"
       style="clip-rule:nonzero;display:none;stroke-width:0.75"
       d="M 10.970215,7.0708008 C 13.041696,40.764259 13.002897,65.205477 10.820801,89.570801 h 6.716308 c -2.238841,-24.998952 -2.238841,-50.00211 0,-64.92627 12.75629,13.726 28.857954,34.851341 48.205079,63.14209 -4.687365,-0.209892 -9.374368,-0.733675 -14.0625,-1.573242 v 6.716309 c 12.501687,-2.238847 24.998311,-2.238847 37.5,0 V 86.213379 C 83.826425,87.17206 78.474416,87.716343 73.12207,87.854004 71.646343,59.595263 71.813714,37.810749 73.649414,16.303711 c 5.176581,0.159217 10.352813,0.697314 15.530274,1.624512 v -6.716309 c -12.501689,2.238847 -24.998313,2.238847 -37.5,0 v 6.716309 C 56.856172,17.001199 62.031426,16.463042 67.207031,16.303711 69.29262,40.71826 69.257757,64.918786 67.070801,79.49707 52.949626,64.302432 34.759016,40.113367 12.5625,7.0708008 Z"
       inkscape:label="nix 2" /><path
       id="path1-27"
       style="display:none;stroke-width:0.75"
       d="m 49.999512,9.3618164 c -5.80701,0 -11.612999,3.4052646 -12.732422,10.2158206 2.238847,13.621111 23.227462,13.621111 25.466308,0 C 61.613975,12.767081 55.806522,9.3618164 49.999512,9.3618164 Z M 9.140625,10.202637 C 10.199182,34.37371 28.025241,47.109082 46.762207,48.42334 47.639733,53.519211 48.147712,58.613918 48.28125,63.708984 36.133804,57.59482 23.092246,50.453666 9.140625,42.266602 c 2.238847,17.937014 2.238847,30.435812 0,42.9375 h 6.716309 c -2.238848,-12.501688 -2.238848,-24.999069 0,-32.06543 9.957824,3.799831 20.782748,8.595318 32.452148,14.361328 -0.05904,5.900647 -0.610099,11.802426 -1.666992,17.704102 h 6.716308 C 52.402953,79.868907 51.859196,74.5335 51.719238,69.199219 c 12.147402,6.113585 25.187598,13.252423 39.13916,21.439453 -2.238847,-17.937014 -2.238847,-30.434348 0,-42.936035 H 84.14209 c 2.238848,12.501687 2.238848,24.999068 0,32.065429 -9.957825,-3.797772 -20.781283,-8.593403 -32.450684,-14.359863 0.05649,-5.661376 0.570355,-11.322575 1.54541,-16.984863 18.7375,-1.313699 36.562998,-14.049003 37.621582,-38.220703 H 84.14209 c 2.238848,48.882954 -70.524004,48.882954 -68.285156,0 z m 40.858887,0.83789 c 3.568162,0 7.137001,2.845978 6.017578,8.53711 2.238847,11.382264 -14.272538,11.382264 -12.033692,0 -1.119423,-5.691132 2.447951,-8.53711 6.016114,-8.53711 z"
       inkscape:label="nix" /><path
       id="path1-02"
       style="display:none;stroke-width:0.75"
       d="M 51.867188,11.510742 C 37.172855,11.821427 23.392165,22.956242 21.643066,38.493164 23.792057,52.192983 34.79771,63.65626 48.295898,66.534668 48.176426,73.856009 47.62552,81.175581 46.64209,88.495605 h 6.716308 C 52.370313,81.140931 51.820519,73.786666 51.70459,66.430664 c 7.197899,-1.669882 14.395693,-1.669863 21.590332,0 -0.115929,7.356002 -0.665724,14.710267 -1.653809,22.064941 h 6.716309 c -2.238847,-16.664544 -2.238847,-33.333525 0,-50.002441 h -6.716309 c 0.988089,7.356634 1.537883,14.714543 1.653809,22.070801 -7.194639,1.669863 -14.392433,1.669883 -21.590332,0 0.115926,-7.356258 0.665719,-14.714167 1.653808,-22.070801 H 46.64209 c 0.978512,7.285333 1.52917,14.571966 1.652344,21.856934 C 35.776675,61.456817 26.216971,51.2639 28.359375,38.493164 26.120528,19.895865 45.83346,8.5139902 60.823242,19.751953 l 3.357422,-5.81543 C 60.167028,12.185101 55.9816,11.42375 51.867188,11.510742 Z"
       inkscape:label="charon 2" /><path
       id="path1-40"
       style="display:none;stroke-width:0.75"
       d="m 49.999512,11.658691 c -5.80701,0 -11.612999,3.405265 -12.732422,10.215821 2.238847,13.621111 23.227462,13.621111 25.466308,0 C 61.613975,15.063956 55.806522,11.658691 49.999512,11.658691 Z m 0,1.678711 c 3.568162,0 7.137001,2.845978 6.017578,8.53711 2.238847,11.382264 -14.272538,11.382264 -12.033692,0 -1.119423,-5.691132 2.447951,-8.53711 6.016114,-8.53711 z M 15.407227,48.320801 9.140625,49.999512 c 2.238847,51.121798 79.478926,51.121798 81.717773,0 l -6.265136,-1.678711 c -14.403833,29.428595 -54.77783,29.428595 -69.186035,0 z m 1.101562,11.540039 c 18.469817,17.397393 48.513094,17.397393 66.98291,0 -6.715664,35.724501 -60.267245,35.724501 -66.98291,0 z"
       inkscape:label="charon" /></g><g
     inkscape:groupmode="layer"
     id="layer2"
     inkscape:label="moons"><path
       id="path1-376"
       style="display:none;stroke-width:0.75"
       d="m 18.515625,9.7822266 c 1.075859,18.5585654 15.142024,28.1937704 29.712891,28.9160154 0.167098,8.151726 0.0936,16.303931 -0.215332,24.455567 C 35.941522,57.069322 22.99016,49.974815 9.140625,41.847656 c 2.238847,17.937014 2.238847,30.434347 0,42.936035 h 6.716309 c -2.238848,-12.501688 -2.238848,-24.999068 0,-32.065429 9.829749,3.750959 20.504866,8.471798 32.002441,14.138672 -0.279316,5.975734 -0.682148,11.951403 -1.217285,17.926757 h 6.716308 C 52.888633,79.538283 52.52214,74.292588 52.249512,69.046875 c 11.997222,6.054626 24.859375,13.102924 38.608886,21.171387 -2.238847,-17.937014 -2.238847,-30.434348 0,-42.936035 H 84.14209 c 2.238848,12.501687 2.238848,24.999067 0,32.065429 C 74.290605,75.59044 63.591637,70.856449 52.064941,65.172363 51.687971,56.347901 51.589616,47.522839 51.770508,38.698242 66.341767,37.976429 80.407512,28.341261 81.483398,9.7822266 H 74.76709 C 75.834316,27.124645 64.119241,36.19329 51.808594,37.001953 52.031345,27.928334 52.545854,18.855112 53.358398,9.7822266 H 46.64209 C 47.454634,18.855109 47.967678,27.928337 48.19043,37.001953 35.880045,36.192984 24.166194,27.124307 25.233398,9.7822266 Z"
       inkscape:label="nereid" /><path
       id="path1-34"
       style="display:none;stroke-width:0.75"
       d="m 27.89209,12.499512 c 1.053794,12.293573 10.415668,18.798292 20.264648,19.519043 0.19842,5.430774 0.210902,10.861218 0.03369,16.291992 C 36.292894,48.259149 24.396009,47.70751 12.499512,46.64209 v 6.716308 c 5.256147,-0.470727 10.51259,-0.837569 15.769043,-1.110351 1.852445,11.752076 1.728222,23.500391 -0.376465,35.25293 h 6.716308 C 32.487715,75.659109 32.379048,63.821434 34.275879,51.97998 c 4.593893,-0.172493 9.187287,-0.26873 13.78125,-0.290039 -0.267145,5.686618 -0.73604,11.374418 -1.415039,17.061036 h 6.716308 c -0.679001,-5.68664 -1.14936,-11.374396 -1.416503,-17.061036 4.593962,0.02131 9.188821,0.117546 13.782714,0.290039 1.896831,11.841454 1.788165,23.679129 -0.332519,35.520997 h 6.716308 c -2.104687,-11.752539 -2.22891,-23.500854 -0.376464,-35.25293 5.256452,0.272782 10.512895,0.639624 15.769043,1.110351 V 46.64209 C 75.604479,47.70751 63.706129,48.259149 51.808594,48.310547 51.631384,42.879784 51.643867,37.449317 51.842285,32.018555 61.6918,31.29834 71.054552,24.793692 72.108398,12.499512 H 65.39209 c 1.033034,11.018362 -5.918248,16.947533 -13.485352,17.797851 0.26011,-5.932733 0.743275,-11.865118 1.45166,-17.797851 H 46.64209 c 0.708386,5.932734 1.19155,11.865117 1.45166,17.797851 C 40.526646,29.447045 33.575364,23.517874 34.608398,12.499512 Z"
       inkscape:label="proteus" /><path
       id="path1-89"
       style="display:none;stroke-width:0.75"
       d="m 27.89209,12.499512 c 1.972278,5.504658 2.204279,11.012111 0.70166,16.517578 -5.364854,-0.274242 -10.729701,-0.644566 -16.094238,-1.125 v 6.716308 c 5.229774,-0.468365 10.459864,-0.833555 15.689941,-1.105957 1.950531,10.898058 10.840676,16.654556 20.126953,17.274903 -0.02274,12.241304 -0.578112,24.483399 -1.674316,36.723633 h 6.716308 C 52.262194,75.260743 51.70682,63.018648 51.684082,50.777344 c 9.28627,-0.620346 18.174949,-6.37686 20.125488,-17.274903 5.230564,0.272409 10.461145,0.637549 15.691407,1.105957 V 27.89209 c -5.364538,0.480434 -10.729385,0.850758 -16.094239,1.125 C 69.90412,23.511623 70.13612,18.00417 72.108398,12.499512 H 65.39209 c 2.000974,5.58475 2.208588,11.17232 0.632812,16.757812 -4.613433,0.176536 -9.227803,0.277696 -13.841308,0.301758 0.277581,-5.686647 0.665554,-11.373272 1.174804,-17.05957 H 46.64209 c 0.50925,5.686298 0.895759,11.372923 1.17334,17.05957 C 43.201924,29.53502 38.589019,29.43386 33.975586,29.257324 32.399811,23.671832 32.607424,18.084262 34.608398,12.499512 Z m 20.074219,20.440429 c 0.219097,5.378096 0.336742,10.755597 0.348632,16.133789 C 41.128289,48.361477 34.43483,43.077365 34.510254,33.221191 38.99575,33.055279 43.480746,32.96172 47.966309,32.939941 Z m 4.066406,0 c 4.485562,0.02178 8.972023,0.115338 13.457519,0.28125 0.07542,9.856174 -6.618035,15.140286 -13.804687,15.852539 0.01189,-5.378185 0.128071,-10.7557 0.347168,-16.133789 z"
       inkscape:label="triton" /><path
       id="path1-84"
       style="display:none;stroke-width:0.75"
       d="m 9.140625,9.3618164 c 2.238847,17.9370146 2.238847,30.4343476 0,42.9360356 h 6.716309 c -2.238848,-12.501688 -2.238848,-24.999068 0,-32.06543 7.955787,1.670876 19.187219,7.110943 31.064941,14.989746 1.922193,11.785803 1.856924,23.567951 -0.200684,35.354004 -4.56593,1.048549 -8.547475,4.330781 -9.454101,9.84668 2.238847,13.621111 23.227462,13.621111 25.466308,0 C 61.82678,74.907 57.845179,71.624749 53.279297,70.576172 51.221685,58.790126 51.154964,47.007964 53.077148,35.222168 64.955249,27.342998 76.186074,21.903346 84.14209,20.232422 c 2.238848,7.066362 2.238848,19.563742 0,32.06543 h 6.716308 c -2.238847,-12.501688 -2.238847,-24.999021 0,-42.9360356 C 74.499947,20.048813 61.998333,26.296702 49.999512,29.790527 38.00069,26.296702 25.499076,20.048813 9.140625,9.3618164 Z M 49.999512,71.885742 c 3.568162,0 7.137001,2.845977 6.017578,8.53711 2.238847,11.382263 -14.272538,11.382263 -12.033692,0 -1.119423,-5.691133 2.447951,-8.53711 6.016114,-8.53711 z"
       inkscape:label="miranda" /><path
       id="path1-41"
       style="display:none;stroke-width:0.75"
       d="M 50.001093,9.3614991 C 38.325787,24.20299 25.066052,37.460537 10.224562,49.135842 l 4.750971,4.748784 c 4.656131,-5.91881 9.579652,-11.569981 14.740469,-16.983679 5.738428,-0.946876 11.475972,-1.487664 17.213248,-1.631029 1.914251,11.770251 1.845192,23.537093 -0.209891,35.307601 -4.565828,1.04859 -8.547231,4.329406 -9.45384,9.845201 2.238835,13.621041 23.227939,13.621041 25.466775,0 -0.90662,-5.515864 -4.88794,-8.796655 -9.453841,-9.845201 -2.055205,-11.771217 -2.124496,-23.538827 -0.209891,-35.309786 5.738026,0.14327 11.476262,0.686214 17.215434,1.633214 5.161392,5.413408 10.086454,11.064778 14.742656,16.983679 l 4.748786,-4.748784 C 74.933947,37.460535 61.676397,24.20299 50.001093,9.3614991 Z m -0.0022,8.5967859 c 5.019023,4.159385 9.843816,8.513026 14.484666,13.050409 -9.655714,1.137791 -19.31142,1.137537 -28.967144,0 4.640115,-4.537443 9.463866,-8.891174 14.482478,-13.050409 z m 0,53.926681 c 3.568143,0 7.136293,2.846652 6.016876,8.537754 2.238834,11.382201 -14.272587,11.382201 -12.033751,0 -1.119419,-5.691102 2.448731,-8.537754 6.016875,-8.537754 z"
       inkscape:label="ariel" /><path
       id="path1-093"
       style="display:none;stroke-width:0.75"
       d="m 21.643066,12.079102 c 1.030917,15.864438 12.6636,24.417069 25.133789,25.671386 2.06397,10.037844 2.051697,20.071656 -0.03955,30.105469 -4.57258,1.044578 -8.562538,4.327314 -9.470215,9.849609 2.238847,13.621112 23.227462,13.621112 25.466308,0 C 61.825726,72.183301 57.835733,68.900553 53.263184,67.855957 51.171935,57.822183 51.158232,47.788293 53.222164,37.750488 65.692644,36.496446 77.32648,27.943866 78.357418,12.079102 h -6.716309 c 2.238847,32.214035 -45.520585,32.214035 -43.281738,0 z m 28.356446,57.089355 c 3.568162,0 7.137001,2.845977 6.017578,8.537109 2.238847,11.382264 -14.272538,11.382264 -12.033692,0 -1.119423,-5.691132 2.447951,-8.537109 6.016114,-8.537109 z"
       inkscape:label="umbriel" /><path
       id="path1-87"
       style="display:none;stroke-width:0.75"
       d="m 49.999512,11.660156 c -10.494596,0 -20.987998,6.528678 -22.107422,19.587891 1.007534,11.75391 9.609859,18.215303 18.971191,19.390137 1.960386,5.871923 1.943492,11.747277 -0.0498,17.61914 -4.604443,1.025353 -8.633664,4.314191 -9.546387,9.867188 2.238847,13.621111 23.227462,13.621111 25.466308,0 -0.912715,-5.552946 -4.941997,-8.841803 -9.546386,-9.867188 -1.993301,-5.871875 -2.010203,-11.747205 -0.04981,-17.61914 9.361222,-1.17493 17.963667,-7.636346 18.971191,-19.390137 C 70.988975,18.188834 60.494108,11.660156 49.999512,11.660156 Z m 0,1.678711 c 8.255749,0 16.512001,5.969391 15.392578,17.90918 2.238847,23.879578 -33.022538,23.879578 -30.783692,0 -1.119423,-11.939789 7.135365,-17.90918 15.391114,-17.90918 z m 0,56.248535 c 3.568162,0 7.137001,2.845978 6.017578,8.53711 2.238847,11.382264 -14.272538,11.382264 -12.033692,0 -1.119423,-5.691132 2.447951,-8.53711 6.016114,-8.53711 z"
       inkscape:label="oberon" /><path
       id="path1-90"
       style="display:none;stroke-width:0.75"
       d="m 12.499512,10.400391 v 6.716308 c 11.443391,-1.024841 22.887158,-1.576006 34.331543,-1.662597 2.023013,18.030154 1.979619,36.060665 -0.137696,54.09082 -4.554202,1.055518 -8.521497,4.334732 -9.426269,9.839355 2.238847,13.621112 23.227462,13.621112 25.466308,0 -0.904852,-5.505106 -4.873029,-8.784135 -9.427734,-9.839355 -2.117295,-18.030081 -2.160694,-36.060741 -0.137695,-54.09082 11.444385,0.08659 22.889616,0.637756 34.333008,1.662597 v -6.716308 c -24.999002,2.238846 -50.002463,2.238846 -75.001465,0 z m 37.5,60.446777 c 3.568162,0 7.137001,2.845977 6.017578,8.537109 2.238847,11.382264 -14.272538,11.382264 -12.033692,0 -1.119423,-5.691132 2.447951,-8.537109 6.016114,-8.537109 z"
       inkscape:label="titania" /><path
       id="path1-4"
       style="display:none;stroke-width:0.75"
       d="M 49.999512,8.6689453 C 37.703343,10.907793 27.454668,21.157955 25.21582,33.458496 h 6.716309 C 29.693281,22.084978 38.630366,13.146407 49.999512,15.385254 68.343191,13.146407 77.334224,34.848228 62.777344,46.234863 55.587433,56.174082 50.420911,69.085975 47.714355,81.41748 36.574325,74.841338 24.63571,65.116799 9.140625,50.039063 c 2.238847,16.988128 2.238847,26.988293 0,36.988769 h 6.716309 c -2.238848,-10.000476 -2.238848,-19.999871 0,-23.012695 C 24.30071,67.90251 36.802557,77.902832 49.999512,91.331543 63.20084,77.902832 75.698313,67.90251 84.14209,64.015137 c 2.238848,3.012824 2.238848,13.012219 0,23.012695 h 6.716308 c -2.238847,-10.000476 -2.238847,-20.000641 0,-36.988769 C 75.638344,64.853087 63.847558,74.491504 52.873535,81.061523 52.810078,69.388641 58.04131,57.765329 67.526367,50.983887 79.975581,35.373175 69.838671,10.907793 49.999512,8.6689453 Z"
       inkscape:label="mimas" /><path
       id="path1-71"
       style="display:none;stroke-width:0.75"
       d="m 18.319336,10.820801 c 2.238847,15.859958 2.238847,28.35635 0,44.216308 13.358746,-2.238846 23.359876,-2.238846 33.360352,0 v -6.716308 c -4.078465,0.913062 -8.153725,1.447403 -12.004395,1.615722 -0.941311,-6.945004 4.778429,-11.96713 12.004395,-9.897949 12.615378,-2.238848 18.737227,12.537528 8.233886,19.875 -5.387226,8.548723 -9.353926,19.466783 -11.592773,29.266114 h 6.716308 C 52.798263,79.773905 56.462229,69.694166 64.661133,64.661133 73.056809,53.099585 65.790546,35.561112 51.679688,33.322266 43.534386,35.407462 36.584835,41.94809 33.859863,49.901367 30.558339,49.69627 27.554449,49.169799 25.035645,48.320801 23.333031,41.367353 22.928413,32.477339 23.81543,24.594727 c 9.288003,-1.783063 18.576254,-1.638425 27.864258,0.440918 v -6.716309 c -8.985244,2.011562 -17.970813,2.211051 -26.956055,0.60791 0.100024,-0.469161 0.200973,-0.936657 0.312012,-1.390137 16.642679,-2.238847 36.644556,-2.238847 56.645507,0 v -6.716308 c -20.000951,2.238847 -40.002595,2.238847 -63.361816,0 z"
       inkscape:label="enceladus" /><path
       id="path1-13"
       style="display:none;stroke-width:0.75"
       d="m 12.499512,10.820801 v 6.716308 c 11.475127,-1.027683 22.950633,-1.578375 34.426758,-1.662597 1.944188,11.935818 1.853393,23.868997 -0.28418,35.805176 h 6.716308 c -0.167122,-0.933212 -0.317788,-1.867616 -0.45996,-2.800782 -0.255094,-6.38676 5.246026,-10.80304 12.104003,-8.840332 12.61538,-2.238848 18.732835,12.537528 8.229493,19.875 -5.382854,8.548723 -9.348068,19.466783 -11.586914,29.266114 h 6.716308 C 66.12248,79.773905 69.782054,69.694166 77.980957,64.661133 86.376634,53.099585 79.1133,35.561112 65.002441,33.322266 c -5.010267,1.281987 -9.563548,4.251948 -12.965332,8.194336 -0.70122,-8.54731 -0.356745,-17.093858 1.035645,-25.64209 11.476124,0.08422 22.953095,0.634914 34.428223,1.662597 v -6.716308 c -24.999002,2.238847 -50.002463,2.238847 -75.001465,0 z"
       inkscape:label="tethys" /><path
       id="path2-19"
       style="display:none;stroke-width:0.75"
       d="M 49.999512,10.125 C 36.710729,26.584026 24.208897,39.085857 4.3916016,55.73291 c 16.7257624,-2.238847 25.3495744,-2.238847 33.9682614,0 v -3.358887 -3.357421 c -0.156055,0.04054 -0.30981,0.06786 -0.46582,0.106933 0.0158,-6.140972 5.414293,-10.305202 12.105469,-8.38916 12.615378,-2.238848 18.737227,12.536062 8.233886,19.873535 -5.387226,8.548722 -9.352461,19.468249 -11.591308,29.267578 h 6.716308 c -2.238846,-9.405781 1.42512,-19.485521 9.624024,-24.518554 2.221891,-3.05973 3.337477,-6.538854 3.528808,-10.041504 7.031545,-1.809668 14.533618,-1.671631 29.096192,0.41748 C 75.794501,39.085857 63.292666,26.584026 49.999512,10.125 Z m 0,9.498047 c 11.710219,8.544351 24.211849,21.045978 29.393554,29.393555 0.582584,2.145917 -6.287315,2.210937 -13.461914,0.243164 -1.843816,-7.464387 -7.727023,-13.939944 -15.93164,-15.2417 -8.01761,2.052509 -14.868622,8.422838 -17.680664,16.207032 -6.217688,0.893516 -11.323091,0.497296 -11.712891,-1.208496 5.18608,-8.347577 17.687707,-20.849204 29.393555,-29.393555 z"
       inkscape:label="dione" /><path
       id="path1-72"
       style="display:none;stroke-width:0.75"
       d="m 12.499512,9.140625 v 6.716309 c 6.496812,-0.581839 12.993961,-1.008179 19.491211,-1.287598 1.881754,11.811196 1.768101,23.618548 -0.347168,35.430176 h 6.716308 C 38.19274,49.0663 38.042075,48.133362 37.899902,47.200195 37.644751,40.813435 43.145368,36.397155 49.999512,38.359863 62.61489,36.121016 68.736739,50.895926 58.233398,58.233398 53.152911,66.29537 49.356962,76.455231 47.061035,85.806152 35.539985,85.725309 24.01956,85.173796 12.499512,84.14209 v 6.716308 c 24.999002,-2.238847 50.002463,-2.238847 75.001465,0 V 84.14209 c -11.492705,1.029258 -22.987255,1.579694 -34.480957,1.662598 -1.444878,-8.899182 2.254373,-18.090565 9.962402,-22.822266 8.395676,-11.561548 1.127949,-29.10002 -12.98291,-31.338867 -5.007764,1.281988 -9.559611,4.251947 -12.960938,8.194336 -0.696857,-8.494113 -0.361498,-16.987415 1.009278,-25.482422 16.484525,-0.47048 32.969895,0.02527 49.453125,1.501465 V 9.140625 c -24.999002,2.238847 -50.002463,2.238847 -75.001465,0 z"
       inkscape:label="iapetus" /><path
       id="path1-38"
       style="display:none;stroke-width:0.75"
       d="m 56.816895,12.080566 c -7.937632,0 -15.875694,4.824931 -16.995118,14.475586 0.242512,2.090718 0.805469,3.954989 1.618653,5.592774 0.161941,1.831014 -0.033,3.662466 -0.597657,5.493164 -6.949519,2.796295 -12.637839,8.984666 -14.654296,16.187988 h 6.716308 c -2.238847,-7.070733 3.209517,-12.51912 10.275879,-10.280273 11.399754,-2.238847 16.913373,11.06695 7.26709,17.547363 -4.766295,7.932166 -8.387129,17.893601 -10.625977,26.822754 h 6.717774 C 44.300703,79.388689 47.618804,70.262667 55.196777,65.846191 61.130691,57.420309 58.266474,45.674877 50.48877,39.962402 59.942571,43.294696 72.388607,38.82746 73.812012,26.556152 72.692588,16.905497 64.754526,12.080566 56.816895,12.080566 Z m 0,1.678711 c 5.698784,0 11.398232,4.265643 10.278808,12.796875 2.238847,17.062464 -22.795,17.062464 -20.556152,0 C 45.420127,18.02492 51.11811,13.759277 56.816895,13.759277 Z M 45.364746,37.091309 c 0.201128,0.166476 0.406574,0.326009 0.615234,0.481933 -0.17741,-0.06273 -0.352784,-0.128863 -0.533203,-0.186035 -0.02859,-0.0986 -0.05554,-0.197295 -0.08203,-0.295898 z"
       inkscape:label="rhea" /><path
       id="path1-363"
       style="display:none;stroke-width:0.75"
       d="m 49.226074,12.080566 c -4.284409,0 -8.568068,2.152356 -10.297851,6.455567 C 32.360157,18.283791 25.792675,17.79478 19.224609,17.05957 v 6.716309 c 6.568061,-0.735209 13.135552,-1.22422 19.703614,-1.476563 1.454832,3.620634 4.715534,5.717466 8.264648,6.292969 0.741045,7.275249 0.303056,14.550922 -1.325683,21.826172 h 6.716308 c -0.12824,-0.572821 -0.246803,-1.145441 -0.360351,-1.718262 -0.957773,-6.957452 4.767514,-11.992954 12.005859,-9.921386 12.615379,-2.238848 18.732835,12.536062 8.229492,19.873535 -5.382854,8.548722 -9.349532,19.468248 -11.588379,29.267578 h 6.716309 C 65.347578,78.514139 69.008617,68.4344 77.20752,63.401367 85.603196,51.839821 78.339863,34.301347 64.229004,32.0625 c -5.093078,1.303176 -9.710455,4.351902 -13.129395,8.39209 -0.297184,-3.953818 -0.243064,-7.908487 0.159668,-11.862305 3.548537,-0.57583 6.808531,-2.672867 8.263184,-6.292969 6.568185,0.252338 13.136893,0.74134 19.705078,1.476563 V 17.05957 c -6.56819,0.735224 -13.136888,1.224225 -19.705078,1.476563 -1.729803,-4.303159 -6.012003,-6.455567 -10.296387,-6.455567 z m 0,1.678711 c 2.265051,0 4.527116,1.647935 4.397461,4.939453 -2.932261,0.04811 -5.864125,0.04813 -8.796387,0 -0.129655,-3.291518 2.133875,-4.939453 4.398926,-4.939453 z m -3.001465,8.356934 c 0.287695,1.449252 0.525582,2.898404 0.719239,4.347656 -1.277439,-0.750793 -2.201267,-2.192063 -2.1167,-4.328613 0.465841,-0.0076 0.931621,-0.01383 1.397461,-0.01904 z m 6.00293,0 c 0.465352,0.0052 0.930644,0.01141 1.395996,0.01904 0.08456,2.136452 -0.837886,3.577791 -2.115234,4.328613 0.193658,-1.449262 0.431541,-2.898394 0.719238,-4.347656 z"
       inkscape:label="titan" /><path
       id="path1-340"
       style="display:none;stroke-width:0.75"
       d="M 76.24295,10.125001 C 60.28071,29.030855 42.94394,46.560418 24.24453,62.72904 23.73558,45.985522 24.22533,29.241621 25.7247,12.499397 h -6.71652 c 2.23884,24.998919 2.23884,50.002286 0,75.001204 H 25.7247 C 25.24122,82.102055 24.86902,76.702847 24.59434,71.30398 l 0.14657,-0.179282 c 5.04819,-5.979125 10.23626,-11.818367 15.55821,-17.523749 9.50433,7.509842 18.2761,15.751385 26.31294,24.725648 -2.75438,2.55108 -5.79334,4.819228 -9.11934,6.799608 l 4.7488,4.748794 c 1.94359,-3.259339 4.16675,-6.239687 6.65749,-8.950996 2.52164,2.910605 4.97224,5.891259 7.34401,8.950996 l 4.7488,-4.748794 c -3.06013,-2.372074 -6.04004,-4.824219 -8.951,-7.3462 2.71142,-2.490892 5.6915,-4.711616 8.951,-6.655307 l -4.7488,-4.748794 c -1.98052,3.326241 -4.2483,6.362608 -6.79961,9.11716 C 60.42514,67.416759 52.14556,58.598378 44.60619,49.040183 56.11246,37.029155 68.24042,25.639746 80.99174,14.873795 Z"
       inkscape:label="callisto" /><path
       id="path1-11"
       style="display:none;stroke-width:0.75"
       d="m 26.211914,10.820801 c 1.630416,20.650862 2.068467,39.519618 1.324219,57.906738 -5.571565,-0.108293 -11.142805,-0.65879 -16.715332,-1.656738 v 6.716308 c 5.52174,-0.988853 11.0422,-1.538468 16.562988,-1.653808 -0.277432,5.707632 -0.664251,11.378246 -1.171875,17.046387 h 6.716309 c -0.510106,-5.695847 -0.897147,-11.389911 -1.174805,-17.046387 5.522252,0.115139 11.044178,0.664693 16.567383,1.653808 v -6.716308 c -5.574481,0.998298 -11.147675,1.548719 -16.721192,1.656738 -0.736174,-17.976625 -0.297573,-35.471684 1.328614,-51.19043 15.392074,-2.238847 34.143082,-2.238847 49.535156,0 2.238848,2.890386 2.238848,9.142457 0,15.391114 h 6.716309 c -2.238848,-6.248657 -2.238848,-12.500495 0,-22.107422 -22.108616,2.238847 -40.859158,2.238847 -62.967774,0 z"
       inkscape:label="ganymede" /><path
       id="path1-62"
       style="display:none;stroke-width:0.75"
       d="m 20.195801,10.820801 c 2.238848,22.108615 2.238848,40.857692 0,62.966308 14.134149,-1.431306 26.893156,-1.942721 39.159668,-1.543945 -0.0978,5.645293 -0.648514,11.290252 -1.659668,16.936524 h 6.716308 c -1.003195,-5.601831 -1.552578,-11.202362 -1.656738,-16.803223 5.743956,0.268011 11.397339,0.735781 17.049317,1.410644 v -6.716308 c -5.715359,0.68243 -11.429067,1.154496 -17.049317,1.420898 0.103744,-5.60379 0.653018,-11.207252 1.656738,-16.812011 h -6.716308 c 1.011854,5.650177 1.562435,11.299044 1.659668,16.948242 C 47.763141,69.006575 36.662794,68.489082 26.912109,67.070801 25.5116,57.442304 24.987202,46.499858 25.338867,35.887207 34.118786,34.05676 42.899769,34.190413 51.679688,36.287109 v -6.716308 c -8.683749,2.073731 -17.368498,2.221955 -26.052247,0.454101 0.279545,-4.308873 0.706281,-8.511379 1.284668,-12.487793 15.392074,-2.238847 34.142233,-2.238847 52.892579,0 v -6.716308 c -18.750346,2.238847 -37.500271,2.238847 -59.608887,0 z"
       inkscape:label="europa" /><path
       id="path1-8"
       style="display:none;stroke-width:0.75"
       d="m 40.624512,9.140625 v 6.716309 c 2.057643,-0.737239 4.116037,-1.229255 6.174316,-1.480957 1.493593,17.556097 1.88365,35.114221 1.168945,52.671386 -5.57254,-0.108156 -11.144757,-0.65715 -16.718261,-1.655273 v 6.716308 c 5.522229,-0.98894 11.043177,-1.538535 16.564453,-1.653808 -0.246994,5.056749 -0.584955,10.11344 -1.015137,15.169922 -2.058307,-0.2517 -4.116646,-0.745174 -6.174316,-1.482422 v 6.716308 c 6.248656,-2.238847 12.501342,-2.238847 18.75,0 V 84.14209 c -2.058152,0.73742 -4.115529,1.230777 -6.174317,1.482422 -0.430179,-5.056457 -0.768144,-10.113198 -1.015136,-15.169922 5.521275,0.115273 11.043689,0.664868 16.565918,1.653808 V 65.39209 c -5.573017,0.998035 -11.14621,1.547048 -16.718262,1.655273 -0.714706,-17.557153 -0.326108,-35.115302 1.16748,-52.671386 2.058761,0.251647 4.116192,0.743546 6.174317,1.480957 V 9.140625 c -6.248658,2.238847 -12.501344,2.238847 -18.75,0 z"
       inkscape:label="io" /><path
       d="M 69.72986,17.522336 C 51.447381,4.3822141 21.314742,21.777024 23.553591,49.998771 21.314742,78.220516 51.447381,95.6197 69.72986,82.475206 64.023417,76.598226 56.57662,63.698605 54.337771,49.998771 56.57662,36.303309 64.023417,23.403688 69.72986,17.522336 H 83.162957 C 65.6632,25.043471 58.815469,36.902376 61.054319,49.998771 58.815469,63.099538 65.6632,74.958443 83.162957,82.475206 51.447381,98.203997 19.075893,79.514851 16.837043,49.998771 19.075893,20.487063 51.447381,1.797917 83.162957,17.522336"
       stroke="none"
       fill-rule="nonzero"
       fill="#000000"
       fill-opacity="1"
       id="path1-915"
       style="display:none;stroke-width:0.75"
       inkscape:label="moon" /><path
       id="path1-17"
       style="display:none;stroke-width:0.75"
       d="m 48.005859,10.400391 c -13.852866,2.238846 -20.131896,20.382366 -10.538086,30.780761 4.920962,2.331604 9.43305,5.181057 13.543946,8.541504 -11.196969,0.124025 -22.1308,8.138507 -23.689453,20.288086 2.238847,26.118426 41.978926,26.118426 44.217773,0 C 69.301192,64.815917 67.15414,59.633973 65.063965,54.37793 64.957677,54.29581 64.847402,54.224848 64.740234,54.14502 l 0.02637,-0.03369 c -0.07975,-0.03775 -0.157768,-0.0777 -0.237305,-0.115723 -1.712178,-1.24527 -3.528813,-2.20651 -5.408205,-2.895998 C 52.433869,47.120017 46.598375,42.055196 41.617676,35.898926 30.510895,30.008835 35.748735,14.879317 48.237305,17.118164 c 6.825817,-2.471484 13.039897,0.664818 14.922363,7.03125 -1.914428,0.227159 -4.505813,-0.314361 -7.098633,-1.627441 v 6.716308 c 4.420848,-2.238848 8.840976,-2.238848 16.615723,0 -2.238848,-7.774747 -2.238848,-12.194875 0,-16.615722 h -6.716309 c 1.646861,3.251906 2.081125,6.501996 1.305176,8.415527 -5.15996,-5.376227 -12.085366,-9.228041 -19.259766,-10.637695 z m 0.301758,42.27539 c 4.263042,0.04787 8.673377,2.028957 12.007324,6.451172 0.03968,0.01425 0.07499,0.03229 0.114258,0.04687 0.06036,0.07404 0.122991,0.145372 0.183106,0.219727 l 0.08642,-0.109864 c 4.642933,1.861488 6.303504,6.106239 4.125,10.727051 2.238847,23.879579 -33.022539,23.879579 -30.783691,0 C 32.57079,59.539508 40.169078,52.584394 48.307612,52.675776 Z"
       inkscape:label="deimos" /><path
       id="path1-9"
       style="display:none;stroke-width:0.75"
       d="M 50,10.125001 C 46.0864,17.20883 42.9599,20.335346 38.25045,21.874548 l 4.7488,4.748794 c 0.94689,-2.886302 2.49063,-5.176075 4.07976,-6.325166 0.32137,4.194038 0.58049,8.388354 0.77616,12.582555 -9.73781,0.83027 -18.9207,7.325569 -19.96373,19.493666 1.04342,12.172636 10.2328,18.669503 19.97466,19.495853 -0.27872,6.00161 -0.68691,12.003511 -1.22436,18.004749 h 6.71652 C 52.82082,83.873949 52.41274,77.871683 52.1339,71.87025 61.87589,71.044034 71.06513,64.547188 72.10856,52.374397 71.06552,40.206134 61.88279,33.710858 52.14483,32.880731 c 0.19567,-4.195766 0.45465,-8.391329 0.77616,-12.586927 1.59149,1.147909 3.13457,3.440246 4.07976,6.329538 l 4.7488,-4.748794 C 57.04449,20.335346 53.91797,17.20883 50,10.125001 Z m -2.06612,24.469843 c 0.50459,11.853828 0.5041,23.707467 10e-4,35.561294 C 40.42939,69.241417 33.58093,63.31598 34.60677,52.374397 33.58104,41.433864 40.42804,35.510438 47.93269,34.594844 Z m 4.13224,0 c 7.50521,0.915003 14.35173,6.838311 13.32592,17.779553 1.0259,10.942289 -5.82204,16.867608 -13.32811,17.781741 -0.50216,-11.853979 -0.50219,-23.707316 10e-4,-35.561294 z"
       inkscape:label="phobos" /></g><g
     inkscape:groupmode="layer"
     id="layer4"
     inkscape:label="dwarf planets"><path
       id="path1-91"
       style="display:none;stroke-width:0.75"
       d="m 31.249512,10.820801 c -26.1184258,2.238847 -26.1184258,41.977462 0,44.216308 v -6.716308 c -23.8795786,2.238847 -23.8795786,-33.022539 0,-30.783692 5.179899,-0.927635 10.358578,-1.465581 15.537597,-1.624511 2.085923,24.421099 2.042055,48.846182 -0.145019,73.26709 h 6.716308 c -2.187071,-24.420882 -2.2324,-48.846016 -0.146484,-73.26709 5.179019,0.15893 10.359164,0.696876 15.539063,1.624511 23.879578,-2.238847 23.879578,33.022539 0,30.783692 v 6.716308 c 26.118424,-2.238846 26.118424,-41.977461 0,-44.216308 -12.501689,2.238847 -24.999777,2.238847 -37.501465,0 z m 0,11.891601 c -5.80701,0 -11.614463,3.405265 -12.733887,10.215821 2.238848,13.621111 23.228927,13.621111 25.467773,0 C 42.863975,26.117667 37.056522,22.712402 31.249512,22.712402 Z m 37.501465,0 c -5.80701,0 -11.614464,3.405265 -12.733887,10.215821 2.238847,13.621111 23.227461,13.621111 25.466308,0 C 80.363975,26.117667 74.557986,22.712402 68.750977,22.712402 Z m -37.501465,1.680176 c 3.568162,0 7.137001,2.844513 6.017578,8.535645 2.238847,11.382264 -14.272538,11.382264 -12.033692,0 -1.119423,-5.691132 2.447951,-8.535645 6.016114,-8.535645 z m 37.501465,0 c 3.568162,0 7.135537,2.844513 6.016113,8.535645 2.238848,11.382264 -14.272538,11.382264 -12.033692,0 -1.119423,-5.691132 2.449416,-8.535645 6.017579,-8.535645 z"
       inkscape:label="makemake" /><path
       id="path1-35"
       style="display:none;stroke-width:0.75"
       d="m 49.999512,10.400391 c -5.80701,0 -11.612999,3.405264 -12.732422,10.21582 2.238847,13.621111 23.227462,13.621111 25.466308,0 -1.119423,-6.810556 -6.926876,-10.21582 -12.733886,-10.21582 z m 0,1.678711 c 3.568162,0 7.137001,2.845977 6.017578,8.537109 2.238847,11.382265 -14.272538,11.382265 -12.033692,0 -1.119423,-5.691132 2.447951,-8.537109 6.016114,-8.537109 z m -37.5,23.928222 v 6.716309 c 5.186793,-0.464516 10.373943,-0.825408 15.561035,-1.097168 1.590674,24.578596 -6.246607,43.429984 -15.561035,41.257324 v 6.716309 c 10.833797,-2.182103 19.42145,-23.033546 21.922851,-48.259278 10.384626,-0.386294 20.769671,-0.386258 31.154297,0 2.501606,25.225743 11.094776,46.077175 21.924317,48.259278 V 82.883789 C 78.186366,85.056492 70.347402,66.204301 71.938477,41.625 c 5.187603,0.271768 10.375195,0.634071 15.5625,1.098633 v -6.716309 c -24.999002,2.238847 -50.002463,2.238847 -75.001465,0 z m 37.5,11.893067 c -5.80701,0 -11.612999,3.405264 -12.732422,10.21582 2.238847,13.621111 23.227462,13.621111 25.466308,0 -1.119423,-6.810556 -6.926876,-10.21582 -12.733886,-10.21582 z m 0,1.678711 c 3.568162,0 7.137001,2.845977 6.017578,8.537109 2.238847,11.382264 -14.272538,11.382264 -12.033692,0 -1.119423,-5.691132 2.447951,-8.537109 6.016114,-8.537109 z"
       inkscape:label="haumea" /><path
       id="path1-37"
       style="display:none;stroke-width:0.75"
       d="m 46.64209,12.499512 c 0.713763,7.969897 1.197399,15.940142 1.456055,23.910644 C 43.987037,26.815064 35.248929,19.290954 21.874512,18.515625 v 6.717773 c 14.886975,-0.916121 23.678166,7.586259 26.381836,17.799317 0.07727,4.644496 0.07726,9.289097 0,13.933594 -2.70359,10.213173 -11.494735,18.71691 -26.381836,17.800781 v 6.716308 C 35.248929,80.70807 43.987037,73.185424 48.098145,63.590332 47.839489,71.560834 47.355853,79.53108 46.64209,87.500977 h 6.716308 C 52.644766,79.532545 52.161035,71.563764 51.902344,63.594727 56.014212,73.18779 64.753533,80.708184 78.125977,81.483398 V 74.76709 c -14.885599,0.916037 -23.67729,-7.586055 -26.381836,-17.797852 -0.07733,-4.646457 -0.07733,-9.292996 0,-13.939453 2.704625,-10.211683 11.496361,-18.712416 26.381836,-17.796387 v -6.717773 c -13.372444,0.775214 -22.111765,8.297073 -26.223633,17.890137 0.258691,-7.969038 0.742422,-15.937818 1.456054,-23.90625 z"
       inkscape:label="eris" /><path
       id="path1-0"
       style="display:none;stroke-width:0.75"
       d="m 47.160645,11.734863 c -5.022437,-0.143881 -10.121772,1.295188 -14.472657,4.656739 l 4.749024,4.747558 C 47.14014,8.2745347 65.952226,16.066789 63.713379,32.022949 65.952226,41.914105 58.211341,49.654374 44.961914,47.415527 46.010439,54.84326 46.562498,61.528154 46.628906,67.82666 40.94309,67.73476 35.257604,67.183941 29.570801,66.165527 v 6.717774 c 5.683873,-1.017889 11.366429,-1.568807 17.049316,-1.661133 -0.106642,5.88261 -0.658151,11.467973 -1.658203,17.052246 h 6.717774 c -1.03835,-5.798127 -1.590326,-11.590149 -1.665528,-17.052246 5.685328,0.09197 11.370326,0.642807 17.056641,1.661133 v -6.717774 c -5.682409,1.017627 -11.3635,1.568593 -17.044922,1.661133 0.120087,-5.021924 0.671191,-9.68183 1.653809,-13.694824 7.459908,-2.238848 16.511152,-11.290708 18.75,-22.108887 C 68.89048,20.024948 58.210005,12.051402 47.160645,11.734863 Z"
       inkscape:label="ceres" /><path
       id="path1-1"
       style="display:none;stroke-width:0.75"
       d="m 49.999512,12.079102 c -5.80701,0 -11.612999,3.405264 -12.732422,10.21582 2.238847,13.621111 23.227462,13.621111 25.466308,0 -1.119423,-6.810556 -6.926876,-10.21582 -12.733886,-10.21582 z m -31.483887,0.84082 c 1.039029,17.923247 14.194245,27.521871 28.21875,28.809082 0.758885,5.455175 1.244505,10.910861 1.45752,16.366699 -5.647244,-0.09752 -11.29416,-0.646699 -16.942383,-1.658203 v 6.716309 c 5.68192,-1.017539 11.362522,-1.567057 17.043457,-1.659668 0.160924,8.809145 -0.388729,17.619313 -1.650879,26.427246 h 6.716308 c -1.262149,-8.807933 -1.811802,-17.6181 -1.650878,-26.427246 5.680446,0.09268 11.362025,0.642217 17.043457,1.659668 V 56.4375 C 63.102753,57.449004 57.454373,57.998188 51.807129,58.095703 52.020143,52.639846 52.507224,47.184198 53.266113,41.729004 67.290074,40.441263 80.444405,30.842551 81.483398,12.919922 H 74.76709 c 2.238848,36.381265 -51.772538,36.381265 -49.533692,0 z m 31.483887,0.837891 c 3.568162,-1e-6 7.137001,2.845977 6.017578,8.537109 2.238847,11.382264 -14.272538,11.382264 -12.033692,0 -1.119423,-5.691132 2.447951,-8.537109 6.016114,-8.537109 z"
       inkscape:label="pluto" /></g><g
     inkscape:label="planets"
     inkscape:groupmode="layer"
     id="layer1"><path
       id="path1-36"
       style="display:none;stroke-width:0.75"
       d="m 18.515625,12.499512 c 1.075859,18.558565 15.142024,28.19377 29.712891,28.916015 0.111109,5.420329 0.115473,10.840897 0.01611,16.261231 -5.664824,-0.09497 -11.32931,-0.645015 -16.995117,-1.659668 v 6.716308 c 5.64041,-1.010104 11.279512,-1.55956 16.918945,-1.658203 -0.232955,8.808949 -0.737523,17.617536 -1.526367,26.425782 h 6.716308 c -0.78884,-8.808237 -1.293408,-17.616842 -1.526364,-26.425782 5.638945,0.09871 11.279023,0.648186 16.918946,1.658203 V 56.01709 C 63.085658,57.031655 57.420195,57.581722 51.755859,57.676758 51.656499,52.25642 51.659399,46.83586 51.770508,41.415527 66.341767,40.693714 80.407512,31.058546 81.483398,12.499512 H 74.76709 C 75.834316,29.84193 64.119241,38.910575 51.808594,39.719238 52.031345,30.645619 52.545854,21.572397 53.358398,12.499512 H 46.64209 c 0.812544,9.072882 1.325588,18.14611 1.54834,27.219726 C 35.880045,38.910269 24.166194,29.841592 25.233398,12.499512 Z"
       inkscape:label="neptune" /><path
       id="path1-3"
       style="display:none;stroke-width:0.75"
       d="m 27.89209,12.079102 c 2.238848,12.501687 2.238848,24.998312 0,37.5 h 6.716308 c -0.936291,-5.22824 -1.475734,-10.455268 -1.628906,-15.682618 4.957022,-0.805834 9.913311,-1.261955 14.869629,-1.363769 0.889779,11.776652 0.509699,23.55504 -1.144043,35.330566 -4.559111,1.052607 -8.53244,4.332945 -9.437988,9.842285 2.238847,13.621112 23.227462,13.621112 25.466308,0 C 61.827861,72.19629 57.854455,68.915927 53.29541,67.863281 51.641665,56.087744 51.260123,44.309377 52.149902,32.532715 c 4.956749,0.101823 9.913642,0.559269 14.871094,1.365234 -0.15323,5.226873 -0.6927,10.45339 -1.628906,15.681153 h 6.716308 c -2.238847,-12.501688 -2.238847,-24.998313 0,-37.5 H 65.39209 c 0.936294,5.22825 1.475735,10.455256 1.628906,15.682617 -4.859246,0.789992 -9.7181,1.245905 -14.57666,1.359375 0.246402,-2.55569 0.547868,-5.111498 0.914062,-7.666992 H 46.64209 c 0.366194,2.555494 0.666195,5.111302 0.912598,7.666992 -4.85821,-0.113462 -9.7163,-0.569489 -14.575196,-1.359375 0.153172,-5.22735 0.692615,-10.454378 1.628906,-15.682617 z m 22.107422,57.089355 c 3.568162,0 7.137001,2.845977 6.017578,8.537109 2.238847,11.382264 -14.272538,11.382264 -12.033692,0 -1.119423,-5.691132 2.447951,-8.537109 6.016114,-8.537109 z"
       inkscape:label="uranus" /><path
       id="path1-6"
       style="display:none;stroke-width:0.75"
       d="m 38.365723,12.499512 c 0.793917,4.433225 1.301371,8.865336 1.532226,13.297851 -4.39129,-0.11972 -8.782476,-0.670706 -13.171875,-1.653808 v 6.716308 c 4.430892,-0.992395 8.863582,-1.54266 13.296387,-1.655273 0.135403,6.93138 -0.415228,13.862344 -1.656738,20.794922 h 6.716308 c -0.168261,-0.939568 -0.318456,-1.878838 -0.461426,-2.81836 -0.243577,-6.376591 5.255142,-10.782065 12.10254,-8.821289 12.615379,-2.238847 18.737229,12.536063 8.233886,19.873535 -5.382853,8.548722 -9.353925,19.468249 -11.592773,29.267579 h 6.716308 c -2.238847,-9.405782 1.426585,-19.485522 9.625489,-24.518555 8.395676,-11.561548 1.13232,-29.10002 -12.98291,-31.338867 -5.008126,1.28208 -9.559533,4.252986 -12.960938,8.1958 -0.290876,-3.54492 -0.404696,-7.089968 -0.335449,-10.634765 4.432805,0.112613 8.865494,0.662878 13.296387,1.655273 v -6.716308 c -4.389399,0.983102 -8.780585,1.534088 -13.171875,1.653808 0.230855,-4.432506 0.736845,-8.864635 1.530761,-13.297851 z"
       inkscape:label="saturn" /><path
       id="path1-7"
       style="display:none;stroke-width:0.75"
       d="m 24.392578,11.044922 -3.357422,5.816894 c 22.213562,10.240976 22.213562,40.197967 0,50.434571 l 1.678711,6.266601 c 11.933317,-1.424873 23.867465,-1.940065 35.800781,-1.551269 -0.09752,5.647244 -0.646698,11.29416 -1.658203,16.942383 h 6.716309 c -1.003371,-5.602807 -1.552717,-11.204315 -1.656738,-16.806153 5.683205,0.267231 11.366111,0.736448 17.049316,1.415039 V 66.84668 c -5.683209,0.678592 -11.366108,1.147808 -17.049316,1.415039 0.103952,-5.602326 0.653279,-11.204322 1.656738,-16.807617 h -6.716309 c 1.011505,5.648222 1.560688,11.295138 1.658203,16.942382 -9.318023,0.303589 -18.637055,0.0537 -27.955078,-0.748535 C 45.217881,51.412871 43.172125,24.18749 24.392578,11.044922 Z"
       inkscape:label="jupiter" /><path
       id="path1-50"
       style="display:none;stroke-width:0.75"
       d="m 74.24254,10.400369 v 6.716548 c 2.95473,-1.496358 5.90707,-1.990592 7.85783,-1.486736 C 76.67984,22.79833 70.26561,28.971483 62.84714,34.142229 43.87052,20.770197 10.76294,28.971165 9.141,58.758639 c 2.23885,41.121323 64.4806,41.121323 66.71945,0 -0.47815,-8.781483 -3.70017,-15.68104 -8.48313,-20.711542 5.1207,-7.261145 11.2045,-13.558261 18.25186,-18.890291 0.50528,1.951721 0.0105,4.906558 -1.48673,7.860022 H 90.859 c -2.23885,-4.416476 -2.23885,-8.837339 0,-16.616459 -7.77475,2.238847 -12.19561,2.238847 -16.61646,0 z m -31.74182,19.19857 c 13.8813,0 27.76261,9.720648 26.64319,29.1597 2.23885,38.882477 -55.52521,38.882477 -53.28636,0 -1.11943,-19.439052 12.76189,-29.1597 26.64317,-29.1597 z"
       inkscape:label="mars" /><path
       id="path1-2"
       style="display:none;stroke-width:0.75"
       d="m 49.999268,12.080322 c -10.494596,0 -20.987998,6.528678 -22.107422,19.587891 1.003326,11.704811 9.53821,18.16009 18.854004,19.374023 0.948331,5.477255 1.466847,10.953321 1.555664,16.429688 -5.683865,-0.09218 -11.367395,-0.643069 -17.052246,-1.661133 V 72.5271 c 5.68485,-1.018063 11.368382,-1.567486 17.052246,-1.659668 -0.09218,5.683863 -0.641605,11.367396 -1.659668,17.052246 h 6.716308 c -1.018063,-5.68485 -1.567485,-11.368383 -1.659668,-17.052246 5.683376,0.09225 11.367885,0.641692 17.052247,1.659668 v -6.716309 c -5.684364,1.017977 -11.36887,1.568879 -17.052247,1.661133 0.08882,-5.476388 0.607327,-10.952412 1.555665,-16.429688 C 62.569766,49.828151 71.104845,43.372832 72.108154,31.668213 70.988731,18.609 60.493864,12.080322 49.999268,12.080322 Z m 0,1.678711 c 8.255749,0 16.512001,5.969391 15.392578,17.90918 2.238847,23.879578 -33.022538,23.879578 -30.783692,0 -1.119423,-11.939789 7.135365,-17.90918 15.391114,-17.90918 z"
       inkscape:label="venus" /><path
       id="path1"
       style="display:none;stroke-width:0.75"
       d="m 68.358886,12.499268 c -0.862296,8.134552 -6.176207,13.132989 -12.51123,15.001465 6.334845,1.868569 11.648953,6.86562 12.51123,15 -0.97866,9.23228 -7.690858,14.429404 -15.123047,15.590332 -0.911027,4.236522 -1.424786,8.472461 -1.532226,12.708984 C 56.135956,70.68735 60.567658,70.135597 65,69.14331 v 6.716308 c -4.432342,-0.992285 -8.864044,-1.542575 -13.296386,-1.655272 0.112782,4.431854 0.66456,8.864532 1.656737,13.296386 h -6.71631 c 0.992177,-4.431854 1.542493,-8.864532 1.655274,-13.296386 -4.433318,0.112528 -8.867463,0.662768 -13.30078,1.655272 V 69.14331 c 4.433318,0.992505 8.867463,1.544209 13.300781,1.656739 C 48.191877,66.563558 47.679568,62.327557 46.768554,58.091066 39.334096,56.931906 32.620024,51.735375 31.641114,42.500733 32.503352,34.366727 37.816417,29.369505 44.150877,27.500734 37.81624,25.632055 32.50337,20.633446 31.641114,12.499268 h 6.716307 C 37.237999,21.940031 43.619067,26.659912 50,26.659912 c 6.380932,0 12.762002,-4.719881 11.642578,-14.160644 z M 50,28.338623 c -6.380933,0 -12.762001,4.721346 -11.642579,14.16211 -2.238847,18.881528 25.524004,18.881528 23.285157,0 C 62.762002,33.059969 56.380932,28.338623 50,28.338623 Z"
       inkscape:label="mercury" /></g></svg>
