<?xml version="1.0" encoding="UTF-8" standalone="no"?>
<!-- Created with Inkscape (http://www.inkscape.org/) -->

<svg
   width="100pt"
   height="45pt"
   viewBox="0 0 100 45"
   version="1.1"
   id="svg1"
   xmlns="http://www.w3.org/2000/svg"
   xmlns:svg="http://www.w3.org/2000/svg">
  <defs
     id="defs1" />
  <g
     id="layer1">
    <path
       id="path4"
       style="color:#000000;display:inline;fill:#ff0000;fill-opacity:1;stroke-linecap:round;stroke-linejoin:round;-inkscape-stroke:none;paint-order:fill markers stroke"
       d="m 2.4521484,10.516113 a 1.6910397,1.6910397 0 0 0 -1.4516601,1.582032 v 16.154296 a 6.0071659,6.0071659 0 0 0 3.0102539,5.283692 c 0.8922529,0.49818 1.7147395,0.92767 2.5063476,1.318359 A 4.9285363,4.9285363 0 0 0 12.171387,33.84375 l 9.054199,-9.054199 A 2.179765,2.179765 0 0 0 20.380371,21.208008 C 15.310866,19.372212 8.5897344,16.219607 4.0048828,11.128418 A 1.6910397,1.6910397 0 0 0 2.4521484,10.516113 Z m 95.0947266,0 a 1.6911056,1.6911056 0 0 0 -1.55127,0.612305 c -4.592092,5.099081 -11.324218,8.25201 -16.375488,10.081055 a 2.179651,2.179651 0 0 0 -0.845215,3.580078 l 9.0542,9.054199 a 4.9298663,4.9298663 0 0 0 5.652832,1.009277 c 0.830399,-0.409212 1.650422,-0.83711 2.507812,-1.315429 A 6.0060753,6.0060753 0 0 0 99,28.252441 V 12.098145 A 1.6911056,1.6911056 0 0 0 97.546875,10.516113 Z M 26.929688,23.342285 a 6.2121721,6.2121721 0 0 0 -4.606934,1.765137 l -9.166992,9.166992 a 2.2822899,2.2822899 0 0 0 0.779297,3.763184 c 5.817418,2.157483 12.052677,3.720918 18.624023,4.703613 a 3.9491895,3.9491895 0 0 0 4.374023,-2.919434 L 39.84668,28.951172 a 3.0305496,3.0305496 0 0 0 -2.573731,-3.766113 c -3.158826,-0.40929 -6.198804,-0.967801 -9.09082,-1.661133 a 6.2121721,6.2121721 0 0 0 -1.252441,-0.181641 z m 46.141113,0 a 6.2122359,6.2122359 0 0 0 -1.252442,0.181641 c -2.892003,0.693304 -5.932073,1.25183 -9.09082,1.661133 a 3.0305717,3.0305717 0 0 0 -2.57373,3.766113 l 2.913574,10.870605 a 3.9491648,3.9491648 0 0 0 4.374023,2.919434 c 6.571335,-0.982723 12.806635,-2.546109 18.624024,-4.703613 a 2.2823115,2.2823115 0 0 0 0.779297,-3.763184 l -9.166993,-9.166992 a 6.2122359,6.2122359 0 0 0 -4.606933,-1.765137 z m -27.814453,2.544434 a 4.3143353,4.3143353 0 0 0 -4.397461,3.155273 l -2.919434,10.891113 a 2.9327514,2.9327514 0 0 0 2.57959,3.703125 c 6.084885,0.470527 12.521611,0.498609 18.962402,0 a 2.9329809,2.9329809 0 0 0 2.57959,-3.703125 L 59.141602,29.041992 a 4.314332,4.314332 0 0 0 -4.397461,-3.155273 c -3.174423,0.150101 -6.332102,0.149218 -9.487793,0 z" />
  </g>
</svg>
