<?xml version="1.0" encoding="UTF-8" standalone="no"?>
<!-- Created with Inkscape (http://www.inkscape.org/) -->

<svg
   width="12pt"
   height="57.5pt"
   viewBox="0 0 12 57.5"
   version="1.1"
   id="svg1"
   xml:space="preserve"
   xmlns="http://www.w3.org/2000/svg"
   xmlns:svg="http://www.w3.org/2000/svg"><defs
     id="defs1" /><path
     id="rect7-0"
     style="display:inline;fill:#000000;fill-opacity:1;stroke-width:0;stroke-linecap:round;stroke-linejoin:round;paint-order:stroke fill markers"
     d="M 2.75,0 C 1.23111,0 0,1.23111 0,2.75 V 26.25 c 0,1.076111 0.62818894,2 1.6069336,2.5 C 0.6286707,29.197564 0,30.173931 0,31.25 V 54.75 c 0,1.518402 1.2311099,2.75 2.75,2.75 H 9.25 C 10.76889,57.5 12,56.268402 12,54.75 V 31.25 C 12,30.173931 11.371329,29.197564 10.393066,28.75 11.371811,28.303191 12,27.326111 12,26.25 V 2.75 C 12,1.23111 10.76889,0 9.25,0 Z M 5.5,5.5 H 6.5 V 26 H 5.5 Z m 0,26 H 6.5 V 52 H 5.5 Z" /></svg>
