<?xml version="1.0" encoding="UTF-8" standalone="no"?>
<!-- Created with Inkscape (http://www.inkscape.org/) -->

<svg
   width="12.5pt"
   height="51.5pt"
   viewBox="0 0 12.5 51.5"
   version="1.1"
   id="svg1"
   xml:space="preserve"
   xmlns="http://www.w3.org/2000/svg"
   xmlns:svg="http://www.w3.org/2000/svg"><defs
     id="defs1" /><path
     id="rect7-0"
     style="display:inline;fill:#000000;fill-opacity:1;stroke-width:0;stroke-linecap:round;stroke-linejoin:round;paint-order:stroke fill markers"
     d="M 2.75,0 C 1.23111,0 0,1.23111 0,2.75 v 20.5 c 0,1.076111 0.628189,2 1.6069336,2.5 C 0.6286707,26.197564 0,27.173931 0,28.25 v 20.5 c 0,1.518402 1.2311099,2.75 2.75,2.75 h 7 c 1.51889,0 2.75,-1.231598 2.75,-2.75 v -20.5 c 0,-1.076069 -0.628671,-2.052436 -1.606934,-2.5 C 11.871811,25.303191 12.5,24.326111 12.5,23.25 V 2.75 C 12.5,1.23111 11.26889,0 9.75,0 Z M 5.5,5.5 H 7 V 23 H 5.5 Z m 0,23 H 7 V 46 H 5.5 Z" /></svg>
